<svg xmlns="http://www.w3.org/2000/svg" viewBox="0 0 151 91" xmlns:v="https://vecta.io/nano"><path fill="#f7f8f9" stroke="#d2d2d2" stroke-miterlimit="10" d="M.5.5h150v90H.5z"/><g fill="#bdc5cb"><path d="M47.3 24h60v2h-60zm0-3h60v2h-60zm0-9h30v3h-30zm0 4h18v2h-18zm0 11h10v2h-10z"/><circle cx="33.3" cy="20.9" r="10.1"/><path d="M47.3 49h60v2h-60zm0-3h60v2h-60zm0-9h30v3h-30zm0 4h18v2h-18zm0 11h10v2h-10z"/><circle cx="33.3" cy="45.9" r="10.1"/><path d="M47.3 74h60v2h-60zm0-3h60v2h-60zm0-9h30v3h-30zm0 4h18v2h-18zm0 11h10v2h-10z"/><circle cx="33.3" cy="70.9" r="10.1"/></g></svg>