<svg xmlns="http://www.w3.org/2000/svg" viewBox="0 0 151 91" xmlns:v="https://vecta.io/nano"><path fill="#f7f8f9" stroke="#d2d2d2" stroke-miterlimit="10" d="M.5.5h150v90H.5z"/><g fill="#bdc5cb"><path d="M11 45.5l3.2-3.2c.1-.1.1-.2.1-.3s0-.2-.1-.3l-.2-.4c-.1-.1-.2-.1-.3-.1s-.2 0-.3.1l-3.9 3.9c-.1.1-.1.2-.1.3s0 .2.1.3l3.9 3.9c.1.1.2.1.3.1s.2 0 .3-.1l.3-.3c.2-.2.2-.5 0-.7L11 45.5zm129 0l-3.2 3.2c-.1.1-.1.2-.1.3s0 .2.1.3l.3.3c.1.1.2.1.3.1s.2 0 .3-.1l3.9-3.9c.1-.1.1-.2.1-.3s0-.2-.1-.3l-3.9-3.9c-.1-.1-.2-.1-.3-.1s-.2 0-.3.1l-.3.3c-.2.2-.2.5 0 .7l3.2 3.3zM25.5 58.6h100v3h-100zm0-5h100v3h-100zm35-8.8h30v3.5h-30zm-5 19.8h40v3h-40z"/><circle cx="75.6" cy="32.9" r="9"/></g></svg>