<svg xmlns="http://www.w3.org/2000/svg" xmlns:xlink="http://www.w3.org/1999/xlink" width="101.329" height="161.334" viewBox="0 0 101.329 161.334">
  <defs>
    <clipPath id="clip-path">
      <rect id="Rectangle_27" data-name="Rectangle 27" width="101.329" height="161.334" fill="#282828"/>
    </clipPath>
  </defs>
  <g id="Group_26" data-name="Group 26" transform="translate(-589.336 -2182.817)">
    <path id="Path_29" data-name="Path 29" d="M51,0c53.333-1.667,37.333,32.833,37.333,61s24,64-37.333,62.667-50.667-41.333-37.333-72S-2.333,1.667,51,0Z" transform="translate(591.829 2201.662)" fill="#ffece5"/>
    <g id="Group_17" data-name="Group 17" transform="translate(589.336 2182.817)">
      <g id="Group_16" data-name="Group 16" clip-path="url(#clip-path)">
        <path id="Path_31" data-name="Path 31" d="M52.446.757c-4.439.966-6.391,3.885-7.129,8.786-.153,1.021-.153,2.064-.4,3.078a5.958,5.958,0,0,0,.4,4.529,4.557,4.557,0,0,1,.422,3.1,8.572,8.572,0,0,0,.125,3.082,12.833,12.833,0,0,0,5.014,7.8,29.6,29.6,0,0,0,8.11,4.229A59.279,59.279,0,0,1,75.7,44.676,42.449,42.449,0,0,1,86.4,56.789a27.1,27.1,0,0,1,3.435,14.945,47.379,47.379,0,0,0,.021,6.916,10.7,10.7,0,0,1,.132,1.857c-.18,2.457-.2,4.922-.413,7.377-.246,2.762-.457,5.527-.769,8.284a90.68,90.68,0,0,1-2.8,14.1A35.316,35.316,0,0,1,73.479,129.13c-4.294,3.354-8.666,6.607-12.669,10.321a8.3,8.3,0,0,1-4.045,2.049c-2.133.441-4.291.721-6.44,1.047a20.477,20.477,0,0,1-5.965.14,19.949,19.949,0,0,1-10-4.349c-2.151-1.761-4.075-3.773-6.138-5.635-1.485-1.339-2.836-2.82-4.379-4.094-1.684-1.389-3.277-2.875-4.871-4.365A26.069,26.069,0,0,1,11.391,111C9.826,104.514,8.5,97.97,7.062,91.452a32.056,32.056,0,0,1-.592-8.819c.118-2.025.126-4.049.049-6.071C6.4,73.375,6.077,70.2,6.045,67a38.311,38.311,0,0,1,.629-7.658,47.018,47.018,0,0,1,2.38-7.868,85.1,85.1,0,0,1,6.881-14.43,3,3,0,0,1,1.439-1.225,42.552,42.552,0,0,1,8.507-2.464c2.039-.418,4.128-.426,6.177-.761a23.914,23.914,0,0,0,8.169-2.658,8.235,8.235,0,0,0,2.8-2.544,2.048,2.048,0,0,0,.472-1.131c0-.192.087-.448-.181-.534s-.35.163-.443.338a6.467,6.467,0,0,1-2.684,2.63,24.209,24.209,0,0,1-9.663,2.731,57.948,57.948,0,0,0-6.324.787,36.921,36.921,0,0,0-8.125,2.617A23.5,23.5,0,0,0,6.664,43.02,36.328,36.328,0,0,0,.331,69.157C.865,73.4,1.623,77.608,2.05,81.865q.465,4.647.564,9.313a64.808,64.808,0,0,1-.29,6.839c-.151,1.807-.319,3.612-.534,5.413-.281,2.367-.546,4.736-.694,7.114a42.645,42.645,0,0,0,.1,6.683A23.337,23.337,0,0,0,3.234,125,25.5,25.5,0,0,0,15,137.314a11.98,11.98,0,0,0,6.381,1.363,17.974,17.974,0,0,0,3.268-.667c.622-.164.7-.137.7.476,0,1.429.188,2.853.157,4.278q-.1,4.512-.319,9.022a12.267,12.267,0,0,1-.2,2.239,3.149,3.149,0,0,0,.026,1.684,7.32,7.32,0,0,0,4.406,4.915,11.077,11.077,0,0,0,7.168.225,16.107,16.107,0,0,0,4.049-1.932,2.283,2.283,0,0,1,1.636-.268,25.53,25.53,0,0,1,4,.979,13.72,13.72,0,0,0,7.358.411,3.013,3.013,0,0,1,1.582.064,6.96,6.96,0,0,0,3.232.111,10.5,10.5,0,0,0,4.4-2.02,2.14,2.14,0,0,1,1.2-.495c.624-.011,1.238-.116,1.856-.183a7.818,7.818,0,0,0,4.219-1.616,2.727,2.727,0,0,0,1.356-2.675c-.143-.811-.076-.841.745-.985a16.675,16.675,0,0,0,4.61-1.569,27.686,27.686,0,0,0,6.425-4.055,43.158,43.158,0,0,0,9.151-12.1,5.583,5.583,0,0,1,.7-1.025,29.34,29.34,0,0,0,4.01-5.815,43.02,43.02,0,0,0,4.154-17.574,91.2,91.2,0,0,0-.566-13.748c-.357-3.353-.943-6.669-1.52-9.987-.438-2.527-.824-5.062-1.013-7.623a46.5,46.5,0,0,1,.011-5.989c.11-2.046.2-4.094.367-6.134.214-2.559.434-5.117.543-7.681a62.488,62.488,0,0,0-.73-12.4A55.361,55.361,0,0,0,94.033,31.9,66.558,66.558,0,0,0,80.764,13.012,54.43,54.43,0,0,0,68.019,3,25.169,25.169,0,0,0,61.558.384C60.834.221,60.093.126,59.36,0H56.867a.68.68,0,0,1-.439.123,29,29,0,0,0-3.983.633m38.11,82.892a2.613,2.613,0,0,1,.039-.34,1.815,1.815,0,0,1,.159.343c1.1,4.47,2.8,8.769,3.686,13.3.552,2.846,1.069,5.691,1.385,8.574a73.684,73.684,0,0,1,.567,9,45.623,45.623,0,0,1-4,18.458,38.707,38.707,0,0,1-9.916,13.4,26.386,26.386,0,0,1-9.318,5.014c-.37.119-.741.226-1.113.336-.639.186-.648.185-.651-.457q-.009-2.882,0-5.764c.1-2.8.16-5.6.335-8.4.113-1.832.4-3.655.6-5.483a1.337,1.337,0,0,1,.612-.937,51.923,51.923,0,0,0,6.189-5.561,35.014,35.014,0,0,0,7.785-14.286A85.76,85.76,0,0,0,89.8,96.532a101.339,101.339,0,0,0,.761-12.883M64.83,157c-.023,0-.158,0-.163-.028-.023-.117.077-.171.165-.229a10.106,10.106,0,0,1,3.256-1.378,10.072,10.072,0,0,0,2.122-.682c.088-.044.172-.144.266-.043a.788.788,0,0,1-.168.228,7.3,7.3,0,0,1-4.35,1.993c-.357.051-.717.09-1.128.14m5.746-9.05a51.1,51.1,0,0,0,.26,5.351.617.617,0,0,1-.3.642,6.02,6.02,0,0,1-2.3.871,11.007,11.007,0,0,0-4.4,2.022,1.276,1.276,0,0,1-.684.336,32.576,32.576,0,0,0-7.158,1.651,3.633,3.633,0,0,1-3.152-.266,13.871,13.871,0,0,0-6.126-1.8,10.612,10.612,0,0,0-4.341.694,2.792,2.792,0,0,1-1.211.191,30.2,30.2,0,0,0-4.887.234,16.8,16.8,0,0,1-7.963-.862A5.316,5.316,0,0,1,25.72,155.1a.889.889,0,0,1-.186-.691,119.727,119.727,0,0,0,.83-12.074,81.161,81.161,0,0,0-.834-10.32c-.019-.125-.145-.305-.037-.359.149-.074.252.122.358.222,1.8,1.688,3.585,3.387,5.389,5.069a27.765,27.765,0,0,0,4.444,3.649,20.42,20.42,0,0,0,8.511,3.01,23.26,23.26,0,0,0,5.979-.124c2.1-.331,4.2-.668,6.3-.99a10.979,10.979,0,0,0,5.862-3.16,82.123,82.123,0,0,1,8.5-7.052c.186-.132.4-.428.578-.319.223.133.082.472.044.71a71.405,71.405,0,0,0-.793,8.507c-.092,2.259-.1,4.515-.089,6.772m-8.752,10.328a8.582,8.582,0,0,1-4.794,1.547,3.028,3.028,0,0,1-1.152-.136c-.071-.027-.147-.047-.221-.069a1.949,1.949,0,0,1,.2-.087A49.229,49.229,0,0,1,61.7,158c.1-.018.273-.1.322.066.032.109-.111.149-.2.2m-8.962,1.23A12.2,12.2,0,0,1,46.9,159a31.885,31.885,0,0,0-3.4-1.034c-.091-.019-.18-.054-.27-.082.082-.06.154-.151.245-.174a9.376,9.376,0,0,1,2.793-.369,13.765,13.765,0,0,1,6.67,1.84c.085.043.22.123.22.185,0,.19-.183.124-.291.143M25.99,156.639c-.046-.085-.147-.177-.026-.263.025-.016.128.066.187.112a12.471,12.471,0,0,0,7.3,2.262A31.059,31.059,0,0,0,38.8,158.5a2.8,2.8,0,0,1,1.072.009c-.143.386-.548.426-.835.6a12.1,12.1,0,0,1-5.688,1.646,8.617,8.617,0,0,1-5.684-1.9,7.812,7.812,0,0,1-1.679-2.215M1.736,113.251c.13-2.43.289-4.911.571-7.384.259-2.264.446-4.536.694-6.8a80.922,80.922,0,0,0,.271-11.271,86.209,86.209,0,0,0-.7-8.83c-.539-4.031-1.123-8.058-1.568-12.1a30.746,30.746,0,0,1,.766-10.12,33.047,33.047,0,0,1,9.158-16.68,19.038,19.038,0,0,1,3.648-2.771c.126-.075.3-.256.4-.15.152.158-.067.31-.152.449A77.673,77.673,0,0,0,9.014,49.527a58.64,58.64,0,0,0-2.934,8.917,39.544,39.544,0,0,0-.792,10.205c.1,2.408.33,4.811.417,7.219.077,2.049.037,4.1.041,6.151,0,1.557-.029,3.115,0,4.672a35.424,35.424,0,0,0,1,6.828q1.883,8.686,3.83,17.359a27.173,27.173,0,0,0,7.517,13.8c1.8,1.767,3.626,3.494,5.581,5.084a2.442,2.442,0,0,1,.985,1.742c.183,1.594.333,3.193.532,4.785.094.755.068.755-.723.972a15.755,15.755,0,0,1-3.647.723,10.77,10.77,0,0,1-5.381-1.3A24.635,24.635,0,0,1,2.428,120.1a34.55,34.55,0,0,1-.691-6.852M59.2.769a15.289,15.289,0,0,1,5.03,1.218,40.8,40.8,0,0,1,10.3,6.338A73.7,73.7,0,0,1,87.97,22.963a55.568,55.568,0,0,1,8.678,19.321,67.232,67.232,0,0,1,1.357,8.75c.154,1.684.094,3.37.184,4.43,0,4.335-.38,8.025-.634,11.725a88.052,88.052,0,0,0-.332,10.729,63.648,63.648,0,0,0,.969,7.787c.689,3.851,1.355,7.706,1.767,11.6.173,1.649.234,3.309.347,4.963a61.649,61.649,0,0,1,.136,7.157c-.3,6.37-1.388,12.563-4.3,18.324a34.133,34.133,0,0,1-1.912,3.113,1.632,1.632,0,0,1-.212.22c-.075-.129-.014-.239.032-.363a43.958,43.958,0,0,0,1.838-6.165,58.632,58.632,0,0,0,1.083-7.678,47.287,47.287,0,0,0-.08-6.994,86.822,86.822,0,0,0-3.918-20.837,65.78,65.78,0,0,1-2.182-8.156,29.777,29.777,0,0,1-.4-6.194c.048-2.1.226-4.2.174-6.3a26.683,26.683,0,0,0-3.137-11.914,38.216,38.216,0,0,0-9.75-11.692A58.74,58.74,0,0,0,61.764,35.29a73.072,73.072,0,0,1-7.947-3.353,15.591,15.591,0,0,1-6.354-5.909,8.8,8.8,0,0,1-1.119-6.26,3.573,3.573,0,0,0-.3-2.415,6.024,6.024,0,0,1-.414-4.734A21.554,21.554,0,0,0,46,9.7c.391-2.641,1.071-5.195,3.372-6.918a8.6,8.6,0,0,1,3.5-1.411A23.446,23.446,0,0,1,59.2.769" transform="translate(0 0)" fill="#282828"/>
        <path id="Path_32" data-name="Path 32" d="M37.919,99.36c-.752.282-1.5.579-2.22.931a20.02,20.02,0,0,1-8.265,2.45,1.252,1.252,0,0,0-.453.1c-.4.173-.446.41-.1.677.264.2.634.294.851.531a33.068,33.068,0,0,0,3.918,3.3,33.652,33.652,0,0,0,6.269,4.3,3.89,3.89,0,0,0,1.638.408c.544.014,1.089,0,1.633,0,1.687.061,3.364-.181,5.053-.135a9.622,9.622,0,0,0,5.043-1.315,41.085,41.085,0,0,0,6.09-4.426c1.3-1.081,2.28-2.482,3.645-3.488a.3.3,0,0,0,.154-.328.248.248,0,0,0-.3-.186,5.123,5.123,0,0,1-1.925-.126,8.165,8.165,0,0,1-2.414-.514q-3.161-1.4-6.434-2.5a6.285,6.285,0,0,0-3.977-.17,8.434,8.434,0,0,1-3.993.143,8.119,8.119,0,0,0-4.217.34m20.827,4.759a38.979,38.979,0,0,1-8.131,6.222,9.325,9.325,0,0,1-4.1,1.054c-1.788.076-3.583,0-5.149.177a8.056,8.056,0,0,1-4.757-1.278c-2.468-1.682-4.812-3.523-7.171-5.347a.819.819,0,0,1-.117-.1c-.1-.11-.317-.187-.227-.35.039-.073.3-.071.435-.033a8.909,8.909,0,0,0,2.165.165,15.62,15.62,0,0,0,3.848-.431,12.354,12.354,0,0,1,5.7.168,12.011,12.011,0,0,0,2.759.447,4.614,4.614,0,0,0,1.977-.324,9.086,9.086,0,0,1,5.559-.442,22.094,22.094,0,0,0,5.019.425,6.3,6.3,0,0,0,2.024-.5c.089-.034.192-.16.27-.077s-.047.166-.111.228m-15.881-3.8a4.962,4.962,0,0,0,2.614-.108,8.169,8.169,0,0,1,6.054.268,41.053,41.053,0,0,0,5.428,1.857c.707.172,1.432.2,2.136.373a1.661,1.661,0,0,1,.2.077,1.713,1.713,0,0,1-.177.143,6.671,6.671,0,0,1-3.2.834,28.493,28.493,0,0,1-4.767-.68,8.527,8.527,0,0,0-5.34.407,4.8,4.8,0,0,1-3.352.06c-.6-.167-1.191-.363-1.792-.522a7.557,7.557,0,0,0-4,.163,28.839,28.839,0,0,1-4.8.872,10.627,10.627,0,0,1-4.038-.626c-.064-.02-.165-.109-.158-.147.027-.137.158-.068.239-.07a18.174,18.174,0,0,0,6.97-1.693,19.265,19.265,0,0,1,3.655-1.289,10.943,10.943,0,0,1,4.326.082" transform="translate(4.531 16.77)" fill="#282828"/>
        <path id="Path_33" data-name="Path 33" d="M12.036,71.135a2.6,2.6,0,0,0,2.713-.356c1.093-.955,2.144-1.959,3.188-2.966a9.349,9.349,0,0,1,10.255-2.148,13.868,13.868,0,0,1,5.849,3.978c.706.8,1.344,1.652,2.128,2.376.158.146.332.438.571.19.2-.207-.077-.369-.2-.508-.579-.666-1.186-1.308-1.759-1.979A15.776,15.776,0,0,0,29.8,65.816a11.524,11.524,0,0,0-7.244-1.034,9.347,9.347,0,0,0-4.362,2.248c-1.2.985-2.282,2.1-3.5,3.084a2.557,2.557,0,0,1-2.746.385c-2.8-1.03-4.19-4.693-3.471-7.679a4.537,4.537,0,0,1,3-3.122A20.817,20.817,0,0,1,23.67,58.511a35.8,35.8,0,0,1,7.846,2.683,19.892,19.892,0,0,0,4.946,1.818,2.251,2.251,0,0,0,2.9-1.84,12.545,12.545,0,0,0,.318-3.471,3.221,3.221,0,0,0-1.241-2.568,13.033,13.033,0,0,0-5.3-2.64,53.318,53.318,0,0,0-5.6-.82c-1.828-.222-3.66-.317-5.434-.429a24.851,24.851,0,0,0-6.046.79,10.649,10.649,0,0,0-6.946,5.774,18.122,18.122,0,0,0-1.374,6.322,7.779,7.779,0,0,0,1.362,4.7,5.327,5.327,0,0,0,2.93,2.311M8.683,60.5a10.608,10.608,0,0,1,.93-2.615c1.474-3.06,4.058-4.675,7.221-5.506a22.813,22.813,0,0,1,5.561-.633c1.656.087,3.486.212,5.312.431,1.59.192,3.182.351,4.755.658a12.431,12.431,0,0,1,5.623,2.648,2.457,2.457,0,0,1,.961,1.948A13.877,13.877,0,0,1,38.7,60.9c-.291,1.205-.9,1.566-2.113,1.306a23.446,23.446,0,0,1-4.642-1.756,34.919,34.919,0,0,0-8.39-2.746,21.524,21.524,0,0,0-7.568-.013,23.985,23.985,0,0,0-3.535.872,7.927,7.927,0,0,0-3.491,2.093c-.07.078-.157.188-.247.137-.053-.03-.054-.2-.035-.293" transform="translate(1.313 8.713)" fill="#282828"/>
        <path id="Path_34" data-name="Path 34" d="M51.393,70.964a4.581,4.581,0,0,1,1.005-.009,17.929,17.929,0,0,1,3.6.913,14.5,14.5,0,0,0,5.188.765c.1-.006.207-.014.311-.018a10.035,10.035,0,0,0,8-4.123c.239-.318.383-.232.6-.046a.193.193,0,0,0,.278.018c.085-.09,0-.191-.046-.274a3.629,3.629,0,0,0-.78-.862,18.956,18.956,0,0,0-4.78-3.033,9.951,9.951,0,0,0-7.206-.443,10.934,10.934,0,0,0-4.993,3.579,15.878,15.878,0,0,1-2.176,2.328c-.234.186-.729.229-.586.7.138.453.587.46.965.522a2.2,2.2,0,0,0,.619-.015M59.72,64.94c.544.016.837.364.824.979a.8.8,0,0,1-.844.879,1.028,1.028,0,0,1-.97-1,.908.908,0,0,1,.99-.856m-.707,2.676c.236,0,.374.116.374.314a.409.409,0,0,1-.4.463.315.315,0,0,1-.359-.312.427.427,0,0,1,.384-.465m-3.38-1.976c.323-.164.625-.369.94-.546.081-.047.178-.154.269-.067s-.015.192-.057.268a2.773,2.773,0,0,0-.03,2.607,2.188,2.188,0,0,0,2.027,1.555,2.692,2.692,0,0,0,2.587-1.535,2.639,2.639,0,0,0-.94-3.471c-.1-.068-.247-.081-.281-.229a2.245,2.245,0,0,1,.362-.044,8.733,8.733,0,0,1,1.467.115c1.078.214,1.316.457,1.367,1.562.007.156,0,.311,0,.467.063,2.005-1.258,3.724-3.682,4.37a3.931,3.931,0,0,1-4.812-3.216,1.544,1.544,0,0,1,.784-1.833m-2.655,2.387c.42-.381.783-.827,1.176-1.24.05-.053.143-.126.188-.111.14.048.04.16.036.249a4.33,4.33,0,0,0,5.484,4.268,5.022,5.022,0,0,0,3.886-3.721,4.753,4.753,0,0,0,.009-2.307c-.135-.55.115-.453.4-.33.593.256,1.188.517,1.754.828.658.36,1.3.759,1.922,1.175.466.309,1.26.571,1.266,1s-.64.883-1.042,1.286a9.509,9.509,0,0,1-6.314,2.8c-.439.028-.881,0-1.322,0a12.7,12.7,0,0,1-4.5-.693,16.72,16.72,0,0,0-3-.728c-.283-.029-.364-.185-.494-.459a1.548,1.548,0,0,1,.549-2.027m-2.2,2.231a3.24,3.24,0,0,1,.834-.647c.242-.1.214.274.3.434.07.133.091.307-.144.332-.177.019-.355.028-.47.037-.187,0-.316.011-.441,0-.082-.008-.138-.1-.077-.153" transform="translate(8.465 10.776)" fill="#282828"/>
        <path id="Path_35" data-name="Path 35" d="M49.329,63.25A18.653,18.653,0,0,0,54.8,61.6c1.218-.57,2.451-1.109,3.684-1.644A22.665,22.665,0,0,1,65.132,58.2a25.877,25.877,0,0,1,6.055-.02,8.39,8.39,0,0,1,3.62,1.048,3.807,3.807,0,0,1,1.519,2.9,7.336,7.336,0,0,1-1.787,3.488c-1.477,1.525-2.679,1.837-4.5.813a18,18,0,0,0-9.017-2.385,9.454,9.454,0,0,0-3.022.4,10.424,10.424,0,0,0-4.746,3.125c-1.11,1.164-2,2.523-3.182,3.625-.1.091-.2.2-.092.326s.243.07.352,0a6.7,6.7,0,0,0,1.507-1.453,23.444,23.444,0,0,1,2.59-2.8,9.424,9.424,0,0,1,4.371-2.41,14.547,14.547,0,0,1,6.235.246,25.176,25.176,0,0,1,5.54,2.2,2.874,2.874,0,0,0,2.8-.087,5.484,5.484,0,0,0,1.95-1.635,9.3,9.3,0,0,0,1.583-3.828,8.079,8.079,0,0,0-4.151-8.17,23.6,23.6,0,0,0-10.239-2.437,27.661,27.661,0,0,0-8.114,1.142,18.109,18.109,0,0,0-5.043,1.938A6.606,6.606,0,0,0,46.732,61.6a2.136,2.136,0,0,0,2.6,1.652m1.921-9.415A29.308,29.308,0,0,1,58.96,51.9c1.107-.124,2.211-.234,3.321-.271A22.955,22.955,0,0,1,72.4,53.875a7.4,7.4,0,0,1,4.11,6.173,1.754,1.754,0,0,1-.029.372c-.151-.042-.165-.194-.213-.3a4.232,4.232,0,0,0-3.562-2.294A25.645,25.645,0,0,0,57.47,59.749a53.717,53.717,0,0,1-5.324,2.337,15.544,15.544,0,0,1-3.094.677A1.629,1.629,0,0,1,47.264,61.7a4.224,4.224,0,0,1-.31-1.508c-.025-3.255,1.007-5.032,4.3-6.358" transform="translate(7.904 8.695)" fill="#282828"/>
        <path id="Path_36" data-name="Path 36" d="M34.9,71.493a.618.618,0,0,0,.612-.407c.1-.285-.18-.4-.372-.517a7.3,7.3,0,0,1-1.8-1.591,21.069,21.069,0,0,0-1.831-1.909c-1.776-1.632-3.713-2.924-6.281-2.786-.514.043-1.031.006-1.549.088a13.75,13.75,0,0,0-5.813,2.465,27.684,27.684,0,0,0-3.1,2.593c-.085.081-.225.171-.116.312.069.089.194.059.29.02.19-.076.347-.181.562,0a12.827,12.827,0,0,0,4.7,2.294,16.032,16.032,0,0,0,7.736.566c1.354-.24,2.651-.667,3.97-1.03a3.4,3.4,0,0,1,1.829-.142,4.794,4.794,0,0,0,1.162.04M26.2,65.578a.834.834,0,0,1,.754.979.689.689,0,0,1-.808.716.889.889,0,0,1-.738-.937.74.74,0,0,1,.793-.758M25.441,67.8c.239.014.346.194.374.426-.068.24-.188.44-.473.411a.376.376,0,0,1-.362-.424.4.4,0,0,1,.46-.413m-3.965-1.561a1.035,1.035,0,0,1,.875-.837c.178-.026.346-.113.523-.137.223-.029.427-.22.67-.089a5.955,5.955,0,0,0-.285.531,2.9,2.9,0,0,0,1.378,3.875,2.479,2.479,0,0,0,3.356-2.606,2.689,2.689,0,0,0-.445-1.383c-.059-.08-.165-.165-.074-.259s.184-.009.277.036c.3.147.614.274.913.428,1.1.577,1.285.928,1.053,2.168a4.709,4.709,0,0,1-1.386,2.547,3.587,3.587,0,0,1-2.217.79,6.3,6.3,0,0,1-.854.007c-3.112.316-4.417-3.187-3.784-5.073m11.215,3.35a1.328,1.328,0,0,0-.23,1.175c.063.187-.073.194-.2.242a24.317,24.317,0,0,1-7.8,1.282,17.756,17.756,0,0,1-6.977-1.752c-.164-.076-.324-.16-.481-.249-1.316-.745-1.324-.894-.158-1.8a19.285,19.285,0,0,1,3.634-2.375c.151-.07.326-.248.481-.125.135.106-.033.281-.056.427-.353,2.214.768,4.675,2.943,5.282A5.6,5.6,0,0,0,28,71.334a4.281,4.281,0,0,0,2.245-3.826c.011-.178-.027-.477.048-.509.222-.095.353.153.493.289.592.58,1.171,1.175,1.749,1.769.139.143.31.275.151.528m1.362,1.354c-.229-.025-.46-.055-.688-.088-.163-.023-.383.074-.446-.177s.09-.445.191-.649c.019-.036.082-.051.135-.082a1.248,1.248,0,0,1,.187.113q.383.325.756.662c.054.048.131.142.116.181-.048.121-.164.048-.25.039" transform="translate(2.484 10.929)" fill="#282828"/>
        <path id="Path_37" data-name="Path 37" d="M36.242,59.571c-.394.147-.132.631-.029.962a41.272,41.272,0,0,1,1.963,8.457,25.8,25.8,0,0,1,.212,4.575,44.184,44.184,0,0,1-1.335,7.605,12.561,12.561,0,0,0-.418,2.039c-.011.1-.035.214.11.239.094.015.118-.067.157-.132a3.053,3.053,0,0,0,.276-.465,30.243,30.243,0,0,0,.962-3.018c.39-1.638.491-3.321.789-4.971a23.316,23.316,0,0,0,.275-2.775c.061-.627-.117-1.239-.109-1.864a25.785,25.785,0,0,0-2.223-9.937c-.118-.3-.19-.88-.629-.715" transform="translate(6.127 10.124)" fill="#282828"/>
        <path id="Path_38" data-name="Path 38" d="M51.116,70.947a14.959,14.959,0,0,1,3.785.7A19.889,19.889,0,0,0,62.279,72.7,10.464,10.464,0,0,0,69.3,69.152a1.445,1.445,0,0,0,.242-.3c.06-.122.212-.27.042-.4-.113-.089-.243-.008-.346.082-.311.273-.634.534-.933.82a10.486,10.486,0,0,1-7.616,2.932,18.722,18.722,0,0,1-4.5-.681,17.079,17.079,0,0,0-4.267-1.01c-.311-.023-.544-.059-.776-.055-.174,0-.438,0-.449.206-.014.252.25.2.42.2" transform="translate(8.62 11.632)" fill="#282828"/>
        <path id="Path_39" data-name="Path 39" d="M34.773,88.723a.9.9,0,0,0,.7.984,3.086,3.086,0,0,0,.841.144,3.283,3.283,0,0,1,2.864,1.071.227.227,0,0,0,.063.044c.288.163.591.275.851-.015a.581.581,0,0,0-.055-.842,6.616,6.616,0,0,0-4.267-2.114.944.944,0,0,0-1,.729" transform="translate(5.911 14.962)" fill="#282828"/>
        <path id="Path_40" data-name="Path 40" d="M45.1,90.681a12.293,12.293,0,0,1,1.906-.621,10.142,10.142,0,0,0,1.647-.663.654.654,0,0,0-.18-1.266c-.305-.047-.613-.08-.921-.118a3.16,3.16,0,0,0-3.087,1.95c-.123.23-.233.476-.009.714.209.221.44.1.644,0" transform="translate(7.537 14.964)" fill="#282828"/>
        <path id="Path_41" data-name="Path 41" d="M33.556,71.013a4.424,4.424,0,0,0-1.229.122c-.725.183-1.44.393-2.152.626a14.818,14.818,0,0,1-7.237.816,16.525,16.525,0,0,1-7.06-2.526,5.5,5.5,0,0,0-.666-.394c-.051-.027-.142.021-.213.034a.642.642,0,0,0,.074.2,1.082,1.082,0,0,0,.23.207,18.27,18.27,0,0,0,8.52,2.964A14.89,14.89,0,0,0,30.6,72.1a13.426,13.426,0,0,1,3.108-.753c.075-.047.447.252.441-.13,0-.276-.376-.193-.593-.2" transform="translate(2.551 11.843)" fill="#282828"/>
        <path id="Path_42" data-name="Path 42" d="M40.665,98.234a1.928,1.928,0,0,0,1.394.475,3.091,3.091,0,0,0,2.375-.858,1.023,1.023,0,0,0-.214-1.7,3.265,3.265,0,0,0-3.619.4,1.04,1.04,0,0,0,.064,1.681m1.347-1.872a2.872,2.872,0,0,1,1.606.063.781.781,0,0,1,.606.549c.062.326-.194.515-.414.694a2.848,2.848,0,0,1-1.588.534c-.741.006-1.42-.34-1.487-.759-.061-.379.572-.9,1.277-1.08" transform="translate(6.836 16.286)" fill="#282828"/>
        <path id="Path_43" data-name="Path 43" d="M44.137,111.447a6.541,6.541,0,0,0-1.378-.177,10.743,10.743,0,0,0-4.3.236,2.061,2.061,0,0,0-.435.158c-.157.078-.364.161-.3.385s.243.241.442.177a1.52,1.52,0,0,1,.223-.064,17.388,17.388,0,0,1,3.3-.344,8.863,8.863,0,0,1,2.339.177c.253-.068.59.11.621-.225s-.317-.243-.518-.323" transform="translate(6.413 18.899)" fill="#282828"/>
      </g>
    </g>
  </g>
</svg>
