<svg xmlns="http://www.w3.org/2000/svg" width="20.359" height="16.535" viewBox="0 0 20.359 16.535">
  <g id="Icon_awesome-twitter" data-name="Icon awesome-twitter" transform="translate(0 0)">
    <path id="Icon_awesome-twitter-2" data-name="Icon awesome-twitter" d="M18.266,7.5c.013.181.013.362.013.543A11.79,11.79,0,0,1,6.407,19.916,11.791,11.791,0,0,1,0,18.043a8.632,8.632,0,0,0,1.008.052,8.356,8.356,0,0,0,5.18-1.783,4.18,4.18,0,0,1-3.9-2.894,5.262,5.262,0,0,0,.788.065,4.413,4.413,0,0,0,1.1-.142,4.173,4.173,0,0,1-3.346-4.1V9.194a4.2,4.2,0,0,0,1.886.53A4.179,4.179,0,0,1,1.421,4.143a11.86,11.86,0,0,0,8.6,4.366,4.71,4.71,0,0,1-.1-.956A4.177,4.177,0,0,1,17.142,4.7,8.215,8.215,0,0,0,19.79,3.691a4.161,4.161,0,0,1-1.834,2.3,8.365,8.365,0,0,0,2.4-.646A8.969,8.969,0,0,1,18.266,7.5Z" transform="translate(0 -3.381)" fill="#ffece5"/>
  </g>
</svg>
