<svg xmlns="http://www.w3.org/2000/svg" width="17.824" height="17.82" viewBox="0 0 17.824 17.82">
  <g id="Icon_awesome-instagram" data-name="Icon awesome-instagram" transform="translate(0 0)">
    <path id="Icon_awesome-instagram-2" data-name="Icon awesome-instagram" d="M8.909,6.579a4.569,4.569,0,1,0,4.569,4.569A4.562,4.562,0,0,0,8.909,6.579Zm0,7.539a2.97,2.97,0,1,1,2.97-2.97A2.976,2.976,0,0,1,8.909,14.118ZM14.73,6.392a1.066,1.066,0,1,1-1.066-1.066A1.063,1.063,0,0,1,14.73,6.392Zm3.026,1.082A5.274,5.274,0,0,0,16.317,3.74,5.308,5.308,0,0,0,12.583,2.3c-1.471-.084-5.881-.084-7.352,0A5.3,5.3,0,0,0,1.5,3.736,5.291,5.291,0,0,0,.057,7.47c-.084,1.471-.084,5.881,0,7.352A5.274,5.274,0,0,0,1.5,18.556,5.315,5.315,0,0,0,5.231,20c1.471.084,5.881.084,7.352,0a5.274,5.274,0,0,0,3.734-1.439,5.308,5.308,0,0,0,1.439-3.734c.084-1.471.084-5.877,0-7.348Zm-1.9,8.927a3.007,3.007,0,0,1-1.694,1.694c-1.173.465-3.956.358-5.253.358s-4.084.1-5.253-.358A3.007,3.007,0,0,1,1.962,16.4C1.5,15.227,1.6,12.444,1.6,11.148s-.1-4.084.358-5.253A3.007,3.007,0,0,1,3.656,4.2c1.173-.465,3.956-.358,5.253-.358s4.084-.1,5.253.358a3.007,3.007,0,0,1,1.694,1.694c.465,1.173.358,3.956.358,5.253S16.321,15.231,15.855,16.4Z" transform="translate(0.005 -2.238)" fill="#ffece5"/>
  </g>
</svg>
