<svg id="Icon_simple-linkedin" data-name="Icon simple-linkedin" xmlns="http://www.w3.org/2000/svg" width="20.359" height="20.359" viewBox="0 0 20.359 20.359">
  <path id="Icon_simple-linkedin-2" data-name="Icon simple-linkedin" d="M17.345,17.349H14.33V12.625c0-1.127-.023-2.576-1.571-2.576-1.572,0-1.812,1.226-1.812,2.493v4.807H7.932V7.635h2.9V8.959h.039a3.177,3.177,0,0,1,2.859-1.569c3.055,0,3.62,2.01,3.62,4.627v5.332ZM4.527,6.305A1.751,1.751,0,1,1,6.278,4.554,1.749,1.749,0,0,1,4.527,6.305ZM6.039,17.349H3.016V7.635H6.039ZM18.853,0H1.5A1.484,1.484,0,0,0,0,1.467V18.892a1.484,1.484,0,0,0,1.5,1.467H18.851a1.489,1.489,0,0,0,1.508-1.467V1.467A1.49,1.49,0,0,0,18.851,0Z" fill="#ffece5"/>
</svg>
