<svg id="Group_15" data-name="Group 15" xmlns="http://www.w3.org/2000/svg" xmlns:xlink="http://www.w3.org/1999/xlink" width="132.838" height="161.333" viewBox="0 0 132.838 161.333">
  <defs>
    <clipPath id="clip-path">
      <rect id="Rectangle_26" data-name="Rectangle 26" width="132.838" height="161.333" fill="#282828"/>
    </clipPath>
  </defs>
  <g id="Group_14" data-name="Group 14" clip-path="url(#clip-path)">
    <path id="Path_18" data-name="Path 18" d="M5.077,140.823a40.979,40.979,0,0,0,6.835,2,27.036,27.036,0,0,1,7.432,2.623,8.916,8.916,0,0,1,3.167,2.8,2.66,2.66,0,0,1,.228,2.853c-1.039,2.028-2.116,4.014-4.654,4.495-.094.017-.284.07-.218.247.042.114.17.071.272.07a4.4,4.4,0,0,0,3.016-1.216,11.005,11.005,0,0,0,2.343-3.254,3.53,3.53,0,0,0-.341-3.934,9.986,9.986,0,0,0-3.246-2.837,30.4,30.4,0,0,0-8.86-2.972,28.074,28.074,0,0,1-6.2-1.942A6.849,6.849,0,0,1,1.1,135.071a8.807,8.807,0,0,1-.083-3.84,17.891,17.891,0,0,1,2.852-6.652,65.052,65.052,0,0,1,6.067-7.465,29.328,29.328,0,0,0,5.234-7.656,14.551,14.551,0,0,0,1.316-4.445,11.655,11.655,0,0,0-1.474-7.026,31.373,31.373,0,0,0-2.594-3.958,19.256,19.256,0,0,1-1.842-2.685A12.448,12.448,0,0,1,9,84.03a15.037,15.037,0,0,1,2.1-5.955c1.014-1.8,2.1-3.571,3.137-5.36a21.092,21.092,0,0,0,2.9-9.4c.119-1.858.105-3.723.3-5.577a11.274,11.274,0,0,1,2.86-6.648,20.3,20.3,0,0,1,6.036-4.427c1.412-.7,2.826-1.409,4.179-2.222A23.219,23.219,0,0,0,39.55,34.15c.812-1.7,1.538-3.457,2.5-5.082,2.913-4.914,7.452-7.061,12.969-7.386,2.506-.148,5.016.105,7.524.2a10.9,10.9,0,0,0,4.268-.632,2.532,2.532,0,0,0,1.223-.915c.117-.169.281-.365.065-.543-.179-.147-.333.017-.46.15a2.2,2.2,0,0,1-.913.569,10.451,10.451,0,0,1-3.344.6c-1.6.007-3.207-.066-4.805-.174a26.513,26.513,0,0,0-6.188.18A15.576,15.576,0,0,0,40.444,29.66c-.784,1.517-1.5,3.067-2.289,4.583A24.325,24.325,0,0,1,30.646,43.1a38.266,38.266,0,0,1-4.483,2.627,22.549,22.549,0,0,0-5.318,3.6,5.335,5.335,0,0,1-.421.336c-.15-.226.048-.391.121-.562a13.726,13.726,0,0,0,.99-6.977,10.231,10.231,0,0,1,1.645-7.087,18,18,0,0,1,2.513-2.848,29.571,29.571,0,0,1,4.613-3.411,24.557,24.557,0,0,0,9.332-10.454A19.241,19.241,0,0,1,42.085,14.1c2.81-3.437,6.473-4.615,10.789-4a24.288,24.288,0,0,1,3.715,1.088,6.178,6.178,0,0,0,7.074-2.359A13.533,13.533,0,0,0,64.7,7.282c.318-.562.629-1.13.943-1.7A8.444,8.444,0,0,1,77.617,2.471,9.9,9.9,0,0,0,78.652,3c.182.091.385.23.537-.028a.4.4,0,0,0-.163-.543c-.365-.29-.749-.554-1.117-.838A7.5,7.5,0,0,0,73.756.022a9.172,9.172,0,0,0-8.833,4.544c-.345.544-.615,1.137-.913,1.712a10.137,10.137,0,0,1-1.856,2.665,4.986,4.986,0,0,1-5.11,1.424c-.719-.2-1.429-.445-2.138-.681a12.672,12.672,0,0,0-10.2.91,12.545,12.545,0,0,0-5.089,5.5c-.582,1.067-1.119,2.159-1.708,3.224a20.961,20.961,0,0,1-5.73,6.661c-1.137.86-2.285,1.7-3.479,2.475a24.755,24.755,0,0,0-5.527,4.842,10.946,10.946,0,0,0-2.49,8.905,14.044,14.044,0,0,1-2.184,9.826,12.741,12.741,0,0,0-1.926,5.108c-.285,1.9-.28,3.816-.445,5.721a21.041,21.041,0,0,1-1.543,6.617,41.141,41.141,0,0,1-2.717,4.968,39.938,39.938,0,0,0-3.125,5.889,13.045,13.045,0,0,0-.712,7.236,14.985,14.985,0,0,0,3.253,6.786,34.941,34.941,0,0,1,2.761,4.031A10.274,10.274,0,0,1,15,107.4a24.517,24.517,0,0,1-4.453,7.676c-1.787,2.149-3.726,4.169-5.454,6.37a25.794,25.794,0,0,0-4.437,7.777A30.37,30.37,0,0,0,0,132.233v1.709A3.2,3.2,0,0,1,.207,135a7.908,7.908,0,0,0,4.87,5.826" transform="translate(0 0)" fill="#282828"/>
    <path id="Path_19" data-name="Path 19" d="M129.481,81.255a28.338,28.338,0,0,0-2.939-7.481,34.522,34.522,0,0,1-1.548-3.127,9.247,9.247,0,0,1-.722-2.843,7.343,7.343,0,0,1,1.011-3.928c.612-1.172,1.357-2.263,2.058-3.381a9.978,9.978,0,0,0,1.327-7.153,35.345,35.345,0,0,0-1.192-4.656,13.074,13.074,0,0,1-.7-4.733,18.022,18.022,0,0,1,.987-4.3c.493-1.526,1.045-3.032,1.424-4.593a12.128,12.128,0,0,0-5.069-13.452,15.842,15.842,0,0,0-5.209-2.334,45.565,45.565,0,0,0-8.591-1.106,27.015,27.015,0,0,1-3.309-.36,10.092,10.092,0,0,1-6.522-4.257,42.656,42.656,0,0,1-2.612-4.4,9.778,9.778,0,0,0-5.153-4.5,16.22,16.22,0,0,0-7.668-1.1A16.588,16.588,0,0,0,73.821,8.987a13.7,13.7,0,0,0-2.537,4.667,3.963,3.963,0,0,0-.133.683c-.032.193-.009.4.218.427.2.029.213-.169.256-.319a13.285,13.285,0,0,1,1.072-2.4,12.96,12.96,0,0,1,5.733-5.618,16.677,16.677,0,0,1,9.916-1.869c4,.5,7.276,2.143,9.075,6,.186.4.417.776.636,1.156a22.621,22.621,0,0,0,1.929,2.909,10.946,10.946,0,0,0,6.736,4.107,41.364,41.364,0,0,0,4.391.456,46.913,46.913,0,0,1,6.223.765,15.307,15.307,0,0,1,7.567,3.712,11.032,11.032,0,0,1,3.422,6.461,12.983,12.983,0,0,1-.741,5.871c-.477,1.557-1.069,3.077-1.537,4.64a12.674,12.674,0,0,0,.044,7.858c.369,1.1.711,2.217,1.033,3.335a13.092,13.092,0,0,1,.608,3.976,8.837,8.837,0,0,1-1.395,4.386,39.793,39.793,0,0,0-2.18,3.846,7.8,7.8,0,0,0-.312,6.176,25.4,25.4,0,0,0,1.592,3.446,43.005,43.005,0,0,1,2.146,4.474,16.509,16.509,0,0,1,1.259,8.507,13.074,13.074,0,0,1-7.509,10.606,28.762,28.762,0,0,0-3.807,2.242c-.256.175-.5.372-.75.552-.053.038-.159.082-.188.058-.066-.055-.011-.136.022-.2.056-.116.109-.235.161-.352a19.483,19.483,0,0,0,1.579-10.311,22.159,22.159,0,0,0-3.427-9.482,38.434,38.434,0,0,0-5.773-6.687c-1.112-1.084-2.266-2.126-3.3-3.291a15.078,15.078,0,0,1-3.982-10.091,56.18,56.18,0,0,1,1.062-9.7,34.985,34.985,0,0,0,.542-9.717,29.818,29.818,0,0,0-1.961-8.011,13.536,13.536,0,0,0-1.327-2.446c-.092-.133-.208-.357-.418-.206-.143.1-.06.285.013.426.3.571.65,1.122.893,1.716a27.959,27.959,0,0,1,1.916,15.248c-.508,3.188-1.239,6.341-1.59,9.555a22.482,22.482,0,0,0,.175,6.723,15.457,15.457,0,0,0,4.12,7.7c1.379,1.473,2.851,2.86,4.259,4.308a30.138,30.138,0,0,1,4.349,5.355c2.957,4.9,4.144,10.113,2.715,15.766a22.521,22.521,0,0,1-3.748,7.53c-1.205,1.689-2.627,3.2-3.91,4.825a16.444,16.444,0,0,0-2.557,4.322,7.145,7.145,0,0,0,1.418,7.656c1.126,1.32,2.332,2.568,3.544,3.808a22.454,22.454,0,0,1,3.493,4.349,12.554,12.554,0,0,1,1.747,9.445,15.17,15.17,0,0,1-3.439,6.444,1.372,1.372,0,0,1-.449.413c-.065-.261.144-.417.251-.6a9.006,9.006,0,0,0,.77-7.553,14.309,14.309,0,0,0-1.713-3.468,25.349,25.349,0,0,0-5.62-5.858,25.468,25.468,0,0,1-4.913-4.834,8.657,8.657,0,0,1-1.693-5.992,16.394,16.394,0,0,1,2.733-7.583,37.643,37.643,0,0,1,4.129-5.038,22.122,22.122,0,0,0,3.841-5.322,12.871,12.871,0,0,0,.612-9.957,23.1,23.1,0,0,0-3.991-7.061c-1.212-1.549-2.514-3.025-3.759-4.55a22.81,22.81,0,0,1-5.273-11.488,44.366,44.366,0,0,1,0-9.836c.253-2.912.593-5.815.908-8.72a39.788,39.788,0,0,0-.354-11.285,20.508,20.508,0,0,0-6.988-12.627,18.915,18.915,0,0,0-14.509-4.4,47.932,47.932,0,0,0-5.942,1.07,12.69,12.69,0,0,0-4.528,1.735c-.493.336-.493.384.011.708,1.348.866,2.744,1.66,4.016,2.635a7.519,7.519,0,0,1,3.072,7.775c-.379,2.112-.993,4.178-1.205,6.322-.346,3.5.3,6.683,2.764,9.368C76.683,50.1,78.107,51.49,79.51,52.9a26.568,26.568,0,0,1,3.236,3.764,15.928,15.928,0,0,1,2.777,6.511c.06.384.251.9-.059,1.144-.16.125-.505-.418-.8-.621-.086-.059-.161-.13-.242-.195A30.633,30.633,0,0,0,73.78,57.952a44.454,44.454,0,0,0-8.92-1.82,21.89,21.89,0,0,0-5.493-.044,2.5,2.5,0,0,0-2.415,2.11,6.467,6.467,0,0,0-.086,2.7c.358,2.163,1.4,2.994,3.618,3.006,1.243.006,2.481-.081,3.723-.132a39.4,39.4,0,0,1,13.085,1.555,19.467,19.467,0,0,1,6.841,3.339c.425.344.574.629.328,1.162-.781,1.688-1.5,3.4-2.152,5.147-.045.121-.06.292-.187.319-.181.038-.224-.159-.307-.276a18.474,18.474,0,0,0-8.528-6.471,11.191,11.191,0,0,0-5.779-.706c-3.019.428-5.421,2.2-7.991,3.61-.119.066-.229.146-.152.3.067.138.191.139.33.109a3.15,3.15,0,0,0,.911-.42,34.8,34.8,0,0,1,3.18-1.769,11.277,11.277,0,0,1,7.447-1.006,19.353,19.353,0,0,1,8.795,5.128,12.236,12.236,0,0,1,1.589,1.9.947.947,0,0,1,.188.869,16.223,16.223,0,0,0-.456,1.957c-.011.066-.044.166-.092.185-.148.054-.153-.094-.193-.176a14.265,14.265,0,0,0-2.365-3.16,13.3,13.3,0,0,0-7.668-4.24,14.015,14.015,0,0,0-7.1.736,22.905,22.905,0,0,1-3.271.936c-.308.055-.62.037-.924.1a.723.723,0,0,0-.659.57c-.039.29.214.444.464.551a5.171,5.171,0,0,0,.639.27,10.174,10.174,0,0,1,3.483,1.795,27.586,27.586,0,0,0,5.427,3.423,12.657,12.657,0,0,0,6.145,1.305,36.58,36.58,0,0,0,4.12-.7,2.97,2.97,0,0,0,1.445-.5c.115-.1.235-.187.354-.28.113.163.037.343.034.513a26.773,26.773,0,0,0,.439,6.092.517.517,0,0,1,.009.218c.051.153.092.311.131.469a.156.156,0,0,1,.007.026,5.909,5.909,0,0,1,.116.635c.031.083.06.174.1.312a12.86,12.86,0,0,0,1.075,2.724,7.722,7.722,0,0,0,1.565,1.911c.076.07.184.173.253.124.142-.1.038-.228-.042-.329a3.044,3.044,0,0,0-.248-.3,9.385,9.385,0,0,1-2.165-4.578,2.332,2.332,0,0,1-.179-.438,2.769,2.769,0,0,1-.086-.54c0-.054.009-.106.01-.159s-.034-.122-.044-.186a.617.617,0,0,1,0-.287c-.152-.96-.213-1.928-.318-2.893a13.768,13.768,0,0,1,.341-4.991A3.055,3.055,0,0,1,82.373,77a3.834,3.834,0,0,0,.393.467,2.139,2.139,0,0,0,.466.27,3.668,3.668,0,0,0,4.747-1.692,1.442,1.442,0,0,1,.272-.462,3.726,3.726,0,0,0,.9-2.261A9.827,9.827,0,0,0,86.962,66.1a1.855,1.855,0,0,1-.453-1.337,12.787,12.787,0,0,0-1.019-5.367,21.89,21.89,0,0,0-4.945-7.175c-1.362-1.384-2.739-2.751-4.069-4.167a10.421,10.421,0,0,1-2.814-7.507,27.442,27.442,0,0,1,.821-5.672,10.745,10.745,0,0,0,.4-4.447A8.634,8.634,0,0,0,71.136,24.5a17.377,17.377,0,0,0-3.556-2.181c-.2-.07-.224-.165.011-.265a12.944,12.944,0,0,1,2.033-.728c1.628-.39,3.26-.761,4.912-1.03a21.611,21.611,0,0,1,7.558-.22c7.019,1.322,11.853,5.314,14.342,11.988a31.878,31.878,0,0,1,1.48,14.317c-.31,3.295-.825,6.566-1.074,9.869a50.192,50.192,0,0,0-.139,8.522,22.4,22.4,0,0,0,3.255,10.013,41.031,41.031,0,0,0,3.821,5.084,37.209,37.209,0,0,1,5,6.9,14.749,14.749,0,0,1,1.774,5.9,12.972,12.972,0,0,1-1.686,6.521,19.7,19.7,0,0,1-3.8,4.886,26.756,26.756,0,0,0-5.406,7.995,9.163,9.163,0,0,1-2.809,3.659,5.9,5.9,0,0,1-4.237,1.412,3.553,3.553,0,0,1-3.41-2.784,7.782,7.782,0,0,1,.033-3.774,20.822,20.822,0,0,1,3.035-7.069,9.017,9.017,0,0,1,3.554-3.16,3.722,3.722,0,0,1,2.558-.316c.391.1.374.186.175.477a12.05,12.05,0,0,0-1.875,3.8,5.24,5.24,0,0,0,.208,3.563,1.729,1.729,0,0,0,2.387.929,3.314,3.314,0,0,0,1.573-1.329,5.985,5.985,0,0,0,.828-1.91c.5-2.1.36-4.024-1.608-5.387-.276-.192-.253-.335-.032-.532.385-.345.745-.722,1.15-1.042,1.256-1,2.58-1.9,3.923-2.775.13-.084.263-.165.4-.243.094-.055.193-.137.154-.237s-.165-.1-.267-.051c-.141.061-.286.116-.422.188a23.122,23.122,0,0,0-4.794,3.258c-.64.584-1.182,1.124-2.109.7a.719.719,0,0,0-.231-.01,5.479,5.479,0,0,0-3.884,1.479,15.2,15.2,0,0,0-4.369,6.66c-.592,1.565-.962,3.2-1.577,4.758a60.918,60.918,0,0,1-6.009,11.266,21.874,21.874,0,0,1-8.692,7.782,32.334,32.334,0,0,1-12.276,3c-2.4.159-4.8.316-7.2.514a60.548,60.548,0,0,1-6.817.374c-2.816-.086-5.637-.158-8.45-.387a33.42,33.42,0,0,1-6.362-1.223,55.782,55.782,0,0,1-9.114-3.714,13.414,13.414,0,0,1-6.639-6.8,23.579,23.579,0,0,1-1.971-8.1,93.167,93.167,0,0,1,.321-13.259c.17-2.115.256-4.232.361-5.87.039-1.462-.022-2.444-.064-3.428a2.72,2.72,0,0,1,.024-1.047c.321.2.437.558.646.843a9.069,9.069,0,0,0,3.947,3.275,4.28,4.28,0,0,0,4.648-.67,8.135,8.135,0,0,0,2.649-4.539c.378-1.639.511-3.317.767-4.974a7.785,7.785,0,0,0-1.687-6.1c-.361-.473-.7-.96-1.08-1.42-1.112-1.362-2.03-2.876-3.271-4.135a4.383,4.383,0,0,0-4.07-1.6c-.22.04-.3,0-.193-.221.086-.187.165-.379.25-.568.887-1.955,1.923-3.835,2.835-5.779a29.012,29.012,0,0,0,2.713-11.139c.017-.363.108-.575.469-.684.295-.089.584-.19.887-.261a7.757,7.757,0,0,1,3.963.385,39.466,39.466,0,0,1,7.862,3.619,13.272,13.272,0,0,0,3.4,1.464,2.064,2.064,0,0,0,2.687-1.445,6.419,6.419,0,0,0-.088-4.325,1.329,1.329,0,0,0-.544-.738,35.313,35.313,0,0,0-5.418-2.81,20.179,20.179,0,0,0-8.058-1.611,6.818,6.818,0,0,0-5.977,3.531,1.843,1.843,0,0,0-.064,1.986,1.7,1.7,0,0,1,.184,1.327c-.051.254-.072.51-.109.765a40.124,40.124,0,0,1-.874,4.792,38.764,38.764,0,0,1-3.582,8.395,32.953,32.953,0,0,0-4.232,17.948c.11,2.093.186,4.189.286,6.282a113.051,113.051,0,0,1-.491,11.693c-.161,2.895-.308,5.787-.235,8.686a29.06,29.06,0,0,0,1.447,8.457,15.008,15.008,0,0,0,8.413,9.336c2.285,1.036,4.564,2.086,6.94,2.9a.812.812,0,0,1,.6.7,74.646,74.646,0,0,1,1.824,18.4,1.232,1.232,0,0,0,.152.818,11,11,0,0,0,5.672,4.486,14.033,14.033,0,0,0,6.91.219,8.222,8.222,0,0,1,4.429.329c.412.149.833.274,1.245.425a12.819,12.819,0,0,0,5.335.743,3.666,3.666,0,0,1,1.146.113,7.005,7.005,0,0,0,4.182-.262,16.282,16.282,0,0,0,3.516-1.949,4.31,4.31,0,0,1,1.38-.684,17.637,17.637,0,0,1,6.461-.553,9.8,9.8,0,0,0,7.984-2.406,2.236,2.236,0,0,0,.834-1.8c.033-2.585.071-5.168.325-7.749a98.6,98.6,0,0,1,1.85-11.39c.63-2.88,1.544-5.679,2.364-8.506.812-2.8,1.885-5.516,2.7-8.315.084-.29.144-.51.521-.165a4.864,4.864,0,0,0,4.75,1.107,7.356,7.356,0,0,0,4.244-2.813c.075-.1.171-.269.286-.22s.037.226.013.347a12.705,12.705,0,0,0-.218,3.932,10.891,10.891,0,0,0,3.1,6.129,45.628,45.628,0,0,0,4.928,4.382,19.33,19.33,0,0,1,5.788,7.186,8.054,8.054,0,0,1-.5,7.793,25.647,25.647,0,0,1-2.645,3.637,12.167,12.167,0,0,1-4.826,3.287c-.12.049-.284.083-.259.235.029.174.2.1.318.1a5.4,5.4,0,0,0,3.039-1.015c1.422-1.034,2.832-2.091,4.179-3.219a18.98,18.98,0,0,0,3.1-3.253c3.845-5.2,3.941-10.993.421-16.337a26.606,26.606,0,0,0-3.5-4.15,45.881,45.881,0,0,1-3.525-3.824,6.119,6.119,0,0,1-1.143-6.247,13.581,13.581,0,0,1,2.553-4.312c1.707-1.978,3.481-3.9,5-6.033a11.528,11.528,0,0,1,2.776-2.694,32.987,32.987,0,0,1,4.2-2.5,13.69,13.69,0,0,0,4.845-3.676,15.41,15.41,0,0,0,2.985-13.159M72.516,76.014a.283.283,0,0,1,.316.27.372.372,0,0,1-.313.445.326.326,0,0,1-.376-.319.348.348,0,0,1,.373-.4m-1.305-2.523a1.068,1.068,0,0,1,.9,1.157.9.9,0,0,1-.958.811,1.155,1.155,0,0,1-.913-1.181.9.9,0,0,1,.975-.788m-3.291-.866c.033-.34.212-.576.615-.5.05.01.1,0,.154,0,.377.043.889-.168,1.1.143.195.291-.25.617-.4.932a4,4,0,0,0-.237,2.58,2.583,2.583,0,0,0,3.884,1.577,4.1,4.1,0,0,0,1.981-2.572c.177-.6.163-.609.644-.3.876.565.885.595.295,1.484a7.336,7.336,0,0,1-2.309,2.26c-1.688,1.026-4.819.4-5.535-1.567a5.8,5.8,0,0,1-.393-2.258,8.712,8.712,0,0,1,.2-1.781m-5.871,1.526c-.069.182-.247.136-.4.105a.208.208,0,0,1-.071-.027c-.357-.221-.822-.208-1.139-.516l1.281-.195c.154,0,.33-.023.356.186a.978.978,0,0,1-.029.447m18.008,5.105a30.516,30.516,0,0,1-5.8.9,11.512,11.512,0,0,1-4.276-.946c-.133-.055-.366-.042-.372-.28l-.017,0-.018-.009c-.295.078-.52-.117-.762-.224a29.005,29.005,0,0,1-4.585-2.876,3.176,3.176,0,0,0-.766-.52c-1-.3-.8-1.128-.854-1.84-.017-.207.176-.219.322-.262a29.282,29.282,0,0,1,4.139-1.007c.316-.044.4.01.34.356a9.185,9.185,0,0,0-.191,2.921,4.071,4.071,0,0,0,2.357,3.451c.012,0,.022,0,.034-.007v.02c.521.117,1.036.274,1.562.341,2.054.262,3.5-.789,4.73-2.263a5.5,5.5,0,0,0,.8-1.231c.125-.272.254-.285.46-.1a24.741,24.741,0,0,1,3,3.236c.138.176.2.286-.111.344M72.72,63.687a46.494,46.494,0,0,0-11.046-.33,8.257,8.257,0,0,1-2.238-.121,2.061,2.061,0,0,1-1.593-1.327,5.249,5.249,0,0,1-.4-2.272,8.15,8.15,0,0,1,.115-1.307,2.015,2.015,0,0,1,1.966-1.742,18.058,18.058,0,0,1,4.639.046,46.5,46.5,0,0,1,8.55,1.665A31.017,31.017,0,0,1,83.9,63.952c.459.377.881.8,1.329,1.188a.833.833,0,0,1,.319.816,19.654,19.654,0,0,1-.494,2.189c-.066.239-.163.335-.425.133C81.114,65.57,77,64.413,72.72,63.687M86.466,76.962a3.219,3.219,0,0,1-3.107.188,1.071,1.071,0,0,1-.62-1.461c.667-1.927,1.59-3.744,2.419-5.6.122-.275.243-.272.426-.053a7.635,7.635,0,0,1,2.043,4.405,2.485,2.485,0,0,1-1.16,2.52m-.735-8.315c.185-.563.332-1.137.493-1.707.04-.141.031-.344.214-.351.091,0,.2.142.28.241a9.826,9.826,0,0,1,1.79,4.145,4,4,0,0,1,.153,1.333A5.74,5.74,0,0,1,88.41,74.1a.664.664,0,0,1-.128.185,1.358,1.358,0,0,1-.06-.2A8.583,8.583,0,0,0,85.858,69.4a.643.643,0,0,1-.127-.752M99.084,100.77c.267-.388.476-.354.8-.1a3.911,3.911,0,0,1,1.517,3.488,6.69,6.69,0,0,1-1.119,3.126,2.25,2.25,0,0,1-.355.407,1.751,1.751,0,0,1-1.741.593c-.678-.217-.816-.864-.948-1.478a5.51,5.51,0,0,1,.385-3.322,14.741,14.741,0,0,1,1.466-2.712M22.96,51.736A6.3,6.3,0,0,1,28.6,48.514c.181,0,.362,0,.543,0A21.073,21.073,0,0,1,37.9,50.779a21.024,21.024,0,0,1,3.488,2,1.634,1.634,0,0,1,.779,1.188,8.7,8.7,0,0,1-.114,3.082,1.6,1.6,0,0,1-2.3,1.247,16.551,16.551,0,0,1-3.169-1.433,42.667,42.667,0,0,0-7.509-3.47,9.166,9.166,0,0,0-4.722-.412,2.891,2.891,0,0,0-.938.341c-.447.286-.6.04-.695-.329a1.541,1.541,0,0,1,.241-1.258M16.678,73.913a1.875,1.875,0,0,1,2.253-1.243,4.233,4.233,0,0,1,1.91.973,11.68,11.68,0,0,1,1.77,1.948c.885,1.178,1.743,2.377,2.654,3.534a8.039,8.039,0,0,1,1.749,6.813c-.306,1.567-.374,3.18-.807,4.726a7.292,7.292,0,0,1-2.3,3.61,3.385,3.385,0,0,1-3.605.714,8.4,8.4,0,0,1-5.275-5.5,1.754,1.754,0,0,1-.093-.53c-.009-1.242,0-2.482,0-3.723a28.578,28.578,0,0,1,1.745-11.327m37.974,85.547a13.018,13.018,0,0,1-4.142-.909,12.755,12.755,0,0,0-6.473-.756,12.751,12.751,0,0,1-1.784.012,10.791,10.791,0,0,1-3.238-.232c-.1-.023-.188-.064-.283-.1.049-.12.159-.078.243-.081,2.3-.051,4.58-.491,6.884-.429a20.188,20.188,0,0,1,8.845,2.268c.113.059.313.1.28.213s-.217.015-.333.01m7.718-.423a7.67,7.67,0,0,1-2.507.858c-.135-.044-.268.069-.349-.078a2.836,2.836,0,0,1,.273-.12c.828-.267,1.658-.53,2.485-.8.094-.031.182-.082.276-.009a1.24,1.24,0,0,1-.179.146m18.114-4.952a9.044,9.044,0,0,1-5.513,2.036c-.363-.034-.828-.073-1.289-.122a24.652,24.652,0,0,0-4.259-.165c-.076,0-.209.01-.22-.02-.045-.128.087-.165.164-.2a12.474,12.474,0,0,1,4.073-1.14c1.495-.149,2.994-.144,4.492-.174a7.127,7.127,0,0,0,2.425-.41c.091-.034.2-.066.264.029.012.016-.078.124-.137.168m8.012-37.6a44.164,44.164,0,0,0-2.187,6.277c-.552,1.932-1.332,3.8-1.9,5.735a88.272,88.272,0,0,0-2.457,11.192,86.758,86.758,0,0,0-1.031,12.97c0,.477-.149.69-.609.8a14.343,14.343,0,0,1-2.679.354c-1.472.059-2.942-.022-4.418.12a13.082,13.082,0,0,0-5.253,1.7,10.02,10.02,0,0,1-2.126.911c-1.786.524-3.456,1.359-5.208,1.982a19.894,19.894,0,0,1-3.213.842,2.372,2.372,0,0,1-1.572-.239,23.825,23.825,0,0,0-6.064-2.277,23.839,23.839,0,0,0-7.09-.3,18.675,18.675,0,0,1-5.944-.053,6.257,6.257,0,0,1-1.929-1.092,2.145,2.145,0,0,1-1.167-2.415,10.956,10.956,0,0,0,.02-2.015v-.311c-.12-2.142-.195-4.287-.4-6.424a55.05,55.05,0,0,0-1.515-8.854c-.039-.149-.061-.306-.114-.45-.117-.333.013-.345.291-.268a36.593,36.593,0,0,0,7.446.992c2.761.174,5.531.281,8.3.3,3.286.021,6.561-.295,9.837-.544,1.726-.131,3.456-.243,5.184-.371a32.064,32.064,0,0,0,11.316-2.732,21.338,21.338,0,0,0,8.063-6.65,33.7,33.7,0,0,0,3.827-6.379c.765-1.687,1.474-3.407,2.181-5.124a1.1,1.1,0,0,1,.18-.316c.18.065.066.24.1.367a2.923,2.923,0,0,0,.186.747,1.491,1.491,0,0,1-.053,1.523" transform="translate(2.977 0.774)" fill="#282828"/>
    <path id="Path_20" data-name="Path 20" d="M37.182,82.129a9.942,9.942,0,0,1-4.815-1.269,4.593,4.593,0,0,0-3.153-.5,7.783,7.783,0,0,0-2.879,1.089,21.435,21.435,0,0,0-6.2,6.118,2.427,2.427,0,0,0-.188,2.563A13.22,13.22,0,0,0,25.538,96.2a23.846,23.846,0,0,0,10.252,2.97,19,19,0,0,0,3.229-.3c3.143-.6,6.272-1.265,9.451-1.667A11.615,11.615,0,0,0,51.1,96.56c.626-.236.632-.3.284-.856-1.031-1.642-2.14-3.235-3.094-4.924a20.662,20.662,0,0,0-7.234-7.424,7.825,7.825,0,0,0-3.871-1.227M50.076,96.267c-4.043.535-8.049,1.28-12.041,2.11a13.26,13.26,0,0,1-5.6-.323A26.962,26.962,0,0,1,26.775,96a13.2,13.2,0,0,1-5.833-5.712,2.31,2.31,0,0,1-.181-.506c-.193-.672-.056-.926.615-1.017.743-.1,1.49-.179,2.238-.215a37.542,37.542,0,0,1,4.031-.186,14.041,14.041,0,0,1,4.451.442,13.632,13.632,0,0,0,2.365.378,9.148,9.148,0,0,1,3.762,1.335,66.009,66.009,0,0,0,7.356,3.81,42.4,42.4,0,0,0,4.483,1.685,2.081,2.081,0,0,1,.336.173c-.081.131-.214.062-.322.077M47.5,90.944a41.6,41.6,0,0,0,2.639,3.921,1.216,1.216,0,0,1,.218.382c-.172.15-.336-.026-.492-.082a50.2,50.2,0,0,1-5.916-2.678c-1.833-.949-3.657-1.917-5.486-2.874a19.139,19.139,0,0,0-6.26-1.9,30.232,30.232,0,0,0-5.327-.3,47.819,47.819,0,0,0-5.152.549c-.051.007-.1.043-.149.039-.264-.018-.62.2-.768-.1-.126-.256.2-.443.361-.63A23.711,23.711,0,0,1,26.8,82.1a5.6,5.6,0,0,1,3.138-.891,3.83,3.83,0,0,1,2.3.658A7.726,7.726,0,0,0,37.1,83.114a6.229,6.229,0,0,1,3.95,1.126,20.707,20.707,0,0,1,6.45,6.7" transform="translate(4.394 17.935)" fill="#282828"/>
    <path id="Path_21" data-name="Path 21" d="M21.427,53.048c-.143.414.34.449.5.7a12.308,12.308,0,0,0,2.989,3.126c3.2,2.483,6.734,3.779,10.837,2.848a6.149,6.149,0,0,1,3.505-.082.553.553,0,0,0,.69-.2c.161-.262,0-.491-.2-.677a11.979,11.979,0,0,1-2.165-2.913,8.516,8.516,0,0,0-1.634-2.157,11.868,11.868,0,0,0-7.194-3.018,12.327,12.327,0,0,0-6.56,1.745c-.29.15-.64.292-.759.631m16.566,5.044a5.824,5.824,0,0,1,.924.842c.018.168-.1.124-.139.109a2.455,2.455,0,0,0-.9-.131.288.288,0,0,1-.316-.341.539.539,0,0,1,.433-.478m-1.845-2.138c.191-.355.278-.341.473-.035q.459.716.946,1.412c.146.207.153.345-.088.484a.571.571,0,0,0-.328.5c.078.728-.384.722-.909.827-1.042.208-2.094.241-3,.344a5,5,0,0,1-.533,0c-.171-.022-.368.02-.493-.155.144-.049.289-.1.433-.148a6.442,6.442,0,0,0,3.5-3.221M32.5,55.665a.43.43,0,0,1-.47.475.394.394,0,0,1-.438-.428.441.441,0,0,1,.477-.486c.281-.01.422.148.431.439M30.98,53.047A1.1,1.1,0,0,1,31.994,54.1a.844.844,0,0,1-.821.758,1.013,1.013,0,0,1-.9-1.061.7.7,0,0,1,.7-.75m-3.287-.285c.092-.947.164-1.011,1.081-.918l.077.009c.279.048.667,0,.812.164.214.241-.179.467-.269.718a5.278,5.278,0,0,0-.295,2.584,2.227,2.227,0,0,0,1.446,1.863,2.464,2.464,0,0,0,2.621-.347,4.456,4.456,0,0,0,1.412-2.261c.154-.557.185-.568.574-.207.93.864.957.653.245,1.816A6.464,6.464,0,0,1,33.51,58.1a3.521,3.521,0,0,1-4.941-1.053,6.424,6.424,0,0,1-.976-3.481c.024-.195.07-.5.1-.809m-4.968.228a14.043,14.043,0,0,1,3.954-1.045c.393-.045.613.043.531.493a6.692,6.692,0,0,0,.251,3.658,4.561,4.561,0,0,0,1.621,2.4,1.96,1.96,0,0,1,.21.206c-.106.075-.192,0-.285-.037a15.316,15.316,0,0,1-6.456-4.909c-.379-.494-.363-.533.174-.762" transform="translate(4.781 11.32)" fill="#282828"/>
    <path id="Path_22" data-name="Path 22" d="M40.827,56.974A26.515,26.515,0,0,1,35.9,66.813c-1.252,1.659-2.81,3.036-4.21,4.561a22.429,22.429,0,0,0-2.781,3.33,5.152,5.152,0,0,0-.849,3.237,2.629,2.629,0,0,0,1.3,2.245c.591.324.96.188,1.226-.437a2.094,2.094,0,0,0,.136-.442c.032-.184.062-.42.229-.462.228-.057.351.181.459.351a11.069,11.069,0,0,1,.81,1.841,4.114,4.114,0,0,0,1.588,2.048,1.643,1.643,0,0,0,2.307-.258c.366-.366.714-.749,1.064-1.13a3.721,3.721,0,0,1,2.072-1.134,2.094,2.094,0,0,1,1.971.4c.793.744,1.4,1.554.829,2.718a1,1,0,0,0-.037.15c-.043.152-.094.312.1.391a.317.317,0,0,0,.4-.143,1.842,1.842,0,0,0,.4-1.664,4.837,4.837,0,0,0-1.335-2.06,2.033,2.033,0,0,0-1.264-.526,4.4,4.4,0,0,0-3.654,1.346c-.308.313-.591.651-.9.968a1.136,1.136,0,0,1-1.869.069,4.094,4.094,0,0,1-1.118-1.742,6.02,6.02,0,0,0-.9-1.791,1.015,1.015,0,0,0-.984-.5c-.438.091-.59.459-.677.856-.053.248-.064.574-.354.629-.313.059-.506-.235-.673-.453a2.8,2.8,0,0,1-.412-2.435,6.547,6.547,0,0,1,1.845-3.089q1.918-1.98,3.856-3.939a27.955,27.955,0,0,0,5.861-8.791,21.52,21.52,0,0,0,1.718-8.013,11.314,11.314,0,0,0-.875-4.257c-.116-.267-.187-.751-.542-.618-.4.149-.046.56.031.8a14.8,14.8,0,0,1,.146,8.1" transform="translate(6.263 10.733)" fill="#282828"/>
    <path id="Path_23" data-name="Path 23" d="M39.7,56.971a13.665,13.665,0,0,0-2.787-5.044,10.064,10.064,0,0,0-8.264-3.917c-2.743-.253-4.765,1.4-6.5,3.607a.156.156,0,0,0-.017.207c.067.086.142.015.188-.028.15-.141.287-.295.434-.44A13.1,13.1,0,0,1,24.614,49.6a7.99,7.99,0,0,1,6.529-.982,9.463,9.463,0,0,1,4.887,3.1A15.146,15.146,0,0,1,39.3,57.365c.071.226.114.634.407.553.415-.115.053-.48.076-.733.007-.069-.06-.141-.082-.214" transform="translate(4.939 10.719)" fill="#282828"/>
    <path id="Path_24" data-name="Path 24" d="M54.649,63.916a44.013,44.013,0,0,0,5.143,3.423,12.938,12.938,0,0,0,5.873,1.682,21.68,21.68,0,0,0,3.619-.368,8.522,8.522,0,0,0,2.285-.689c.105-.05.284-.087.247-.251-.048-.209-.253-.153-.38-.124-.4.089-.8.2-1.192.323a15.009,15.009,0,0,1-5.037.668,12.442,12.442,0,0,1-5.554-1.734,34.586,34.586,0,0,1-4.092-2.773,11.931,11.931,0,0,0-3.441-2.036c-.153-.051-.345-.105-.415.05-.092.2.139.247.268.295a11.128,11.128,0,0,1,2.676,1.533" transform="translate(11.546 13.847)" fill="#282828"/>
    <path id="Path_25" data-name="Path 25" d="M21.039,53.59c-.25.188.175.576.365.827a18.13,18.13,0,0,0,3.1,3.018,14.58,14.58,0,0,0,8.748,3.187,16.052,16.052,0,0,1,2.241-.236,10.737,10.737,0,0,1,2.581-.415c.146.011.363.039.376-.161.012-.225-.209-.258-.389-.276a4.741,4.741,0,0,0-1.517.235,14.285,14.285,0,0,1-5.9.136A15,15,0,0,1,21.7,54.115c-.185-.229-.319-.783-.663-.525" transform="translate(4.683 11.957)" fill="#282828"/>
    <path id="Path_26" data-name="Path 26" d="M31.9,97.725a11.338,11.338,0,0,0-6.08-2.053c-.307.034-.615.062-.922.1-.234.032-.51.081-.486.378.02.251.279.257.491.259.077,0,.155,0,.232,0a10.613,10.613,0,0,1,4.717,1.045,13.918,13.918,0,0,1,2.427,1.184c.082.059.175.125.269.024s.037-.187-.012-.28a1.887,1.887,0,0,0-.636-.663" transform="translate(5.454 21.372)" fill="#282828"/>
    <path id="Path_27" data-name="Path 27" d="M34.085,81.586a2.069,2.069,0,0,0,1.138-.16c.9-.488,1.348-1.3.694-2.083a4.257,4.257,0,0,0-4.146-1.2,1.258,1.258,0,0,0-.642,2.209,3.811,3.811,0,0,0,2.957,1.236M31.2,79.167c.165-.56.694-.7,1.243-.706h.346a3.483,3.483,0,0,1,2.534.847c.755.628.634,1.315-.3,1.573a3.567,3.567,0,0,1-3.159-.513c-.389-.281-.823-.659-.664-1.2" transform="translate(6.856 17.422)" fill="#282828"/>
  </g>
</svg>
