<svg xmlns="http://www.w3.org/2000/svg" width="116.967" height="162.87" viewBox="0 0 116.967 162.87">
  <g id="Group_77" data-name="Group 77" transform="translate(-75.794 0.379)">
    <path id="Path_30" data-name="Path 30" d="M43.412,15.667c24.96,0,31.9-30.667,46.081,0s24.813,76-38.992,100-66.168-59.833-66.168-88S18.451,15.667,43.412,15.667Z" transform="translate(91.866 29.667)" fill="#ffece5"/>
    <g id="OBJECTS" transform="translate(-30.13 -38.917)">
      <g id="Group_48" data-name="Group 48" transform="translate(106.329 38.916)">
        <path id="Path_58" data-name="Path 58" d="M179.768,152.964a17.3,17.3,0,0,0-3.151-8.242c-2.788-3.555-6.586-5.939-9.171-5.939a29.062,29.062,0,0,0-4.565.566,9.509,9.509,0,0,0-4.283-.889c-1.818.283-5.7,3.353-7.515,4.848s-4.081,6.343-3.959,8.969c.081,2.586,0,3.394,1.495,1.616s6.3-5.575,9.7-6.06a35.681,35.681,0,0,1,8.323-.04c2.06.121,3.879.242,3.879.848,0,.646-1.818,2.141-3.515,2.182s-2.869.444-3.192-.323-.525-1.414-.646-1.414.04,1.7-1.05,1.778a19.634,19.634,0,0,1-4.767-.2c-.566-.283-1.454-1.172-.808-1.374a24.3,24.3,0,0,1,9.656-.97c5.7.4,7.8,2.465,9.7,3.273,1.858.808,3.959,2.788,3.919,3.192s-6.262,4.444-10.626,5.616c-4.323,1.172-5.454,1.333-9.535.808-4.121-.485-9.454-2.424-10.747-3.475s-1.98-1.98-1.454-2.1c.485-.121,5.01-3.717,9.454-3.677s4.081.242,6.545.04c2.5-.2,3.959-.768,6.828-.323s9.656,2.02,10.222,1.737c1.656-.808-6.182-24.686-6.3-26.342s2.545,1.576,2.343,3.959c-.283,3.353-3.353,4.444-8.2,3.515s4.161-3.919,5.495-2.262c1.333,1.7-5.858,2.182-8.888,2.747s-13.252-1.454-12.161-2.828,6.02.04,6.3,1.293-3.394,2.545-5.656,2.667c-2.3.081-5.01-1.091-4.646-3.919s1.818-4.848,4.485-6.868c0,0,5.575-11.151,4.485-20.12s-8.4-18.3-21.211-17.171c-12.807,1.091-17.575,13.9-18.464,16.807-.929,2.909.566,22.5,18.827,23.756,18.3,1.293,18.827-25.049,24.12-25.776s6.586,1.293,6.747,5.131c.2,3.838,2.909,18.827,15.191,21.575,12.242,2.747,25.615-8.969,24.686-21.413s-9.131-20.12-23.231-18.666-17.009,12.242-15.555,13.9,1.454-4.929-4.04-5.131-8.242,1.454-11.878-1.454-13.535-10.06-23.029-4.767-10.626,11.151-10.626,13.333,2.02,24.12-.566,24.322c-2.545.2-12.242-22.665-11.515-28.362.727-5.656-2.262-14.625-.04-18.827s.768-9.858,6.626-12.08c5.858-2.182-.727-9.858,6.02-14.262s11.515-6.384,17.009-10.222,8.04.2,13.9-3.677c5.858-3.838,6.383-2.545,9.7-2.384,3.273.2,14.262-2.909,17.938,1.091,3.677,4.04,7.878,1.293,11.717,5.131s7.313,7.676,11.515,8.767,7.151,6.383,8.767,9.333c1.656,2.909,7.151,2.384,7.878,7.676s1.656,9.494,3.475,11.717c1.818,2.182-.2,12.242,0,15.191.2,2.909-1.091,11.717-3.677,16.282-2.545,4.565-2.384,10.06-5.131,11.353s-3.8,3.6-4.889,1.535-.97-22.1.4-22.1,2.06,10.828,1.939,13.858-4.929,11.515-3.959,11.919,4.242-5.495,7.151-3.273c2.869,2.182,1.939,8.929.808,12.2-1.091,3.273,1.252,4.04.121,6.949-1.091,2.909-2.1,6.222-4.121,7.151s-6.02,1.535-7.232-2.182c-1.172-3.757,1.172-19.029,4.929-20.2s5.495.646,5.293,3.03-1.01,8.606-3.394,8.767c-2.384.2-4.283-2.545-4.4-.727-.081,1.818,4.848,1.535,5.777,3.394.929,1.818-1.535,6.383-4.283,4.485-2.747-1.939-4.525-.04-5.616,2.707s-2.747,12.767-7.8,18.1c-5.091,5.333-15.07,12.767-25.776,14.141s-27.716-5.212-25.09-11.515c2.586-6.3,30.3-15.353,32.645-4.929s-13.171,20.4-25.655,16.646S130.154,174.66,128.5,169.206c-1.656-5.495-5.818-15.918-5.858-16.08-.04-.2-1.778,2.02-3.677,1.98s-3.475-.929-3.353-4.727-1.414-11.919-1.091-14.141c.323-2.182,1.131-5.091,2.545-4.889s2.707,3.111,3.192,6.707,2.5,11.151,1.293,11.919c-1.252.768-1.252-2.141-2.424-1.616-1.172.566-1.939,2.5-2.222,1.091-.323-1.414-.04-8.04-.444-9.979s1.535-5.858,1.778-3.03a66.01,66.01,0,0,0,2.141,10.5c.566,1.333,13.535,22.463,13.333,34.14-.2,11.717,0,11.07-.121,16.161" transform="translate(-106.329 -38.916)" fill="none" stroke="#000" stroke-linecap="round" stroke-linejoin="round" stroke-width="1"/>
        <path id="Path_59" data-name="Path 59" d="M322.158,365.9c-.808,3.555-1.333,21.373-1.858,26.3" transform="translate(-233.852 -233.792)" fill="none" stroke="#000" stroke-linecap="round" stroke-linejoin="round" stroke-width="1"/>
        <path id="Path_60" data-name="Path 60" d="M223.3,130.9c-6.181-6.182-13.454-9.737-23.029-6.02-9.616,3.717-13.454,24.564-2.747,30.019s22.746,3.475,26.463-7.555-.97-36.6-8.363-42.664-17.13-14.666-32.645-13.292-27.029,4.646-31.837,11.393a68.865,68.865,0,0,0-9.333,18.787c-.97,3.717-2.343,20.039.808,25.251s5.212,11.676,15.757,10.3,17.575-14.141,17.292-19.595c-.283-5.495-.444-8.08-1.374-8.727" transform="translate(-126.788 -70.099)" fill="none" stroke="#000" stroke-linecap="round" stroke-linejoin="round" stroke-width="1"/>
      </g>
      <g id="Group_50" data-name="Group 50" transform="translate(133.48 194.656)">
        <g id="Group_49" data-name="Group 49" transform="translate(0)">
          <path id="Path_61" data-name="Path 61" d="M173.56,424.759c1.172,3.273,4.808,4.767,7.919,5.575a25.447,25.447,0,0,0,12.08.162c4.081-.889,7.959-2.465,12.04-3.313a15.135,15.135,0,0,1,3.313-.364c1.05.04,2.1.2,3.151.323,2.182.242,4.363.364,6.586.4a63.568,63.568,0,0,0,7.353-.323,34.429,34.429,0,0,1,3.515-.323,22.193,22.193,0,0,1,3.232.444c.364.04.566-.525.162-.566-.889-.121-1.778-.323-2.667-.4a13.653,13.653,0,0,0-2.869.121c-2.1.242-4.242.4-6.383.444s-4.242,0-6.383-.162c-1.091-.081-2.141-.162-3.232-.323a20.7,20.7,0,0,0-3.151-.242,24.567,24.567,0,0,0-5.939,1.172c-1.939.566-3.838,1.172-5.818,1.737a29.031,29.031,0,0,1-12.2,1.172,22.453,22.453,0,0,1-6.222-1.818,7.229,7.229,0,0,1-3.919-3.879c-.121-.364-.727-.2-.566.162Z" transform="translate(-173.533 -424.393)"/>
        </g>
      </g>
      <g id="Group_52" data-name="Group 52" transform="translate(133.285 194.739)">
        <g id="Group_51" data-name="Group 51" transform="translate(0)">
          <path id="Path_62" data-name="Path 62" d="M232.663,424.6a6.667,6.667,0,0,0-4.081,1.657,16.245,16.245,0,0,1-1.9,1.374,8.206,8.206,0,0,1-2.707,1.05,51.083,51.083,0,0,1-6.586.525c-2.182.121-4.323.323-6.464.646a38.521,38.521,0,0,1-6.464.646,32.124,32.124,0,0,1-6.464-1.01,88.717,88.717,0,0,0-11.757-2.222,105.591,105.591,0,0,0-12.888-.283.3.3,0,0,0,0,.606c3.838-.081,7.717-.121,11.555.162a74.574,74.574,0,0,1,11.878,2.06,51.216,51.216,0,0,0,6.02,1.212,25.938,25.938,0,0,0,6.383-.242c2.182-.323,4.363-.687,6.586-.848,2.182-.162,4.363-.162,6.545-.4a13.749,13.749,0,0,0,3.353-.687,8.291,8.291,0,0,0,2.3-1.374c1.414-1.05,2.788-2.343,4.646-2.262a.3.3,0,1,0,.04-.606Z" transform="translate(-173.05 -424.596)"/>
        </g>
      </g>
    </g>
  </g>
</svg>
