<svg id="Component_20_1" data-name="Component 20 – 1" xmlns="http://www.w3.org/2000/svg" width="48" height="30" viewBox="0 0 48 30">
  <path id="Rectangle_35" data-name="Rectangle 35" d="M0,0H33A15,15,0,0,1,48,15v0A15,15,0,0,1,33,30H0a0,0,0,0,1,0,0V0A0,0,0,0,1,0,0Z" fill="#fcd0c3"/>
  <path id="Icon_awesome-paper-plane" data-name="Icon awesome-paper-plane" d="M18.59.124.488,10.567a.938.938,0,0,0,.086,1.687L4.726,14l11.22-9.889a.234.234,0,0,1,.336.324L6.874,15.894v3.144a.937.937,0,0,0,1.66.617l2.48-3.019,4.866,2.039a.94.94,0,0,0,1.289-.711L19.981,1.093A.937.937,0,0,0,18.59.124Z" transform="translate(11.002 5.002)" fill="#f14946"/>
</svg>
