<svg xmlns="http://www.w3.org/2000/svg" viewBox="0 0 512 416" fill="#fff" xmlns:v="https://vecta.io/nano"><path d="M488.2 0H283.5c-13.1 0-23.8 10.7-23.8 23.8v105.6c0 13.1 10.7 23.8 23.8 23.8h18v41.9c0 2.9 1.7 5.5 4.3 6.7 1 .4 2 .7 3.1.7 1.7 0 3.5-.6 4.8-1.8l55-47.5h119.5c13.1 0 23.8-10.7 23.8-23.8V23.8C512 10.7 501.3 0 488.2 0zM342.5 72.2l-10.9 10.7 2.6 15c.2 1.1-.3 2.2-1.2 2.8-.5.4-1.1.6-1.7.6-.5 0-.9-.1-1.3-.3l-13.5-7.1L303 101c-1 .5-2.2.4-3-.2s-1.3-1.7-1.1-2.8l2.6-15-10.9-10.7c-.8-.8-1.1-1.9-.7-3 .3-1 1.2-1.8 2.3-2l15.1-2.2 6.8-13.7c.5-1 1.5-1.6 2.6-1.6s2.1.6 2.6 1.6l6.8 13.7 15.1 2.2c1.1.2 2 .9 2.3 2 .1 1-.2 2.1-1 2.9zm69.4 0L401 82.8l2.6 15c.2 1.1-.3 2.2-1.2 2.8-.5.4-1.1.6-1.7.6-.5 0-.9-.1-1.3-.3l-13.5-7.1-13.5 7.1c-1 .5-2.2.4-3-.2-.9-.6-1.3-1.7-1.2-2.8l2.6-15-10.9-10.7c-.8-.8-1.1-1.9-.7-3 .3-1 1.2-1.8 2.3-2l15.1-2.2 6.8-13.7c.5-1 1.5-1.6 2.6-1.6s2.1.6 2.6 1.6l6.8 13.7 15.1 2.2c1.1.2 2 .9 2.3 2 .2 1.1-.1 2.2-.9 3zm69.4 0l-10.9 10.7 2.6 15c.2 1.1-.3 2.2-1.1 2.8-.5.4-1.1.6-1.7.6-.5 0-.9-.1-1.3-.3l-13.5-7.1-13.5 7.1c-1 .5-2.2.4-3-.2-.9-.6-1.3-1.7-1.2-2.8l2.6-15-10.9-10.7c-.8-.8-1.1-1.9-.7-3 .3-1 1.2-1.8 2.3-2l15.1-2.2 6.8-13.7c.5-1 1.5-1.6 2.6-1.6s2.1.6 2.6 1.6l6.8 13.7 15.1 2.2c1.1.2 2 .9 2.3 2 .1 1-.2 2.1-1 2.9zm-317.7.7c-50.1 0-77.8 25.9-77.3 75.9.7 68.5 29.8 110 77.3 109.3 0 0 77.2 3.1 77.2-109.3.1-49.9-26-75.9-77.2-75.9zm136.6 237.2L223 279.3l-18-15.2c-4.8-4-11.8-3.7-16.2.7l-25.1 25-25.2-25c-4.4-4.4-11.5-4.7-16.2-.7l-18.1 15.2L27 310.1C2.1 320 2.1 408 0 416h327.2c-2.1-8-2.1-96-27-105.9z"/></svg>