<svg xmlns="http://www.w3.org/2000/svg" xmlns:xlink="http://www.w3.org/1999/xlink" width="223.134px" height="37.202px" viewBox="0 0 235.7 37.2" xmlns:v="https://vecta.io/nano"><path d="M43.7 0H25.4c-1.2 0-2.1 1-2.1 2.1v9.4c0 1.2 1 2.1 2.1 2.1H27v3.7c0 .3.2.5.4.6.1 0 .2.1.3.1.2 0 .3-.1.4-.2l4.9-4.2h10.7c1.2 0 2.1-1 2.1-2.1V2.1c0-1.1-1-2.1-2.1-2.1zM30.6 6.5l-1 1 .2 1.3c0 .1 0 .2-.1.3h-.2-.1l-1.2-.6-1.1.5h-.3c-.1-.1-.1-.2-.1-.3l.2-1.3-1-1c-.1-.1-.1-.2-.1-.3.1 0 .2-.1.3-.1l1.4-.2.6-1.2c0-.1.1-.1.2-.1s.2.1.2.1l.6 1.2 1.4.2c.1 0 .2.1.2.2s0 .2-.1.3zm6.2 0l-1 1 .2 1.3c0 .1 0 .2-.1.3h-.2-.1l-1.2-.6-1.1.5H33c-.1-.1-.1-.2-.1-.3l.2-1.3-1-1c-.1-.1-.1-.2-.1-.3s.1-.2.2-.2l1.4-.2.6-1.2c0-.1.1-.1.2-.1s.2.1.2.1l.6 1.2 1.5.3c.1 0 .2.1.2.2s0 .2-.1.3zm6.2 0l-1 1 .2 1.3c0 .1 0 .2-.1.3h-.2-.1l-1.2-.6-1.1.5h-.3c-.1-.1-.1-.2-.1-.3l.2-1.3-1-1c-.1-.1-.1-.2-.1-.3s.1-.2.2-.2l1.4-.2.6-1.2c0-.1.1-.1.2-.1s.2.1.2.1l.6 1.2 1.5.3c.1 0 .2.1.2.2s0 .2-.1.3zm-28.4 0c-4.5 0-7 2.3-6.9 6.8.1 6.1 2.7 9.8 6.9 9.8 0 0 6.9.3 6.9-9.8 0-4.5-2.3-6.8-6.9-6.8zm12.2 21.2L19.9 25l-1.6-1.4c-.4-.4-1.1-.3-1.5.1l-2.2 2.2-2.3-2.2c-.4-.4-1-.4-1.5-.1L9.3 25l-6.9 2.8C.2 28.7.2 36.6 0 37.3h29.3c-.2-.8-.2-8.7-2.5-9.6z" fill="#1595ce"/><g fill="#0b2334"><path d="M56.5 26.4V8.6c0-.4.1-.6.2-.8.2-.2.4-.3.7-.3H62c3.8 0 5.6 1.8 5.6 5.3 0 2.2-.9 3.8-2.6 4.7v.1c.7.4 1.4 1.4 1.9 3.1l1.7 5.4c0 .1 0 .1.1.2s0 .1 0 .2c0 .4-.5.6-1.5.6h-.8c-.9 0-1.4-.2-1.5-.6l-1.5-5.4c-.2-.6-.5-1.1-.8-1.3s-.7-.4-1.3-.4h-1v6.9c0 .5-.5.8-1.5.8H58c-1 .1-1.5-.2-1.5-.7zm5.7-10.3c.5 0 .9-.3 1.3-.8s.5-1.2.5-2c0-.9-.2-1.6-.5-2s-.8-.6-1.4-.6h-1.9v5.4h2z"/><use xlink:href="#B"/><path d="M83.5 26.2c-.7-.8-1-1.8-1-3.2 0-1.6.6-2.8 1.7-3.8 1.1-.9 2.8-1.4 5.2-1.4V17c0-1.3-.7-1.9-2-1.9-.5 0-.9.1-1.3.2s-.8.3-1.2.5c-.3.2-.5.2-.6.2-.2 0-.5-.3-.8-.8s-.5-.9-.5-1.2.2-.6.7-.9c.4-.3 1-.5 1.7-.7s1.4-.3 2.2-.3c1.8 0 3.1.4 4 1.2s1.3 2 1.3 3.4v5.6c0 1.3.1 2.2.2 2.8l.2 1.1c0 .3-.3.5-.9.6l-1.7.2c-.3 0-.5-.1-.6-.4-.1-.2-.3-.6-.4-1.1-.3.5-.8.9-1.3 1.2-.6.3-1.2.5-1.9.5-1.3.1-2.3-.3-3-1zm5-1.9c.3-.2.6-.5.9-.8v-3.4c-2.4 0-3.6.9-3.6 2.7 0 .6.1 1.1.4 1.4s.7.5 1.2.5c.4-.1.7-.2 1.1-.4zm8.5 2.1c-.6-.6-.9-1.6-.9-3V6.8c0-.5.5-.8 1.5-.8h.6c1 0 1.5.3 1.5.8v16.5c0 .4.1.7.2.9s.3.3.6.3c.1 0 .3 0 .4-.1.1 0 .2-.1.3-.1.2 0 .4.2.5.7.1.4.2.8.2 1.1 0 .4-.2.7-.7.9s-1 .3-1.6.3c-1.1 0-1.9-.3-2.6-.9zm12.8 0V10.7h-3.4c-.3 0-.4-.1-.6-.3-.1-.2-.2-.5-.2-.9v-.8c0-.4.1-.7.2-.9s.3-.3.6-.3H117c.3 0 .5.1.6.3s.2.5.2.9v.7c0 .4-.1.7-.2.9s-.3.3-.6.3h-3.4v15.7c0 .5-.5.8-1.4.8h-.9c-1 .1-1.5-.2-1.5-.7z"/><use xlink:href="#B" x="47.2"/><use xlink:href="#C"/><path d="M141 26.4c-.6-.6-.9-1.7-.9-3.1v-8h-.5c-.3 0-.5-.1-.6-.3s-.2-.5-.2-.9v-.4c0-.4.1-.7.2-.9s.3-.3.6-.3h.5l.4-2.7c.1-.5.5-.8 1.3-.8h.7c.8 0 1.2.3 1.2.8v2.7h1.3c.3 0 .5.1.6.3s.2.5.2.9v.4c0 .4-.1.7-.2.9s-.3.3-.6.3h-1.3v7.9c0 .4.1.8.2 1s.3.3.6.3c.1 0 .3 0 .5-.1.2 0 .3-.1.4-.1.2 0 .4.2.5.7s.2.8.2 1.1c0 .4-.3.7-.8.9s-1.1.3-1.7.3c-1.2 0-2-.3-2.6-.9z"/><use xlink:href="#D"/><path d="M170.7 13.3c.6.7.9 1.7.9 3.1v10c0 .5-.5.8-1.4.8h-.7c-1 0-1.4-.3-1.4-.8v-9.3c0-.6-.1-1.1-.3-1.4s-.6-.5-1-.5a1.69 1.69 0 0 0-1 .3c-.3.2-.6.5-.8.8v.1 9.9c0 .5-.5.8-1.4.8h-.7c-1 0-1.4-.3-1.4-.8V17c0-.6-.1-1.1-.3-1.4s-.6-.5-1-.5-.8.1-1.1.4-.5.6-.7.9v9.9c0 .3-.1.5-.4.6-.2.1-.6.2-1.1.2h-.7c-.9 0-1.4-.3-1.4-.8v-9.2l-.1-2.8c-.1-.6-.1-.9-.1-1 0-.3.3-.5 1-.7l1.7-.2c.3 0 .5.1.6.3s.2.5.2.8.1.6.1.8c.4-.6.9-1.1 1.5-1.5s1.3-.6 2.1-.6c.7 0 1.3.2 1.9.5s.9.8 1.1 1.5a4.63 4.63 0 0 1 1.6-1.5c.6-.4 1.4-.6 2.1-.6.9.2 1.7.5 2.2 1.2zm4.7 12.1c-1-1.3-1.4-3.1-1.4-5.6 0-2.4.5-4.3 1.4-5.6s2.3-1.9 4.2-1.9c1.8 0 3.2.6 4.2 1.9.9 1.3 1.4 3.2 1.4 5.6s-.5 4.3-1.4 5.6c-1 1.3-2.3 1.9-4.2 1.9s-3.3-.6-4.2-1.9zm5.7-2c.3-.7.5-1.9.5-3.6s-.2-2.9-.5-3.6-.8-1.1-1.5-1.1-1.2.4-1.5 1.1-.5 1.9-.5 3.6.2 2.9.5 3.6.8 1.1 1.5 1.1 1.2-.4 1.5-1.1zm6.5 3v-9.2l-.1-2.8c-.1-.6-.1-.9-.1-1 0-.3.3-.5 1-.7l1.7-.2c.3 0 .5.1.6.3s.2.5.2.8.1.6.1.8a4.63 4.63 0 0 1 1.6-1.5c.6-.4 1.3-.6 2.1-.6 1.1 0 1.9.3 2.5 1s.8 1.7.8 3v10c0 .5-.5.8-1.4.8h-.7c-1 0-1.5-.3-1.5-.8V17c0-.6-.1-1.1-.3-1.4s-.6-.4-1-.4-.7.1-1 .4-.6.5-.8.9v9.9c0 .3-.1.5-.4.6-.2.1-.6.2-1.1.2h-.8c-.9 0-1.4-.3-1.4-.8z"/><use xlink:href="#D" x="53"/><path d="M208.2 26.2c-.7-.8-1-1.8-1-3.2 0-1.6.6-2.8 1.7-3.8 1.1-.9 2.8-1.4 5.2-1.4V17c0-1.3-.7-1.9-2-1.9-.5 0-.9.1-1.3.2s-.8.3-1.2.5c-.2.1-.4.2-.5.2-.2 0-.5-.3-.8-.8s-.5-.9-.5-1.2.2-.6.7-.9c.4-.3 1-.5 1.7-.7s1.4-.3 2.2-.3c1.8 0 3.1.4 4 1.2s1.3 2 1.3 3.4v5.6c0 1.3.1 2.2.2 2.8l.2 1.1c0 .3-.3.5-.9.6l-1.7.2c-.3 0-.5-.1-.6-.4a4.33 4.33 0 0 1-.4-1.1c-.3.5-.8.9-1.3 1.2-.6.3-1.2.5-1.9.5-1.4.1-2.4-.3-3.1-1zm5-1.9c.3-.2.6-.5.9-.8v-3.4c-2.4 0-3.6.9-3.6 2.7 0 .6.1 1.1.4 1.4s.7.5 1.2.5c.4-.1.8-.2 1.1-.4zm8.6 2.1c-.6-.6-.9-1.6-.9-3V6.8c0-.5.5-.8 1.5-.8h.6c1 0 1.5.3 1.5.8v16.5c0 .4.1.7.2.9s.3.3.6.3c.1 0 .3 0 .4-.1.1 0 .2-.1.3-.1.2 0 .4.2.5.7.1.4.2.8.2 1.1 0 .4-.2.7-.7.9s-1 .3-1.6.3c-1.2 0-2-.3-2.6-.9z"/><use xlink:href="#C" x="98"/></g><defs ><path id="B" d="M71.4 25.5c-1-1.2-1.5-3.1-1.5-5.6 0-5.1 1.9-7.6 5.7-7.6 3.4 0 5.1 2.5 5.1 7.4 0 .2-.2.5-.5.9s-.6.6-.8.6h-5.9c.1 1.2.3 2 .7 2.5s1.1.8 1.9.8c.5 0 .9-.1 1.3-.2s.7-.3 1-.5.5-.3.6-.3c.2 0 .5.2.8.7s.5.9.5 1.1c0 .4-.2.7-.7 1s-1 .5-1.7.7-1.3.3-1.9.3c-2 0-3.6-.6-4.6-1.8zm6-6.6c0-1.4-.1-2.4-.4-3s-.8-1-1.4-1c-.7 0-1.1.3-1.5.9-.3.6-.5 1.6-.6 3h3.9z"/><path id="C" d="M130.4 26.8c-.8-.4-1.2-.8-1.2-1.3 0-.3.2-.8.5-1.3s.6-.8.9-.8c.1 0 .2.1.5.3s.5.3.8.4.6.2 1 .2c.5 0 .9-.1 1.2-.4.3-.2.4-.6.4-1 0-.5-.2-.9-.5-1.2s-.9-.6-1.7-1.1c-.9-.5-1.6-1-2-1.6-.5-.6-.7-1.5-.7-2.5 0-1.3.4-2.4 1.2-3.2s1.9-1.2 3.2-1.2c.8 0 1.6.1 2.3.4s1.1.6 1.1 1.1c0 .3-.1.7-.4 1.2-.2.5-.5.8-.7.8-.1 0-.3-.1-.7-.3s-.8-.3-1.2-.3c-.5 0-.8.1-1.1.3s-.4.5-.4.9.1.7.4 1 .7.6 1.3.9l.5.3c.9.5 1.5 1 2 1.7.5.6.7 1.5.7 2.5 0 1.4-.4 2.5-1.3 3.3-.8.8-2 1.2-3.4 1.2-1 .3-1.9.1-2.7-.3z"/><path id="D" d="M147.9 10.1V8c0-.5.6-.8 1.8-.8s1.8.3 1.8.8v2c0 .5-.6.8-1.8.8-1.2.1-1.8-.2-1.8-.7zm0 16.3V13.3c0-.5.5-.8 1.5-.8h.6c1 0 1.5.3 1.5.8v13.1c0 .5-.5.8-1.5.8h-.6c-1 0-1.5-.3-1.5-.8z"/></defs></svg>