<svg xmlns="http://www.w3.org/2000/svg" width="511.999" height="416.032" viewBox="-582.391 -11.016 511.999 416.032" fill="#fff" xmlns:v="https://vecta.io/nano"><path d="M-94.188-11.016h-204.683c-13.125 0-23.801 10.676-23.801 23.798v105.614c0 13.123 10.678 23.799 23.801 23.799h17.972v41.925a7.41 7.41 0 0 0 4.328 6.736c.985.45 2.035.671 3.078.671 1.746 0 3.473-.617 4.842-1.804l55.009-47.529h119.45c13.125 0 23.799-10.677 23.799-23.799V12.782c.004-13.123-10.673-23.798-23.795-23.798zm-145.703 72.19L-250.82 71.83l2.58 15.046a2.89 2.89 0 0 1-1.152 2.83c-.502.366-1.099.552-1.7.552a2.9 2.9 0 0 1-1.345-.332l-13.512-7.103-13.51 7.103a2.9 2.9 0 0 1-3.049-.221 2.89 2.89 0 0 1-1.15-2.83l2.58-15.046-10.932-10.655c-.786-.769-1.073-1.918-.733-2.964s1.246-1.81 2.337-1.969l15.106-2.195 6.755-13.688c.489-.988 1.495-1.613 2.595-1.613a2.89 2.89 0 0 1 2.593 1.613l6.758 13.688 15.103 2.195a2.9 2.9 0 0 1 2.338 1.969 2.89 2.89 0 0 1-.733 2.964zm69.42 0l-10.932 10.655 2.582 15.046a2.9 2.9 0 0 1-1.152 2.83 2.88 2.88 0 0 1-1.7.552c-.46 0-.92-.11-1.349-.332l-13.51-7.103-13.51 7.103c-.976.512-2.156.426-3.047-.221a2.89 2.89 0 0 1-1.152-2.83l2.58-15.046-10.93-10.655c-.786-.769-1.073-1.918-.732-2.964a2.89 2.89 0 0 1 2.336-1.969l15.105-2.195 6.756-13.688c.487-.988 1.495-1.613 2.593-1.613a2.89 2.89 0 0 1 2.593 1.613l6.757 13.688 15.105 2.195a2.89 2.89 0 0 1 2.336 1.969c.344 1.047.057 2.198-.729 2.965zm69.418 0l-10.932 10.655 2.578 15.046c.188 1.087-.255 2.182-1.148 2.83a2.89 2.89 0 0 1-1.702.552c-.46 0-.92-.11-1.347-.332l-13.512-7.103-13.512 7.103a2.89 2.89 0 0 1-3.045-.221c-.893-.647-1.336-1.743-1.152-2.83l2.582-15.046-10.932-10.655a2.9 2.9 0 0 1-.732-2.964c.338-1.047 1.246-1.81 2.336-1.969l15.107-2.195 6.756-13.688a2.89 2.89 0 0 1 2.591-1.613 2.9 2.9 0 0 1 2.597 1.613l6.756 13.688 15.105 2.195a2.9 2.9 0 0 1 2.336 1.969c.342 1.047.059 2.198-.73 2.965zm-317.707.72c-50.06 0-77.765 25.941-77.259 75.926.734 68.46 29.825 109.991 77.259 109.266 0 0 77.222 3.13 77.222-109.266-.001-49.985-26.091-75.926-77.222-75.926zm136.588 237.153l-77.161-30.764-18.068-15.227c-4.772-4.032-11.82-3.734-16.249.665l-25.119 24.983-25.194-24.989a12.03 12.03 0 0 0-16.234-.658l-18.072 15.227-77.161 30.767c-24.847 9.895-24.826 97.89-26.961 105.965h327.217c-2.131-8.058-2.142-96.082-26.998-105.969z"/></svg>