<svg xmlns="http://www.w3.org/2000/svg" viewBox="0 0 128 128" width="100" height="100" xmlns:v="https://vecta.io/nano"><linearGradient id="A" gradientUnits="userSpaceOnUse" x1="2.363" y1="125.638" x2="125.638" y2="2.362"><stop offset="0" stop-color="#0774a8"/><stop offset="1" stop-color="#1294cd"/></linearGradient><path fill="url(#A)" d="M119.9 128H8.1c-4.5 0-8.1-3.6-8.1-8.1V8.1C0 3.6 3.6 0 8.1 0h111.8c4.5 0 8.1 3.6 8.1 8.1v111.8c0 4.5-3.6 8.1-8.1 8.1z"/><path d="M105 25.9H68.4a4.23 4.23 0 0 0-4.2 4.2V49a4.23 4.23 0 0 0 4.2 4.2h3.2v7.5a1.3 1.3 0 0 0 .8 1.2c.2.1.4.1.5.1.3 0 .6-.1.9-.3l9.8-8.5H105a4.23 4.23 0 0 0 4.2-4.2V30.1a4.23 4.23 0 0 0-4.2-4.2zM78.9 38.8l-2 1.9.5 2.7c0 .2 0 .4-.2.5-.1.1-.2.1-.3.1s-.2 0-.2-.1l-2.4-1.3-2.4 1.3c-.2.1-.4.1-.5 0-.2-.1-.2-.3-.2-.5l.5-2.7-2-1.9c-.1-.1-.2-.3-.1-.5a.78.78 0 0 1 .4-.4l2.7-.4 1.2-2.4a.55.55 0 0 1 .5-.3.55.55 0 0 1 .5.3l1.2 2.4 2.7.4c.2 0 .4.2.4.4-.1.1-.1.3-.3.5zm12.4 0l-2 1.9.5 2.7c0 .2 0 .4-.2.5-.1.1-.2.1-.3.1s-.2 0-.2-.1l-2.4-1.3-2.4 1.3c-.2.1-.4.1-.5 0-.2-.1-.2-.3-.2-.5l.5-2.7-2-1.9c-.1-.1-.2-.3-.1-.5a.78.78 0 0 1 .4-.4l2.7-.4 1.2-2.4a.55.55 0 0 1 .5-.3.55.55 0 0 1 .5.3l1.2 2.4 2.7.4c.2 0 .4.2.4.4-.1.1-.1.3-.3.5zm12.4 0l-2 1.9.5 2.7c0 .2 0 .4-.2.5-.1.1-.2.1-.3.1s-.2 0-.2-.1l-2.4-1.3-2.4 1.3c-.2.1-.4.1-.5 0-.2-.1-.2-.3-.2-.5l.5-2.7-2-1.9c-.1-.1-.2-.3-.1-.5a.78.78 0 0 1 .4-.4l2.7-.4 1.2-2.4a.55.55 0 0 1 .5-.3.55.55 0 0 1 .5.3l1.2 2.4 2.7.4c.2 0 .4.2.4.4-.1.1-.1.3-.3.5zm-56.7.1c-8.9 0-13.9 4.6-13.8 13.6.1 12.2 5.3 19.6 13.8 19.5 0 0 13.8.6 13.8-19.5 0-9-4.7-13.6-13.8-13.6zm24.4 42.3l-13.8-5.5-3.2-2.7c-.9-.7-2.1-.7-2.9.1L47 77.6l-4.5-4.5c-.8-.8-2-.8-2.9-.1l-3.2 2.7-13.8 5.5c-4.4 1.8-4.4 17.5-4.8 18.9h58.4c-.4-1.4-.4-17.1-4.8-18.9z" opacity=".9" fill="#fff"/></svg>