<svg xmlns="http://www.w3.org/2000/svg" xmlns:xlink="http://www.w3.org/1999/xlink" xmlns:v="https://vecta.io/nano" width="50" height="37px" viewBox="0"><path d="M43.7 0H25.4c-1.2 0-2.1 1-2.1 2.1v9.4c0 1.2 1 2.1 2.1 2.1H27v3.7c0 .3.2.5.4.6.1 0 .2.1.3.1.2 0 .3-.1.4-.2l4.9-4.2h10.7c1.2 0 2.1-1 2.1-2.1V2.1c0-1.1-1-2.1-2.1-2.1zM30.6 6.5l-1 1 .2 1.3c0 .1 0 .2-.1.3h-.2-.1l-1.2-.6-1.1.5h-.3c-.1-.1-.1-.2-.1-.3l.2-1.3-1-1c-.1-.1-.1-.2-.1-.3.1 0 .2-.1.3-.1l1.4-.2.6-1.2c0-.1.1-.1.2-.1s.2.1.2.1l.6 1.2 1.4.2c.1 0 .2.1.2.2s0 .2-.1.3zm6.2 0l-1 1 .2 1.3c0 .1 0 .2-.1.3h-.2-.1l-1.2-.6-1.1.5H33c-.1-.1-.1-.2-.1-.3l.2-1.3-1-1c-.1-.1-.1-.2-.1-.3s.1-.2.2-.2l1.4-.2.6-1.2c0-.1.1-.1.2-.1s.2.1.2.1l.6 1.2 1.5.3c.1 0 .2.1.2.2s0 .2-.1.3zm6.2 0l-1 1 .2 1.3c0 .1 0 .2-.1.3h-.2-.1l-1.2-.6-1.1.5h-.3c-.1-.1-.1-.2-.1-.3l.2-1.3-1-1c-.1-.1-.1-.2-.1-.3s.1-.2.2-.2l1.4-.2.6-1.2c0-.1.1-.1.2-.1s.2.1.2.1l.6 1.2 1.5.3c.1 0 .2.1.2.2s0 .2-.1.3zm-28.4 0c-4.5 0-7 2.3-6.9 6.8.1 6.1 2.7 9.8 6.9 9.8 0 0 6.9.3 6.9-9.8 0-4.5-2.3-6.8-6.9-6.8zm12.2 21.2L19.9 25l-1.6-1.4c-.4-.4-1.1-.3-1.5.1l-2.2 2.2-2.3-2.2c-.4-.4-1-.4-1.5-.1L9.3 25l-6.9 2.8C.2 28.7.2 36.6 0 37.3h29.3c-.2-.8-.2-8.7-2.5-9.6z" fill="#1E1E1E"/></svg>