<?xml version="1.0" encoding="utf-8"?>
<!-- Generator: Adobe Illustrator 25.4.1, SVG Export Plug-In . SVG Version: 6.00 Build 0)  -->
<svg version="1.1" id="Layer_1" xmlns="http://www.w3.org/2000/svg" xmlns:xlink="http://www.w3.org/1999/xlink" x="0px" y="0px"
	 viewBox="0 0 800 400" style="enable-background:new 0 0 800 400;" xml:space="preserve">
<style type="text/css">
	.st0{fill:#F1F0F0;}
	.st1{font-family:'Lato-Regular';}
	.st2{font-size:14.9836px;}
	.st3{fill:#FFAE04;}
	.st4{fill:#454545;}
	.st5{fill:#DDDDDD;}
	.st6{clip-path:url(#SVGID_00000003824958074306133630000001819006103956741545_);fill:#DDDDDD;}
	.st7{clip-path:url(#SVGID_00000088840730293719118230000003659760275026017426_);}
	.st8{fill-rule:evenodd;clip-rule:evenodd;fill:#F5BE92;}
	.st9{fill-rule:evenodd;clip-rule:evenodd;fill:#92653D;}
	
		.st10{fill-rule:evenodd;clip-rule:evenodd;fill:#4C9DD2;stroke:#4C9DD2;stroke-width:1.084;stroke-linejoin:round;stroke-miterlimit:10;}
	.st11{fill-rule:evenodd;clip-rule:evenodd;fill:#FFFFFF;stroke:#FFFFFF;stroke-width:2;stroke-miterlimit:10;}
	.st12{fill:#92653D;}
	.st13{fill:#FFFFFF;}
	.st14{fill:url(#SVGID_00000064338656314452411860000017495436709136342961_);}
	.st15{fill:#624A2E;}
	.st16{fill:url(#SVGID_00000099622314584637638780000012620157537881258914_);}
	.st17{fill:#E48F67;}
	.st18{fill-rule:evenodd;clip-rule:evenodd;fill:#0A6F90;}
	.st19{font-family:'Lato-Heavy';}
	.st20{font-size:13.9756px;}
	.st21{font-family:'Lato-Bold';}
</style>
<rect class="st0" width="800" height="400"/>
<text transform="matrix(1 0 0 1 120.5981 193.1677)" class="st1 st2">I was looking for a really good testimonial plugin for our business website and was not</text>
<text transform="matrix(1 0 0 1 122.1704 213.1701)" class="st1 st2">having any luck finding one I liked or fulfilled our requirements. I was about to give up</text>
<text transform="matrix(1 0 0 1 133.4385 233.0851)" class="st1 st2">and then I came across Testimonial-Best Testimonials Showcase Plugin for Word</text>
<text transform="matrix(1 0 0 1 656.6494 233.0851)" class="st1 st2">-</text>
<text transform="matrix(1 0 0 1 214.6714 253.0881)" class="st1 st2">Press. I bought the best testimonial plugin. Easy Enough!</text>
<path d="M270.9,161.1c0.5,0,1-0.1,1.3-0.2c0.3-0.1,0.7-0.2,1-0.3v-2.2h-1.5c-0.2,0-0.3,0-0.3-0.1s-0.1-0.2-0.1-0.3v-1.2h4v4.9
	c-0.3,0.3-0.6,0.4-1,0.6c-0.3,0.2-0.7,0.3-1,0.4l-1.2,0.3c-0.4,0.1-0.9,0.1-1.4,0.1c-0.9,0-1.7-0.2-2.4-0.4
	c-0.7-0.3-1.4-0.7-1.9-1.3c-0.5-0.5-1-1.2-1.2-1.9c-0.3-0.8-0.4-1.6-0.4-2.4s0.2-1.7,0.4-2.4c0.3-0.8,0.7-1.4,1.2-1.9
	c0.5-0.5,1.2-1,2-1.2c0.8-0.3,1.7-0.4,2.6-0.4c1,0,1.8,0.2,2.5,0.4c0.7,0.3,1.3,0.7,1.8,1.1l-0.6,1c-0.1,0.2-0.3,0.3-0.5,0.3
	c-0.2,0-0.3-0.1-0.4-0.2s-0.3-0.2-0.5-0.3c-0.2-0.1-0.3-0.2-0.6-0.3c-0.3-0.1-0.4-0.2-0.8-0.2c-0.3-0.1-0.6-0.1-1-0.1
	c-0.6,0-1.1,0.1-1.6,0.3c-0.4,0.2-0.9,0.5-1.2,0.9c-0.3,0.3-0.6,0.8-0.8,1.3c-0.2,0.5-0.3,1.1-0.3,1.7c0,0.7,0.1,1.3,0.3,1.8
	c0.2,0.5,0.4,1,0.8,1.4c0.3,0.3,0.8,0.7,1.2,0.9C269.8,161.3,270.3,161.1,270.9,161.1L270.9,161.1L270.9,161.1z M277.3,162.7v-8.6
	h1.2c0.2,0,0.3,0,0.4,0.1c0.1,0.1,0.2,0.2,0.2,0.4l0.1,1c0.3-0.5,0.7-1,1-1.2c0.3-0.3,0.9-0.4,1.4-0.4c0.4,0,0.8,0.1,1,0.3l-0.3,1.6
	c0,0.1-0.1,0.2-0.1,0.2c-0.1,0-0.1,0.1-0.3,0.1c-0.1,0-0.2,0-0.3-0.1c-0.2,0-0.3-0.1-0.6-0.1c-0.4,0-0.8,0.1-1.1,0.3
	c-0.3,0.3-0.5,0.6-0.8,1v5.3H277.3L277.3,162.7L277.3,162.7z M287.6,154.1c0.5,0,1,0.1,1.5,0.3c0.4,0.2,0.9,0.4,1.1,0.8
	c0.3,0.3,0.6,0.7,0.8,1.2c0.2,0.4,0.3,1,0.3,1.7v0.3c0,0.1,0,0.2-0.1,0.3c0,0.1-0.1,0.1-0.2,0.1h-5.5c0.1,0.9,0.3,1.5,0.7,1.9
	s1,0.6,1.7,0.6c0.3,0,0.6,0,0.9-0.1c0.3-0.1,0.4-0.2,0.6-0.3c0.2-0.1,0.3-0.2,0.4-0.3c0.1-0.1,0.3-0.1,0.4-0.1c0.1,0,0.2,0,0.2,0.1
	s0.1,0.1,0.2,0.2l0.6,0.8c-0.3,0.3-0.5,0.5-0.8,0.7c-0.3,0.2-0.5,0.3-0.9,0.4c-0.3,0.1-0.6,0.2-1,0.3c-0.3,0.1-0.6,0.1-1,0.1
	c-0.6,0-1.1-0.1-1.7-0.3s-1-0.5-1.3-0.9s-0.7-0.9-0.9-1.4c-0.2-0.6-0.3-1.2-0.3-2c0-0.6,0.1-1.1,0.3-1.7c0.2-0.5,0.4-1,0.8-1.3
	c0.3-0.3,0.8-0.7,1.3-0.9C286.4,154.2,287,154.1,287.6,154.1L287.6,154.1L287.6,154.1z M287.7,155.6c-0.6,0-1,0.2-1.4,0.5
	c-0.3,0.3-0.5,0.8-0.6,1.4h3.8c0-0.3,0-0.5-0.1-0.8c-0.1-0.3-0.2-0.4-0.3-0.6c-0.2-0.2-0.3-0.3-0.5-0.4
	C288.2,155.6,288,155.6,287.7,155.6L287.7,155.6L287.7,155.6z M299.7,162.7h-1c-0.2,0-0.3,0-0.4-0.1c-0.1-0.1-0.2-0.2-0.3-0.3
	l-0.2-0.6c-0.2,0.2-0.4,0.3-0.6,0.5c-0.2,0.2-0.4,0.3-0.6,0.3l-0.7,0.3c-0.3,0.1-0.5,0.1-0.9,0.1c-0.3,0-0.7-0.1-1-0.2
	c-0.3-0.1-0.5-0.3-0.8-0.4c-0.3-0.2-0.3-0.4-0.5-0.7c-0.2-0.3-0.2-0.6-0.2-1c0-0.3,0.1-0.6,0.3-1s0.4-0.6,0.9-0.9s1-0.4,1.6-0.6
	c0.6-0.2,1.5-0.3,2.4-0.3v-0.5c0-0.6-0.1-1-0.3-1.3c-0.3-0.3-0.6-0.4-1-0.4c-0.3,0-0.6,0-0.9,0.1s-0.4,0.2-0.6,0.3
	c-0.2,0.1-0.3,0.2-0.4,0.3c-0.2,0.1-0.3,0.1-0.4,0.1c-0.2,0-0.3,0-0.3-0.1l-0.3-0.3l-0.3-0.7c1-0.9,2.2-1.3,3.6-1.3
	c0.5,0,1,0.1,1.3,0.3c0.3,0.2,0.7,0.3,1,0.7c0.3,0.3,0.4,0.6,0.6,1c0.2,0.4,0.2,0.9,0.2,1.3L299.7,162.7L299.7,162.7L299.7,162.7z
	 M295.8,161.4c0.2,0,0.4,0,0.6-0.1c0.2,0,0.3-0.1,0.5-0.2c0.2-0.1,0.3-0.2,0.4-0.3c0.2-0.1,0.3-0.3,0.4-0.4v-1.4
	c-0.6,0-1.1,0-1.5,0.1l-1,0.3c-0.3,0.1-0.4,0.3-0.5,0.4c-0.1,0.2-0.2,0.3-0.2,0.5c0,0.3,0.1,0.6,0.3,0.8
	C295.1,161.3,295.4,161.4,295.8,161.4L295.8,161.4L295.8,161.4z M304.6,162.9c-0.7,0-1.3-0.2-1.7-0.6c-0.4-0.4-0.6-1-0.6-1.7v-4.8
	h-0.9c-0.1,0-0.2,0-0.3-0.1c-0.1-0.1-0.1-0.2-0.1-0.3v-0.8l1.4-0.3l0.4-2.4c0-0.1,0.1-0.2,0.2-0.3c0.1-0.1,0.2-0.1,0.3-0.1h1v2.7
	h2.3v1.5h-2.3v4.6c0,0.3,0.1,0.4,0.2,0.6c0.2,0.2,0.3,0.3,0.5,0.3c0.1,0,0.3,0,0.3-0.1c0.1,0,0.2-0.1,0.3-0.1c0.1,0,0.1-0.1,0.2-0.1
	s0.1-0.1,0.2-0.1c0.1,0,0.1,0,0.2,0.1c0.1,0.1,0.1,0.1,0.1,0.2l0.6,1c-0.3,0.3-0.6,0.4-1,0.5C305.4,162.8,304.9,162.9,304.6,162.9
	L304.6,162.9L304.6,162.9z M313.8,158.5v4.3h-2.3v-12.1h3.9c0.8,0,1.5,0.1,2.1,0.3c0.6,0.2,1,0.4,1.5,0.8c0.3,0.3,0.7,0.8,0.9,1.2
	c0.2,0.4,0.3,1,0.3,1.6c0,0.6-0.1,1.1-0.3,1.6c-0.2,0.5-0.5,0.9-0.9,1.2c-0.3,0.3-0.9,0.6-1.5,0.8c-0.6,0.2-1.2,0.3-2,0.3
	L313.8,158.5L313.8,158.5L313.8,158.5z M313.8,156.8h1.7c0.3,0,0.7-0.1,1-0.2c0.3-0.1,0.5-0.3,0.8-0.4c0.2-0.2,0.3-0.4,0.4-0.7
	c0.1-0.3,0.2-0.6,0.2-1c0-0.3-0.1-0.6-0.2-0.9c-0.1-0.3-0.3-0.5-0.4-0.7s-0.4-0.3-0.8-0.4c-0.3-0.1-0.7-0.2-1-0.2h-1.7V156.8z
	 M324,150.3v12.4h-2.1v-12.4H324z"/>
<g>
	<path id="B" d="M328.2,154.2v5.4c0,0.5,0.1,1,0.3,1.2c0.3,0.3,0.6,0.4,1,0.4c0.3,0,0.7-0.1,1-0.3c0.3-0.2,0.6-0.3,0.9-0.6v-6.2h2.1
		v8.6h-1.2c-0.3,0-0.4-0.1-0.5-0.3l-0.2-0.7l-0.5,0.5c-0.2,0.2-0.3,0.3-0.6,0.3c-0.2,0.1-0.4,0.2-0.7,0.3c-0.3,0.1-0.5,0.1-0.8,0.1
		c-0.4,0-0.9-0.1-1.2-0.3s-0.7-0.3-0.9-0.7c-0.3-0.3-0.4-0.6-0.5-1c-0.1-0.4-0.2-0.9-0.2-1.3v-5.4H328.2L328.2,154.2L328.2,154.2z"
		/>
</g>
<path d="M338.7,154.1c0.3,0,0.7,0,1,0.1c0.3,0.1,0.6,0.2,0.9,0.3h2.4v0.8c0,0.1,0,0.3-0.1,0.3c-0.1,0.1-0.2,0.1-0.3,0.2l-0.8,0.2
	c0.1,0.1,0.1,0.3,0.1,0.4c0,0.2,0.1,0.3,0.1,0.5c0,0.4-0.1,0.8-0.3,1.1c-0.2,0.3-0.4,0.6-0.7,0.9c-0.3,0.3-0.6,0.4-1,0.5
	c-0.4,0.1-0.9,0.2-1.3,0.2c-0.3,0-0.6,0-1-0.1c-0.3,0.2-0.4,0.3-0.4,0.5s0.1,0.3,0.3,0.3c0.2,0.1,0.3,0.2,0.6,0.2s0.5,0.1,0.9,0.1h1
	c0.3,0,0.7,0.1,1,0.2c0.3,0.1,0.6,0.2,0.9,0.3c0.3,0.2,0.4,0.3,0.6,0.6c0.2,0.3,0.3,0.6,0.3,1c0,0.4-0.1,0.8-0.3,1.1
	c-0.2,0.3-0.4,0.7-0.8,1c-0.4,0.3-0.9,0.5-1.3,0.7c-0.5,0.2-1.1,0.3-1.7,0.3s-1.2-0.1-1.7-0.2c-0.4-0.1-0.9-0.3-1.2-0.5
	c-0.3-0.3-0.5-0.4-0.7-0.7c-0.2-0.3-0.3-0.6-0.3-0.9c0-0.4,0.1-0.7,0.3-1c0.3-0.3,0.6-0.5,1-0.6c-0.2-0.1-0.3-0.3-0.5-0.4
	c-0.1-0.2-0.2-0.4-0.2-0.8c0-0.1,0-0.3,0.1-0.4c0.1-0.2,0.1-0.3,0.2-0.4c0.1-0.2,0.2-0.3,0.3-0.3c0.2-0.1,0.3-0.3,0.5-0.3
	c-0.4-0.3-0.8-0.5-1-1c-0.3-0.3-0.3-0.9-0.3-1.4c0-0.4,0.1-0.8,0.3-1.1s0.4-0.6,0.7-0.9c0.3-0.3,0.7-0.4,1-0.5
	C337.8,154.1,338.3,154.1,338.7,154.1L338.7,154.1L338.7,154.1z M341,163.1c0-0.2-0.1-0.3-0.2-0.4c-0.1-0.1-0.3-0.2-0.4-0.3
	c-0.2-0.1-0.3-0.1-0.6-0.2c-0.3-0.1-0.4,0-0.7,0h-0.8c-0.3,0-0.5,0-0.8-0.1c-0.3,0.1-0.4,0.3-0.5,0.4c-0.2,0.2-0.2,0.3-0.2,0.6
	c0,0.2,0,0.3,0.1,0.4c0.1,0.2,0.2,0.3,0.3,0.3c0.2,0.1,0.3,0.2,0.6,0.3c0.3,0.1,0.6,0.1,1,0.1s0.7,0,1-0.1l0.7-0.3
	c0.2-0.1,0.3-0.3,0.4-0.3C340.9,163.4,341,163.2,341,163.1L341,163.1L341,163.1z M338.7,158.3c0.3,0,0.4,0,0.7-0.1
	c0.2-0.1,0.3-0.2,0.4-0.3s0.3-0.3,0.3-0.4c0.1-0.2,0.1-0.3,0.1-0.5c0-0.4-0.1-0.8-0.3-1c-0.3-0.3-0.6-0.3-1.1-0.3
	c-0.5,0-0.9,0.1-1.1,0.3c-0.3,0.3-0.3,0.6-0.3,1c0,0.2,0,0.3,0.1,0.5c0.1,0.2,0.2,0.3,0.3,0.4c0.1,0.1,0.3,0.3,0.4,0.3
	C338.3,158.2,338.5,158.3,338.7,158.3z M346.9,151.7c0,0.2,0,0.3-0.1,0.5c-0.1,0.2-0.2,0.3-0.3,0.4c-0.1,0.1-0.3,0.2-0.4,0.3
	s-0.3,0.1-0.5,0.1c-0.2,0-0.3,0-0.5-0.1s-0.3-0.2-0.4-0.3c-0.1-0.1-0.2-0.3-0.3-0.4c-0.1-0.2-0.1-0.3-0.1-0.5c0-0.2,0-0.3,0.1-0.5
	c0.1-0.2,0.2-0.3,0.3-0.4c0.1-0.1,0.3-0.2,0.4-0.3c0.2-0.1,0.3-0.1,0.5-0.1c0.2,0,0.3,0,0.5,0.1c0.2,0.1,0.3,0.2,0.4,0.3
	c0.1,0.1,0.2,0.3,0.3,0.4C346.9,151.4,346.9,151.5,346.9,151.7z M346.6,154.2v8.6h-2.1v-8.6H346.6z M348.9,162.7v-8.6h1.2
	c0.3,0,0.4,0.1,0.5,0.3l0.2,0.7l0.5-0.5c0.2-0.2,0.4-0.3,0.6-0.3c0.2-0.1,0.4-0.2,0.7-0.3c0.3-0.1,0.5-0.1,0.8-0.1
	c0.4,0,0.9,0.1,1.2,0.3c0.3,0.2,0.7,0.3,0.9,0.7c0.2,0.3,0.4,0.6,0.5,1c0.1,0.4,0.2,0.9,0.2,1.3v5.4h-2.1v-5.4c0-0.5-0.1-1-0.3-1.2
	c-0.3-0.3-0.6-0.4-1-0.4c-0.3,0-0.7,0.1-1,0.3c-0.3,0.2-0.6,0.3-0.9,0.7v6.2L348.9,162.7L348.9,162.7L348.9,162.7z M360.6,154.2h1.7
	c0.2,0,0.3,0,0.3,0.1c0.1,0.1,0.2,0.2,0.2,0.3l1.2,4.5c0.1,0.3,0.1,0.5,0.2,0.7c0,0.3,0.1,0.4,0.1,0.7c0.1-0.3,0.1-0.4,0.2-0.7
	l0.3-0.7l1.4-4.5c0-0.1,0.1-0.2,0.2-0.3c0.1-0.1,0.2-0.1,0.3-0.1h0.9c0.2,0,0.3,0,0.3,0.1c0.1,0.1,0.2,0.2,0.2,0.3l1.4,4.6
	c0.1,0.3,0.2,0.4,0.2,0.7c0.1,0.3,0.1,0.4,0.2,0.7c0-0.3,0.1-0.4,0.1-0.7c0.1-0.3,0.1-0.5,0.2-0.7l1.2-4.5c0-0.1,0.1-0.2,0.2-0.3
	c0.1-0.1,0.3-0.1,0.3-0.1h1.6l-2.7,8.6H369c-0.2,0-0.3-0.1-0.3-0.3l-1.6-5c-0.1-0.2-0.1-0.3-0.2-0.5c0-0.2-0.1-0.3-0.1-0.5
	c0,0.2-0.1,0.3-0.1,0.5c0,0.2-0.1,0.3-0.2,0.5l-1.6,4.9c-0.1,0.3-0.3,0.3-0.4,0.3h-1.6L360.6,154.2L360.6,154.2L360.6,154.2z
	 M377.3,151.7c0,0.2,0,0.3-0.1,0.5c-0.1,0.2-0.2,0.3-0.3,0.4c-0.1,0.1-0.3,0.2-0.4,0.3c-0.2,0.1-0.3,0.1-0.5,0.1s-0.3,0-0.5-0.1
	c-0.2-0.1-0.3-0.2-0.4-0.3c-0.1-0.1-0.2-0.3-0.3-0.4c-0.1-0.2-0.1-0.3-0.1-0.5c0-0.2,0-0.3,0.1-0.5c0.1-0.2,0.2-0.3,0.3-0.4
	c0.1-0.1,0.3-0.2,0.4-0.3c0.2-0.1,0.3-0.1,0.5-0.1s0.3,0,0.5,0.1c0.2,0.1,0.3,0.2,0.4,0.3c0.1,0.1,0.2,0.3,0.3,0.4
	C377.3,151.4,377.3,151.5,377.3,151.7z M377,154.2v8.6h-2.1v-8.6H377z M382.1,162.9c-0.7,0-1.3-0.2-1.7-0.6s-0.6-1-0.6-1.7v-4.8
	h-0.9c-0.1,0-0.2,0-0.3-0.1c-0.1-0.1-0.1-0.2-0.1-0.3v-0.8l1.4-0.3l0.4-2.4c0-0.1,0.1-0.2,0.2-0.3c0.1-0.1,0.2-0.1,0.3-0.1h1v2.7
	h2.3v1.5h-2.3v4.6c0,0.3,0.1,0.4,0.2,0.6c0.2,0.2,0.3,0.3,0.5,0.3c0.1,0,0.3,0,0.3-0.1c0.1,0,0.2-0.1,0.3-0.1c0.1,0,0.1-0.1,0.2-0.1
	c0.1,0,0.1-0.1,0.2-0.1c0.1,0,0.1,0,0.2,0.1s0.1,0.1,0.1,0.2l0.6,1c-0.3,0.3-0.6,0.4-1,0.5C382.9,162.8,382.5,162.9,382.1,162.9
	L382.1,162.9L382.1,162.9z M385.7,162.7v-12.4h2.1v4.7c0.3-0.3,0.7-0.6,1.1-0.8c0.4-0.2,0.9-0.3,1.4-0.3c0.4,0,0.9,0.1,1.2,0.3
	c0.3,0.2,0.7,0.3,0.9,0.7s0.4,0.6,0.5,1c0.1,0.4,0.2,0.9,0.2,1.3v5.4h-2v-5.4c0-0.5-0.1-1-0.3-1.2c-0.3-0.3-0.6-0.4-1-0.4
	c-0.3,0-0.7,0.1-1,0.3s-0.6,0.3-0.9,0.7v6.2L385.7,162.7L385.7,162.7L385.7,162.7z M409,162.7h-1.7c-0.2,0-0.3-0.1-0.4-0.2
	c-0.1-0.1-0.2-0.2-0.3-0.3l-0.9-2.4h-5l-0.9,2.4c-0.1,0.1-0.2,0.3-0.3,0.3c-0.1,0.1-0.3,0.2-0.4,0.2h-1.7l4.7-12.1h2.3L409,162.7
	L409,162.7L409,162.7z M401.3,158.2h3.8l-1.5-4c-0.1-0.2-0.2-0.3-0.3-0.6l-0.3-0.8l-0.3,0.8c-0.1,0.3-0.2,0.4-0.3,0.6L401.3,158.2
	L401.3,158.2L401.3,158.2z M409.1,154.2h1.7c0.2,0,0.3,0,0.3,0.1s0.2,0.2,0.2,0.3l1.2,4.5c0.1,0.3,0.1,0.5,0.2,0.7
	c0,0.3,0.1,0.4,0.1,0.7c0.1-0.3,0.1-0.4,0.2-0.7l0.3-0.7l1.4-4.5c0-0.1,0.1-0.2,0.2-0.3c0.1-0.1,0.2-0.1,0.3-0.1h0.9
	c0.2,0,0.3,0,0.3,0.1s0.2,0.2,0.2,0.3l1.4,4.6c0.1,0.3,0.2,0.4,0.2,0.7c0.1,0.3,0.1,0.4,0.2,0.7c0-0.3,0.1-0.4,0.1-0.7
	c0-0.3,0.1-0.5,0.2-0.7l1.2-4.5c0-0.1,0.1-0.2,0.2-0.3c0.1-0.1,0.3-0.1,0.3-0.1h1.6l-2.7,8.6h-1.7c-0.2,0-0.3-0.1-0.3-0.3l-1.6-5
	c-0.1-0.2-0.1-0.3-0.2-0.5c-0.1-0.2-0.1-0.3-0.1-0.5c0,0.2-0.1,0.3-0.1,0.5c0,0.2-0.1,0.3-0.2,0.5l-1.6,4.9
	c-0.1,0.3-0.3,0.3-0.4,0.3h-1.6L409.1,154.2L409.1,154.2L409.1,154.2z M427,154.1c0.5,0,1,0.1,1.5,0.3c0.4,0.2,0.9,0.4,1.1,0.8
	c0.3,0.3,0.6,0.7,0.8,1.2s0.3,1,0.3,1.7v0.3c0,0.1,0,0.2-0.1,0.3c-0.1,0.1-0.1,0.1-0.2,0.1h-5.5c0.1,0.9,0.3,1.5,0.7,1.9
	s1,0.6,1.7,0.6c0.3,0,0.6,0,0.9-0.1c0.3-0.1,0.4-0.2,0.6-0.3c0.2-0.1,0.3-0.2,0.4-0.3c0.2-0.1,0.3-0.1,0.4-0.1c0.1,0,0.2,0,0.2,0.1
	c0.1,0,0.1,0.1,0.2,0.2l0.6,0.8c-0.3,0.3-0.5,0.5-0.8,0.7c-0.3,0.2-0.5,0.3-0.9,0.4c-0.3,0.1-0.6,0.2-1,0.3c-0.3,0.1-0.6,0.1-1,0.1
	c-0.6,0-1.1-0.1-1.7-0.3s-1-0.5-1.3-0.9s-0.7-0.9-0.9-1.4c-0.2-0.6-0.3-1.2-0.3-2c0-0.6,0.1-1.1,0.3-1.7c0.2-0.5,0.4-1,0.8-1.3
	c0.3-0.3,0.8-0.7,1.3-0.9C425.7,154.2,426.3,154.1,427,154.1L427,154.1L427,154.1z M427,155.6c-0.6,0-1,0.2-1.4,0.5
	c-0.3,0.3-0.5,0.8-0.6,1.4h3.8c0-0.3,0-0.5-0.1-0.8c-0.1-0.3-0.2-0.4-0.3-0.6c-0.2-0.2-0.3-0.3-0.5-0.4
	C427.6,155.6,427.3,155.6,427,155.6L427,155.6L427,155.6z M437.3,155.8c-0.1,0.1-0.1,0.2-0.2,0.2c-0.1,0-0.2,0.1-0.3,0.1
	c-0.1,0-0.2,0-0.3-0.1c-0.1-0.1-0.3-0.1-0.4-0.2c-0.2-0.1-0.3-0.2-0.5-0.2c-0.2-0.1-0.4-0.1-0.7-0.1c-0.4,0-0.7,0.1-1,0.3
	c-0.3,0.2-0.3,0.4-0.3,0.7c0,0.2,0.1,0.3,0.2,0.4s0.3,0.3,0.4,0.3s0.4,0.2,0.7,0.3l1.6,0.5c0.3,0.1,0.4,0.3,0.7,0.4
	c0.3,0.2,0.3,0.3,0.4,0.6c0.1,0.3,0.2,0.5,0.2,0.9c0,0.4-0.1,0.8-0.3,1.1c-0.2,0.3-0.3,0.6-0.7,0.9c-0.3,0.3-0.6,0.4-1,0.6
	s-0.9,0.2-1.5,0.2c-0.3,0-0.6,0-0.9-0.1c-0.3-0.1-0.5-0.1-0.8-0.3c-0.3-0.1-0.5-0.2-0.7-0.3c-0.3-0.1-0.4-0.3-0.6-0.4l0.4-0.8
	l0.2-0.2c0.1-0.1,0.2-0.1,0.3-0.1s0.3,0,0.3,0.1c0.1,0.1,0.3,0.2,0.4,0.3l0.5,0.3c0.2,0.1,0.4,0.1,0.8,0.1c0.3,0,0.4,0,0.6-0.1
	c0.2-0.1,0.3-0.2,0.4-0.3c0.1-0.1,0.2-0.2,0.3-0.3c0.1-0.1,0.1-0.3,0.1-0.3c0-0.2-0.1-0.3-0.2-0.5c-0.1-0.2-0.3-0.3-0.4-0.3
	c-0.2-0.1-0.4-0.2-0.7-0.3l-0.8-0.3c-0.3-0.1-0.5-0.2-0.8-0.3l-0.7-0.4c-0.2-0.2-0.3-0.4-0.4-0.7c-0.1-0.3-0.2-0.6-0.2-1
	s0.1-0.7,0.2-1c0.2-0.3,0.3-0.6,0.6-0.8c0.3-0.3,0.6-0.4,1-0.5s0.9-0.2,1.4-0.2c0.6,0,1.1,0.1,1.6,0.3c0.4,0.2,0.9,0.4,1.2,0.8
	L437.3,155.8L437.3,155.8L437.3,155.8z M443.2,154.1c0.6,0,1.2,0.1,1.7,0.3c0.5,0.2,1,0.5,1.3,0.9c0.3,0.3,0.6,0.9,0.9,1.4
	c0.2,0.5,0.3,1.1,0.3,1.8c0,0.7-0.1,1.3-0.3,1.8c-0.2,0.5-0.5,1-0.9,1.4c-0.3,0.3-0.8,0.7-1.3,0.9c-0.5,0.2-1.1,0.3-1.7,0.3
	c-0.6,0-1.2-0.1-1.7-0.3c-0.5-0.2-1-0.5-1.3-0.9c-0.3-0.3-0.7-0.9-0.9-1.4c-0.2-0.5-0.3-1.1-0.3-1.8c0-0.7,0.1-1.3,0.3-1.8
	c0.2-0.5,0.5-1,0.9-1.4c0.3-0.3,0.8-0.7,1.3-0.9C442,154.2,442.6,154.1,443.2,154.1z M443.2,161.2c0.7,0,1.2-0.3,1.6-0.7
	c0.3-0.4,0.5-1.1,0.5-2.1c0-1-0.2-1.7-0.5-2.1c-0.3-0.4-0.9-0.7-1.6-0.7c-0.7,0-1.2,0.3-1.6,0.7c-0.3,0.5-0.5,1.2-0.5,2.1
	s0.2,1.6,0.5,2.1S442.5,161.2,443.2,161.2z M449.1,162.7v-8.6h1.2c0.3,0,0.4,0.1,0.5,0.3l0.2,0.6l0.4-0.4c0.2-0.2,0.3-0.3,0.5-0.3
	c0.2-0.1,0.3-0.2,0.6-0.3c0.2-0.1,0.4-0.1,0.7-0.1c0.5,0,1,0.2,1.3,0.4c0.3,0.3,0.6,0.7,0.8,1.1c0.2-0.3,0.3-0.5,0.5-0.7
	c0.2-0.2,0.4-0.3,0.7-0.5c0.3-0.1,0.5-0.3,0.8-0.3c0.3-0.1,0.5-0.1,0.8-0.1c0.4,0,0.9,0.1,1.2,0.2c0.3,0.1,0.7,0.3,1,0.6
	c0.3,0.3,0.4,0.6,0.6,1c0.1,0.4,0.2,0.9,0.2,1.4v5.4H459v-5.4c0-0.5-0.1-1-0.3-1.2c-0.3-0.3-0.6-0.4-1-0.4c-0.2,0-0.4,0-0.6,0.1
	s-0.3,0.2-0.4,0.3c-0.2,0.2-0.3,0.3-0.3,0.5c-0.1,0.2-0.1,0.4-0.1,0.7v5.4H454v-5.4c0-0.6-0.1-1-0.3-1.2c-0.3-0.3-0.6-0.3-1-0.3
	c-0.3,0-0.6,0.1-0.8,0.3c-0.3,0.2-0.5,0.3-0.7,0.6v6.3L449.1,162.7L449.1,162.7L449.1,162.7z M466.6,154.1c0.5,0,1,0.1,1.5,0.3
	c0.4,0.2,0.9,0.4,1.1,0.8s0.6,0.7,0.8,1.2c0.2,0.4,0.3,1,0.3,1.7v0.3c0,0.1,0,0.2-0.1,0.3c0,0.1-0.1,0.1-0.2,0.1h-5.5
	c0.1,0.9,0.3,1.5,0.7,1.9s1,0.6,1.7,0.6c0.3,0,0.6,0,0.9-0.1c0.3-0.1,0.4-0.2,0.6-0.3c0.2-0.1,0.3-0.2,0.4-0.3
	c0.2-0.1,0.3-0.1,0.4-0.1c0.1,0,0.2,0,0.2,0.1c0.1,0,0.1,0.1,0.2,0.2l0.6,0.8c-0.3,0.3-0.5,0.5-0.8,0.7c-0.3,0.2-0.5,0.3-0.9,0.4
	c-0.3,0.1-0.6,0.2-1,0.3c-0.3,0.1-0.6,0.1-1,0.1c-0.6,0-1.1-0.1-1.7-0.3c-0.5-0.2-1-0.5-1.3-0.9c-0.3-0.3-0.7-0.9-0.9-1.4
	c-0.2-0.5-0.3-1.2-0.3-2c0-0.6,0.1-1.1,0.3-1.7s0.4-1,0.8-1.3c0.3-0.3,0.8-0.7,1.3-0.9C465.4,154.2,465.9,154.1,466.6,154.1
	L466.6,154.1L466.6,154.1z M466.6,155.6c-0.6,0-1,0.2-1.4,0.5c-0.3,0.3-0.5,0.8-0.6,1.4h3.8c0-0.3,0-0.5-0.1-0.8
	c-0.1-0.3-0.2-0.4-0.3-0.6c-0.2-0.2-0.3-0.3-0.5-0.4C467.2,155.6,467,155.6,466.6,155.6L466.6,155.6L466.6,155.6z M481.7,152.9
	c-0.1,0.1-0.2,0.2-0.2,0.3c-0.1,0.1-0.2,0.1-0.3,0.1c-0.1,0-0.3,0-0.3-0.1c-0.2-0.1-0.3-0.2-0.5-0.3c-0.2-0.1-0.4-0.2-0.7-0.3
	c-0.3-0.1-0.5-0.1-0.9-0.1c-0.3,0-0.6,0-0.8,0.1c-0.3,0.1-0.4,0.2-0.6,0.3s-0.3,0.3-0.3,0.4c-0.1,0.2-0.1,0.3-0.1,0.6
	c0,0.3,0.1,0.5,0.3,0.7c0.2,0.2,0.3,0.3,0.6,0.5c0.3,0.2,0.5,0.3,0.9,0.3s0.7,0.2,1,0.3c0.3,0.1,0.7,0.3,1,0.4
	c0.3,0.2,0.6,0.3,0.9,0.6c0.3,0.3,0.4,0.5,0.6,0.9c0.2,0.3,0.3,0.8,0.3,1.3s-0.1,1-0.3,1.5s-0.4,0.9-0.8,1.2
	c-0.3,0.3-0.8,0.6-1.3,0.9c-0.5,0.3-1.1,0.3-1.7,0.3c-0.3,0-0.8,0-1.1-0.1c-0.3-0.1-0.7-0.2-1-0.3c-0.3-0.2-0.7-0.3-1-0.5
	c-0.3-0.3-0.5-0.4-0.8-0.6l0.6-1c0.1-0.1,0.2-0.2,0.3-0.2c0.1,0,0.2-0.1,0.3-0.1c0.2,0,0.3,0.1,0.4,0.2s0.3,0.3,0.6,0.3
	c0.3,0.2,0.5,0.3,0.8,0.3c0.3,0.1,0.7,0.2,1,0.2c0.6,0,1.1-0.2,1.5-0.4c0.3-0.3,0.5-0.7,0.5-1.3c0-0.3-0.1-0.6-0.3-0.8
	c-0.2-0.2-0.3-0.3-0.6-0.5c-0.3-0.2-0.5-0.3-0.9-0.3c-0.3-0.1-0.7-0.2-1-0.3c-0.3-0.1-0.7-0.3-1-0.4c-0.3-0.2-0.6-0.3-0.9-0.6
	c-0.3-0.3-0.4-0.5-0.6-1c-0.2-0.3-0.3-0.9-0.3-1.4c0-0.4,0.1-0.9,0.3-1.3s0.4-0.8,0.8-1.1c0.3-0.3,0.8-0.6,1.2-0.8
	c0.5-0.2,1-0.3,1.7-0.3c0.7,0,1.4,0.1,1.9,0.3c0.5,0.3,1.1,0.5,1.6,1L481.7,152.9L481.7,152.9L481.7,152.9z"/>
<g>
	<path id="B_00000115499757616728741940000009566591265590862741_" d="M486,154.2v5.4c0,0.5,0.1,1,0.3,1.2c0.3,0.3,0.6,0.4,1,0.4
		c0.3,0,0.7-0.1,1-0.3c0.3-0.2,0.6-0.3,0.9-0.6v-6.2h2.1v8.6h-1.2c-0.3,0-0.4-0.1-0.5-0.3l-0.2-0.7l-0.5,0.5
		c-0.2,0.2-0.3,0.3-0.6,0.3c-0.2,0.1-0.4,0.2-0.7,0.3c-0.3,0.1-0.5,0.1-0.8,0.1c-0.4,0-0.9-0.1-1.2-0.3s-0.7-0.3-0.9-0.7
		c-0.3-0.3-0.4-0.6-0.5-1c-0.1-0.4-0.2-0.9-0.2-1.3v-5.4H486L486,154.2L486,154.2z"/>
</g>
<path d="M493.5,165.5v-11.4h1.2c0.2,0,0.3,0,0.3,0.1c0.1,0.1,0.2,0.2,0.2,0.3l0.2,0.8c0.3-0.4,0.7-0.7,1.2-1c0.4-0.3,1-0.3,1.6-0.3
	c0.4,0,0.9,0.1,1.3,0.3c0.4,0.2,0.7,0.5,1,0.9s0.5,0.8,0.6,1.4c0.2,0.5,0.3,1.1,0.3,1.8c0,0.6-0.1,1.2-0.3,1.7
	c-0.2,0.5-0.4,1-0.7,1.4c-0.3,0.4-0.7,0.7-1.1,1c-0.4,0.3-1,0.3-1.5,0.3c-0.5,0-0.9-0.1-1.2-0.3s-0.6-0.3-0.9-0.6v3.5L493.5,165.5
	L493.5,165.5L493.5,165.5z M497.5,155.6c-0.4,0-0.8,0.1-1.1,0.3c-0.3,0.2-0.6,0.4-0.9,0.8v3.8c0.3,0.3,0.5,0.5,0.8,0.6
	c0.3,0.1,0.6,0.2,0.9,0.2c0.3,0,0.6-0.1,0.9-0.2c0.3-0.1,0.4-0.3,0.6-0.5c0.2-0.3,0.3-0.5,0.4-0.9c0.1-0.3,0.2-0.8,0.2-1.3
	c0-0.5,0-1-0.1-1.3c-0.1-0.3-0.2-0.6-0.3-0.9c-0.2-0.2-0.3-0.3-0.5-0.4C498.1,155.7,497.8,155.6,497.5,155.6L497.5,155.6
	L497.5,155.6z M502.9,165.5v-11.4h1.2c0.2,0,0.3,0,0.3,0.1c0.1,0.1,0.2,0.2,0.2,0.3l0.2,0.8c0.3-0.4,0.7-0.7,1.2-1
	c0.4-0.3,1-0.3,1.6-0.3c0.4,0,0.9,0.1,1.3,0.3c0.4,0.2,0.7,0.5,1,0.9c0.3,0.3,0.5,0.8,0.6,1.4c0.2,0.5,0.3,1.1,0.3,1.8
	c0,0.6-0.1,1.2-0.3,1.7c-0.2,0.5-0.4,1-0.7,1.4c-0.3,0.4-0.7,0.7-1.1,1c-0.4,0.3-1,0.3-1.5,0.3s-0.9-0.1-1.2-0.3
	c-0.3-0.2-0.6-0.3-0.9-0.6v3.5L502.9,165.5L502.9,165.5L502.9,165.5z M507,155.6c-0.4,0-0.8,0.1-1.1,0.3c-0.3,0.2-0.6,0.4-0.9,0.8
	v3.8c0.3,0.3,0.5,0.5,0.8,0.6c0.3,0.1,0.6,0.2,0.9,0.2c0.3,0,0.6-0.1,0.9-0.2c0.3-0.1,0.4-0.3,0.6-0.5c0.2-0.3,0.3-0.5,0.4-0.9
	c0.1-0.3,0.2-0.8,0.2-1.3c0-0.5,0-1-0.1-1.3c-0.1-0.3-0.2-0.6-0.3-0.9c-0.2-0.2-0.3-0.3-0.5-0.4C507.5,155.7,507.2,155.6,507,155.6
	L507,155.6L507,155.6z M516,154.1c0.6,0,1.2,0.1,1.7,0.3c0.5,0.2,1,0.5,1.3,0.9c0.3,0.3,0.6,0.9,0.9,1.4c0.3,0.5,0.3,1.1,0.3,1.8
	c0,0.7-0.1,1.3-0.3,1.8s-0.5,1-0.9,1.4s-0.8,0.7-1.3,0.9c-0.5,0.2-1.1,0.3-1.7,0.3c-0.6,0-1.2-0.1-1.7-0.3c-0.5-0.2-1-0.5-1.3-0.9
	s-0.6-0.9-0.9-1.4c-0.2-0.5-0.3-1.1-0.3-1.8c0-0.7,0.1-1.3,0.3-1.8c0.2-0.5,0.5-1,0.9-1.4c0.3-0.3,0.8-0.7,1.3-0.9
	C514.8,154.2,515.3,154.1,516,154.1z M516,161.2c0.7,0,1.2-0.3,1.6-0.7s0.5-1.1,0.5-2.1c0-1-0.2-1.7-0.5-2.1s-0.9-0.7-1.6-0.7
	c-0.7,0-1.2,0.3-1.6,0.7c-0.3,0.5-0.5,1.2-0.5,2.1s0.2,1.6,0.5,2.1C514.7,161.1,515.3,161.2,516,161.2z M521.8,162.7v-8.6h1.2
	c0.2,0,0.3,0,0.4,0.1s0.2,0.2,0.2,0.4l0.1,1c0.3-0.5,0.7-1,1-1.2c0.4-0.3,0.9-0.4,1.4-0.4c0.4,0,0.8,0.1,1,0.3l-0.3,1.6
	c0,0.1-0.1,0.2-0.1,0.2s-0.1,0.1-0.3,0.1c-0.1,0-0.2,0-0.3-0.1c-0.2,0-0.3-0.1-0.6-0.1c-0.4,0-0.8,0.1-1.1,0.3
	c-0.3,0.3-0.5,0.6-0.8,1v5.3H521.8z M531.4,162.9c-0.7,0-1.3-0.2-1.7-0.6c-0.4-0.4-0.6-1-0.6-1.7v-4.8h-0.9c-0.1,0-0.2,0-0.3-0.1
	s-0.1-0.2-0.1-0.3v-0.8l1.4-0.3l0.4-2.4c0-0.1,0.1-0.2,0.2-0.3c0.1-0.1,0.2-0.1,0.3-0.1h1v2.7h2.3v1.5h-2.3v4.6
	c0,0.3,0.1,0.4,0.2,0.6c0.2,0.2,0.3,0.3,0.5,0.3c0.1,0,0.3,0,0.3-0.1c0.1,0,0.2-0.1,0.3-0.1s0.1-0.1,0.2-0.1c0.1,0,0.1-0.1,0.2-0.1
	s0.1,0,0.2,0.1c0,0,0.1,0.1,0.1,0.2l0.6,1c-0.3,0.3-0.6,0.4-1,0.5C532.3,162.8,531.9,162.9,531.4,162.9z"/>
<g>
	<path class="st3" d="M362.6,295.9l2.2,5.2l5.6,0.4c0.3,0,0.5,0.5,0.3,0.8l-4.2,3.7l1.3,5.4c0.1,0.3-0.3,0.7-0.6,0.4l-4.8-2.9
		l-4.8,2.9c-0.3,0.2-0.8-0.1-0.6-0.4l1.3-5.4l-4.2-3.7c-0.3-0.3-0.2-0.7,0.3-0.8l5.6-0.4l2.2-5.2C362,295.6,362.5,295.6,362.6,295.9
		L362.6,295.9L362.6,295.9z M381,295.9l2.2,5.2l5.6,0.4c0.3,0,0.5,0.5,0.3,0.8l-4.2,3.7l1.3,5.4c0.1,0.3-0.3,0.7-0.6,0.4l-4.8-2.9
		l-4.8,2.9c-0.3,0.2-0.8-0.1-0.6-0.4l1.3-5.4l-4.2-3.7c-0.3-0.3-0.2-0.7,0.3-0.8l5.6-0.4l2.2-5.2C380.4,295.6,380.8,295.6,381,295.9
		L381,295.9L381,295.9z"/>
	<g>
		<path id="C" class="st3" d="M399.4,295.9l2.2,5.2l5.6,0.4c0.3,0,0.5,0.5,0.3,0.8l-4.2,3.7l1.3,5.4c0.1,0.3-0.3,0.7-0.6,0.4
			l-4.8-2.9l-4.8,2.9c-0.3,0.2-0.8-0.1-0.6-0.4l1.3-5.4l-4.2-3.7c-0.3-0.3-0.2-0.7,0.3-0.8l5.6-0.4l2.2-5.2
			C398.7,295.6,399.3,295.6,399.4,295.9L399.4,295.9L399.4,295.9z"/>
	</g>
	<g>
		<path id="C_00000073696687815720123780000006864986927739546557_" class="st3" d="M417.9,295.9l2.2,5.2l5.6,0.4
			c0.3,0,0.5,0.5,0.3,0.8l-4.2,3.7l1.3,5.4c0.1,0.3-0.3,0.7-0.6,0.4l-4.8-2.9l-4.8,2.9c-0.3,0.2-0.8-0.1-0.6-0.4l1.3-5.4l-4.2-3.7
			c-0.3-0.3-0.2-0.7,0.3-0.8l5.6-0.4l2.2-5.2C417.2,295.6,417.7,295.6,417.9,295.9L417.9,295.9L417.9,295.9z"/>
	</g>
	<path class="st3" d="M436.2,295.9l2.2,5.2l5.6,0.4c0.3,0,0.5,0.5,0.3,0.8l-4.2,3.7l1.3,5.4c0.1,0.3-0.3,0.7-0.6,0.4l-4.8-2.9
		l-4.8,2.9c-0.3,0.2-0.8-0.1-0.6-0.4l1.3-5.4l-4.2-3.7c-0.3-0.3-0.2-0.7,0.3-0.8l5.6-0.4l2.2-5.2
		C435.6,295.6,436.1,295.6,436.2,295.9L436.2,295.9L436.2,295.9z"/>
</g>
<path class="st4" d="M84.5,195.8l4.6-4.6c0.1-0.1,0.2-0.3,0.2-0.4s-0.1-0.3-0.2-0.4l-0.4-0.4c-0.1-0.1-0.3-0.2-0.4-0.2
	c-0.2,0-0.3,0.1-0.4,0.2l-5.5,5.5c-0.1,0.1-0.2,0.3-0.2,0.4c0,0.2,0.1,0.3,0.2,0.4l5.5,5.5c0.1,0.1,0.3,0.2,0.4,0.2
	c0.2,0,0.3-0.1,0.4-0.2l0.4-0.4c0.3-0.3,0.3-0.7,0-1L84.5,195.8z M713.5,195.8l-4.6,4.6c-0.1,0.1-0.2,0.3-0.2,0.4
	c0,0.2,0.1,0.3,0.2,0.4l0.4,0.4c0.1,0.1,0.3,0.2,0.4,0.2c0.2,0,0.3-0.1,0.4-0.2l5.5-5.5c0.1-0.1,0.2-0.3,0.2-0.4
	c0-0.2-0.1-0.3-0.2-0.4l-5.5-5.5c-0.1-0.1-0.3-0.2-0.4-0.2c-0.2,0-0.3,0.1-0.4,0.2l-0.4,0.4c-0.3,0.3-0.3,0.7,0,1L713.5,195.8z"/>
<circle class="st5" cx="399.1" cy="93" r="34"/>
<g>
	<defs>
		<circle id="SVGID_1_" cx="399.1" cy="93" r="34"/>
	</defs>
	<clipPath id="SVGID_00000108280082501635699630000003463699815181568685_">
		<use xlink:href="#SVGID_1_"  style="overflow:visible;"/>
	</clipPath>
	
		<circle style="clip-path:url(#SVGID_00000108280082501635699630000003463699815181568685_);fill:#DDDDDD;" cx="399.1" cy="93" r="34"/>
</g>
<g>
	<defs>
		<circle id="SVGID_00000174602202915880750170000016429643379152666005_" cx="399.1" cy="93" r="34"/>
	</defs>
	<clipPath id="SVGID_00000062155540826679638740000012072978943426342561_">
		<use xlink:href="#SVGID_00000174602202915880750170000016429643379152666005_"  style="overflow:visible;"/>
	</clipPath>
	<g style="clip-path:url(#SVGID_00000062155540826679638740000012072978943426342561_);">
		<g>
			<g>
				
					<ellipse transform="matrix(0.9499 -0.3126 0.3126 0.9499 -7.9968 125.1527)" class="st8" cx="386.3" cy="87.5" rx="1.8" ry="3.1"/>
				
					<ellipse transform="matrix(0.3129 -0.9498 0.9498 0.3129 199.9391 451.3207)" class="st8" cx="411.9" cy="87.5" rx="3.1" ry="1.8"/>
			</g>
			<path class="st9" d="M408.1,71.8c2.6,0.4,4.1,2.2,4.7,4.6c1.7,6.4-1.7,20.2-13.5,20.4c-6,0.1-10.4-1.5-12-6.4s-2.3-12.8,1.2-17.2
				C392.8,67.6,402,67.6,408.1,71.8z"/>
			<path class="st10" d="M394.2,104.2c-11,4.8-14.3,7.4-15.5,8.6c-2,1.7-3.1,8.6-4.4,14.2h49.8c-1.2-5.6-2.2-12.5-4.2-14.2
				c-1.3-1.1-4.5-3.7-15.5-8.5L394.2,104.2z"/>
			<g>
				<path class="st8" d="M393.8,94.6v13.1c3,3.5,7.8,3.6,10.7,0v-13C404.5,88,393.8,88,393.8,94.6z"/>
				<path class="st8" d="M399.2,72.8c-17.9,0-11.4,23.3-10.3,25.1c1.3,1.9,7.4,5.2,10.3,5.2s9-3.8,10.3-5.7
					C410.6,95.6,417.1,72.8,399.2,72.8z"/>
			</g>
			<path class="st9" d="M390.4,78.3c3.1,1.9,5.6-1,8.4,0.3c2.9,1.2,11-2.1,12.7,10.8c2.7-9.3-1.8-17.2-12.1-17.6
				c-10.9-0.4-15.4,8.1-12.3,17.4C386.9,84.2,388.1,80.9,390.4,78.3z"/>
			<g>
				<path class="st11" d="M393.3,104.1l-3.8,2l5.5,7.6l4.2-3.9L393.3,104.1z"/>
				<path class="st11" d="M405,104.1l3.8,2l-5.5,7.6l-4.2-3.9L405,104.1z"/>
			</g>
		</g>
		<path class="st12" d="M390.2,77.6c0.3,1.6,2.5,1.7,3.8,1.9c2.4,0.3,5.4-0.7,7.3-2.1c0.2-0.1,0.1-0.3-0.1-0.3
			c-2.1-0.1-4,1.3-6.1,1.5c-1.5,0.1-3.6-0.1-4.8-1.1C390.3,77.4,390.2,77.5,390.2,77.6L390.2,77.6L390.2,77.6L390.2,77.6z"/>
		<path class="st13" d="M391.8,89.2c0,0,0.6,1,2.4,1s2.1-0.9,2.1-1.1c0,0-0.7-1.1-2.1-1.1S391.8,89.2,391.8,89.2z"/>
		
			<radialGradient id="SVGID_00000096040663437055093100000005027823866415895960_" cx="394.1435" cy="-57.1136" r="1.0211" gradientTransform="matrix(1 0 0 -1 0 31.8898)" gradientUnits="userSpaceOnUse">
			<stop  offset="0" style="stop-color:#624A2E"/>
			<stop  offset="3.600000e-02" style="stop-color:#6D5633"/>
			<stop  offset="0.122" style="stop-color:#816B3D"/>
			<stop  offset="0.223" style="stop-color:#907C45"/>
			<stop  offset="0.348" style="stop-color:#9B884A"/>
			<stop  offset="0.523" style="stop-color:#A18F4D"/>
			<stop  offset="1" style="stop-color:#A3914E"/>
		</radialGradient>
		<circle style="fill:url(#SVGID_00000096040663437055093100000005027823866415895960_);" cx="394.1" cy="89" r="1"/>
		<path class="st15" d="M394.1,88c0.5,0,1,0.4,1,1c0,0.5-0.4,1-1,1c-0.5,0-1-0.4-1-1C393.2,88.5,393.7,88,394.1,88 M394.1,87.9
			c-0.6,0-1.1,0.5-1.1,1.1c0,0.6,0.5,1.1,1.1,1.1s1.1-0.5,1.1-1.1C395.2,88.4,394.8,87.9,394.1,87.9L394.1,87.9z"/>
		<circle cx="394.1" cy="89" r="0.4"/>
		<path class="st13" d="M406.4,89.2c0,0-0.6,1-2.4,1c-1.7,0-2.1-0.9-2.1-1.1c0,0,0.7-1.1,2.1-1.1C405.5,87.9,406.4,89.2,406.4,89.2z
			"/>
		
			<radialGradient id="SVGID_00000059990277127371376940000010667031064363735470_" cx="-1135.6523" cy="-57.1136" r="1.0211" gradientTransform="matrix(-1 0 0 -1 -731.5322 31.8898)" gradientUnits="userSpaceOnUse">
			<stop  offset="0" style="stop-color:#624A2E"/>
			<stop  offset="3.600000e-02" style="stop-color:#6D5633"/>
			<stop  offset="0.122" style="stop-color:#816B3D"/>
			<stop  offset="0.223" style="stop-color:#907C45"/>
			<stop  offset="0.348" style="stop-color:#9B884A"/>
			<stop  offset="0.523" style="stop-color:#A18F4D"/>
			<stop  offset="1" style="stop-color:#A3914E"/>
		</radialGradient>
		<circle style="fill:url(#SVGID_00000059990277127371376940000010667031064363735470_);" cx="404.2" cy="89" r="1"/>
		<path class="st15" d="M404.2,88c0.5,0,1,0.4,1,1c0,0.5-0.4,1-1,1c-0.5,0-1-0.4-1-1C403.2,88.5,403.6,88,404.2,88 M404.2,87.9
			c-0.6,0-1.1,0.5-1.1,1.1c0,0.6,0.5,1.1,1.1,1.1s1.1-0.5,1.1-1.1C405.2,88.4,404.8,87.9,404.2,87.9L404.2,87.9z"/>
		<circle cx="404.2" cy="89" r="0.4"/>
		<path class="st17" d="M397.2,93.9c-0.3,0.2-0.3,0.4-0.1,0.7c0.5,0.3,1.1,0.3,1.7,0.3c0.6,0,1.3-0.1,1.8-0.3
			c0.3-0.2,0.4-0.7,0.1-0.9c-0.1,0-0.2,0-0.2,0.1s0.1,0.3,0.1,0.3c0,0.2-0.3,0.3-0.3,0.3c-0.3,0.2-0.8,0.2-1.2,0.2
			C398.7,94.6,396.8,94.7,397.2,93.9L397.2,93.9z M395.8,98.5c1.9,1.4,5,1,6.8-0.3c0.1,0,0-0.1-0.1-0.1
			C400.2,99.1,398.1,99.4,395.8,98.5C395.8,98.3,395.8,98.4,395.8,98.5L395.8,98.5L395.8,98.5L395.8,98.5z"/>
		<path class="st12" d="M389.8,85.1c2.2-0.3,4.4-0.6,6.4,0.5c0.2,0.1,0.3-0.2,0.2-0.3C394.7,84.2,391.6,83.8,389.8,85.1
			C389.8,85,389.8,85.1,389.8,85.1z M408.3,85c-1.7-1.2-4.9-0.8-6.6,0.3c-0.2,0.1,0,0.4,0.2,0.3C404,84.4,406.2,84.7,408.3,85
			C408.3,85.1,408.3,85,408.3,85z"/>
		<path class="st18" d="M404.1,93.4h0.3c2.8-0.3,3.4-1.5,3.8-3.1c0.3-1.7,0.3-2.4,0.8-2.4c0.3-0.1,0.4-0.5,0.4-1s0-0.5-0.5-0.7
			c-0.4-0.2-2.8-0.3-4.5-0.3v0.4c1.4-0.1,2.7,0.1,3.1,0.3c0.9,0.6,0.6,3.3-0.1,4.7c-0.5,1-1.9,1.4-3.1,1.5L404.1,93.4L404.1,93.4
			L404.1,93.4z M398.9,86.9c-0.6,0-3.1-0.7-4.9-0.9h-0.3v0.4c1.5,0.1,3,0.3,3.4,1.1c0.9,1.2-0.7,4.4-2,5.1c-0.4,0.2-1,0.3-1.6,0.3
			v0.4c2.4,0,3.2-1.7,3.6-2.3c0.5-1,0.4-2.5,1.8-2.6c1.4,0,1.2,1.5,1.7,2.5c0.3,0.6,1,2.4,3.5,2.3v-0.4c-0.6,0-1.2-0.1-1.7-0.3
			c-1.3-0.7-2.6-3.8-1.7-5.1c0.5-0.8,2-1.1,3.5-1.1v-0.4h-0.3C402.3,86.1,400.4,86.8,398.9,86.9L398.9,86.9L398.9,86.9z M393.7,86
			c-1.7-0.1-4.1,0.1-4.5,0.3c-0.5,0.2-0.6,0.3-0.6,0.7s0,0.9,0.3,1c0.4,0.2,0.4,0.8,0.7,2.4c0.2,1.6,0.8,2.8,3.6,3.1h0.4V93
			c-1.2,0-2.7-0.4-3.1-1.5c-0.7-1.4-0.8-4.1,0.2-4.7c0.4-0.3,1.7-0.4,3.1-0.3L393.7,86L393.7,86L393.7,86z"/>
		<path class="st12" d="M410.5,82.6c-0.5-0.1-1-0.3-1.3-0.7c-0.2-0.2-0.3-0.4-0.4-0.7c-0.1-0.3,0-0.4-0.3-0.7
			c-0.1-0.1-0.3-0.2-0.4-0.1v-0.3c0.1-0.3-0.3-0.6-0.6-0.3c-0.2,0.1-0.3,0.3-0.3,0.4c0-0.3-0.3-0.6-0.6-0.5c-0.3,0.1-0.9,0-1.2-0.1
			v-0.2c-0.2-0.5-0.5-0.8-0.8-1.2c-0.2-0.4-1-0.3-1,0.2v0.1c-0.1-0.2-0.2-0.3-0.3-0.4c-0.2-0.2-0.4-0.2-0.5,0.1
			c-0.1,0.2-0.1,0.4-0.1,0.6c-0.2,0.1-0.3,0.2-0.5,0.2c0,0-0.1,0-0.1-0.1c-0.7-0.3-1.3-0.5-1.9-1c-0.2-0.2-0.4-0.2-0.6,0
			c-0.3-0.2-0.7-0.2-1,0.2c-1,1.5-1.7,0.1-2.4-0.3c-0.3-0.2-0.7,0-0.7,0.4v0.2c-0.1-0.1-0.1-0.2-0.2-0.3c-0.2-0.3-0.7-0.3-1-0.1
			c-0.7,0.5-1.5,0.8-2.4,0.9h-0.3c0.2-0.1,0.3-0.3,0.2-0.4c0-0.1,0,0,0,0c0-0.2-0.1-0.3-0.3-0.4c-0.3-0.1-0.7-0.3-1-0.3
			c-0.3,0-0.4,0.3-0.3,0.4l0.1,0.1v0.1c-0.3-0.2-0.5-0.4-0.8-0.7c-0.2-0.1-0.3-0.1-0.4,0.1c-0.7,2.8,3.6,2.4,5.5,1.5
			c1.4,1.7,4.4,2,5.2-0.1c0.5,0.7,1.7,0.8,2.6,0.6c0.3,0,0.5-0.1,0.7-0.3c0.3,0.4,0.5,0.7,0.9,1c0.9,0.6,2,0.7,3.1,0.3
			c0.2-0.1,0.3-0.2,0.3-0.3c-0.1,0.6,0.2,1.3,0.5,1.7c0.6,0.8,1.7,1.4,2.7,1.3C411,83.5,411.1,82.7,410.5,82.6L410.5,82.6
			L410.5,82.6z M389.1,74.2c0.2-0.1,0.3-0.3,0.3-0.3c0.3,0.1,0.6-0.1,0.6-0.4c-0.1-0.8,0.1-1.3,0.9-1.5c0.6-0.2,1.4-0.1,2,0
			c0.4,0,0.7-0.6,0.3-0.9c-0.3-0.3-0.5-0.4-0.9-0.5c0.2-0.1,0.3-0.2,0.4-0.3c0.1,0,0.2-0.1,0.3-0.1v0.7c0,0.3,0.4,0.2,0.4-0.1
			c0-0.3,0.1-0.4,0.2-0.6c0.3,0.1,0.4,0.2,0.7,0.1c0.2-0.1,0.3-0.2,0.3-0.3c0.3,0.1,0.4,0.2,0.7,0.3c0.3,0.2,0.3,0.4,0.7,0.5
			c0.3,0.1,0.4-0.1,0.4-0.3c0-0.3-0.3-0.7-0.6-0.9c0.3-0.5,1-0.6,1.6-0.4c0,0.2,0.1,0.3,0.3,0.4c0.3,0.1,0.4,0.1,0.7,0.2h0.1
			c0,0.3,0.1,0.6,0.2,0.9c0.1,0.3,0.4,0.2,0.4-0.1c0-1.1,0.8-1.3,1.7-1.1c0.4,0.1,0.9,0.3,1.2,0.6c0.3,0.3,0.5,0.6,0.9,0.8
			c0.2,0.1,0.4,0,0.4-0.2c0.3-1.3-1.8-2.2-2.8-2.3c-0.5-0.1-1.1,0.1-1.6,0.4c-0.1,0-0.1,0.1-0.2,0.2c0,0,0-0.1-0.1-0.1
			c-1-1-3.2-1-3.6,0.4c-0.3-0.1-0.6-0.1-0.9-0.1c-0.2,0-0.3,0-0.4,0.1c-0.5-0.1-1.1,0-1.6,0.2c-0.3,0.2-0.7,0.4-1,0.8
			c-0.1,0.1-0.1,0.2-0.1,0.3c-0.6,0-1.2,0.1-1.7,0.3c-1.2,0.4-1.3,1.6-1.2,2.6c-1.2,0.3-2.4,2.1-1.8,3.1c0.1,0.3,0.2,0.7,0.4,1
			c-0.5,0.1-1,0.4-1.1,0.9c-0.8,0.8-0.8,2.4,0,3.2c0.1,0.1,0.1,0.2,0.2,0.3c0.1,0.1,0.2,0.1,0.2,0.1c0.4,0.1,1-0.3,0.7-0.8
			c-0.3-0.4-0.3-1-0.3-1.5c0-0.2,0.1-0.3,0.2-0.4h0.2c0.3,0,0.4-0.3,0.5-0.4c0.1,0,0.2,0,0.2-0.1c0.5-0.1,0.4-0.7,0.1-1
			c0.2-0.2,0.3-0.5,0-0.8c-0.5-0.7,0.1-1.7,0.8-2.2C388.8,74.5,389,74.5,389.1,74.2L389.1,74.2L389.1,74.2z"/>
	</g>
</g>
<text transform="matrix(1 0 0 1 343.9541 284.7043)" class="st19 st20">Mechiel Couvaras</text>
<text transform="matrix(1 0 0 1 340.6562 336.1613)" class="st21 st20">CEO - SmartGeeky</text>
</svg>
