<svg xmlns="http://www.w3.org/2000/svg" xmlns:xlink="http://www.w3.org/1999/xlink" viewBox="0 0 800 400" xmlns:v="https://vecta.io/nano"><style><![CDATA[.Y{font-family:Lato-Regular}.Z{font-size:17.154px}.a{fill:#92653d}.b{stroke-miterlimit:10}.c{fill-rule:evenodd}]]></style><path d="M0,0h800v400H0V0z" fill="#fff" stroke="#aaa" stroke-width="2.254" class="b"/><text transform="translate(81.271 192.453)" class="Y Z">I was looking for a really good testimonial plugin for our business website and was not</text><text transform="translate(83.071 215.353)" class="Y Z">having any luck finding one I liked or fulfilled our requirements. I was about to give up</text><text transform="translate(95.971 238.153)" class="Y Z">and then I came across Testimonial-Best Testimonials Showcase Plugin for Word</text><text transform="translate(694.971 238.153)" class="Y Z">-</text><text transform="translate(188.971 261.053)" class="Y Z">Press. I bought the best testimonial plugin. Easy Enough!</text><path d="M253.4 155.7c.6 0 1.1-.1 1.5-.2s.8-.2 1.2-.4v-2.5h-1.7c-.2 0-.3 0-.4-.1s-.1-.2-.1-.3v-1.4h4.6v5.6c-.3.3-.7.5-1.1.7s-.8.3-1.2.5l-1.4.3c-.5.1-1 .1-1.6.1-1 0-1.9-.2-2.8-.5-.8-.3-1.6-.8-2.2-1.5-.6-.6-1.1-1.4-1.4-2.2-.3-.9-.5-1.8-.5-2.8s.2-1.9.5-2.8.8-1.6 1.4-2.2 1.4-1.1 2.3-1.4 1.9-.5 3-.5 2.1.2 2.9.5 1.5.8 2.1 1.3l-.7 1.2c-.1.2-.3.4-.6.4-.2 0-.3-.1-.5-.2s-.4-.2-.6-.4c-.2-.1-.4-.2-.7-.3s-.5-.2-.9-.2c-.3-.1-.7-.1-1.1-.1-.7 0-1.3.1-1.8.3s-1 .6-1.4 1-.7.9-.9 1.5-.3 1.3-.3 2c0 .8.1 1.5.3 2.1s.5 1.1.9 1.6c.4.4.9.8 1.4 1s1.1-.1 1.8-.1h0zm7.3 1.9v-9.8h1.4c.2 0 .4 0 .5.1s.2.2.2.5l.1 1.2c.3-.6.8-1.1 1.2-1.4s1-.5 1.6-.5c.5 0 .9.1 1.2.3l-.3 1.8c0 .1-.1.2-.1.2-.1 0-.1.1-.3.1-.1 0-.2 0-.4-.1-.2 0-.4-.1-.7-.1-.5 0-.9.1-1.3.4-.3.3-.6.7-.9 1.2v6.1h-2.2 0zm11.8-9.9c.6 0 1.2.1 1.7.3s1 .5 1.3.9.7.8.9 1.4c.2.5.3 1.2.3 1.9v.4c0 .1 0 .2-.1.3 0 .1-.1.1-.2.1h-6.3c.1 1 .3 1.7.8 2.2s1.1.7 1.9.7c.4 0 .7 0 1-.1s.5-.2.7-.3.4-.2.5-.3.3-.1.5-.1c.1 0 .2 0 .2.1s.1.1.2.2l.7.9c-.3.3-.6.6-.9.8s-.6.4-1 .5c-.3.1-.7.2-1.1.3s-.7.1-1.1.1c-.7 0-1.3-.1-1.9-.3s-1.1-.6-1.5-1-.8-1-1-1.6c-.2-.7-.4-1.4-.4-2.3 0-.7.1-1.3.3-1.9s.5-1.1.9-1.5.9-.8 1.5-1c.7-.6 1.4-.7 2.1-.7h0zm.1 1.7c-.7 0-1.2.2-1.6.6s-.6.9-.7 1.6h4.4c0-.3 0-.6-.1-.9s-.2-.5-.4-.7-.4-.4-.6-.5c-.4-.1-.7-.1-1-.1h0zm13.7 8.2h-1.1c-.2 0-.4 0-.5-.1a1.38 1.38 0 0 1-.3-.4l-.2-.7c-.2.2-.5.4-.7.6s-.5.3-.7.4l-.8.3c-.3.1-.6.1-1 .1s-.8-.1-1.1-.2-.6-.3-.9-.5-.4-.5-.6-.8-.2-.7-.2-1.2c0-.4.1-.7.3-1.1s.5-.7 1-1 1.1-.5 1.8-.7 1.7-.3 2.8-.3v-.6c0-.7-.1-1.1-.4-1.5-.3-.3-.7-.5-1.2-.5-.4 0-.7 0-1 .1s-.5.2-.7.3-.4.2-.5.3c-.2.1-.3.1-.5.1s-.3 0-.4-.1l-.3-.3-.4-.8c1.1-1 2.5-1.5 4.1-1.5.6 0 1.1.1 1.5.3s.8.4 1.1.8c.3.3.5.7.7 1.2s.2 1 .2 1.5v6.3h0zm-4.5-1.5c.2 0 .5 0 .7-.1.2 0 .4-.1.6-.2s.4-.2.5-.3c.2-.1.3-.3.5-.5v-1.6c-.7 0-1.3 0-1.7.1l-1.1.3c-.3.1-.5.3-.6.5s-.2.4-.2.6c0 .4.1.7.4.9.2.2.5.3.9.3h0zm10.1 1.7c-.8 0-1.5-.2-2-.7s-.7-1.1-.7-2v-5.5h-1c-.1 0-.2 0-.3-.1s-.1-.2-.1-.4v-.9l1.6-.3.5-2.7c0-.1.1-.2.2-.3s.2-.1.3-.1h1.2v3.1h2.6v1.7h-2.6v5.3c0 .3.1.5.2.7.2.2.4.3.6.3.1 0 .3 0 .4-.1.1 0 .2-.1.3-.1s.1-.1.2-.1.1-.1.2-.1.1 0 .2.1.1.1.1.2l.7 1.1c-.3.3-.7.5-1.2.6-.5.2-1 .3-1.4.3h0zm10.6-5v4.9h-2.6v-13.8h4.5c.9 0 1.7.1 2.4.3s1.2.5 1.7.9c.4.4.8.9 1 1.4s.3 1.1.3 1.8-.1 1.3-.3 1.8c-.2.6-.6 1-1 1.4s-1 .7-1.7.9-1.4.3-2.3.3h-2v.1zm0-2h1.9c.4 0 .8-.1 1.2-.2.3-.1.6-.3.9-.5.2-.2.4-.5.5-.8s.2-.7.2-1.1-.1-.7-.2-1-.3-.6-.5-.8-.5-.4-.9-.5-.8-.2-1.2-.2h-1.9v5.1zm11.6-7.4v14.2h-2.4v-14.2h2.4z"/><use xlink:href="#B"/><path d="M331 147.7c.4 0 .8 0 1.2.1s.7.2 1 .4h2.8v.9c0 .1 0 .3-.1.3-.1.1-.2.1-.4.2l-.9.2a.9.9 0 0 1 .1.5c0 .2.1.4.1.6 0 .5-.1.9-.3 1.3s-.5.7-.8 1-.7.5-1.2.6-1 .2-1.5.2c-.4 0-.7 0-1.1-.1-.3.2-.5.4-.5.6s.1.3.3.4.4.2.7.2.6.1 1 .1h1.2c.4 0 .8.1 1.2.2s.7.2 1 .4.5.4.7.7.3.7.3 1.1c0 .5-.1.9-.3 1.3s-.5.8-.9 1.1c-.5.3-1 .6-1.5.8-.6.2-1.3.3-2 .3s-1.4-.1-1.9-.2-1-.3-1.4-.6-.6-.5-.8-.8a1.69 1.69 0 0 1-.3-1c0-.5.1-.8.4-1.2.3-.3.7-.6 1.2-.7-.2-.1-.4-.3-.6-.5-.1-.2-.2-.5-.2-.9 0-.1 0-.3.1-.5s.1-.3.2-.5a.78.78 0 0 1 .4-.4c.2-.1.3-.3.6-.4-.5-.3-.9-.6-1.2-1.1-.3-.4-.4-1-.4-1.6 0-.5.1-.9.3-1.3s.5-.7.8-1 .8-.5 1.2-.6 1-.1 1.5-.1h0zm2.6 10.3c0-.2-.1-.4-.2-.5s-.3-.2-.5-.3-.4-.1-.7-.2-.5 0-.8 0h-.9c-.3 0-.6 0-.9-.1-.3.1-.5.3-.6.5-.2.2-.2.4-.2.7a.9.9 0 0 0 .1.5.78.78 0 0 0 .4.4c.2.1.4.2.7.3s.7.1 1.1.1.8 0 1.1-.1l.8-.3c.2-.1.4-.3.5-.4 0-.2.1-.4.1-.6h0zm-2.6-5.5c.3 0 .5 0 .8-.1.2-.1.4-.2.5-.3s.3-.3.3-.5c.1-.2.1-.4.1-.6 0-.5-.1-.9-.4-1.1-.3-.3-.7-.4-1.3-.4s-1 .1-1.3.4-.4.7-.4 1.1c0 .2 0 .4.1.6s.2.4.3.5.3.3.5.3c.3 0 .5.1.8.1zm9.4-7.5c0 .2 0 .4-.1.6s-.2.3-.3.5c-.1.1-.3.2-.5.3s-.4.1-.6.1-.4 0-.6-.1-.3-.2-.5-.3c-.1-.1-.2-.3-.3-.5s-.1-.4-.1-.6 0-.4.1-.6.2-.3.3-.5c.1-.1.3-.2.5-.3s.4-.1.6-.1.4 0 .6.1.3.2.5.3c.1.1.2.3.3.5 0 .2.1.4.1.6zm-.4 2.8v9.8h-2.4v-9.8h2.4zm2.7 9.8v-9.8h1.4c.3 0 .5.1.6.4l.2.8.6-.6c.2-.2.5-.3.7-.4s.5-.2.8-.3.6-.1.9-.1c.5 0 1 .1 1.4.3s.8.4 1 .8.5.7.6 1.2.2 1 .2 1.5v6.2h-2.4v-6.2c0-.6-.1-1.1-.4-1.4s-.7-.5-1.2-.5c-.4 0-.8.1-1.1.3s-.7.4-1 .8v7.1h-2.3v-.1zm13.3-9.8h1.9c.2 0 .3 0 .4.1s.2.2.2.3l1.4 5.2c.1.3.1.6.2.8 0 .3.1.5.1.8.1-.3.1-.5.2-.8l.3-.8 1.6-5.2c0-.1.1-.2.2-.3s.2-.1.4-.1h1c.2 0 .3 0 .4.1s.2.2.2.3l1.6 5.3c.1.3.2.5.2.8.1.3.1.5.2.8 0-.3.1-.5.1-.8.1-.3.1-.6.2-.8l1.4-5.2c0-.1.1-.2.2-.3s.3-.1.4-.1h1.8l-3.1 9.8h-1.9c-.2 0-.3-.1-.4-.4l-1.8-5.7c-.1-.2-.1-.4-.2-.6 0-.2-.1-.4-.1-.6 0 .2-.1.4-.1.6s-.1.4-.2.6l-1.8 5.6c-.1.3-.3.4-.5.4h-1.8l-2.7-9.8h0zm19.1-2.8c0 .2 0 .4-.1.6s-.2.3-.3.5c-.1.1-.3.2-.5.3s-.4.1-.6.1-.4 0-.6-.1-.3-.2-.5-.3c-.1-.1-.2-.3-.3-.5s-.1-.4-.1-.6 0-.4.1-.6.2-.3.3-.5c.1-.1.3-.2.5-.3s.4-.1.6-.1.4 0 .6.1.3.2.5.3c.1.1.2.3.3.5s.1.4.1.6zm-.3 2.8v9.8h-2.4v-9.8h2.4zm5.8 10c-.8 0-1.5-.2-2-.7s-.7-1.1-.7-2v-5.5h-1c-.1 0-.2 0-.3-.1s-.1-.2-.1-.4v-.9l1.6-.3.5-2.7c0-.1.1-.2.2-.3s.2-.1.3-.1h1.2v3.1h2.6v1.7h-2.6v5.3c0 .3.1.5.2.7.2.2.4.3.6.3.1 0 .3 0 .4-.1.1 0 .2-.1.3-.1s.1-.1.2-.1.1-.1.2-.1.1 0 .2.1.1.1.1.2l.7 1.1c-.3.3-.7.5-1.2.6-.4.2-.9.3-1.4.3h0zm4.2-.2v-14.2h2.4v5.4c.4-.4.8-.7 1.3-.9s1-.3 1.6-.3c.5 0 1 .1 1.4.3s.8.4 1 .8.5.7.6 1.2.2 1 .2 1.5v6.2H391v-6.2c0-.6-.1-1.1-.4-1.4s-.7-.5-1.2-.5c-.4 0-.8.1-1.1.3s-.7.4-1 .8v7.1h-2.5v-.1zm26.7 0h-2c-.2 0-.4-.1-.5-.2s-.2-.2-.3-.4l-1-2.8H402l-1 2.8c-.1.1-.2.3-.3.4s-.3.2-.5.2h-2l5.4-13.8h2.6l5.3 13.8h0zm-8.9-5.2h4.4l-1.7-4.6c-.1-.2-.2-.4-.3-.7l-.3-.9-.3.9c-.1.3-.2.5-.3.7l-1.5 4.6h0zm9-4.6h1.9c.2 0 .3 0 .4.1s.2.2.2.3l1.4 5.2c.1.3.1.6.2.8 0 .3.1.5.1.8.1-.3.1-.5.2-.8l.3-.8 1.6-5.2c0-.1.1-.2.2-.3s.2-.1.4-.1h1c.2 0 .3 0 .4.1s.2.2.2.3l1.6 5.3c.1.3.2.5.2.8.1.3.1.5.2.8 0-.3.1-.5.1-.8s.1-.6.2-.8l1.4-5.2c0-.1.1-.2.2-.3s.3-.1.4-.1h1.8l-3.1 9.8h-1.9c-.2 0-.3-.1-.4-.4l-1.8-5.7c-.1-.2-.1-.4-.2-.6s-.1-.4-.1-.6c0 .2-.1.4-.1.6s-.1.4-.2.6l-1.8 5.6c-.1.3-.3.4-.5.4h-1.8l-2.7-9.8h0zm20.4-.1c.6 0 1.2.1 1.7.3s1 .5 1.3.9.7.8.9 1.4.3 1.2.3 1.9v.4c0 .1 0 .2-.1.3s-.1.1-.2.1h-6.3c.1 1 .3 1.7.8 2.2s1.1.7 1.9.7c.4 0 .7 0 1-.1s.5-.2.7-.3.4-.2.5-.3c.2-.1.3-.1.5-.1.1 0 .2 0 .2.1.1 0 .1.1.2.2l.7.9c-.3.3-.6.6-.9.8s-.6.4-1 .5c-.3.1-.7.2-1.1.3s-.7.1-1.1.1c-.7 0-1.3-.1-1.9-.3s-1.1-.6-1.5-1-.8-1-1-1.6c-.2-.7-.4-1.4-.4-2.3 0-.7.1-1.3.3-1.9s.5-1.1.9-1.5.9-.8 1.5-1c.7-.6 1.3-.7 2.1-.7h0zm0 1.7c-.7 0-1.2.2-1.6.6s-.6.9-.7 1.6h4.4c0-.3 0-.6-.1-.9s-.2-.5-.4-.7-.4-.4-.6-.5c-.3-.1-.6-.1-1-.1h0zm11.9.3c-.1.1-.1.2-.2.2s-.2.1-.3.1-.2 0-.4-.1c-.1-.1-.3-.1-.5-.2s-.4-.2-.6-.2c-.2-.1-.5-.1-.8-.1-.5 0-.8.1-1.1.3s-.4.5-.4.8c0 .2.1.4.2.5s.3.3.5.4.5.2.8.3l1.8.6c.3.1.5.3.8.5s.4.4.5.7.2.6.2 1c0 .5-.1.9-.3 1.3s-.4.7-.8 1c-.3.3-.7.5-1.2.7s-1 .2-1.7.2c-.3 0-.7 0-1-.1s-.6-.1-.9-.3c-.3-.1-.6-.2-.8-.4-.3-.1-.5-.3-.7-.5l.5-.9.2-.2c.1-.1.2-.1.4-.1s.3 0 .4.1.3.2.5.3l.6.3c.2.1.5.1.9.1.3 0 .5 0 .7-.1s.4-.2.5-.3a1.38 1.38 0 0 0 .3-.4c.1-.1.1-.3.1-.4 0-.2-.1-.4-.2-.6s-.3-.3-.5-.4-.5-.2-.8-.3l-.9-.3c-.3-.1-.6-.2-.9-.4l-.8-.5c-.2-.2-.4-.5-.5-.8s-.2-.7-.2-1.1.1-.8.2-1.1c.2-.4.4-.7.7-.9.3-.3.7-.5 1.2-.6s1-.2 1.6-.2c.7 0 1.3.1 1.8.3s1 .5 1.4.9l-.3.9h0zm6.7-2c.7 0 1.4.1 2 .4.6.2 1.1.6 1.5 1s.7 1 1 1.6c.2.6.3 1.3.3 2.1s-.1 1.5-.3 2.1-.6 1.2-1 1.6-.9.8-1.5 1-1.3.4-2 .4-1.4-.1-2-.4c-.6-.2-1.1-.6-1.5-1s-.8-1-1-1.6-.3-1.3-.3-2.1.1-1.5.3-2.1.6-1.1 1-1.6c.4-.4.9-.8 1.5-1 .6-.3 1.3-.4 2-.4zm0 8.2c.8 0 1.4-.3 1.8-.8s.6-1.3.6-2.4-.2-1.9-.6-2.4-1-.8-1.8-.8-1.4.3-1.8.8c-.4.6-.6 1.4-.6 2.4s.2 1.8.6 2.4 1 .8 1.8.8zm6.7 1.7v-9.8h1.4c.3 0 .5.1.6.4l.2.7.5-.5c.2-.2.4-.3.6-.4s.4-.2.7-.3c.2-.1.5-.1.8-.1.6 0 1.1.2 1.5.5s.7.8.9 1.3c.2-.3.3-.6.6-.8.2-.2.5-.4.8-.6.3-.1.6-.3.9-.3.3-.1.6-.1.9-.1.5 0 1 .1 1.4.2s.8.4 1.1.7.5.7.7 1.2c.1.5.2 1 .2 1.6v6.2h-2.4v-6.2c0-.6-.1-1.1-.4-1.4s-.7-.5-1.2-.5c-.2 0-.5 0-.7.1s-.4.2-.5.4c-.2.2-.3.4-.4.6s-.1.5-.1.8v6.2H463v-6.2c0-.7-.1-1.1-.4-1.4s-.7-.4-1.2-.4c-.3 0-.7.1-.9.3-.3.2-.6.4-.8.7v7.2l-2.4-.1h0zm20.1-9.9c.6 0 1.2.1 1.7.3s1 .5 1.3.9.7.8.9 1.4c.2.5.3 1.2.3 1.9v.4c0 .1 0 .2-.1.3 0 .1-.1.1-.2.1H475c.1 1 .3 1.7.8 2.2s1.1.7 1.9.7c.4 0 .7 0 1-.1s.5-.2.7-.3.4-.2.5-.3c.2-.1.3-.1.5-.1.1 0 .2 0 .2.1.1 0 .1.1.2.2l.7.9c-.3.3-.6.6-.9.8s-.6.4-1 .5c-.3.1-.7.2-1.1.3s-.7.1-1.1.1c-.7 0-1.3-.1-1.9-.3s-1.1-.6-1.5-1-.8-1-1-1.6-.4-1.4-.4-2.3c0-.7.1-1.3.3-1.9s.5-1.1.9-1.5.9-.8 1.5-1c.7-.6 1.3-.7 2.1-.7h0zm0 1.7c-.7 0-1.2.2-1.6.6s-.6.9-.7 1.6h4.4c0-.3 0-.6-.1-.9s-.2-.5-.4-.7-.4-.4-.6-.5c-.3-.1-.6-.1-1-.1h0zm17.3-3.1c-.1.1-.2.2-.2.3-.1.1-.2.1-.3.1s-.3 0-.4-.1c-.2-.1-.3-.2-.6-.3-.2-.1-.5-.2-.8-.3s-.6-.1-1-.1-.7 0-.9.1c-.3.1-.5.2-.7.4s-.3.3-.4.5-.1.4-.1.7.1.6.3.8.4.4.7.6.6.3 1 .4.8.2 1.2.4c.4.1.8.3 1.2.5s.7.4 1 .7.5.6.7 1 .3.9.3 1.5-.1 1.2-.3 1.7-.5 1-.9 1.4-.9.7-1.5 1-1.3.3-2 .3c-.4 0-.9 0-1.3-.1s-.8-.2-1.2-.4-.8-.3-1.1-.6-.6-.5-.9-.7l.7-1.2c.1-.1.2-.2.3-.2s.2-.1.3-.1c.2 0 .3.1.5.2s.4.3.7.4c.3.2.6.3.9.4.4.1.8.2 1.2.2.7 0 1.3-.2 1.7-.5s.6-.8.6-1.5c0-.4-.1-.7-.3-.9s-.4-.4-.7-.6-.6-.3-1-.4-.8-.2-1.2-.4c-.4-.1-.8-.3-1.2-.5s-.7-.4-1-.7-.5-.6-.7-1.1c-.2-.4-.3-1-.3-1.6 0-.5.1-1 .3-1.5s.5-.9.9-1.3.9-.7 1.4-.9c.6-.2 1.2-.3 1.9-.3.8 0 1.6.1 2.2.4s1.3.6 1.8 1.1l-.8 1.2h0z"/><use xlink:href="#B" x="180.7"/><path d="M508.2 160.8v-13h1.4c.2 0 .3 0 .4.1s.2.2.2.3l.2.9c.4-.5.8-.8 1.4-1.1.5-.3 1.1-.4 1.8-.4.5 0 1 .1 1.5.3s.8.6 1.1 1 .6.9.7 1.6c.2.6.3 1.3.3 2.1 0 .7-.1 1.4-.3 2s-.5 1.2-.8 1.6c-.4.5-.8.8-1.3 1.1s-1.1.4-1.7.4-1-.1-1.4-.3-.7-.4-1-.7v4l-2.5.1h0zm4.6-11.3c-.5 0-.9.1-1.3.3-.3.2-.7.5-1 .9v4.4c.3.3.6.6.9.7s.7.2 1 .2c.4 0 .7-.1 1-.2s.5-.3.7-.6.4-.6.5-1 .2-.9.2-1.5 0-1.1-.1-1.5-.2-.7-.4-1c-.2-.2-.4-.4-.6-.5-.3-.1-.6-.2-.9-.2h0zm6.2 11.3v-13h1.4c.2 0 .3 0 .4.1s.2.2.2.3l.2.9c.4-.5.8-.8 1.4-1.1.5-.3 1.1-.4 1.8-.4.5 0 1 .1 1.5.3s.8.6 1.1 1 .6.9.7 1.6c.2.6.3 1.3.3 2.1 0 .7-.1 1.4-.3 2s-.5 1.2-.8 1.6c-.4.5-.8.8-1.3 1.1s-1.1.4-1.7.4-1-.1-1.4-.3-.7-.4-1-.7v4l-2.5.1h0zm4.6-11.3c-.5 0-.9.1-1.3.3-.3.2-.7.5-1 .9v4.4c.3.3.6.6.9.7s.7.2 1 .2c.4 0 .7-.1 1-.2s.5-.3.7-.6.4-.6.5-1 .2-.9.2-1.5 0-1.1-.1-1.5-.2-.7-.4-1c-.2-.2-.4-.4-.6-.5-.3-.1-.6-.2-.9-.2h0zm10.4-1.8c.7 0 1.4.1 2 .4.6.2 1.1.6 1.5 1s.7 1 1 1.6.3 1.3.3 2.1-.1 1.5-.3 2.1-.6 1.2-1 1.6-.9.8-1.5 1-1.3.4-2 .4-1.4-.1-2-.4c-.6-.2-1.1-.6-1.5-1s-.7-1-1-1.6c-.2-.6-.3-1.3-.3-2.1s.1-1.5.3-2.1.6-1.1 1-1.6c.4-.4.9-.8 1.5-1 .6-.3 1.2-.4 2-.4zm0 8.2c.8 0 1.4-.3 1.8-.8s.6-1.3.6-2.4-.2-1.9-.6-2.4-1-.8-1.8-.8-1.4.3-1.8.8c-.4.6-.6 1.4-.6 2.4s.2 1.8.6 2.4c.3.6.9.8 1.8.8zm6.6 1.7v-9.8h1.4c.2 0 .4 0 .5.1s.2.2.2.5l.1 1.2c.3-.6.8-1.1 1.2-1.4.5-.3 1-.5 1.6-.5.5 0 .9.1 1.2.3l-.3 1.8c0 .1-.1.2-.1.2s-.1.1-.3.1c-.1 0-.2 0-.4-.1-.2 0-.4-.1-.7-.1-.5 0-.9.1-1.3.4-.3.3-.6.7-.9 1.2v6.1h-2.2zm11 .2c-.8 0-1.5-.2-2-.7s-.7-1.1-.7-2v-5.5h-1c-.1 0-.2 0-.3-.1s-.1-.2-.1-.4v-.9l1.6-.3.5-2.7c0-.1.1-.2.2-.3s.2-.1.3-.1h1.2v3.1h2.6v1.7h-2.6v5.3c0 .3.1.5.2.7.2.2.4.3.6.3.1 0 .3 0 .4-.1.1 0 .2-.1.3-.1s.1-.1.2-.1.1-.1.2-.1.1 0 .2.1c0 0 .1.1.1.2l.7 1.1c-.3.3-.7.5-1.2.6-.4.2-.9.3-1.4.3z"/><g fill="#ffae04"><path d="M358.3 310.1l2.5 5.9 6.4.5c.4 0 .6.6.3.9l-4.8 4.2 1.5 6.2c.1.4-.4.8-.7.5L358 325l-5.5 3.3c-.4.2-.9-.1-.7-.5l1.5-6.2-4.8-4.2c-.3-.3-.2-.8.3-.9l6.4-.5 2.5-5.9c-.1-.4.5-.4.6 0h0zm21.1 0l2.5 5.9 6.4.5c.4 0 .6.6.3.9l-4.8 4.2 1.5 6.2c.1.4-.4.8-.7.5l-5.5-3.3-5.5 3.3c-.4.2-.9-.1-.7-.5l1.5-6.2-4.8-4.2c-.3-.3-.2-.8.3-.9l6.4-.5 2.5-5.9c-.1-.4.4-.4.6 0h0z"/><use xlink:href="#C"/><use xlink:href="#C" x="21.1"/><path d="M442.6 310.1l2.5 5.9 6.4.5c.4 0 .6.6.3.9l-4.8 4.2 1.5 6.2c.1.4-.4.8-.7.5l-5.5-3.3-5.5 3.3c-.4.2-.9-.1-.7-.5l1.5-6.2-4.8-4.2c-.3-.3-.2-.8.3-.9l6.4-.5 2.5-5.9c-.1-.4.5-.4.6 0h0z"/></g><path d="M39.9 195.5l5.3-5.3c.1-.1.2-.3.2-.5s-.1-.4-.2-.5l-.5-.5c-.1-.1-.3-.2-.5-.2s-.4.1-.5.2l-6.3 6.3c-.1.1-.2.3-.2.5s.1.4.2.5l6.3 6.3c.1.1.3.2.5.2s.4-.1.5-.2l.5-.5c.3-.3.3-.8 0-1.1l-5.3-5.2zm720.2 0l-5.3 5.3c-.1.1-.2.3-.2.5s.1.4.2.5l.5.5c.1.1.3.2.5.2s.4-.1.5-.2l6.3-6.3c.1-.1.2-.3.2-.5s-.1-.4-.2-.5l-6.3-6.3c-.1-.1-.3-.2-.5-.2s-.4.1-.5.2l-.5.5c-.3.3-.3.8 0 1.1l5.3 5.2z" fill="#454545"/><circle cx="400.1" cy="77.8" r="38.9" fill="#ddd"/><defs><circle id="A" cx="400.1" cy="77.8" r="38.9"/><path id="B" d="M318.9 147.8v6.2c0 .6.1 1.1.4 1.4s.7.5 1.2.5c.4 0 .8-.1 1.1-.3.4-.2.7-.4 1-.7v-7.1h2.4v9.8h-1.4c-.3 0-.5-.1-.6-.4l-.2-.8-.6.6c-.2.2-.4.3-.7.4-.2.1-.5.2-.8.3s-.6.1-.9.1c-.5 0-1-.1-1.4-.3s-.8-.4-1-.8c-.3-.3-.5-.7-.6-1.2s-.2-1-.2-1.5v-6.2h2.3 0z"/><path id="C" d="M400.5 310.1l2.5 5.9 6.4.5c.4 0 .6.6.3.9l-4.8 4.2 1.5 6.2c.1.4-.4.8-.7.5l-5.5-3.3-5.5 3.3c-.4.2-.9-.1-.7-.5l1.5-6.2-4.8-4.2c-.3-.3-.2-.8.3-.9l6.4-.5 2.5-5.9c-.2-.4.4-.4.6 0h0z"/></defs><clipPath id="D"><use xlink:href="#A"/></clipPath><circle cx="400.1" cy="77.8" r="38.9" clip-path="url(#D)" fill="#ddd"/><defs><circle id="E" cx="400.1" cy="77.8" r="38.9"/></defs><clipPath id="F"><use xlink:href="#E"/></clipPath><g clip-path="url(#F)"><g class="c"><g fill="#f5be92"><ellipse transform="matrix(.9499 -.3126 .3126 .9499 -3.0359 124.088)" cx="385.5" cy="71.5" rx="2.1" ry="3.5"/><ellipse transform="matrix(.3129 -.9498 .9498 .3129 217.0681 443.0514)" cx="414.8" cy="71.5" rx="3.5" ry="2.1"/></g><path d="M410.4 53.5c3 .5 4.7 2.5 5.4 5.3 1.9 7.3-2 23.1-15.5 23.3-6.9.1-11.9-1.7-13.7-7.3S384 60.1 388 55.1c4.9-6.4 15.4-6.4 22.4-1.6z" class="a"/><path d="M394.5 90.6c-12.6 5.5-16.4 8.5-17.8 9.8-2.3 2-3.6 9.9-5 16.3h57c-1.4-6.4-2.5-14.3-4.8-16.3-1.5-1.3-5.1-4.2-17.7-9.7l-11.7-.1z" fill="#4c9dd2" stroke="#4c9dd2" stroke-width="1.084" stroke-linejoin="round" class="b"/><g fill="#f5be92"><path d="M394.1 79.6v15c3.4 4 8.9 4.1 12.2 0V79.7c0-7.6-12.2-7.6-12.2-.1z"/><path d="M400.2 54.6c-20.5 0-13.1 26.7-11.8 28.7 1.5 2.2 8.5 6 11.8 6s10.3-4.3 11.8-6.5c1.3-2 8.7-28.2-11.8-28.2z"/></g><path d="M390.2 61c3.6 2.2 6.4-1.1 9.6.3 3.3 1.4 12.6-2.4 14.5 12.4 3.1-10.7-2.1-19.7-13.9-20.2-12.5-.5-17.6 9.3-14.1 19.9-.2-5.7 1.2-9.5 3.9-12.4z" class="a"/><g fill="#fff" stroke="#fff" stroke-width="2" class="b"><path d="M393.5 90.5l-4.3 2.3 6.3 8.7 4.8-4.5-6.8-6.5z"/><path d="M406.9 90.5l4.3 2.3-6.3 8.7-4.8-4.5 6.8-6.5z"/></g></g><path d="M389.9 60.1c.3 1.8 2.9 2 4.3 2.2 2.8.3 6.2-.8 8.4-2.4.2-.1.1-.4-.1-.4-2.4-.1-4.6 1.5-7 1.7-1.7.1-4.1-.1-5.5-1.3 0 0-.1.1-.1.2h0 0z" class="a"/><path d="M391.8 73.4s.7 1.1 2.7 1.1 2.4-1 2.4-1.3c0 0-.8-1.3-2.4-1.3s-2.7 1.5-2.7 1.5z" fill="#fff"/><radialGradient id="G" cx="394.44" cy="441.2" r="1.169" gradientTransform="matrix(1 0 0 1 0 -368)" gradientUnits="userSpaceOnUse"><stop offset="0" stop-color="#624a2e"/><stop offset=".036" stop-color="#6d5633"/><stop offset=".122" stop-color="#816b3d"/><stop offset=".223" stop-color="#907c45"/><stop offset=".348" stop-color="#9b884a"/><stop offset=".523" stop-color="#a18f4d"/><stop offset="1" stop-color="#a3914e"/></radialGradient><circle cx="394.4" cy="73.2" r="1.2" fill="url(#G)"/><path d="M394.4 72.1a1.11 1.11 0 0 1 1.1 1.1 1.11 1.11 0 0 1-1.1 1.1 1.11 1.11 0 0 1-1.1-1.1c.1-.6.6-1.1 1.1-1.1m0-.2c-.7 0-1.3.6-1.3 1.3s.6 1.3 1.3 1.3 1.3-.6 1.3-1.3-.5-1.3-1.3-1.3h0z" fill="#624a2e"/><circle cx="394.4" cy="73.2" r=".5"/><path d="M408.5 73.4s-.7 1.1-2.7 1.1-2.4-1-2.4-1.3c0 0 .8-1.3 2.4-1.3s2.7 1.5 2.7 1.5z" fill="#fff"/><radialGradient id="H" cx="-1341.394" cy="441.2" r="1.169" gradientTransform="matrix(-1 0 0 1 -935.5322 -368)" gradientUnits="userSpaceOnUse"><stop offset="0" stop-color="#624a2e"/><stop offset=".036" stop-color="#6d5633"/><stop offset=".122" stop-color="#816b3d"/><stop offset=".223" stop-color="#907c45"/><stop offset=".348" stop-color="#9b884a"/><stop offset=".523" stop-color="#a18f4d"/><stop offset="1" stop-color="#a3914e"/></radialGradient><circle cx="405.9" cy="73.2" r="1.2" fill="url(#H)"/><path d="M405.9 72.1a1.11 1.11 0 0 1 1.1 1.1 1.11 1.11 0 0 1-1.1 1.1 1.11 1.11 0 0 1-1.1-1.1 1.11 1.11 0 0 1 1.1-1.1m0-.2c-.7 0-1.3.6-1.3 1.3s.6 1.3 1.3 1.3 1.3-.6 1.3-1.3c-.1-.7-.6-1.3-1.3-1.3h0z" fill="#624a2e"/><circle cx="405.9" cy="73.2" r=".5"/><path d="M397.9 78.8c-.3.2-.4.5-.1.8.6.4 1.3.4 2 .4s1.5-.1 2.1-.4c.3-.2.5-.8.1-1-.1 0-.2 0-.2.1s.1.3.1.4c0 .2-.3.3-.4.3-.4.2-.9.2-1.4.2-.4 0-2.6.1-2.2-.8h0zm-1.6 5.3c2.2 1.6 5.7 1.2 7.8-.3.1 0 0-.1-.1-.1-2.6 1.1-5 1.4-7.7.4 0-.2 0-.1 0 0h0 0z" fill="#e48f67"/><path d="M389.5 68.7c2.5-.4 5-.7 7.3.6.2.1.4-.2.2-.3-1.9-1.3-5.5-1.8-7.5-.3 0-.1 0 0 0 0zm21.2-.1c-2-1.4-5.6-.9-7.5.3-.2.1 0 .5.2.3 2.3-1.3 4.8-.9 7.3-.6 0 .1 0 0 0 0z" class="a"/><path d="M405.8 78.2h.3c3.2-.3 3.9-1.7 4.3-3.5.4-2 .4-2.7.9-2.8.4-.1.5-.6.5-1.1s0-.6-.6-.8c-.5-.2-3.2-.4-5.2-.3v.5c1.6-.1 3.1.1 3.6.4 1 .7.7 3.8-.1 5.4-.6 1.1-2.2 1.6-3.6 1.7l-.1.5h0zm-5.9-7.4c-.7 0-3.6-.8-5.6-1h-.4v.5c1.7.1 3.4.4 3.9 1.3 1 1.4-.8 5-2.3 5.8-.5.2-1.1.4-1.8.4v.5c2.7 0 3.7-2 4.1-2.6.6-1.2.5-2.9 2.1-3 1.6 0 1.4 1.7 1.9 2.9.3.7 1.2 2.7 4 2.6v-.5c-.7 0-1.4-.1-1.9-.4-1.5-.8-3-4.3-2-5.8.6-.9 2.3-1.3 4-1.3v-.5h-.4c-1.7.2-3.9 1-5.6 1.1h0zm-6-1c-2-.1-4.7.1-5.2.3-.6.2-.7.3-.7.8s0 1 .4 1.1c.5.2.5.9.8 2.8.2 1.8.9 3.2 4.1 3.5h.5v-.5c-1.4 0-3.1-.5-3.6-1.7-.8-1.6-.9-4.7.2-5.4.5-.3 2-.5 3.5-.4v-.5h0z" fill="#0a6f90" class="c"/><path d="M413.2 65.9c-.6-.1-1.1-.4-1.5-.8-.2-.2-.4-.5-.5-.8s0-.5-.3-.8c-.1-.1-.4-.2-.5-.1v-.3c.1-.4-.4-.7-.7-.4-.2.1-.3.3-.4.5 0-.3-.3-.7-.7-.6s-1 0-1.4-.1v-.2c-.2-.6-.6-.9-.9-1.4-.2-.5-1.1-.4-1.2.2v.1c-.1-.2-.2-.4-.3-.5-.2-.2-.5-.2-.6.1-.1.2-.1.5-.1.7-.2.1-.4.2-.6.2 0 0-.1 0-.1-.1-.8-.3-1.5-.6-2.2-1.1-.2-.2-.5-.2-.7 0-.3-.2-.8-.2-1.1.2-1.1 1.7-1.9.1-2.8-.3-.4-.2-.8 0-.8.5v.2c-.1-.1-.1-.2-.2-.3-.2-.4-.8-.4-1.1-.1-.8.6-1.7.9-2.7 1h-.4c.2-.1.3-.3.2-.5 0-.1 0 0 0 0 0-.2-.1-.4-.4-.5-.4-.1-.8-.3-1.2-.4-.3 0-.5.3-.3.5l.1.1v.1c-.3-.2-.6-.5-.9-.8-.2-.1-.4-.1-.5.1-.8 3.2 4.1 2.7 6.3 1.7 1.6 1.9 5 2.3 6-.1.6.8 1.9.9 3 .7.3 0 .6-.1.8-.3.3.5.6.8 1 1.1 1 .7 2.3.8 3.5.4.2-.1.3-.2.3-.3-.1.7.2 1.5.6 2 .7.9 1.9 1.6 3.1 1.5.7-.1.9-1 .2-1.1h0zm-24.5-9.6c.2-.1.3-.3.3-.4.3.1.7-.1.7-.5-.1-.9.1-1.5 1-1.7.7-.2 1.6-.1 2.3 0 .5 0 .8-.7.4-1-.3-.3-.6-.5-1-.6.2-.1.3-.2.5-.3.1 0 .2-.1.4-.1v.8c0 .3.5.2.5-.1s.1-.5.2-.7c.3.1.5.2.8.1.2-.1.3-.2.3-.4.3.1.5.2.8.4s.4.5.8.6c.3.1.5-.1.5-.4 0-.4-.3-.8-.7-1 .4-.6 1.1-.7 1.8-.5 0 .2.1.4.4.5s.5.1.8.2h.1c0 .3.1.7.2 1s.5.2.5-.1c0-1.3.9-1.5 1.9-1.3.5.1 1 .4 1.4.7.3.3.6.7 1 .9.2.1.5 0 .5-.2.4-1.5-2.1-2.5-3.2-2.6-.6-.1-1.3.1-1.8.5-.1 0-.1.1-.2.2 0 0 0-.1-.1-.1-1.1-1.1-3.7-1.1-4.1.5-.4-.1-.7-.1-1-.1-.2 0-.3 0-.5.1-.6-.1-1.3 0-1.8.2-.4.2-.8.5-1.1.9-.1.1-.1.2-.1.3-.7 0-1.4.1-2 .3-1.4.5-1.5 1.8-1.4 3-1.4.3-2.7 2.4-2.1 3.5.1.4.2.8.5 1.1-.6.1-1.1.5-1.3 1-.9.9-.9 2.7 0 3.7.1.1.1.2.2.3s.2.1.2.1c.5.1 1.1-.4.8-.9s-.4-1.1-.3-1.7c0-.2.1-.4.2-.5h.2c.3 0 .5-.3.6-.5.1 0 .2 0 .2-.1.6-.1.5-.8.1-1.1.2-.2.3-.6 0-.9-.6-.8.1-2 .9-2.5.3-.3.6-.3.7-.6h0z" class="a"/></g><text transform="translate(336.981 297.249)" font-family="Lato-Heavy" font-size="16">Mechiel Couvaras</text><text transform="translate(333.205 356.16)" font-size="16" font-family="Lato-Bold">CEO - SmartGeeky</text></svg>