<svg xmlns="http://www.w3.org/2000/svg" xmlns:xlink="http://www.w3.org/1999/xlink" viewBox="0 0 800 400" xmlns:v="https://vecta.io/nano"><g fill="#fff" stroke-miterlimit="10"><path d="M0,0h800v400H0V0z" stroke="#aaa" stroke-width="2.254"/><path d="M93.5,38.9h655.4v323.2H93.5V38.9z" stroke="#ddd" stroke-width="1.123"/></g><circle cx="93.5" cy="192.5" r="38.9" fill="#ddd"/><defs><circle id="A" cx="93.5" cy="192.5" r="38.9"/><path id="B" d="M390.9 94.1l2.3 5.5 6 .5c.4 0 .6.6.3.8l-4.5 3.9 1.4 5.8c.1.4-.4.7-.7.5l-5.1-3.1-5.1 3.1c-.4.2-.8-.1-.7-.5l1.4-5.8-4.5-3.9c-.3-.3-.2-.7.3-.8l6-.5 2.3-5.5c0-.4.5-.4.6 0h0z"/><path id="C" d="M187.5 173.6h-.6c-.1 0-.3 0-.3-.1s-.1-.1-.2-.3l-.2-.8c-.2.2-.4.4-.6.5-.2.2-.4.3-.6.4s-.5.2-.7.2c-.3.1-.5.1-.8.1s-.6 0-.9-.1-.5-.2-.7-.4-.4-.4-.5-.7-.2-.6-.2-1c0-.3.1-.6.3-.9a2.36 2.36 0 0 1 .9-.8l1.5-.6c.6-.1 1.4-.2 2.3-.2v-.6c0-.6-.1-1.1-.4-1.4s-.7-.5-1.2-.5c-.3 0-.6 0-.9.1s-.4.2-.6.3a1.38 1.38 0 0 0-.4.3c-.1.1-.2.1-.4.1-.1 0-.2 0-.3-.1l-.2-.2-.3-.5c.4-.4.9-.8 1.4-1s1.1-.3 1.7-.3c.4 0 .8.1 1.2.2.3.1.6.4.9.6.2.3.4.6.5 1s.2.8.2 1.2v5.5h.1zm-3.7-.9c.3 0 .5 0 .7-.1s.4-.1.6-.2.4-.2.5-.3l.5-.5v-1.7c-.7 0-1.2 0-1.7.1s-.8.2-1.1.3-.5.3-.6.5-.2.4-.2.6 0 .4.1.6a1.38 1.38 0 0 0 .3.4c.1.1.2.2.4.2a.9.9 0 0 0 .5.1h0z"/><path id="D" d="M194.3 166.8c-.1.1-.2.2-.3.2s-.2 0-.3-.1-.2-.1-.4-.2c-.1-.1-.3-.1-.5-.2s-.4-.1-.7-.1c-.2 0-.5 0-.6.1-.2.1-.4.1-.5.3-.1.1-.2.2-.3.4-.1.1-.1.3-.1.5s.1.4.2.5.3.3.5.4.4.2.7.3.5.2.8.2l.8.3c.3.1.5.2.7.4s.4.4.5.6.2.5.2.8c0 .4-.1.7-.2 1s-.3.6-.6.8-.6.4-1 .5-.8.2-1.3.2c-.6 0-1.1-.1-1.5-.3-.5-.2-.8-.4-1.2-.7l.3-.5c0-.1.1-.1.2-.2.1 0 .1-.1.2-.1s.2 0 .3.1.2.2.4.2c.2.1.3.2.6.2s.5.1.8.1.5 0 .7-.1.4-.2.5-.3.2-.3.3-.4c.1-.2.1-.3.1-.5s-.1-.4-.2-.6c-.1-.1-.3-.3-.5-.4s-.4-.2-.7-.3-.5-.2-.8-.2l-.8-.3c-.3-.1-.5-.2-.7-.4s-.4-.4-.5-.6-.2-.5-.2-.9c0-.3.1-.6.2-.9s.3-.5.6-.8c.2-.2.5-.4.9-.5s.8-.2 1.2-.2c.5 0 1 .1 1.4.3s.8.4 1.1.7l-.3.7h0z"/><path id="E" d="M201.3 161.8v11.8h-1.4v-11.8h1.4z"/><path id="F" d="M207.1 165.3c.6 0 1.1.1 1.6.3s.9.5 1.2.8c.3.4.6.8.8 1.3s.3 1.1.3 1.7-.1 1.2-.3 1.7-.4.9-.8 1.3c-.3.4-.7.6-1.2.8s-1 .3-1.6.3-1.1-.1-1.6-.3-.9-.5-1.2-.8c-.3-.4-.6-.8-.8-1.3s-.3-1.1-.3-1.7.1-1.2.3-1.7.4-1 .8-1.3c.3-.4.7-.6 1.2-.8.4-.2 1-.3 1.6-.3zm0 7.3c.8 0 1.4-.3 1.8-.8s.6-1.3.6-2.2c0-1-.2-1.7-.6-2.3-.4-.5-1-.8-1.8-.8-.4 0-.8.1-1.1.2s-.5.3-.7.6-.3.6-.4 1-.1.8-.1 1.3 0 .9.1 1.3.2.7.4 1 .4.5.7.6c.3 0 .7.1 1.1.1h0z"/><path id="G" d="M231.9 162.9c0 .1 0 .3-.1.4s-.1.2-.2.3-.2.2-.3.2c-.1.1-.3.1-.4.1s-.3 0-.4-.1-.2-.1-.3-.2-.2-.2-.2-.3c-.1-.1-.1-.2-.1-.4s0-.3.1-.4.1-.2.2-.3.2-.2.3-.2c.1-.1.2-.1.4-.1s.3 0 .4.1.2.1.3.2.2.2.2.3.1.3.1.4zm-.3 2.6v8.1h-1.4v-8.1h1.4z"/><path id="H" d="M234.1 173.6v-8.1h.8c.2 0 .3.1.4.3l.1.9c.4-.4.7-.7 1.2-.9.4-.2.9-.4 1.5-.4.4 0 .8.1 1.2.2.3.1.6.4.8.6.2.3.4.6.5 1s.2.8.2 1.3v5.2h-1.4v-5.2c0-.6-.1-1.1-.4-1.4s-.7-.5-1.3-.5c-.4 0-.8.1-1.2.3s-.7.5-1 .8v6h-1.4v-.1z"/><path id="I" d="M245.7 165.3c.4 0 .7 0 1 .1l.8.3h2.2v.5c0 .2-.1.3-.3.3l-.9.1c.2.3.3.7.3 1.2 0 .4-.1.8-.2 1.1-.2.3-.4.6-.6.8-.3.2-.6.4-1 .5s-.8.2-1.2.2-.7 0-1.1-.1a.78.78 0 0 0-.4.4c-.1.2-.1.3-.1.4 0 .2.1.3.2.5.2.1.4.2.6.2.3 0 .5.1.9.1h1c.3 0 .7 0 1 .1l.9.3a.9.9 0 0 1 .6.6c.1.3.2.5.2.9a1.69 1.69 0 0 1-.3 1c-.2.3-.4.6-.7.9s-.7.5-1.2.6c-.5.2-1 .2-1.6.2s-1.1-.1-1.6-.2c-.4-.1-.8-.3-1.1-.5s-.5-.4-.7-.7c-.1-.3-.2-.5-.2-.8 0-.4.1-.7.4-1s.6-.5 1-.7c-.2-.1-.4-.2-.5-.4s-.2-.4-.2-.7c0-.1 0-.2.1-.4 0-.1.1-.2.2-.4s.2-.2.3-.4c.1-.1.3-.2.4-.3a1.96 1.96 0 0 1-.9-.9c-.2-.4-.3-.8-.3-1.3 0-.4.1-.8.2-1.1.2-.3.4-.6.6-.8.3-.2.6-.4 1-.5.3 0 .7-.1 1.2-.1h0zm2.5 8.7c0-.2-.1-.4-.2-.5s-.3-.2-.5-.3-.4-.1-.7-.2h-1.6c-.2 0-.6 0-.8-.1-.3.1-.6.3-.7.5-.2.2-.3.4-.3.7 0 .2 0 .4.1.5s.2.3.4.4.4.2.7.3.6.1 1 .1.7 0 1-.1l.8-.3c.2-.1.4-.3.5-.5.3-.1.3-.3.3-.5h0zm-2.5-4.4c.3 0 .5 0 .8-.1l.6-.3a.55.55 0 0 0 .3-.5c.1-.2.1-.4.1-.7 0-.5-.2-.9-.5-1.2s-.7-.4-1.3-.4-1 .1-1.3.4-.5.7-.5 1.2c0 .2 0 .5.1.7s.2.4.3.5.3.3.6.3.5.1.8.1h0z"/><path id="J" d="M268.5 173.6v-8.1h.8c.2 0 .3 0 .3.1.1.1.1.2.1.3l.1 1.3c.3-.6.6-1 1-1.3s.9-.5 1.4-.5c.2 0 .4 0 .6.1s.3.1.5.2l-.2 1.1c0 .1-.1.2-.2.2s-.2 0-.3-.1-.4-.1-.6-.1c-.5 0-.9.1-1.2.4-.4.4-.6.8-.8 1.3v5.2l-1.5-.1h0z"/><path id="K" d="M284 173.6h-.6c-.1 0-.3 0-.3-.1s-.1-.1-.2-.3l-.2-.8c-.2.2-.4.4-.6.5-.2.2-.4.3-.6.4s-.5.2-.7.2c-.3.1-.5.1-.8.1s-.6 0-.9-.1-.5-.2-.7-.4-.4-.4-.5-.7-.2-.6-.2-1c0-.3.1-.6.3-.9a2.36 2.36 0 0 1 .9-.8l1.5-.6c.6-.1 1.4-.2 2.3-.2v-.6c0-.6-.1-1.1-.4-1.4s-.7-.5-1.2-.5c-.3 0-.6 0-.9.1s-.4.2-.6.3a1.38 1.38 0 0 0-.4.3c-.1.1-.2.1-.4.1-.1 0-.2 0-.3-.1l-.2-.2-.3-.5c.4-.4.9-.8 1.4-1s1.1-.3 1.7-.3c.4 0 .8.1 1.2.2.3.1.6.4.9.6.2.3.4.6.5 1s.2.8.2 1.2v5.5h.1zm-3.7-.9c.3 0 .5 0 .7-.1s.4-.1.6-.2.4-.2.5-.3l.5-.5v-1.7c-.7 0-1.2 0-1.7.1l-1.1.3c-.3.1-.5.3-.6.5s-.2.4-.2.6 0 .4.1.6a1.38 1.38 0 0 0 .3.4c.1.1.2.2.4.2.1.1.3.1.5.1h0z"/><path id="L" d="M322.8 176c0 .1-.1.2-.2.3s-.2.1-.3.1h-1.1l1.5-3.2-3.3-7.6h1.2c.1 0 .2 0 .3.1l.2.2 2.2 5.1c0 .1.1.2.1.4 0 .1.1.2.1.4 0-.1.1-.2.1-.4 0-.1.1-.2.1-.4l2.1-5.1c0-.1.1-.2.2-.2.1-.1.2-.1.3-.1h1.1l-4.6 10.4h0z"/><path id="M" d="M343.1 165.3c.6 0 1.1.1 1.6.3s.9.5 1.2.8c.3.4.6.8.8 1.3s.3 1.1.3 1.7-.1 1.2-.3 1.7-.4.9-.8 1.3c-.3.4-.7.6-1.2.8s-1 .3-1.6.3-1.1-.1-1.6-.3-.9-.5-1.2-.8c-.3-.4-.6-.8-.8-1.3s-.3-1.1-.3-1.7.1-1.2.3-1.7.4-1 .8-1.3c.3-.4.7-.6 1.2-.8s1-.3 1.6-.3zm0 7.3c.8 0 1.4-.3 1.8-.8s.6-1.3.6-2.2c0-1-.2-1.7-.6-2.3-.4-.5-1-.8-1.8-.8-.4 0-.8.1-1.1.2s-.5.3-.7.6-.3.6-.4 1-.1.8-.1 1.3 0 .9.1 1.3.2.7.4 1 .4.5.7.6c.4 0 .7.1 1.1.1h0z"/><path id="N" d="M363.3 173.6c-.2 0-.3-.1-.4-.3l-.1-1c-.3.4-.7.8-1.2 1s-1 .4-1.5.4-.9-.1-1.3-.3-.7-.4-1-.8c-.3-.3-.5-.8-.6-1.3s-.2-1.1-.2-1.8c0-.6.1-1.2.2-1.7s.4-.9.7-1.3.7-.7 1.1-.9.9-.3 1.5-.3c.5 0 .9.1 1.3.3s.7.4.9.7v-4.5h1.4v11.8h-.8 0zm-2.7-1.1c.5 0 .9-.1 1.2-.3s.7-.5 1-.9v-3.9c-.3-.4-.5-.6-.9-.7-.3-.1-.7-.2-1-.2-.8 0-1.3.3-1.7.8s-.6 1.3-.6 2.3c0 .5 0 1 .1 1.4s.2.7.4.9.4.4.6.5.5.1.9.1h0z"/><path id="O" d="M388.7 166.8c-.1.1-.2.2-.3.2s-.2 0-.3-.1-.2-.1-.4-.2c-.1-.1-.3-.1-.5-.2s-.4-.1-.7-.1c-.2 0-.5 0-.6.1-.2.1-.4.1-.5.3a1.38 1.38 0 0 0-.3.4c-.1.1-.1.3-.1.5s.1.4.2.5.3.3.5.4.4.2.7.3.5.2.8.2l.8.3c.3.1.5.2.7.4s.4.4.5.6.2.5.2.8c0 .4-.1.7-.2 1s-.3.6-.6.8-.6.4-1 .5-.8.2-1.3.2c-.6 0-1.1-.1-1.5-.3s-.8-.4-1.2-.7l.3-.5c0-.1.1-.1.2-.2.1 0 .1-.1.2-.1s.2 0 .3.1.2.2.4.2c.2.1.3.2.6.2s.5.1.8.1.5 0 .7-.1.4-.2.5-.3.2-.3.3-.4c.1-.2.1-.3.1-.5s-.1-.4-.2-.6c-.1-.1-.3-.3-.5-.4s-.4-.2-.7-.3-.5-.2-.8-.2l-.8-.3c-.3-.1-.5-.2-.7-.4s-.4-.4-.5-.6-.2-.5-.2-.9c0-.3.1-.6.2-.9s.3-.5.6-.8c.2-.2.5-.4.9-.5s.8-.2 1.2-.2c.5 0 1 .1 1.4.3s.8.4 1.1.7l-.3.7h0z"/><path id="P" d="M393.4 173.7c-.6 0-1.1-.2-1.5-.5-.3-.4-.5-.9-.5-1.5v-5h-1c-.1 0-.2 0-.2-.1-.1-.1-.1-.1-.1-.2v-.6l1.3-.2.3-2.5c0-.1 0-.1.1-.2s.1-.1.2-.1h.7v2.8h2.3v1h-2.3v4.9c0 .3.1.6.2.8.2.2.4.2.6.2.1 0 .3 0 .4-.1s.2-.1.3-.1.1-.1.2-.1.1-.1.1-.1c.1 0 .1 0 .2.1l.4.7c-.2.2-.5.4-.9.5-.1.2-.4.3-.8.3h0z"/><path id="Q" d="M398.8 162.9c0 .1 0 .3-.1.4s-.1.2-.2.3-.2.2-.3.2c-.1.1-.3.1-.4.1s-.3 0-.4-.1-.2-.1-.3-.2-.2-.2-.2-.3c-.1-.1-.1-.2-.1-.4s0-.3.1-.4.1-.2.2-.3.2-.2.3-.2.2-.1.4-.1.3 0 .4.1.2.1.3.2.2.2.2.3c.1.1.1.3.1.4zm-.3 2.6v8.1h-1.4v-8.1h1.4z"/><path id="R" d="M401 173.6v-8.1h.8c.2 0 .3.1.4.3l.1.8c.3-.4.6-.7 1-.9s.8-.4 1.3-.4 1 .2 1.3.5.6.7.7 1.2c.1-.3.3-.5.4-.8.2-.2.4-.4.6-.5s.5-.2.7-.3c.3-.1.5-.1.8-.1.4 0 .8.1 1.1.2s.6.3.8.6.4.6.5 1 .2.8.2 1.3v5.2h-1.4v-5.2c0-.6-.1-1.1-.4-1.4s-.7-.5-1.2-.5c-.2 0-.5 0-.7.1s-.4.2-.6.4-.3.4-.4.6-.1.5-.1.8v5.2h-1.4v-5.2c0-.7-.1-1.1-.4-1.5-.3-.3-.6-.5-1.1-.5a1.69 1.69 0 0 0-1 .3c-.3.2-.6.4-.8.8v6l-1.2.1h0z"/><path id="S" d="M417.4 165.3c.6 0 1.1.1 1.6.3s.9.5 1.2.8c.3.4.6.8.8 1.3s.3 1.1.3 1.7-.1 1.2-.3 1.7-.4.9-.8 1.3c-.3.4-.7.6-1.2.8s-1 .3-1.6.3-1.1-.1-1.6-.3-.9-.5-1.2-.8c-.3-.4-.6-.8-.8-1.3s-.3-1.1-.3-1.7.1-1.2.3-1.7.4-1 .8-1.3c.3-.4.7-.6 1.2-.8s1-.3 1.6-.3zm0 7.3c.8 0 1.4-.3 1.8-.8s.6-1.3.6-2.2c0-1-.2-1.7-.6-2.3-.4-.5-1-.8-1.8-.8-.4 0-.8.1-1.1.2s-.5.3-.7.6-.3.6-.4 1-.1.8-.1 1.3 0 .9.1 1.3.2.7.4 1 .4.5.7.6.7.1 1.1.1h0z"/><path id="T" d="M433.9 162.9c0 .1 0 .3-.1.4s-.1.2-.2.3-.2.2-.3.2c-.1.1-.3.1-.4.1s-.3 0-.4-.1-.2-.1-.3-.2-.2-.2-.2-.3c-.1-.1-.1-.2-.1-.4s0-.3.1-.4.1-.2.2-.3.2-.2.3-.2.2-.1.4-.1.3 0 .4.1.2.1.3.2.2.2.2.3.1.3.1.4zm-.4 2.6v8.1h-1.4v-8.1h1.4z"/><path id="U" d="M465.5 165.5v5.2c0 .6.1 1.1.4 1.4s.7.5 1.3.5c.4 0 .8-.1 1.2-.3s.7-.5 1-.8v-6h1.4v8.1h-.8c-.2 0-.3-.1-.4-.3l-.1-.9c-.4.4-.7.7-1.2.9-.4.2-.9.4-1.5.4-.4 0-.8-.1-1.2-.2-.3-.1-.6-.4-.9-.6s-.4-.6-.5-1-.2-.8-.2-1.3v-5.2h1.5v.1z"/><path id="V" d="M497.7 173.6v-6.9l-.9-.1c-.1 0-.2-.1-.3-.1-.1-.1-.1-.1-.1-.2v-.6h1.3v-.8c0-.4.1-.8.2-1.2s.3-.7.6-.9c.2-.2.5-.4.9-.6.4-.1.8-.2 1.2-.2s.7.1 1 .2v.7c0 .1-.1.2-.1.2h-.6c-.2 0-.5 0-.7.1s-.4.2-.5.3-.3.3-.3.6c-.1.2-.1.5-.1.9v.7h2.3v1h-2.3v6.9h-1.6 0z"/><path id="W" d="M511.7 173.6v-8.1h.8c.2 0 .3 0 .3.1.1.1.1.2.1.3l.1 1.3c.3-.6.6-1 1-1.3s.9-.5 1.4-.5c.2 0 .4 0 .6.1s.3.1.5.2l-.2 1.1c0 .1-.1.2-.2.2s-.2 0-.3-.1c-.2-.1-.4-.1-.6-.1-.5 0-.9.1-1.2.4-.4.4-.6.8-.8 1.3v5.2l-1.5-.1h0z"/><path id="X" d="M599.4 166.8c-.1.1-.2.2-.3.2s-.2 0-.3-.1-.2-.1-.4-.2c-.1-.1-.3-.1-.5-.2s-.4-.1-.7-.1c-.2 0-.5 0-.6.1-.2.1-.4.1-.5.3-.1.1-.2.2-.3.4-.1.1-.1.3-.1.5s.1.4.2.5.3.3.5.4.4.2.7.3.5.2.8.2l.8.3c.3.1.5.2.7.4s.4.4.5.6.2.5.2.8c0 .4-.1.7-.2 1s-.3.6-.6.8-.6.4-1 .5-.8.2-1.3.2c-.6 0-1.1-.1-1.5-.3s-.8-.4-1.2-.7l.3-.5c0-.1.1-.1.2-.2.1 0 .1-.1.2-.1s.2 0 .3.1.2.2.4.2c.2.1.3.2.6.2s.5.1.8.1.5 0 .7-.1.4-.2.5-.3.2-.3.3-.4c.1-.2.1-.3.1-.5s-.1-.4-.2-.6c-.1-.1-.3-.3-.5-.4s-.4-.2-.7-.3-.5-.2-.8-.2l-.8-.3c-.3-.1-.5-.2-.7-.4s-.4-.4-.5-.6-.2-.5-.2-.9c0-.3.1-.6.2-.9s.3-.5.6-.8c.2-.2.5-.4.9-.5s.8-.2 1.2-.2c.5 0 1 .1 1.4.3s.8.4 1.1.7l-.3.7h0z"/><path id="Y" d="M610.7 165.5h1.1c.1 0 .2 0 .3.1l.2.2 1.6 5.2c0 .2.1.4.1.6s.1.4.1.5c0-.2.1-.4.1-.5s.1-.4.2-.6l1.7-5.2c0-.1.1-.1.1-.2.1-.1.2-.1.3-.1h.6c.1 0 .2 0 .3.1s.1.1.1.2l1.7 5.2c.1.2.1.4.2.6 0 .2.1.4.1.5 0-.2.1-.4.1-.6s.1-.4.1-.5l1.6-5.2c0-.1.1-.2.2-.2.1-.1.2-.1.3-.1h1.1l-2.6 8.1h-1.1c-.1 0-.2-.1-.3-.3l-1.8-5.5c0-.1-.1-.2-.1-.4 0-.1-.1-.2-.1-.4 0 .1-.1.2-.1.4 0 .1-.1.3-.1.4l-1.8 5.5c-.1.2-.2.3-.3.3h-1.1l-2.8-8.1h0z"/><path id="Z" d="M692.5 173.6c-.2 0-.3-.1-.4-.3l-.1-1c-.3.4-.7.8-1.2 1s-1 .4-1.5.4-.9-.1-1.3-.3-.7-.4-1-.8-.5-.8-.6-1.3-.2-1.1-.2-1.8c0-.6.1-1.2.2-1.7.2-.5.4-1 .7-1.3.3-.4.7-.7 1.1-.9s.9-.3 1.5-.3c.5 0 .9.1 1.3.3s.7.4.9.7v-4.5h1.4v11.8h-.8 0zm-2.8-1.1c.5 0 .9-.1 1.2-.3s.7-.5 1-.9v-3.9c-.3-.4-.5-.6-.9-.7-.3-.1-.7-.2-1-.2-.8 0-1.3.3-1.7.8s-.6 1.3-.6 2.3c0 .5 0 1 .1 1.4s.2.7.4.9.4.4.6.5c.3.1.6.1.9.1h0z"/><path id="a" d="M234.3 186.5h1.2c.1 0 .2 0 .3.1l.2.2 2.1 5.2c.1.2.1.4.2.6 0 .2.1.4.1.6 0-.2.1-.4.1-.6s.1-.4.2-.6l2.1-5.2c0-.1.1-.2.2-.2.1-.1.2-.1.3-.1h1.1l-3.3 8.1h-1.3l-3.5-8.1h0z"/><path id="b" d="M245.4 183.9c0 .1 0 .3-.1.4s-.1.2-.2.3-.2.2-.3.2c-.1.1-.3.1-.4.1s-.3 0-.4-.1-.2-.1-.3-.2-.2-.2-.2-.3c-.1-.1-.1-.2-.1-.4s0-.3.1-.4.1-.2.2-.3.2-.2.3-.2c.1-.1.2-.1.4-.1s.3 0 .4.1.2.1.3.2.2.2.2.3c.1.1.1.3.1.4zm-.3 2.6v8.1h-1.4v-8.1h1.4z"/><path id="c" d="M301.1 186.5v5.2c0 .6.1 1.1.4 1.4s.7.5 1.3.5c.4 0 .8-.1 1.2-.3s.7-.5 1-.8v-6h1.4v8.1h-.8c-.2 0-.3-.1-.4-.3l-.1-.9c-.4.4-.7.7-1.2.9s-.9.4-1.5.4c-.4 0-.8-.1-1.2-.2-.3-.1-.6-.4-.9-.6-.2-.3-.4-.6-.5-1s-.2-.8-.2-1.3v-5.2h1.5v.1z"/><path id="d" d="M399.9 186.3c.5 0 .9.1 1.3.2.4.2.8.4 1.1.7s.5.7.7 1.1.3 1 .3 1.5c0 .2 0 .4-.1.4s-.1.1-.3.1h-5.4c0 .4.1.9.2 1.3.1.3.3.7.5.9.2.3.5.4.8.6.3.1.7.2 1 .2.4 0 .7 0 .9-.1.3-.1.5-.2.7-.3s.3-.2.5-.3c.1-.1.2-.1.3-.1s.2 0 .3.1l.4.5-.6.6c-.2.2-.5.3-.8.4s-.6.2-.9.2c-.3.1-.6.1-.9.1-.6 0-1.1-.1-1.5-.3-.5-.2-.9-.5-1.2-.8-.3-.4-.6-.8-.8-1.4-.2-.5-.3-1.2-.3-1.9 0-.6.1-1.1.3-1.6s.4-.9.7-1.3.7-.6 1.2-.8c.5.1 1 0 1.6 0h0zm.1 1.1c-.7 0-1.2.2-1.6.6s-.6.9-.7 1.7h4.4c0-.3 0-.6-.1-.9s-.2-.5-.4-.7-.4-.4-.6-.5c-.4-.2-.7-.2-1-.2h0z"/><path id="e" d="M435.5 186.3c.5 0 .9.1 1.3.2.4.2.8.4 1.1.7s.5.7.7 1.1.3 1 .3 1.5c0 .2 0 .4-.1.4s-.1.1-.3.1h-5.4c0 .4.1.9.2 1.3.1.3.3.7.5.9.2.3.5.4.8.6.3.1.7.2 1 .2.4 0 .7 0 .9-.1.3-.1.5-.2.7-.3s.3-.2.5-.3c.1-.1.2-.1.3-.1s.2 0 .3.1l.4.5-.6.6c-.2.2-.5.3-.8.4s-.6.2-.9.2c-.3.1-.6.1-.9.1-.6 0-1.1-.1-1.5-.3-.5-.2-.9-.5-1.2-.8-.3-.4-.6-.8-.8-1.4-.2-.5-.3-1.2-.3-1.9 0-.6.1-1.1.3-1.6s.4-.9.7-1.3.7-.6 1.2-.8c.5.1 1 0 1.6 0h0zm0 1.1c-.7 0-1.2.2-1.6.6s-.6.9-.7 1.7h4.4c0-.3 0-.6-.1-.9s-.2-.5-.4-.7-.4-.4-.6-.5c-.4-.2-.6-.2-1-.2h0z"/><path id="f" d="M233.2 204.9c0 .1 0 .3-.1.4s-.1.2-.2.3-.2.2-.3.2-.3.1-.4.1-.3 0-.4-.1-.2-.1-.3-.2-.2-.2-.2-.3c-.1-.1-.1-.2-.1-.4s0-.3.1-.4.1-.2.2-.3.2-.2.3-.2c.1-.1.2-.1.4-.1s.3 0 .4.1.2.1.3.2.2.2.2.3c.1.1.1.3.1.4zm-.3 2.6v8.1h-1.4v-8.1h1.4z"/><path id="g" d="M246.6 207.3c.5 0 .9.1 1.3.2.4.2.8.4 1.1.7s.5.7.7 1.1c.2.5.3 1 .3 1.5 0 .2 0 .4-.1.4 0 .1-.1.1-.3.1h-5.4c0 .4.1.9.2 1.3.1.3.3.7.5.9.2.3.5.4.8.6.3.1.7.2 1 .2.4 0 .7 0 .9-.1s.5-.2.7-.3.3-.2.5-.3c.1-.1.2-.1.3-.1s.2 0 .3.1l.4.5-.6.6c-.2.2-.5.3-.8.4s-.6.2-.9.2c-.3.1-.6.1-.9.1-.6 0-1.1-.1-1.5-.3-.5-.2-.9-.5-1.2-.8-.3-.4-.6-.8-.8-1.4-.2-.5-.3-1.2-.3-1.9 0-.6.1-1.1.3-1.6s.4-.9.7-1.3.7-.6 1.2-.8 1 0 1.6 0h0zm.1 1.1c-.7 0-1.2.2-1.6.6s-.6.9-.7 1.7h4.4c0-.3 0-.6-.1-.9s-.2-.5-.4-.7-.4-.4-.6-.5-.7-.2-1-.2h0z"/><path id="h" d="M322.8 207.3c.5 0 .9.1 1.3.2.4.2.8.4 1.1.7s.5.7.7 1.1c.2.5.3 1 .3 1.5 0 .2 0 .4-.1.4 0 .1-.1.1-.3.1h-5.4c0 .4.1.9.2 1.3.1.3.3.7.5.9.2.3.5.4.8.6.3.1.7.2 1 .2.4 0 .7 0 .9-.1s.5-.2.7-.3.3-.2.5-.3c.1-.1.2-.1.3-.1s.2 0 .3.1l.4.5-.6.6c-.2.2-.5.3-.8.4s-.6.2-.9.2c-.3.1-.6.1-.9.1-.6 0-1.1-.1-1.5-.3-.5-.2-.9-.5-1.2-.8-.3-.4-.6-.8-.8-1.4-.2-.5-.3-1.2-.3-1.9 0-.6.1-1.1.3-1.6s.4-.9.7-1.3.7-.6 1.2-.8 1 0 1.6 0h0zm0 1.1c-.7 0-1.2.2-1.6.6s-.6.9-.7 1.7h4.4c0-.3 0-.6-.1-.9s-.2-.5-.4-.7-.4-.4-.6-.5-.6-.2-1-.2h0z"/><path id="i" d="M403.7 215.6v-8.1h.8c.2 0 .3 0 .3.1s.1.2.1.3l.1 1.3c.3-.6.6-1 1-1.3s.9-.5 1.4-.5c.2 0 .4 0 .6.1s.3.1.5.2l-.2 1.1c0 .1-.1.2-.2.2s-.2 0-.3-.1c-.2-.1-.4-.1-.6-.1-.5 0-.9.1-1.2.4-.4.4-.6.8-.8 1.3v5.2l-1.5-.1h0z"/><path id="j" d="M413.5 207.3c.6 0 1.1.1 1.6.3s.9.5 1.2.8c.3.4.6.8.8 1.3s.3 1.1.3 1.7-.1 1.2-.3 1.7-.4 1-.8 1.3c-.3.4-.7.6-1.2.8s-1 .3-1.6.3-1.1-.1-1.6-.3-.9-.5-1.2-.8-.6-.8-.8-1.3-.3-1.1-.3-1.7.1-1.2.3-1.7.4-1 .8-1.3.7-.6 1.2-.8 1-.3 1.6-.3zm0 7.3c.8 0 1.4-.3 1.8-.8s.6-1.3.6-2.2c0-1-.2-1.7-.6-2.3s-1-.8-1.8-.8c-.4 0-.8.1-1.1.2s-.5.3-.7.6-.3.6-.4 1-.1.8-.1 1.3 0 .9.1 1.3.2.7.4 1 .4.5.7.6.7.1 1.1.1h0z"/><path id="k" d="M423.7 208.8c-.1.1-.2.2-.3.2s-.2 0-.3-.1-.2-.1-.4-.2-.3-.1-.5-.2-.4-.1-.7-.1c-.2 0-.5 0-.6.1-.2.1-.4.1-.5.3-.1.1-.2.2-.3.4-.1.1-.1.3-.1.5s.1.4.2.5.3.3.5.4.4.2.7.3.5.2.8.2.5.2.8.3.5.2.7.4.4.4.5.6.2.5.2.8c0 .4-.1.7-.2 1s-.3.6-.6.8-.6.4-1 .5-.8.2-1.3.2c-.6 0-1.1-.1-1.5-.3-.5-.2-.8-.4-1.2-.7l.3-.5c0-.1.1-.1.2-.2.1 0 .1-.1.2-.1s.2 0 .3.1.2.2.4.2c.2.1.3.2.6.2.2.1.5.1.8.1s.5 0 .7-.1.4-.2.5-.3.2-.3.3-.4.1-.3.1-.5-.1-.4-.2-.6c-.1-.1-.3-.3-.5-.4s-.4-.2-.7-.3-.5-.2-.8-.2l-.8-.3c-.3-.1-.5-.2-.7-.4s-.4-.4-.5-.6-.2-.5-.2-.9c0-.3.1-.6.2-.9s.3-.5.6-.8c.2-.2.5-.4.9-.5s.8-.2 1.2-.2c.5 0 1 .1 1.4.3s.8.4 1.1.7l-.3.7h0z"/><path id="l" d="M444.1 204.1v1.3h-3.7v10.2h-1.6v-10.2h-3.7v-1.3h9 0z"/><path id="m" d="M447 207.3c.5 0 .9.1 1.3.2.4.2.8.4 1.1.7s.5.7.7 1.1c.2.5.3 1 .3 1.5 0 .2 0 .4-.1.4 0 .1-.1.1-.3.1h-5.4c0 .4.1.9.2 1.3.1.3.3.7.5.9.2.3.5.4.8.6.3.1.7.2 1 .2.4 0 .7 0 .9-.1s.5-.2.7-.3.3-.2.5-.3c.1-.1.2-.1.3-.1s.2 0 .3.1l.4.5-.6.6c-.2.2-.5.3-.8.4s-.6.2-.9.2-.6.1-.9.1c-.6 0-1.1-.1-1.5-.3-.5-.2-.9-.5-1.2-.8-.3-.4-.6-.8-.8-1.4-.2-.5-.3-1.2-.3-1.9 0-.6.1-1.1.3-1.6s.4-.9.7-1.3.7-.6 1.2-.8 1 0 1.6 0h0zm.1 1.1c-.7 0-1.2.2-1.6.6s-.6.9-.7 1.7h4.4c0-.3 0-.6-.1-.9s-.2-.5-.4-.7-.4-.4-.6-.5c-.4-.2-.7-.2-1-.2h0z"/><path id="n" d="M491.2 215.6v-8.1h.8c.2 0 .3.1.4.3l.1.9c.4-.4.7-.7 1.2-.9.4-.2.9-.4 1.5-.4.4 0 .8.1 1.2.2s.6.4.8.6.4.6.5 1 .2.8.2 1.3v5.2h-1.4v-5.2c0-.6-.1-1.1-.4-1.4s-.7-.5-1.3-.5c-.4 0-.8.1-1.2.3s-.7.5-1 .8v6h-1.4v-.1z"/><path id="o" d="M535.6 207.3c.5 0 .9.1 1.3.2.4.2.8.4 1.1.7s.5.7.7 1.1c.2.5.3 1 .3 1.5 0 .2 0 .4-.1.4 0 .1-.1.1-.3.1h-5.4c0 .4.1.9.2 1.3.1.3.3.7.5.9.2.3.5.4.8.6.3.1.7.2 1 .2.4 0 .7 0 .9-.1s.5-.2.7-.3.3-.2.5-.3c.1-.1.2-.1.3-.1s.2 0 .3.1l.4.5-.6.6c-.2.2-.5.3-.8.4s-.6.2-.9.2-.6.1-.9.1c-.6 0-1.1-.1-1.5-.3-.5-.2-.9-.5-1.2-.8-.3-.4-.6-.8-.8-1.4-.2-.5-.3-1.2-.3-1.9 0-.6.1-1.1.3-1.6s.4-.9.7-1.3.7-.6 1.2-.8 1 0 1.6 0h0zm0 1.1c-.7 0-1.2.2-1.6.6s-.6.9-.7 1.7h4.4c0-.3 0-.6-.1-.9s-.2-.5-.4-.7-.4-.4-.6-.5c-.4-.2-.7-.2-1-.2h0z"/><path id="p" d="M550.1 215.7c-.6 0-1.1-.2-1.5-.5-.3-.4-.5-.9-.5-1.5v-5h-1c-.1 0-.2 0-.2-.1-.1-.1-.1-.1-.1-.2v-.6l1.3-.2.3-2.5c0-.1 0-.1.1-.2.1 0 .1-.1.2-.1h.7v2.8h2.3v1h-2.3v4.9c0 .3.1.6.2.8.2.2.4.2.6.2.1 0 .3 0 .4-.1s.2-.1.3-.1.1-.1.2-.1.1-.1.1-.1c.1 0 .1 0 .2.1l.4.7c-.2.2-.5.4-.9.5 0 .2-.4.3-.8.3h0z"/><path id="q" d="M582.3 215.7c-.6 0-1.1-.2-1.5-.5-.3-.4-.5-.9-.5-1.5v-5h-1c-.1 0-.2 0-.2-.1-.1-.1-.1-.1-.1-.2v-.6l1.3-.2.3-2.5c0-.1 0-.1.1-.2.1 0 .1-.1.2-.1h.7v2.8h2.3v1h-2.3v4.9c0 .3.1.6.2.8.2.2.4.2.6.2.1 0 .3 0 .4-.1s.2-.1.3-.1.1-.1.2-.1.1-.1.1-.1c.1 0 .1 0 .2.1l.4.7c-.2.2-.5.4-.9.5-.1.2-.5.3-.8.3h0z"/><path id="r" d="M589.9 215.6v-8.1h.8c.2 0 .3.1.4.3l.1.8c.3-.4.6-.7 1-.9s.8-.4 1.3-.4 1 .2 1.3.5.6.7.7 1.2c.1-.3.3-.5.4-.8.2-.2.4-.4.6-.5s.5-.2.7-.3.5-.1.8-.1c.4 0 .8.1 1.1.2s.6.3.8.6.4.6.5 1 .2.8.2 1.3v5.2h-1.4v-5.2c0-.6-.1-1.1-.4-1.4s-.7-.5-1.2-.5c-.2 0-.5 0-.7.1s-.4.2-.6.4-.3.4-.4.6-.1.5-.1.8v5.2h-1.4v-5.2c0-.7-.1-1.1-.4-1.5-.3-.3-.6-.5-1.1-.5a1.69 1.69 0 0 0-1 .3c-.3.2-.6.4-.8.8v6l-1.2.1h0z"/><path id="s" d="M210.4 228.5v5.2c0 .6.1 1.1.4 1.4s.7.5 1.3.5c.4 0 .8-.1 1.2-.3s.7-.5 1-.8v-6h1.4v8.1h-.8c-.2 0-.3-.1-.4-.3l-.1-.9c-.4.4-.7.7-1.2.9-.4.2-.9.4-1.5.4-.4 0-.8-.1-1.2-.2-.3-.1-.6-.4-.9-.6-.2-.3-.4-.6-.5-1s-.2-.8-.2-1.3v-5.2h1.5v.1z"/><path id="t" d="M251 228.3c.6 0 1.1.1 1.6.3s.9.5 1.2.8c.3.4.6.8.8 1.3s.3 1.1.3 1.7-.1 1.2-.3 1.7-.4.9-.8 1.3c-.3.4-.7.6-1.2.8s-1 .3-1.6.3-1.1-.1-1.6-.3-.9-.5-1.2-.8c-.3-.4-.6-.8-.8-1.3s-.3-1.1-.3-1.7.1-1.2.3-1.7.4-1 .8-1.3.7-.6 1.2-.8 1-.3 1.6-.3zm0 7.3c.8 0 1.4-.3 1.8-.8s.6-1.3.6-2.2c0-1-.2-1.7-.6-2.3-.4-.5-1-.8-1.8-.8-.4 0-.8.1-1.1.2s-.5.3-.7.6-.3.6-.4 1-.1.8-.1 1.3 0 .9.1 1.3.2.7.4 1 .4.5.7.6c.3 0 .7.1 1.1.1h0z"/><path id="u" d="M335.7 229.8c-.1.1-.2.2-.3.2s-.2 0-.3-.1-.2-.1-.4-.2c-.1-.1-.3-.1-.5-.2s-.4-.1-.7-.1c-.2 0-.5 0-.6.1-.2.1-.4.1-.5.3a1.38 1.38 0 0 0-.3.4c-.1.1-.1.3-.1.5s.1.4.2.5.3.3.5.4.4.2.7.3.5.2.8.2.5.2.8.3.5.2.7.4.4.4.5.6.2.5.2.8c0 .4-.1.7-.2 1s-.3.6-.6.8-.6.4-1 .5-.8.2-1.3.2c-.6 0-1.1-.1-1.5-.3-.5-.2-.8-.4-1.2-.7l.3-.5c0-.1.1-.1.2-.2.1 0 .1-.1.2-.1s.2 0 .3.1.2.2.4.2c.2.1.3.2.6.2.2.1.5.1.8.1s.5 0 .7-.1.4-.2.5-.3.2-.3.3-.4c.1-.2.1-.3.1-.5s-.1-.4-.2-.6c-.1-.1-.3-.3-.5-.4s-.4-.2-.7-.3-.5-.2-.8-.2l-.8-.3c-.3-.1-.5-.2-.7-.4s-.4-.4-.5-.6-.2-.5-.2-.9c0-.3.1-.6.2-.9s.3-.5.6-.8c.2-.2.5-.4.9-.5s.8-.2 1.2-.2c.5 0 1 .1 1.4.3s.8.4 1.1.7l-.3.7h0z"/><path id="v" d="M344.5 235.7c0-.1 0-.3.1-.4s.1-.2.2-.3.2-.2.3-.2c.1-.1.3-.1.4-.1s.3 0 .4.1.2.1.3.2.2.2.2.3c.1.1.1.3.1.4s0 .3-.1.4-.1.2-.2.3-.2.2-.3.2-.3.1-.4.1-.3 0-.4-.1-.2-.1-.3-.2-.2-.2-.2-.3c-.1-.1-.1-.3-.1-.4z"/><path id="w" d="M394.4 236.6v-11.8h1.4v4.8a2.73 2.73 0 0 1 1.2-.9c.4-.2.9-.3 1.5-.3.4 0 .8.1 1.2.2s.6.4.8.6.4.6.5 1 .2.8.2 1.3v5.2h-1.4v-5.2c0-.6-.1-1.1-.4-1.4s-.7-.5-1.3-.5c-.4 0-.8.1-1.2.3s-.7.5-1 .8v6h-1.5v-.1z"/><path id="x" d="M501.2 225.9c0 .1 0 .3-.1.4s-.1.2-.2.3-.2.2-.3.2c-.1.1-.3.1-.4.1s-.3 0-.4-.1-.2-.1-.3-.2-.2-.2-.2-.3c-.1-.1-.1-.2-.1-.4s0-.3.1-.4.1-.2.2-.3.2-.2.3-.2c.1-.1.2-.1.4-.1s.3 0 .4.1.2.1.3.2.2.2.2.3.1.3.1.4zm-.4 2.6v8.1h-1.4v-8.1h1.4z"/><path id="y" d="M465.1 127.6c.5 0 .9.1 1.3.2.4.2.8.4 1.1.7s.5.7.7 1.1.2.9.2 1.5v.3s0 .2-.1.2c0 .1-.1.1-.1.1h-.2-4.8c.1.8.3 1.4.6 1.7s.9.6 1.5.6c.3 0 .6 0 .8-.1s.4-.1.6-.2.3-.2.4-.2c.1-.1.2-.1.4-.1h.2c.1 0 .1.1.1.1l.5.7c-.2.2-.4.4-.7.6s-.5.3-.8.4-.6.2-.8.2c-.3 0-.6.1-.8.1-.5 0-1-.1-1.5-.3s-.9-.4-1.2-.8-.6-.8-.8-1.3-.3-1.1-.3-1.8c0-.5.1-1 .3-1.5s.4-.9.7-1.2.7-.6 1.2-.8c.4-.1.9-.2 1.5-.2zm0 1.4c-.5 0-1 .2-1.3.5s-.5.7-.6 1.3h3.5c0-.2 0-.5-.1-.7l-.3-.6c-.1-.2-.3-.3-.5-.4s-.4-.1-.7-.1z"/><path id="z" d="M369.3 267.2l-.2.2c-.1.1-.1.1-.2.1s-.2 0-.3-.1-.2-.2-.4-.2-.4-.2-.6-.2c-.2-.1-.5-.1-.8-.1-.4 0-.8.1-1.1.2-.3.2-.6.4-.8.7s-.4.6-.5 1.1c-.1.4-.2.9-.2 1.4s.1 1 .2 1.4.3.8.5 1.1.5.5.8.6.7.2 1.1.2.7 0 .9-.1l.6-.3a1.38 1.38 0 0 0 .4-.3c.1-.1.2-.1.3-.1s.3.1.3.2l.5.6c-.2.3-.4.5-.7.7s-.5.3-.8.4l-.9.3c-.3.1-.6.1-1 .1-.6 0-1.1-.1-1.6-.3s-.9-.5-1.3-.9-.6-.9-.9-1.5c-.2-.6-.3-1.2-.3-2 0-.7.1-1.3.3-1.9a5.3 5.3 0 0 1 .8-1.5 5.02 5.02 0 0 1 1.4-1c.6-.3 1.2-.4 1.9-.4s1.2.1 1.7.3.9.5 1.3.9l-.4.4z"/></defs><clipPath id="AA"><use xlink:href="#A"/></clipPath><circle cx="93.5" cy="192.5" r="38.9" clip-path="url(#AA)" fill="#ddd"/><defs><circle id="AB" cx="93.5" cy="192.5" r="38.9"/></defs><clipPath id="AC"><use xlink:href="#AB"/></clipPath><g clip-path="url(#AC)"><g fill-rule="evenodd"><g fill="#f5be92"><ellipse transform="matrix(.9499 -.3126 .3126 .9499 -54.2551 34.0004)" cx="78.9" cy="186.2" rx="2.1" ry="3.5"/><ellipse transform="matrix(.3129 -.9498 .9498 .3129 -102.4394 230.7284)" cx="108.2" cy="186.2" rx="3.5" ry="2.1"/></g><path d="M103.8 168.2c3 .5 4.7 2.5 5.4 5.3 1.9 7.3-2 23.1-15.5 23.3-6.9.1-11.9-1.7-13.7-7.3s-2.6-14.7 1.4-19.7c4.9-6.4 15.4-6.4 22.4-1.6z" fill="#92653d"/><path d="M87.9 205.3c-12.6 5.5-16.4 8.5-17.8 9.8-2.3 2-3.6 9.9-5 16.3h57c-1.4-6.4-2.5-14.3-4.8-16.3-1.5-1.3-5.1-4.2-17.7-9.7 0 0-11.7-.1-11.7-.1z" fill="#4c9dd2" stroke="#4c9dd2" stroke-width="1.084" stroke-linejoin="round" stroke-miterlimit="10"/><g fill="#f5be92"><path d="M87.5 194.3v15c3.4 4 8.9 4.1 12.2 0v-14.9c0-7.6-12.2-7.6-12.2-.1z"/><path d="M93.6 169.3c-20.5 0-13.1 26.7-11.8 28.7 1.5 2.2 8.5 6 11.8 6s10.3-4.3 11.8-6.5c1.3-2 8.7-28.2-11.8-28.2z"/></g><path d="M83.6 175.7c3.6 2.2 6.4-1.1 9.6.3 3.3 1.4 12.6-2.4 14.5 12.4 3.1-10.7-2.1-19.7-13.9-20.2-12.5-.5-17.6 9.3-14.1 19.9-.2-5.7 1.2-9.5 3.9-12.4z" fill="#92653d"/><g stroke-miterlimit="10" fill="#fff" stroke="#fff" stroke-width="2"><path d="M86.9 205.2l-4.3 2.3 6.3 8.7 4.8-4.5-6.8-6.5z"/><path d="M100.3 205.2l4.3 2.3-6.3 8.7-4.8-4.5 6.8-6.5z"/></g></g><path d="M83.3 174.8c.3 1.8 2.9 2 4.3 2.2 2.8.3 6.2-.8 8.4-2.4.2-.1.1-.4-.1-.4-2.4-.1-4.6 1.5-7 1.7-1.7.1-4.1-.1-5.5-1.3 0 0-.1.1-.1.2z" fill="#92653d"/><path d="M85.2 188.1s.7 1.1 2.7 1.1 2.4-1 2.4-1.3c0 0-.8-1.3-2.4-1.3s-2.7 1.5-2.7 1.5z" fill="#fff"/><radialGradient id="AD" cx="87.89" cy="214.147" r="1.168" gradientTransform="matrix(1 0 0 -1 0 402)" gradientUnits="userSpaceOnUse"><stop offset="0" stop-color="#624a2e"/><stop offset=".036" stop-color="#6d5633"/><stop offset=".122" stop-color="#816b3d"/><stop offset=".223" stop-color="#907c45"/><stop offset=".348" stop-color="#9b884a"/><stop offset=".523" stop-color="#a18f4d"/><stop offset="1" stop-color="#a3914e"/></radialGradient><circle cx="87.8" cy="187.9" r="1.2" fill="url(#AD)"/><path d="M87.8 186.8a1.11 1.11 0 0 1 1.1 1.1 1.11 1.11 0 0 1-1.1 1.1 1.11 1.11 0 0 1-1.1-1.1c.1-.6.6-1.1 1.1-1.1m0-.2c-.7 0-1.3.6-1.3 1.3s.6 1.3 1.3 1.3 1.3-.6 1.3-1.3-.5-1.3-1.3-1.3h0z" fill="#624a2e"/><circle cx="87.8" cy="187.9" r=".5"/><path d="M101.9 188.1s-.7 1.1-2.7 1.1-2.4-1-2.4-1.3c0 0 .8-1.3 2.4-1.3s2.7 1.5 2.7 1.5z" fill="#fff"/><radialGradient id="AE" cx="-1034.843" cy="214.147" r="1.168" gradientTransform="matrix(-1 0 0 -1 -935.5322 402)" gradientUnits="userSpaceOnUse"><stop offset="0" stop-color="#624a2e"/><stop offset=".036" stop-color="#6d5633"/><stop offset=".122" stop-color="#816b3d"/><stop offset=".223" stop-color="#907c45"/><stop offset=".348" stop-color="#9b884a"/><stop offset=".523" stop-color="#a18f4d"/><stop offset="1" stop-color="#a3914e"/></radialGradient><circle cx="99.3" cy="187.9" r="1.2" fill="url(#AE)"/><path d="M99.3 186.8a1.11 1.11 0 0 1 1.1 1.1 1.11 1.11 0 0 1-1.1 1.1 1.11 1.11 0 0 1-1.1-1.1 1.11 1.11 0 0 1 1.1-1.1m0-.2c-.7 0-1.3.6-1.3 1.3s.6 1.3 1.3 1.3 1.3-.6 1.3-1.3c-.1-.7-.6-1.3-1.3-1.3h0z" fill="#624a2e"/><circle cx="99.3" cy="187.9" r=".5"/><path d="M91.3 193.5c-.3.2-.4.5-.1.8.6.4 1.3.4 2 .4s1.5-.1 2.1-.4c.3-.2.5-.8.1-1-.1 0-.2 0-.2.1s.1.3.1.4c0 .2-.3.3-.4.3-.4.2-.9.2-1.4.2-.4 0-2.6.1-2.2-.8h0zm-1.6 5.3c2.2 1.6 5.7 1.2 7.8-.3.1 0 0-.1-.1-.1-2.6 1.1-5 1.4-7.7.4 0-.2 0-.1 0 0h0 0z" fill="#e48f67"/><path d="M82.9 183.4c2.5-.4 5-.7 7.3.6.2.1.4-.2.2-.3-1.9-1.3-5.5-1.8-7.5-.3 0-.1 0 0 0 0h0zm21.2-.1c-2-1.4-5.6-.9-7.5.3-.2.1 0 .5.2.3 2.3-1.3 4.8-.9 7.3-.6 0 .1 0 0 0 0h0z" fill="#92653d"/><path d="M99.2 192.9h.3c3.2-.3 3.9-1.7 4.3-3.5.4-2 .4-2.7.9-2.8.4-.1.5-.6.5-1.1s0-.6-.6-.8c-.5-.2-3.2-.4-5.2-.3v.5c1.6-.1 3.1.1 3.6.4 1 .7.7 3.8-.1 5.4-.6 1.1-2.2 1.6-3.6 1.7l-.1.5h0zm-5.9-7.4c-.7 0-3.6-.8-5.6-1h-.4v.5c1.7.1 3.4.4 3.9 1.3 1 1.4-.8 5-2.3 5.8-.5.2-1.1.4-1.8.4v.5c2.7 0 3.7-2 4.1-2.6.6-1.2.5-2.9 2.1-3 1.6 0 1.4 1.7 1.9 2.9.3.7 1.2 2.7 4 2.6v-.5c-.7 0-1.4-.1-1.9-.4-1.5-.8-3-4.3-2-5.8.6-.9 2.3-1.3 4-1.3v-.5h-.4c-1.7.2-3.9 1-5.6 1.1zm-6-1c-2-.1-4.7.1-5.2.3-.6.2-.7.3-.7.8s0 1 .4 1.1c.5.2.5.9.8 2.8.2 1.8.9 3.2 4.1 3.5h.5v-.5c-1.4 0-3.1-.5-3.6-1.7-.8-1.6-.9-4.7.2-5.4.5-.3 2-.5 3.5-.4v-.5h0z" fill-rule="evenodd" fill="#0a6f90"/><path d="M106.6 180.6c-.6-.1-1.1-.4-1.5-.8-.2-.2-.4-.5-.5-.8s0-.5-.3-.8c-.1-.1-.4-.2-.5-.1h0v-.3c.1-.4-.4-.7-.7-.4-.2.1-.3.3-.4.5 0-.3-.3-.7-.7-.6s-1 0-1.4-.1v-.2c-.2-.6-.6-.9-.9-1.4-.2-.5-1.1-.4-1.2.2v.1c-.1-.2-.2-.4-.3-.5-.2-.2-.5-.2-.6.1-.1.2-.1.5-.1.7-.2.1-.4.2-.6.2 0 0-.1 0-.1-.1-.8-.3-1.5-.6-2.2-1.1-.2-.2-.5-.2-.7 0-.3-.2-.8-.2-1.1.2-1.1 1.7-1.9.1-2.8-.3-.4-.2-.8 0-.8.5v.2c-.1-.1-.1-.2-.2-.3-.2-.4-.8-.4-1.1-.1-.8.6-1.7.9-2.7 1h-.4c.2-.1.3-.3.2-.5 0-.1 0 0 0 0 0-.2-.1-.4-.4-.5-.4-.1-.8-.3-1.2-.4-.3 0-.5.3-.3.5l.1.1v.1c-.3-.2-.6-.5-.9-.8-.2-.1-.4-.1-.5.1-.8 3.2 4.1 2.7 6.3 1.7 1.6 1.9 5 2.3 6-.1.6.8 1.9.9 3 .7.3 0 .6-.1.8-.3.3.5.6.8 1 1.1 1 .7 2.3.8 3.5.4.2-.1.3-.2.3-.3-.1.7.2 1.5.6 2 .7.9 1.9 1.6 3.1 1.5.7-.1.9-1 .2-1.1h0zM82.1 171h0c.2-.1.3-.3.3-.4.3.1.7-.1.7-.5-.1-.9.1-1.5 1-1.7.7-.2 1.6-.1 2.3 0 .5 0 .8-.7.4-1-.3-.3-.6-.5-1-.6.2-.1.3-.2.5-.3.1 0 .2-.1.4-.1v.8c0 .3.5.2.5-.1s.1-.5.2-.7c.3.1.5.2.8.1.2-.1.3-.2.3-.4.3.1.5.2.8.4s.4.5.8.6c.3.1.5-.1.5-.4 0-.4-.3-.8-.7-1 .4-.6 1.1-.7 1.8-.5 0 .2.1.4.4.5s.5.1.8.2h.1c0 .3.1.7.2 1s.5.2.5-.1c0-1.3.9-1.5 1.9-1.3.5.1 1 .4 1.4.7.3.3.6.7 1 .9.2.1.5 0 .5-.2.4-1.5-2.1-2.5-3.2-2.6-.6-.1-1.3.1-1.8.5-.1 0-.1.1-.2.2 0 0 0-.1-.1-.1-1.1-1.1-3.7-1.1-4.1.5-.4-.1-.7-.1-1-.1-.2 0-.3 0-.5.1-.6-.1-1.3 0-1.8.2-.4.2-.8.5-1.1.9-.1.1-.1.2-.1.3-.7 0-1.4.1-2 .3-1.4.5-1.5 1.8-1.4 3-1.4.3-2.7 2.4-2.1 3.5.1.4.2.8.5 1.1-.6.1-1.1.5-1.3 1-.9.9-.9 2.7 0 3.7.1.1.1.2.2.3s.2.1.2.1c.5.1 1.1-.4.8-.9s-.4-1.1-.3-1.7c0-.2.1-.4.2-.5h.2c.3 0 .5-.3.6-.5.1 0 .2 0 .2-.1.6-.1.5-.8.1-1.1.2-.2.3-.6 0-.9-.6-.8.1-2 .9-2.5.3-.3.6-.3.7-.6h0z" fill="#92653d"/></g><path d="M390.1 294.5c0 .6-.1 1.2-.2 1.7-.2.5-.4.9-.7 1.3s-.7.6-1.1.8c-.5.2-1 .3-1.6.3-.5 0-1.1-.1-1.6-.2l.1-1c0-.1 0-.2.1-.2.1-.1.2-.1.3-.1s.2 0 .4.1c.2 0 .4.1.6.1.3 0 .6-.1.9-.2s.5-.3.7-.5.3-.5.4-.8.1-.7.1-1.2V287h1.7l-.1 7.5h0zm1.8-3c.5-.4.9-.8 1.5-1s1.1-.3 1.7-.3c.4 0 .8.1 1.2.2.4.2.7.4.9.6l.6 1c.1.4.2.8.2 1.3v5.2h-.7c-.2 0-.3 0-.4-.1s-.1-.1-.2-.3l-.2-.7c-.2.2-.4.4-.6.5s-.4.3-.6.4-.5.2-.7.2c-.3.1-.5.1-.8.1s-.6 0-.9-.1-.5-.2-.7-.4-.4-.4-.5-.7-.2-.6-.2-1c0-.3.1-.6.3-.9s.5-.6.8-.8l1.5-.6 2.3-.3v-.6c0-.6-.1-1.1-.4-1.4s-.6-.5-1.2-.5c-.3 0-.6 0-.9.1l-.6.3a1.38 1.38 0 0 0-.4.3c-.1.1-.3.1-.4.1s-.2 0-.3-.1l-.2-.2-.1-.3h0zm4.6 3.4c-.6 0-1.2.1-1.6.1l-1.1.3c-.3.1-.5.3-.6.5s-.2.4-.2.6 0 .4.1.5.2.3.3.4.2.2.4.2.3.1.5.1.5 0 .7-.1c.2 0 .4-.1.6-.2s.3-.2.5-.3.3-.3.5-.4l-.1-1.7h0zm5.1-3.4c.2-.2.4-.4.6-.5.2-.2.4-.3.6-.4s.4-.2.7-.3.5-.1.8-.1c.4 0 .8.1 1.2.2s.6.4.9.6c.2.3.4.6.5 1s.2.8.2 1.3v5.2h-1.6v-5.2c0-.6-.1-1-.4-1.4-.3-.3-.7-.5-1.2-.5-.4 0-.8.1-1.1.3s-.7.4-1 .8v6h-1.6v-8.1h.9c.2 0 .4.1.4.3l.1.8h0zm18.6 5.8v1.2H414v-1.2h2.4v-8.2l-2 1.7c-.1.1-.1.1-.2.1h-.2c-.1 0-.1 0-.2-.1-.1 0-.1-.1-.1-.1l-.5-.7 3.4-3h1.3v10.3h2.3 0zm9.9-4.5c0 1-.1 1.9-.3 2.6s-.5 1.3-.9 1.8-.8.8-1.3 1.1c-.5.2-1.1.4-1.6.4-.6 0-1.1-.1-1.6-.4-.5-.2-1-.6-1.3-1.1-.4-.5-.7-1.1-.9-1.8s-.3-1.6-.3-2.6.1-1.9.3-2.6.5-1.3.9-1.8.8-.8 1.3-1.1c.5-.2 1.1-.4 1.6-.4.6 0 1.1.1 1.6.4.5.2 1 .6 1.3 1.1.4.5.7 1.1.9 1.8s.3 1.6.3 2.6zm-1.6 0c0-.9-.1-1.6-.2-2.2s-.3-1-.6-1.4c-.2-.4-.5-.6-.8-.8-.3-.1-.6-.2-1-.2s-.7.1-1 .2-.6.4-.8.8l-.6 1.4c-.2.6-.2 1.3-.2 2.2s.1 1.6.2 2.2.3 1 .6 1.4c.2.4.5.6.8.8s.6.2 1 .2.7-.1 1-.2.6-.4.8-.8l.6-1.4c.1-.6.2-1.3.2-2.2zm3.9 5.7c-.1 0-.3 0-.4-.1s-.2-.1-.3-.2-.2-.2-.2-.3-.1-.3-.1-.4 0-.2.1-.4c0-.1.1-.2.2-.3s.2-.2.3-.2c.1-.1.3-.1.4-.1a.9.9 0 0 1 .5.1c.1.1.2.1.3.3s.2.2.2.4c0 .1.1.3.1.5s0 .5-.1.8l-.3.8c-.1.3-.3.5-.5.8-.2.2-.4.5-.7.7l-.3-.2c-.1-.1-.1-.2-.1-.2v-.1l.6-.6c.1-.1.2-.2.2-.4.1-.5.1-.7.1-.9h0 0zm13.8-1.4c.2 0 .3 0 .4.1s.1.2.1.4v.9H439v-.5c0-.1 0-.2.1-.3s.1-.2.2-.3l3.6-3.6c.3-.3.6-.6.8-.9s.5-.6.6-.8c.2-.3.3-.6.4-.9s.1-.6.1-.9-.1-.6-.2-.8-.2-.4-.4-.6-.4-.3-.6-.4-.5-.1-.8-.1-.5 0-.8.1l-.6.3c-.2.1-.3.3-.5.5l-.3.6a1.38 1.38 0 0 1-.3.4c-.1.1-.3.1-.5 0l-.8-.1c.1-.5.2-1 .4-1.4s.5-.7.8-1 .7-.5 1.1-.6.9-.2 1.4-.2 1 .1 1.4.2.8.4 1.1.6c.3.3.6.6.7 1s.3.8.3 1.3c0 .4-.1.8-.2 1.2s-.3.7-.5 1-.5.7-.8 1l-.9.9-2.9 3c.2-.1.4-.1.7-.1s.4-.1.6-.1l4 .1h0zm10.2-4.3c0 1-.1 1.9-.3 2.6s-.5 1.3-.9 1.8-.8.8-1.3 1.1c-.5.2-1.1.4-1.6.4s-1.1-.1-1.6-.4c-.5-.2-1-.6-1.3-1.1-.4-.5-.7-1.1-.9-1.8s-.3-1.6-.3-2.6.1-1.9.3-2.6.5-1.3.9-1.8.8-.8 1.3-1.1c.5-.2 1.1-.4 1.6-.4s1.1.1 1.6.4c.5.2 1 .6 1.3 1.1.4.5.7 1.1.9 1.8s.3 1.6.3 2.6zm-1.6 0c0-.9-.1-1.6-.2-2.2s-.3-1-.6-1.4c-.2-.4-.5-.6-.8-.8s-.6-.2-1-.2-.7.1-1 .2-.6.4-.8.8l-.6 1.4c-.2.6-.2 1.3-.2 2.2s.1 1.6.2 2.2.3 1 .6 1.4c.2.4.5.6.8.8.3.1.6.2 1 .2s.7-.1 1-.2.6-.4.8-.8l.6-1.4c.1-.6.2-1.3.2-2.2zm9.9 4.3c.2 0 .3 0 .4.1s.1.2.1.4v.9h-7.7v-.5c0-.1 0-.2.1-.3s.1-.2.2-.3l3.6-3.6c.3-.3.6-.6.8-.9s.5-.6.6-.8c.2-.3.3-.6.4-.9s.1-.6.1-.9-.1-.6-.2-.8-.2-.4-.4-.6-.4-.3-.6-.4-.5-.1-.8-.1-.5 0-.8.1l-.6.3c-.2.1-.3.3-.5.5l-.3.6a1.38 1.38 0 0 1-.3.4c-.1.1-.3.1-.5 0l-.8-.1c.1-.5.2-1 .4-1.4s.5-.7.8-1 .7-.5 1.1-.6.9-.2 1.4-.2 1 .1 1.4.2.8.4 1.1.6c.3.3.6.6.7 1s.3.8.3 1.3c0 .4-.1.8-.2 1.2s-.3.7-.5 1-.5.7-.8 1l-.9.9-2.9 3c.2-.1.4-.1.7-.1s.4-.1.6-.1l4 .1h0zm9.6.2v1.2h-6.2v-1.2h2.4v-8.2l-2 1.7c-.1.1-.1.1-.2.1h-.2c-.1 0-.1 0-.2-.1-.1 0-.1-.1-.1-.1l-.5-.7 3.4-3h1.3v10.3h2.3 0z" fill="#444"/><g fill="#ffae04"><use xlink:href="#B"/><path d="M410.6 94.1l2.3 5.5 6 .5c.4 0 .6.6.3.8l-4.5 3.9 1.4 5.8c.1.4-.4.7-.7.5l-5.1-3.1-5.1 3.1c-.4.2-.8-.1-.7-.5l1.4-5.8-4.5-3.9c-.3-.3-.2-.7.3-.8l6-.5 2.3-5.5c0-.4.4-.4.6 0h0zm19.7 0l2.3 5.5 6 .5c.4 0 .6.6.3.8l-4.5 3.9 1.4 5.8c.1.4-.4.7-.7.5L430 108l-5.1 3.1c-.4.2-.8-.1-.7-.5l1.4-5.8-4.5-3.9c-.3-.3-.2-.7.3-.8l6-.5 2.3-5.5c-.1-.4.4-.4.6 0h0zm19.7 0l2.3 5.5 6 .5c.4 0 .6.6.3.8l-4.5 3.9 1.4 5.8c.1.4-.4.7-.7.5l-5.1-3.1-5.1 3.1c-.4.2-.8-.1-.7-.5l1.4-5.8-4.5-3.9c-.3-.3-.2-.7.3-.8l6-.5 2.3-5.5c-.1-.4.4-.4.6 0h0z"/><use xlink:href="#B" x="78.7"/></g><path d="M163.4 173.6h-1.6v-11.5h1.6v11.5zm4.8-8.1h1.1c.1 0 .2 0 .3.1l.2.2 1.6 5.2c0 .2.1.4.1.6s.1.4.1.5c0-.2.1-.4.1-.5s.1-.4.2-.6l1.7-5.2c0-.1.1-.1.1-.2.1-.1.2-.1.3-.1h.6c.1 0 .2 0 .3.1s.1.1.1.2l1.7 5.2c.1.2.1.4.2.6 0 .2.1.4.1.5 0-.2.1-.4.1-.6s.1-.4.1-.5l1.6-5.2c0-.1.1-.2.2-.2s.2-.1.3-.1h1.1l-2.6 8.1h-1.1c-.1 0-.2-.1-.3-.3l-1.8-5.5c0-.1-.1-.2-.1-.4 0-.1-.1-.2-.1-.4 0 .1-.1.2-.1.4 0 .1-.1.3-.1.4l-1.8 5.5c-.1.2-.2.3-.3.3H171l-2.8-8.1z"/><use xlink:href="#C"/><use xlink:href="#D"/><use xlink:href="#E"/><use xlink:href="#F"/><use xlink:href="#F" x="8.9"/><path d="M223.1 161.8v6.9h.7c.1 0 .1-.1.2-.2l2.6-2.7.2-.2s.2-.1.3-.1h1.3l-3 3.2c-.1.1-.1.2-.2.2-.1.1-.2.1-.2.2.1.1.2.1.3.2s.2.2.2.3l3.2 4h-1.3c-.1 0-.2 0-.3-.1-.1 0-.2-.1-.2-.2l-2.7-3.3-.2-.2c-.1 0-.2-.1-.4-.1h-.4v3.9h-1.4v-11.8h1.3 0z"/><use xlink:href="#G"/><use xlink:href="#H"/><use xlink:href="#I"/><path d="M254.5 173.6v-6.9l-.9-.1c-.1 0-.2-.1-.3-.1-.1-.1-.1-.1-.1-.2v-.6h1.3v-.8c0-.4.1-.8.2-1.2s.3-.7.6-.9.5-.4.9-.6.7-.2 1.2-.2c.4 0 .7.1 1 .2v.7c0 .1-.1.2-.1.2h-.6c-.2 0-.5 0-.7.1s-.4.2-.5.3-.3.3-.3.6c-.1.2-.1.5-.1.9v.7h2.3v1H256v6.9h-1.5 0zm8.4-8.3c.6 0 1.1.1 1.6.3s.9.5 1.2.8c.3.4.6.8.8 1.3s.3 1.1.3 1.7-.1 1.2-.3 1.7-.4.9-.8 1.3c-.3.4-.7.6-1.2.8s-1 .3-1.6.3-1.1-.1-1.6-.3-.9-.5-1.2-.8c-.3-.4-.6-.8-.8-1.3s-.3-1.1-.3-1.7.1-1.2.3-1.7.4-1 .8-1.3c.3-.4.7-.6 1.2-.8s1-.3 1.6-.3zm0 7.3c.8 0 1.4-.3 1.8-.8s.6-1.3.6-2.2c0-1-.2-1.7-.6-2.3-.4-.5-1-.8-1.8-.8-.4 0-.8.1-1.1.2s-.5.3-.7.6-.3.6-.4 1-.1.8-.1 1.3 0 .9.1 1.3.2.7.4 1 .4.5.7.6c.3 0 .7.1 1.1.1h0z"/><use xlink:href="#J"/><use xlink:href="#K"/><use xlink:href="#J" x="20.7"/><path d="M298.9 165.3c.5 0 .9.1 1.3.2.4.2.8.4 1.1.7s.5.7.7 1.1.3 1 .3 1.5c0 .2 0 .4-.1.4s-.1.1-.3.1h-5.4c0 .4.1.9.2 1.3.1.3.3.7.5.9.2.3.5.4.8.6.3.1.7.2 1 .2.4 0 .7 0 .9-.1.3-.1.5-.2.7-.3s.3-.2.5-.3c.1-.1.2-.1.3-.1s.2 0 .3.1l.4.5-.6.6c-.2.2-.5.3-.8.4s-.6.2-.9.2c-.3.1-.6.1-.9.1-.6 0-1.1-.1-1.5-.3-.5-.2-.9-.5-1.2-.8-.3-.4-.6-.8-.8-1.4s-.3-1.2-.3-1.9c0-.6.1-1.1.3-1.6s.4-.9.7-1.3.7-.6 1.2-.8c.5.1 1 0 1.6 0h0zm0 1.1c-.7 0-1.2.2-1.6.6s-.6.9-.7 1.7h4.4c0-.3 0-.6-.1-.9s-.2-.5-.4-.7-.4-.4-.6-.5-.6-.2-1-.2h0zm11.1 7.2h-.6c-.1 0-.3 0-.3-.1s-.1-.1-.2-.3l-.2-.8c-.2.2-.4.4-.6.5-.2.2-.4.3-.6.4s-.5.2-.7.2c-.3.1-.5.1-.8.1s-.6 0-.9-.1-.5-.2-.7-.4-.4-.4-.5-.7-.2-.6-.2-1c0-.3.1-.6.3-.9a2.36 2.36 0 0 1 .9-.8l1.5-.6c.6-.1 1.4-.2 2.3-.2v-.6c0-.6-.1-1.1-.4-1.4s-.7-.5-1.2-.5c-.3 0-.6 0-.9.1s-.4.2-.6.3a1.38 1.38 0 0 0-.4.3c-.1.1-.2.1-.4.1-.1 0-.2 0-.3-.1l-.2-.2-.3-.5c.4-.4.9-.8 1.4-1s1.1-.3 1.7-.3c.4 0 .8.1 1.2.2.3.1.6.4.9.6.2.3.4.6.5 1s.2.8.2 1.2v5.5h.1zm-3.7-.9c.3 0 .5 0 .7-.1s.4-.1.6-.2.4-.2.5-.3l.5-.5v-1.7c-.7 0-1.2 0-1.7.1l-1.1.3c-.3.1-.5.3-.6.5s-.2.4-.2.6 0 .4.1.6a1.38 1.38 0 0 0 .3.4c.1.1.2.2.4.2a.9.9 0 0 0 .5.1h0z"/><use xlink:href="#E" x="112.5"/><use xlink:href="#E" x="116.6"/><use xlink:href="#L"/><use xlink:href="#I" x="88.7"/><use xlink:href="#M"/><use xlink:href="#M" x="8.9"/><use xlink:href="#N"/><path d="M372.1 173.7c-.6 0-1.1-.2-1.5-.5-.3-.4-.5-.9-.5-1.5v-5h-1c-.1 0-.2 0-.2-.1s-.1-.1-.1-.2v-.6l1.3-.2.3-2.5c0-.1 0-.1.1-.2s.1-.1.2-.1h.7v2.8h2.3v1h-2.3v4.9c0 .3.1.6.2.8.2.2.4.2.6.2.1 0 .3 0 .4-.1s.2-.1.3-.1.1-.1.2-.1.1-.1.1-.1c.1 0 .1 0 .2.1l.4.7c-.2.2-.5.4-.9.5-.1.2-.4.3-.8.3h0zm6.7-8.4c.5 0 .9.1 1.3.2.4.2.8.4 1.1.7s.5.7.7 1.1.3 1 .3 1.5c0 .2 0 .4-.1.4s-.1.1-.3.1h-5.4c0 .4.1.9.2 1.3.1.3.3.7.5.9.2.3.5.4.8.6.3.1.7.2 1 .2.4 0 .7 0 .9-.1.3-.1.5-.2.7-.3s.3-.2.5-.3c.1-.1.2-.1.3-.1s.2 0 .3.1l.4.5-.6.6c-.2.2-.5.3-.8.4s-.6.2-.9.2c-.3.1-.6.1-.9.1-.6 0-1.1-.1-1.5-.3-.5-.2-.9-.5-1.2-.8-.3-.4-.6-.8-.8-1.4s-.3-1.2-.3-1.9c0-.6.1-1.1.3-1.6s.4-.9.7-1.3.7-.6 1.2-.8c.5.1 1.1 0 1.6 0h0zm.1 1.1c-.7 0-1.2.2-1.6.6s-.6.9-.7 1.7h4.4c0-.3 0-.6-.1-.9s-.2-.5-.4-.7-.4-.4-.6-.5-.7-.2-1-.2h0z"/><use xlink:href="#O"/><use xlink:href="#P"/><use xlink:href="#Q"/><use xlink:href="#R"/><use xlink:href="#S"/><use xlink:href="#H" x="189"/><use xlink:href="#T"/><path d="M442 173.6h-.6c-.1 0-.3 0-.3-.1-.1 0-.1-.1-.2-.3l-.2-.8c-.2.2-.4.4-.6.5-.2.2-.4.3-.6.4s-.5.2-.7.2c-.3.1-.5.1-.8.1s-.6 0-.9-.1-.5-.2-.7-.4-.4-.4-.5-.7-.2-.6-.2-1c0-.3.1-.6.3-.9a2.36 2.36 0 0 1 .9-.8l1.5-.6c.6-.1 1.4-.2 2.3-.2v-.6c0-.6-.1-1.1-.4-1.4s-.7-.5-1.2-.5c-.3 0-.6 0-.9.1s-.4.2-.6.3-.3.2-.4.3-.2.1-.4.1c-.1 0-.2 0-.3-.1l-.2-.2-.3-.5c.4-.4.9-.8 1.4-1s1.1-.3 1.7-.3c.4 0 .8.1 1.2.2s.6.4.9.6c.2.3.4.6.5 1s.2.8.2 1.2v5.5h.1zm-3.7-.9c.3 0 .5 0 .7-.1s.4-.1.6-.2.4-.2.5-.3c.2-.1.3-.3.5-.5v-1.7c-.7 0-1.2 0-1.7.1s-.8.2-1.1.3-.5.3-.6.5-.2.4-.2.6 0 .4.1.6a1.38 1.38 0 0 0 .3.4c.1.1.2.2.4.2.1.1.3.1.5.1h0z"/><use xlink:href="#E" x="244.4"/><path d="M451.3 176.3v-10.8h.8c.2 0 .3.1.4.3l.1 1c.3-.4.7-.8 1.2-1 .4-.3 1-.4 1.5-.4s.9.1 1.3.3.7.4 1 .8c.3.3.5.8.6 1.3s.2 1.1.2 1.8c0 .6-.1 1.2-.2 1.7s-.4.9-.7 1.3c-.3.3-.7.7-1.1.9s-.9.3-1.5.3c-.5 0-.9-.1-1.3-.2-.4-.2-.7-.4-.9-.7v3.6h-1.4v-.2zm3.6-9.8c-.5 0-.9.1-1.2.3s-.7.5-1 .9v3.9c.3.4.5.6.9.7.3.1.7.2 1 .2.8 0 1.3-.3 1.7-.8s.6-1.3.6-2.3c0-.5 0-1-.1-1.4s-.2-.7-.4-.9-.4-.4-.6-.5-.5-.1-.9-.1h0z"/><use xlink:href="#E" x="260.5"/><use xlink:href="#U"/><path d="M475.9 165.3c.4 0 .7 0 1 .1l.8.3h2.2v.5c0 .2-.1.3-.3.3l-.9.1c.2.3.3.7.3 1.2 0 .4-.1.8-.2 1.1-.2.3-.4.6-.6.8-.3.2-.6.4-1 .5s-.8.2-1.2.2-.7 0-1.1-.1a.78.78 0 0 0-.4.4c-.1.1-.1.3-.1.4 0 .2.1.3.2.5.2.1.4.2.6.2.3 0 .5.1.9.1h1c.3 0 .7 0 1 .1l.9.3a.9.9 0 0 1 .6.6c.1.3.2.5.2.9a1.69 1.69 0 0 1-.3 1c-.2.3-.4.6-.7.9s-.7.5-1.2.6c-.5.2-1 .2-1.6.2s-1.1-.1-1.6-.2c-.4-.1-.8-.3-1.1-.5s-.5-.4-.7-.7c-.1-.3-.2-.5-.2-.8 0-.4.1-.7.4-1s.6-.5 1-.7c-.2-.1-.4-.2-.5-.4s-.2-.4-.2-.7c0-.1 0-.2.1-.4 0-.1.1-.2.2-.4s.2-.2.3-.4.3-.2.4-.3a1.96 1.96 0 0 1-.9-.9c-.2-.4-.3-.8-.3-1.3 0-.4.1-.8.2-1.1.2-.3.4-.6.6-.8.3-.2.6-.4 1-.5.3 0 .7-.1 1.2-.1h0zm2.5 8.7c0-.2-.1-.4-.2-.5s-.3-.2-.5-.3-.4-.1-.7-.2-.5 0-.8 0h-.8c-.2 0-.6 0-.8-.1-.3.1-.6.3-.7.5-.2.2-.3.4-.3.7 0 .2 0 .4.1.5a.78.78 0 0 0 .4.4c.2.1.4.2.7.3s.6.1 1 .1.7 0 1-.1l.8-.3c.2-.1.4-.3.5-.5s.3-.3.3-.5h0zm-2.5-4.4c.3 0 .5 0 .8-.1l.6-.3a.55.55 0 0 0 .3-.5c.1-.2.1-.4.1-.7 0-.5-.2-.9-.5-1.2s-.7-.4-1.3-.4-1 .1-1.3.4-.5.7-.5 1.2c0 .2 0 .5.1.7s.2.4.3.5.3.3.6.3.5.1.8.1z"/><use xlink:href="#Q" x="84.4"/><use xlink:href="#H" x="251.3"/><use xlink:href="#V"/><use xlink:href="#S" x="88.7"/><use xlink:href="#W"/><use xlink:href="#S" x="107.1"/><use xlink:href="#U" x="65.9"/><path d="M539 173.6v-8.1h.8c.2 0 .3 0 .3.1.1.1.1.2.1.3l.1 1.3c.3-.6.6-1 1-1.3s.9-.5 1.4-.5c.2 0 .4 0 .6.1s.3.1.5.2l-.2 1.1c0 .1-.1.2-.2.2s-.2 0-.3-.1c-.2-.1-.4-.1-.6-.1-.5 0-.9.1-1.2.4-.4.4-.6.8-.8 1.3v5.2l-1.5-.1h0zm9.6 0v-11.8h1.4v4.8a2.73 2.73 0 0 1 1.2-.9c.5-.2.9-.4 1.5-.4.5 0 .9.1 1.3.3s.7.4 1 .8c.3.3.5.8.6 1.3s.2 1.1.2 1.8c0 .6-.1 1.2-.2 1.7s-.4.9-.7 1.3-.7.7-1.1.9-.9.3-1.5.3c-.5 0-1-.1-1.3-.3s-.7-.5-1-.8l-.1.7c0 .2-.2.3-.4.3h-.9 0zm3.6-7.1c-.5 0-.9.1-1.2.3s-.7.5-1 .9v3.9c.3.4.5.6.9.7s.7.2 1 .2c.8 0 1.3-.3 1.7-.8s.6-1.3.6-2.3c0-.5 0-1-.1-1.4s-.2-.7-.4-.9-.4-.4-.6-.5-.5-.1-.9-.1h0z"/><use xlink:href="#U" x="93.2"/><use xlink:href="#O" x="182.4"/><use xlink:href="#T" x="141.4"/><use xlink:href="#H" x="343.4"/><path d="M589.6 165.3c.5 0 .9.1 1.3.2.4.2.8.4 1.1.7s.5.7.7 1.1.3 1 .3 1.5c0 .2 0 .4-.1.4s-.1.1-.3.1h-5.4c0 .4.1.9.2 1.3.1.3.3.7.5.9.2.3.5.4.8.6.3.1.7.2 1 .2.4 0 .7 0 .9-.1.3-.1.5-.2.7-.3s.3-.2.5-.3c.1-.1.2-.1.3-.1s.2 0 .3.1l.4.5-.6.6c-.2.2-.5.3-.8.4s-.6.2-.9.2c-.3.1-.6.1-.9.1-.6 0-1.1-.1-1.5-.3-.5-.2-.9-.5-1.2-.8-.3-.4-.6-.8-.8-1.4-.2-.5-.3-1.2-.3-1.9 0-.6.1-1.1.3-1.6s.4-.9.7-1.3.7-.6 1.2-.8c.4.1 1 0 1.6 0h0zm0 1.1c-.7 0-1.2.2-1.6.6s-.6.9-.7 1.7h4.4c0-.3 0-.6-.1-.9s-.2-.5-.4-.7-.4-.4-.6-.5c-.4-.2-.7-.2-1-.2h0z"/><use xlink:href="#X"/><use xlink:href="#X" x="6.9"/><use xlink:href="#Y"/><path d="M627.2 165.3c.5 0 .9.1 1.3.2.4.2.8.4 1.1.7s.5.7.7 1.1.3 1 .3 1.5c0 .2 0 .4-.1.4s-.1.1-.3.1h-5.4c0 .4.1.9.2 1.3.1.3.3.7.5.9.2.3.5.4.8.6.3.1.7.2 1 .2.4 0 .7 0 .9-.1.3-.1.5-.2.7-.3s.3-.2.5-.3c.1-.1.2-.1.3-.1s.2 0 .3.1l.4.5-.6.6c-.2.2-.5.3-.8.4s-.6.2-.9.2c-.3.1-.6.1-.9.1-.6 0-1.1-.1-1.5-.3-.5-.2-.9-.5-1.2-.8-.3-.4-.6-.8-.8-1.4-.2-.5-.3-1.2-.3-1.9 0-.6.1-1.1.3-1.6s.4-.9.7-1.3.7-.6 1.2-.8c.5.1 1 0 1.6 0h0zm0 1.1c-.7 0-1.2.2-1.6.6s-.6.9-.7 1.7h4.4c0-.3 0-.6-.1-.9s-.2-.5-.4-.7-.4-.4-.6-.5c-.4-.2-.7-.2-1-.2h0zm5.2 7.2v-11.8h1.4v4.8a2.73 2.73 0 0 1 1.2-.9c.5-.2.9-.4 1.5-.4.5 0 .9.1 1.3.3s.7.4 1 .8c.3.3.5.8.6 1.3s.2 1.1.2 1.8c0 .6-.1 1.2-.2 1.7s-.4.9-.7 1.3-.7.7-1.1.9-.9.3-1.5.3c-.5 0-1-.1-1.3-.3s-.7-.5-1-.8l-.1.7c0 .2-.2.3-.4.3h-.9 0zm3.6-7.1c-.5 0-.9.1-1.2.3s-.7.5-1 .9v3.9c.3.4.5.6.9.7s.7.2 1 .2c.8 0 1.3-.3 1.7-.8s.6-1.3.6-2.3c0-.5 0-1-.1-1.4s-.2-.7-.4-.9-.4-.4-.6-.5c-.3-.1-.6-.1-.9-.1h0z"/><use xlink:href="#X" x="46.5"/><use xlink:href="#Q" x="251.3"/><use xlink:href="#P" x="261.4"/><path d="M661.5 165.3c.5 0 .9.1 1.3.2.4.2.8.4 1.1.7s.5.7.7 1.1.3 1 .3 1.5c0 .2 0 .4-.1.4s-.1.1-.3.1h-5.4c0 .4.1.9.2 1.3.1.3.3.7.5.9.2.3.5.4.8.6.3.1.7.2 1 .2.4 0 .7 0 .9-.1.3-.1.5-.2.7-.3s.3-.2.5-.3c.1-.1.2-.1.3-.1s.2 0 .3.1l.4.5-.6.6c-.2.2-.5.3-.8.4s-.6.2-.9.2c-.3.1-.6.1-.9.1-.6 0-1.1-.1-1.5-.3-.5-.2-.9-.5-1.2-.8-.3-.4-.6-.8-.8-1.4-.2-.5-.3-1.2-.3-1.9 0-.6.1-1.1.3-1.6s.4-.9.7-1.3.7-.6 1.2-.8c.5.1 1 0 1.6 0h0zm0 1.1c-.7 0-1.2.2-1.6.6s-.6.9-.7 1.7h4.4c0-.3 0-.6-.1-.9s-.2-.5-.4-.7-.4-.4-.6-.5c-.3-.2-.6-.2-1-.2h0zm14.2 7.2h-.6c-.1 0-.3 0-.3-.1-.1 0-.1-.1-.2-.3l-.2-.8c-.2.2-.4.4-.6.5-.2.2-.4.3-.6.4s-.5.2-.7.2c-.3.1-.5.1-.8.1s-.6 0-.9-.1-.5-.2-.7-.4-.4-.4-.5-.7-.2-.6-.2-1c0-.3.1-.6.3-.9a2.36 2.36 0 0 1 .9-.8l1.5-.6c.6-.1 1.4-.2 2.3-.2v-.6c0-.6-.1-1.1-.4-1.4s-.7-.5-1.2-.5c-.3 0-.6 0-.9.1s-.4.2-.6.3-.3.2-.4.3-.2.1-.4.1c-.1 0-.2 0-.3-.1l-.2-.2-.3-.5c.4-.4.9-.8 1.4-1s1.1-.3 1.7-.3c.4 0 .8.1 1.2.2s.6.4.9.6c.2.3.4.6.5 1s.2.8.2 1.2l.1 5.5h0zm-3.7-.9c.3 0 .5 0 .7-.1s.4-.1.6-.2.4-.2.5-.3c.2-.1.3-.3.5-.5v-1.7c-.7 0-1.2 0-1.7.1s-.8.2-1.1.3-.5.3-.6.5-.2.4-.2.6 0 .4.1.6.2.3.3.4.2.2.4.2a.9.9 0 0 0 .5.1h0z"/><use xlink:href="#H" x="443.8"/><use xlink:href="#Z"/><path d="M160.2 186.5h1.1c.1 0 .2 0 .3.1l.2.2 1.6 5.2c0 .2.1.4.1.6s.1.4.1.5c0-.2.1-.4.1-.5s.1-.4.2-.6l1.7-5.2c0-.1.1-.1.1-.2.1-.1.2-.1.3-.1h.6c.1 0 .2 0 .3.1s.1.1.1.2l1.7 5.2c.1.2.1.4.2.6 0 .2.1.4.1.5 0-.2.1-.4.1-.6s.1-.4.1-.5l1.6-5.2c0-.1.1-.2.2-.2s.2-.1.3-.1h1.1l-2.6 8.1h-1.1c-.1 0-.2-.1-.3-.3l-1.8-5.5c0-.1-.1-.2-.1-.4 0-.1-.1-.2-.1-.4 0 .1-.1.2-.1.4 0 .1-.1.3-.1.4l-1.8 5.5c-.1.2-.2.3-.3.3H163l-2.8-8.1z"/><use xlink:href="#C" x="-8" y="21"/><use xlink:href="#D" x="-8" y="21"/><path d="M191.7 194.6v-8.1h.8c.2 0 .3.1.4.3l.1.9c.4-.4.7-.7 1.2-.9.4-.2.9-.4 1.5-.4.4 0 .8.1 1.2.2.3.1.6.4.8.6.2.3.4.6.5 1s.2.8.2 1.3v5.2H197v-5.2c0-.6-.1-1.1-.4-1.4s-.7-.5-1.3-.5c-.4 0-.8.1-1.2.3s-.7.5-1 .8v6h-1.4v-.1z"/><use xlink:href="#F" x="-3.2" y="21"/><path d="M211.9 194.7c-.6 0-1.1-.2-1.5-.5-.3-.4-.5-.9-.5-1.5v-5h-1c-.1 0-.2 0-.2-.1s-.1-.1-.1-.2v-.6l1.3-.2.3-2.5c0-.1 0-.1.1-.2s.1-.1.2-.1h.7v2.8h2.3v1h-2.3v4.9c0 .3.1.6.2.8.2.2.4.2.6.2.1 0 .3 0 .4-.1s.2-.1.3-.1.1-.1.2-.1.1-.1.1-.1c.1 0 .1 0 .2.1l.4.7c-.2.2-.5.4-.9.5 0 .2-.4.3-.8.3h0zm6.6-.1v-11.8h1.4v4.8a2.73 2.73 0 0 1 1.2-.9c.4-.2.9-.3 1.5-.3.4 0 .8.1 1.2.2.3.1.6.4.8.6.2.3.4.6.5 1s.2.8.2 1.3v5.2h-1.4v-5.2c0-.6-.1-1.1-.4-1.4s-.7-.5-1.3-.5c-.4 0-.8.1-1.2.3s-.7.5-1 .8v6h-1.5v-.1z"/><use xlink:href="#K" x="-50.6" y="21"/><use xlink:href="#a"/><use xlink:href="#b"/><use xlink:href="#H" x="13.5" y="21"/><path d="M259.2 186.3c.4 0 .7 0 1 .1l.8.3h2.2v.5c0 .2-.1.3-.3.3l-.9.1c.2.3.3.7.3 1.2 0 .4-.1.8-.2 1.1-.2.3-.4.6-.6.8-.3.2-.6.4-1 .5s-.8.2-1.2.2-.7 0-1.1-.1a.78.78 0 0 0-.4.4c-.1.2-.1.3-.1.4 0 .2.1.3.2.5.2.1.4.2.6.2.3 0 .5.1.9.1h1c.3 0 .7 0 1 .1l.9.3a.9.9 0 0 1 .6.6c.1.3.2.5.2.9a1.69 1.69 0 0 1-.3 1c-.2.3-.4.6-.7.9s-.7.5-1.2.6c-.5.2-1 .2-1.6.2s-1.1-.1-1.6-.2c-.4-.1-.8-.3-1.1-.5s-.5-.4-.7-.7c-.1-.3-.2-.5-.2-.8 0-.4.1-.7.4-1s.6-.5 1-.7c-.2-.1-.4-.2-.5-.4s-.2-.4-.2-.7c0-.1 0-.2.1-.4 0-.1.1-.2.2-.4s.2-.2.3-.4c.1-.1.3-.2.4-.3a1.96 1.96 0 0 1-.9-.9c-.2-.4-.3-.8-.3-1.3 0-.4.1-.8.2-1.1.2-.3.4-.6.6-.8.3-.2.6-.4 1-.5.4 0 .8-.1 1.2-.1h0zm2.5 8.7c0-.2-.1-.4-.2-.5s-.3-.2-.5-.3-.4-.1-.7-.2h-1.6c-.2 0-.6 0-.8-.1-.3.1-.6.3-.7.5-.2.2-.3.4-.3.7 0 .2 0 .4.1.5s.2.3.4.4.4.2.7.3.6.1 1 .1.7 0 1-.1l.8-.3c.2-.1.4-.3.5-.5.3-.1.3-.3.3-.5h0zm-2.5-4.4c.3 0 .5 0 .8-.1l.6-.3a.55.55 0 0 0 .3-.5c.1-.2.1-.4.1-.7 0-.5-.2-.9-.5-1.2s-.7-.4-1.3-.4-1 .1-1.3.4-.5.7-.5 1.2c0 .2 0 .5.1.7s.2.4.3.5.3.3.6.3.5.1.8.1zm14.5 4h-.6c-.1 0-.3 0-.3-.1s-.1-.1-.2-.3l-.2-.8c-.2.2-.4.4-.6.5-.2.2-.4.3-.6.4s-.5.2-.7.2c-.3.1-.5.1-.8.1s-.6 0-.9-.1-.5-.2-.7-.4-.4-.4-.5-.7-.2-.6-.2-1c0-.3.1-.6.3-.9a2.36 2.36 0 0 1 .9-.8l1.5-.6c.6-.1 1.4-.2 2.3-.2v-.6c0-.6-.1-1.1-.4-1.4s-.7-.5-1.2-.5c-.3 0-.6 0-.9.1s-.4.2-.6.3a1.38 1.38 0 0 0-.4.3c-.1.1-.2.1-.4.1-.1 0-.2 0-.3-.1l-.2-.2-.3-.5c.4-.4.9-.8 1.4-1s1.1-.3 1.7-.3c.4 0 .8.1 1.2.2.3.1.6.4.9.6.2.3.4.6.5 1s.2.8.2 1.2v5.5h.1zm-3.7-.9c.3 0 .5 0 .7-.1s.4-.1.6-.2.4-.2.5-.3l.5-.5v-1.7c-.7 0-1.2 0-1.7.1s-.8.2-1.1.3-.5.3-.6.5-.2.4-.2.6 0 .4.1.6a1.38 1.38 0 0 0 .3.4c.1.1.2.2.4.2.1.1.3.1.5.1h0z"/><use xlink:href="#H" x="41.8" y="21"/><use xlink:href="#L" x="-35.9" y="21"/><path d="M297.4 182.8v11.8H296v-11.8h1.4z"/><use xlink:href="#c"/><path d="M314.3 187.9c0 .1-.1.1-.1.1h-.2c-.1 0-.2 0-.3-.1s-.2-.1-.4-.2c-.1-.1-.3-.2-.5-.2-.2-.1-.5-.1-.8-.1-.4 0-.7.1-1 .2s-.6.3-.8.6-.4.6-.5 1-.2.8-.2 1.3.1.9.2 1.3.3.7.5 1 .4.5.7.6.6.2 1 .2c.3 0 .6 0 .9-.1l.6-.3c.1-.1.3-.2.4-.3s.2-.1.3-.1.2 0 .3.1l.4.5c-.4.4-.8.7-1.3.9s-1.1.3-1.7.3c-.5 0-1-.1-1.4-.3a4.44 4.44 0 0 1-1.1-.8c-.3-.3-.6-.8-.8-1.3s-.3-1.1-.3-1.8c0-.6.1-1.2.3-1.7s.4-1 .7-1.3a2.73 2.73 0 0 1 1.2-.9c.5-.2 1-.3 1.6-.3s1.1.1 1.5.3.8.4 1.2.8l-.4.6h0zm3.4-5.1v6.9h.7c.1 0 .1-.1.2-.2l2.6-2.7.2-.2s.2-.1.3-.1h1.3l-3 3.2c-.1.1-.1.2-.2.2-.1.1-.2.1-.2.2.1.1.2.1.3.2s.2.2.2.3l3.2 4H322c-.1 0-.2 0-.3-.1-.1 0-.2-.1-.2-.2l-2.7-3.3-.2-.2c-.1 0-.2-.1-.4-.1h-.4v3.9h-1.4v-11.8h1.3 0zm10.3 11.8v-6.9l-.9-.1c-.1 0-.2-.1-.3-.1-.1-.1-.1-.1-.1-.2v-.6h1.3v-.4c0-.5.1-1 .2-1.4.2-.4.4-.8.7-1.1s.7-.5 1.2-.7 1-.2 1.6-.2h.6c.2 0 .4.1.5.1v.7c0 .1 0 .1-.1.1h-.6c-.9 0-1.6.2-2.1.6-.4.4-.6 1-.6 1.8v.4h4.9v7.9h-1.4v-6.9h-3.4v6.9l-1.5.1h0z"/><use xlink:href="#H" x="102.7" y="21"/><use xlink:href="#N" x="-11.9" y="21"/><use xlink:href="#G" x="124.7" y="21"/><use xlink:href="#H" x="124.7" y="21"/><use xlink:href="#I" x="124.7" y="21"/><use xlink:href="#M" x="39.1" y="21"/><use xlink:href="#H" x="153.7" y="21"/><use xlink:href="#d"/><path d="M410.3 194.6h-1.6v-11.5h1.6v11.5z"/><use xlink:href="#E" x="216.5" y="21"/><use xlink:href="#Q" x="23.4" y="21"/><path d="M425.9 182.8v6.9h.7c.1 0 .1-.1.2-.2l2.6-2.7.2-.2c.1-.1.2-.1.3-.1h1.3l-3 3.2c-.1.1-.1.2-.2.2-.1.1-.2.1-.2.2.1.1.2.1.3.2s.2.2.2.3l3.2 4h-1.3c-.1 0-.2 0-.3-.1s-.2-.1-.2-.2L427 191l-.2-.2s-.2-.1-.4-.1h-.4v3.9h-1.4v-11.8h1.3 0z"/><use xlink:href="#e"/><use xlink:href="#Z" x="-246.1" y="21"/><use xlink:href="#S" x="38.6" y="21"/><use xlink:href="#W" x="-50.1" y="21"/><use xlink:href="#V" x="-26.2" y="21"/><use xlink:href="#U" x="12.3" y="21"/><path d="M487 182.8v11.8h-1.4v-11.8h1.4zm2.8 11.8v-6.9l-.9-.1c-.1 0-.2-.1-.3-.1-.1-.1-.1-.1-.1-.2v-.6h1.3v-.4c0-.5.1-1 .2-1.4.2-.4.4-.8.7-1.1s.7-.5 1.2-.7 1-.2 1.6-.2h.6c.2 0 .4.1.5.1v.7c0 .1 0 .1-.1.1h-.6c-.9 0-1.6.2-2.1.6-.4.4-.6 1-.6 1.8v.4h4.9v7.9h-1.4v-6.9h-3.4v6.9l-1.5.1h0z"/><use xlink:href="#E" x="298.9" y="21"/><use xlink:href="#E" x="303" y="21"/><path d="M510 186.3c.5 0 .9.1 1.3.2.4.2.8.4 1.1.7s.5.7.7 1.1.3 1 .3 1.5c0 .2 0 .4-.1.4s-.1.1-.3.1h-5.4c0 .4.1.9.2 1.3.1.3.3.7.5.9.2.3.5.4.8.6.3.1.7.2 1 .2.4 0 .7 0 .9-.1.3-.1.5-.2.7-.3s.3-.2.5-.3c.1-.1.2-.1.3-.1s.2 0 .3.1l.4.5-.6.6c-.2.2-.5.3-.8.4s-.6.2-.9.2c-.3.1-.6.1-.9.1-.6 0-1.1-.1-1.5-.3-.5-.2-.9-.5-1.2-.8-.3-.4-.6-.8-.8-1.4-.2-.5-.3-1.2-.3-1.9 0-.6.1-1.1.3-1.6s.4-.9.7-1.3.7-.6 1.2-.8c.5.1 1.1 0 1.6 0h0zm.1 1.1c-.7 0-1.2.2-1.6.6s-.6.9-.7 1.7h4.4c0-.3 0-.6-.1-.9s-.2-.5-.4-.7-.4-.4-.6-.5c-.4-.2-.7-.2-1-.2h0zm10.8 7.2c-.2 0-.3-.1-.4-.3l-.1-1c-.3.4-.7.8-1.2 1s-1 .4-1.5.4-.9-.1-1.3-.3-.7-.4-1-.8-.5-.8-.6-1.3-.2-1.1-.2-1.8c0-.6.1-1.2.2-1.7.2-.5.4-1 .7-1.3.3-.4.7-.7 1.1-.9s.9-.3 1.5-.3c.5 0 .9.1 1.3.3s.7.4.9.7v-4.5h1.4v11.8h-.8 0zm-2.7-1.1c.5 0 .9-.1 1.2-.3s.7-.5 1-.9v-3.9c-.3-.4-.5-.6-.9-.7-.3-.1-.7-.2-1-.2-.8 0-1.3.3-1.7.8s-.6 1.3-.6 2.3c0 .5 0 1 .1 1.4s.2.7.4.9.4.4.6.5.5.1.9.1h0z"/><use xlink:href="#S" x="113.1" y="21"/><use xlink:href="#U" x="71.9" y="21"/><use xlink:href="#W" x="33.3" y="21"/><use xlink:href="#W" x="42.9" y="21"/><use xlink:href="#d" x="164.3"/><path d="M576 186.5v10.8h-1.4v-3.9c-.3.4-.7.7-1.2 1-.4.2-.9.4-1.5.4-.5 0-.9-.1-1.3-.3s-.7-.4-1-.8-.5-.8-.6-1.3-.2-1.1-.2-1.8c0-.6.1-1.2.2-1.7.2-.5.4-1 .7-1.3.3-.4.7-.7 1.1-.9s.9-.3 1.5-.3c.5 0 1 .1 1.3.3.4.2.7.5 1 .8l.1-.6c.1-.2.2-.3.4-.3l.9-.1h0zm-3.6 7c.5 0 .9-.1 1.2-.3s.7-.5 1-.9v-3.9c-.3-.3-.5-.6-.9-.7-.3-.1-.7-.2-1-.2-.8 0-1.3.3-1.7.8s-.6 1.3-.6 2.3c0 .5 0 1 .1 1.4s.2.7.4.9.4.4.6.5.5.1.9.1h0z"/><use xlink:href="#U" x="114.1" y="21"/><use xlink:href="#T" x="155.3" y="21"/><use xlink:href="#W" x="79.6" y="21"/><use xlink:href="#e" x="165.5"/><use xlink:href="#R" x="205.2" y="21"/><use xlink:href="#d" x="222.6"/><path d="M627.7 194.6v-8.1h.8c.2 0 .3.1.4.3l.1.9c.4-.4.7-.7 1.2-.9.4-.2.9-.4 1.5-.4.4 0 .8.1 1.2.2.3.1.6.4.8.6.2.3.4.6.5 1s.2.8.2 1.3v5.2H633v-5.2c0-.6-.1-1.1-.4-1.4s-.7-.5-1.3-.5c-.4 0-.8.1-1.2.3s-.7.5-1 .8v6h-1.4v-.1zm11.3.1c-.6 0-1.1-.2-1.5-.5-.3-.4-.5-.9-.5-1.5v-5h-1c-.1 0-.2 0-.2-.1-.1-.1-.1-.1-.1-.2v-.6l1.3-.2.3-2.5c0-.1 0-.1.1-.2s.1-.1.2-.1h.7v2.8h2.3v1h-2.3v4.9c0 .3.1.6.2.8.2.2.4.2.6.2.1 0 .3 0 .4-.1s.2-.1.3-.1.1-.1.2-.1.1-.1.1-.1c.1 0 .1 0 .2.1l.4.7c-.2.2-.5.4-.9.5 0 .2-.4.3-.8.3h0z"/><use xlink:href="#X" x="47.8" y="21"/><path d="M649 193.7c0-.1 0-.3.1-.4s.1-.2.2-.3.2-.2.3-.2c.1-.1.3-.1.4-.1s.3 0 .4.1.2.1.3.2.2.2.2.3.1.3.1.4 0 .3-.1.4-.1.2-.2.3-.2.2-.3.2-.3.1-.4.1-.3 0-.4-.1-.2-.1-.3-.2-.2-.2-.2-.3-.1-.3-.1-.4zm9 .9h-1.6v-11.5h1.6v11.5z"/><use xlink:href="#Y" x="52.2" y="21"/><path d="M682.2 194.6h-.6c-.1 0-.3 0-.3-.1-.1 0-.1-.1-.2-.3l-.2-.8c-.2.2-.4.4-.6.5-.2.2-.4.3-.6.4s-.5.2-.7.2c-.3.1-.5.1-.8.1s-.6 0-.9-.1-.5-.2-.7-.4-.4-.4-.5-.7-.2-.6-.2-1c0-.3.1-.6.3-.9a2.36 2.36 0 0 1 .9-.8l1.5-.6c.6-.1 1.4-.2 2.3-.2v-.6c0-.6-.1-1.1-.4-1.4s-.7-.5-1.2-.5c-.3 0-.6 0-.9.1s-.4.2-.6.3-.3.2-.4.3-.2.1-.4.1c-.1 0-.2 0-.3-.1l-.2-.2-.3-.5c.4-.4.9-.8 1.4-1s1.1-.3 1.7-.3c.4 0 .8.1 1.2.2s.6.4.9.6c.2.3.4.6.5 1s.2.8.2 1.2l.1 5.5h0zm-3.7-.9c.3 0 .5 0 .7-.1s.4-.1.6-.2.4-.2.5-.3c.2-.1.3-.3.5-.5v-1.7c-.7 0-1.2 0-1.7.1s-.8.2-1.1.3-.5.3-.6.5-.2.4-.2.6 0 .4.1.6.2.3.3.4.2.2.4.2c.1.1.3.1.5.1h0z"/><use xlink:href="#X" x="89.6" y="21"/><path d="M167.3 215.6h-.6c-.1 0-.3 0-.3-.1-.1 0-.1-.1-.2-.3l-.2-.8c-.2.2-.4.4-.6.5-.2.2-.4.3-.6.4s-.5.2-.7.2c-.3.1-.5.1-.8.1s-.6 0-.9-.1-.5-.2-.7-.4-.4-.4-.5-.7-.2-.6-.2-1c0-.3.1-.6.3-.9a2.36 2.36 0 0 1 .9-.8l1.5-.6c.6-.1 1.4-.2 2.3-.2v-.6c0-.6-.1-1.1-.4-1.4s-.7-.5-1.2-.5c-.3 0-.6 0-.9.1s-.4.2-.6.3a1.38 1.38 0 0 0-.4.3c-.1.1-.2.1-.4.1-.1 0-.2 0-.3-.1l-.2-.2-.3-.5c.4-.4.9-.8 1.4-1s1.1-.3 1.7-.3c.4 0 .8.1 1.2.2.3.1.6.4.9.6.2.3.4.6.5 1s.2.8.2 1.2v5.5h.1zm-3.7-.9c.3 0 .5 0 .7-.1.2 0 .4-.1.6-.2s.4-.2.5-.3c.2-.1.3-.3.5-.5v-1.7c-.7 0-1.2 0-1.7.1l-1.1.3c-.3.1-.5.3-.6.5s-.2.4-.2.6 0 .4.1.6a1.38 1.38 0 0 0 .3.4c.1.1.2.2.4.2.1.1.3.1.5.1h0zm5.9.9v-11.8h1.4v4.8a2.73 2.73 0 0 1 1.2-.9c.4-.2.9-.4 1.5-.4.5 0 .9.1 1.3.3s.7.4 1 .8c.3.3.5.8.6 1.3s.2 1.1.2 1.8c0 .6-.1 1.2-.2 1.7s-.4.9-.7 1.3c-.3.3-.7.7-1.1.9s-.9.3-1.5.3c-.5 0-1-.1-1.3-.3-.4-.2-.7-.5-1-.8l-.1.7c0 .2-.2.3-.4.3h-.9 0zm3.6-7.1c-.5 0-.9.1-1.2.3s-.7.5-1 .9v3.9c.3.4.5.6.9.7.3.1.7.2 1 .2.8 0 1.3-.3 1.7-.8s.6-1.3.6-2.3c0-.5 0-1-.1-1.4s-.2-.7-.4-.9-.4-.4-.6-.5-.6-.1-.9-.1h0zm8.5-1.2c.6 0 1.1.1 1.6.3s.9.5 1.2.8c.3.4.6.8.8 1.3s.3 1.1.3 1.7-.1 1.2-.3 1.7-.4 1-.8 1.3c-.3.4-.7.6-1.2.8s-1 .3-1.6.3-1.1-.1-1.6-.3-.9-.5-1.2-.8-.6-.8-.8-1.3-.3-1.1-.3-1.7.1-1.2.3-1.7.4-1 .8-1.3.7-.6 1.2-.8 1-.3 1.6-.3zm0 7.3c.8 0 1.4-.3 1.8-.8s.6-1.3.6-2.2c0-1-.2-1.7-.6-2.3-.4-.5-1-.8-1.8-.8-.4 0-.8.1-1.1.2s-.5.3-.7.6-.3.6-.4 1-.1.8-.1 1.3 0 .9.1 1.3.2.7.4 1 .4.5.7.6c.4 0 .7.1 1.1.1h0z"/><use xlink:href="#c" x="-112.6" y="21"/><path d="M198.6 215.7c-.6 0-1.1-.2-1.5-.5-.3-.4-.5-.9-.5-1.5v-5h-1c-.1 0-.2 0-.2-.1s-.1-.1-.1-.2v-.6l1.3-.2.3-2.5c0-.1 0-.1.1-.2.1 0 .1-.1.2-.1h.7v2.8h2.3v1H198v4.9c0 .3.1.6.2.8.2.2.4.2.6.2.1 0 .3 0 .4-.1s.2-.1.3-.1.1-.1.2-.1.1-.1.1-.1c.1 0 .1 0 .2.1l.4.7c-.2.2-.5.4-.9.5-.2.2-.5.3-.9.3h0zm9.1 0c-.6 0-1.1-.2-1.5-.5-.3-.4-.5-.9-.5-1.5v-5h-1c-.1 0-.2 0-.2-.1s-.1-.1-.1-.2v-.6l1.3-.2.3-2.5c0-.1 0-.1.1-.2.1 0 .1-.1.2-.1h.7v2.8h2.3v1H207v4.9c0 .3.1.6.2.8.2.2.4.2.6.2.1 0 .3 0 .4-.1s.2-.1.3-.1.1-.1.2-.1.1-.1.1-.1c.1 0 .1 0 .2.1l.4.7c-.2.2-.5.4-.9.5-.1.2-.5.3-.8.3h0zm6.8-8.4c.6 0 1.1.1 1.6.3s.9.5 1.2.8c.3.4.6.8.8 1.3s.3 1.1.3 1.7-.1 1.2-.3 1.7-.4 1-.8 1.3c-.3.4-.7.6-1.2.8s-1 .3-1.6.3-1.1-.1-1.6-.3-.9-.5-1.2-.8-.6-.8-.8-1.3-.3-1.1-.3-1.7.1-1.2.3-1.7.4-1 .8-1.3.7-.6 1.2-.8c.4-.2 1-.3 1.6-.3zm0 7.3c.8 0 1.4-.3 1.8-.8s.6-1.3.6-2.2c0-1-.2-1.7-.6-2.3-.4-.5-1-.8-1.8-.8-.4 0-.8.1-1.1.2s-.5.3-.7.6-.3.6-.4 1-.1.8-.1 1.3 0 .9.1 1.3.2.7.4 1 .4.5.7.6c.3 0 .6.1 1.1.1h0zm11.4-7.3c.4 0 .7 0 1 .1l.8.3h2.2v.5c0 .2-.1.3-.3.3l-.9.1c.2.3.3.7.3 1.2 0 .4-.1.8-.2 1.1s-.4.6-.6.8c-.3.2-.6.4-1 .5s-.8.2-1.2.2-.7 0-1.1-.1a.78.78 0 0 0-.4.4c-.1.2-.1.3-.1.4 0 .2.1.3.2.5.2.1.4.2.6.2.3 0 .5.1.9.1h1c.3 0 .7 0 1 .1l.9.3a.9.9 0 0 1 .6.6c.1.3.2.5.2.9a1.69 1.69 0 0 1-.3 1c-.2.3-.4.6-.7.9s-.7.5-1.2.6c-.5.2-1 .2-1.6.2s-1.1-.1-1.6-.2c-.4-.1-.8-.3-1.1-.5s-.5-.4-.7-.7c-.1-.3-.2-.5-.2-.8 0-.4.1-.7.4-1s.6-.5 1-.7c-.2-.1-.4-.2-.5-.4s-.2-.4-.2-.7c0-.1 0-.2.1-.4 0-.1.1-.2.2-.4.1-.1.2-.2.3-.4.1-.1.3-.2.4-.3a1.96 1.96 0 0 1-.9-.9c-.2-.4-.3-.8-.3-1.3 0-.4.1-.8.2-1.1.2-.3.4-.6.6-.8.3-.2.6-.4 1-.5s.7-.1 1.2-.1h0zm2.5 8.7c0-.2-.1-.4-.2-.5s-.3-.2-.5-.3-.4-.1-.7-.2h-1.6c-.2 0-.6 0-.8-.1-.3.1-.6.3-.7.5-.2.2-.3.4-.3.7 0 .2 0 .4.1.5a.78.78 0 0 0 .4.4c.2.1.4.2.7.3s.6.1 1 .1.7 0 1-.1l.8-.3c.2-.1.4-.3.5-.5.3-.1.3-.3.3-.5h0zm-2.5-4.4c.3 0 .5 0 .8-.1l.6-.3c.1-.1.3-.3.3-.5s.1-.4.1-.7c0-.5-.2-.9-.5-1.2s-.7-.4-1.3-.4-1 .1-1.3.4-.5.7-.5 1.2c0 .2 0 .5.1.7s.2.4.3.5.3.3.6.3.5.1.8.1h0z"/><use xlink:href="#f"/><use xlink:href="#a" x="0.1" y="21"/><use xlink:href="#g"/><use xlink:href="#c" x="-45" y="21"/><path d="M263.8 218.3v-10.8h.8c.2 0 .3.1.4.3l.1 1c.3-.4.7-.8 1.2-1 .4-.3 1-.4 1.5-.4s.9.1 1.3.3.7.4 1 .8c.3.3.5.8.6 1.3s.2 1.1.2 1.8c0 .6-.1 1.2-.2 1.7-.2.5-.4 1-.7 1.3-.3.4-.7.7-1.1.9s-.9.3-1.5.3c-.5 0-.9-.1-1.3-.2-.4-.2-.7-.4-.9-.7v3.6h-1.4v-.2zm3.6-9.8c-.5 0-.9.1-1.2.3s-.7.5-1 .9v3.9c.3.4.5.6.9.7.3.1.7.2 1 .2.8 0 1.3-.3 1.7-.8s.6-1.3.6-2.3c0-.5 0-1-.1-1.4s-.2-.7-.4-.9-.4-.4-.6-.5-.6-.1-.9-.1h0zm14.2 7.1h-.6c-.1 0-.3 0-.3-.1-.1 0-.1-.1-.2-.3l-.2-.8c-.2.2-.4.4-.6.5-.2.2-.4.3-.6.4s-.5.2-.7.2c-.3.1-.5.1-.8.1s-.6 0-.9-.1-.5-.2-.7-.4-.4-.4-.5-.7-.2-.6-.2-1c0-.3.1-.6.3-.9a2.36 2.36 0 0 1 .9-.8l1.5-.6c.6-.1 1.4-.2 2.3-.2v-.6c0-.6-.1-1.1-.4-1.4s-.7-.5-1.2-.5c-.3 0-.6 0-.9.1s-.4.2-.6.3a1.38 1.38 0 0 0-.4.3c-.1.1-.2.1-.4.1-.1 0-.2 0-.3-.1l-.2-.2-.3-.5c.4-.4.9-.8 1.4-1s1.1-.3 1.7-.3c.4 0 .8.1 1.2.2.3.1.6.4.9.6.2.3.4.6.5 1s.2.8.2 1.2v5.5h.1zm-3.6-.9c.3 0 .5 0 .7-.1.2 0 .4-.1.6-.2s.4-.2.5-.3c.2-.1.3-.3.5-.5v-1.7c-.7 0-1.2 0-1.7.1s-.8.2-1.1.3-.5.3-.6.5-.2.4-.2.6 0 .4.1.6a1.38 1.38 0 0 0 .3.4c.1.1.2.2.4.2.1.1.3.1.5.1h0z"/><use xlink:href="#H" x="49.7" y="42"/><path d="M298.4 215.6c-.2 0-.3-.1-.4-.3l-.1-1c-.3.4-.7.8-1.2 1-.4.3-1 .4-1.5.4s-.9-.1-1.3-.3-.7-.4-1-.8c-.3-.3-.5-.8-.6-1.3s-.2-1.1-.2-1.8c0-.6.1-1.2.2-1.7s.4-.9.7-1.3.7-.7 1.1-.9.9-.3 1.5-.3c.5 0 .9.1 1.3.3s.7.4.9.7v-4.5h1.4v11.8h-.8 0zm-2.8-1.1c.5 0 .9-.1 1.2-.3s.7-.5 1-.9v-3.9c-.3-.4-.5-.6-.9-.7s-.7-.2-1-.2c-.8 0-1.3.3-1.7.8s-.6 1.3-.6 2.3c0 .5 0 1 .1 1.4s.2.7.4.9.4.4.6.5c.3.1.6.1.9.1h0zm11.6 1.2c-.6 0-1.1-.2-1.5-.5-.3-.4-.5-.9-.5-1.5v-5h-1c-.1 0-.2 0-.2-.1s-.1-.1-.1-.2v-.6l1.3-.2.3-2.5c0-.1 0-.1.1-.2.1 0 .1-.1.2-.1h.7v2.8h2.3v1h-2.3v4.9c0 .3.1.6.2.8.2.2.4.2.6.2.1 0 .3 0 .4-.1s.2-.1.3-.1.1-.1.2-.1.1-.1.1-.1c.1 0 .1 0 .2.1l.4.7c-.2.2-.5.4-.9.5-.1.2-.4.3-.8.3h0zm3.5-.1v-11.8h1.4v4.8a2.73 2.73 0 0 1 1.2-.9c.4-.2.9-.3 1.5-.3.4 0 .8.1 1.2.2.3.1.6.4.8.6.2.3.4.6.5 1s.2.8.2 1.3v5.2H316v-5.2c0-.6-.1-1.1-.4-1.4s-.7-.5-1.3-.5c-.4 0-.8.1-1.2.3s-.7.5-1 .8v6h-1.4v-.1z"/><use xlink:href="#h"/><path d="M328 215.6v-8.1h.8c.2 0 .3.1.4.3l.1.9c.4-.4.7-.7 1.2-.9.4-.2.9-.4 1.5-.4.4 0 .8.1 1.2.2.3.1.6.4.8.6.2.3.4.6.5 1s.2.8.2 1.3v5.2h-1.4v-5.2c0-.6-.1-1.1-.4-1.4s-.7-.5-1.3-.5c-.4 0-.8.1-1.2.3s-.7.5-1 .8v6H328v-.1zm14 0h-1.6v-11.5h1.6v11.5zm11.5-6.7c0 .1-.1.1-.1.1h-.2c-.1 0-.2 0-.3-.1s-.2-.1-.4-.2-.3-.2-.5-.2c-.2-.1-.5-.1-.8-.1-.4 0-.7.1-1 .2s-.6.3-.8.6-.4.6-.5 1-.2.8-.2 1.3.1.9.2 1.3.3.7.5 1 .4.5.7.6.6.2 1 .2c.3 0 .6 0 .9-.1l.6-.3a1.38 1.38 0 0 0 .4-.3c.1-.1.2-.1.3-.1s.2 0 .3.1l.4.5c-.4.4-.8.7-1.3.9s-1.1.3-1.7.3c-.5 0-1-.1-1.4-.3a4.44 4.44 0 0 1-1.1-.8c-.3-.3-.6-.8-.8-1.3s-.3-1.1-.3-1.8c0-.6.1-1.2.3-1.7s.4-1 .7-1.3.7-.7 1.2-.9 1-.3 1.6-.3 1.1.1 1.5.3.8.4 1.2.8l-.4.6h0zm7.9 6.7h-.6c-.1 0-.3 0-.3-.1-.1 0-.1-.1-.2-.3l-.2-.8c-.2.2-.4.4-.6.5-.2.2-.4.3-.6.4s-.5.2-.7.2c-.3.1-.5.1-.8.1s-.6 0-.9-.1-.5-.2-.7-.4-.4-.4-.5-.7-.2-.6-.2-1c0-.3.1-.6.3-.9a2.36 2.36 0 0 1 .9-.8l1.5-.6c.6-.1 1.4-.2 2.3-.2v-.6c0-.6-.1-1.1-.4-1.4s-.7-.5-1.2-.5c-.3 0-.6 0-.9.1s-.4.2-.6.3a1.38 1.38 0 0 0-.4.3c-.1.1-.2.1-.4.1-.1 0-.2 0-.3-.1l-.2-.2-.3-.5c.4-.4.9-.8 1.4-1s1.1-.3 1.7-.3c.4 0 .8.1 1.2.2.3.1.6.4.9.6.2.3.4.6.5 1s.2.8.2 1.2v5.5h.1zm-3.7-.9c.3 0 .5 0 .7-.1.2 0 .4-.1.6-.2s.4-.2.5-.3c.2-.1.3-.3.5-.5v-1.7c-.7 0-1.2 0-1.7.1s-.8.2-1.1.3-.5.3-.6.5-.2.4-.2.6 0 .4.1.6a1.38 1.38 0 0 0 .3.4c.1.1.2.2.4.2.1.1.3.1.5.1h0zm5.9.9v-8.1h.8c.2 0 .3.1.4.3l.1.8c.3-.4.6-.7 1-.9s.8-.4 1.3-.4 1 .2 1.3.5.6.7.7 1.2c.1-.3.3-.5.4-.8s.4-.4.6-.5.5-.2.7-.3c.3-.1.5-.1.8-.1.4 0 .8.1 1.1.2s.6.3.8.6.4.6.5 1 .2.8.2 1.3v5.2h-1.4v-5.2c0-.6-.1-1.1-.4-1.4s-.7-.5-1.2-.5c-.2 0-.5 0-.7.1s-.4.2-.6.4-.3.4-.4.6-.1.5-.1.8v5.2h-1.4v-5.2c0-.7-.1-1.1-.4-1.5-.3-.3-.6-.5-1.1-.5a1.69 1.69 0 0 0-1 .3c-.3.2-.6.4-.8.8v6l-1.2.1h0z"/><use xlink:href="#h" x="57.1"/><path d="M394.1 215.6h-.6c-.1 0-.3 0-.3-.1-.1 0-.1-.1-.2-.3l-.2-.8c-.2.2-.4.4-.6.5-.2.2-.4.3-.6.4s-.5.2-.7.2c-.3.1-.5.1-.8.1s-.6 0-.9-.1-.5-.2-.7-.4-.4-.4-.5-.7-.2-.6-.2-1c0-.3.1-.6.3-.9a2.36 2.36 0 0 1 .9-.8l1.5-.6c.6-.1 1.4-.2 2.3-.2v-.6c0-.6-.1-1.1-.4-1.4s-.7-.5-1.2-.5c-.3 0-.6 0-.9.1s-.4.2-.6.3a1.38 1.38 0 0 0-.4.3c-.1.1-.2.1-.4.1-.1 0-.2 0-.3-.1l-.2-.2-.3-.5c.4-.4.9-.8 1.4-1s1.1-.3 1.7-.3c.4 0 .8.1 1.2.2s.6.4.9.6c.2.3.4.6.5 1s.2.8.2 1.2v5.5h.1zm-3.7-.9c.3 0 .5 0 .7-.1.2 0 .4-.1.6-.2s.4-.2.5-.3c.2-.1.3-.3.5-.5v-1.7c-.7 0-1.2 0-1.7.1s-.8.2-1.1.3-.5.3-.6.5-.2.4-.2.6 0 .4.1.6a1.38 1.38 0 0 0 .3.4c.1.1.2.2.4.2a.9.9 0 0 0 .5.1h0zm11.4-5.8c0 .1-.1.1-.1.1h-.2c-.1 0-.2 0-.3-.1s-.2-.1-.4-.2c-.1-.1-.3-.2-.5-.2s-.5-.1-.8-.1c-.4 0-.7.1-1 .2s-.6.3-.8.6-.4.6-.5 1-.2.8-.2 1.3.1.9.2 1.3.3.7.5 1 .4.5.7.6.6.2 1 .2c.3 0 .6 0 .9-.1l.6-.3a1.38 1.38 0 0 0 .4-.3c.1-.1.2-.1.3-.1s.2 0 .3.1l.4.5c-.4.4-.8.7-1.3.9s-1.1.3-1.7.3c-.5 0-1-.1-1.4-.3a4.44 4.44 0 0 1-1.1-.8c-.3-.3-.6-.8-.8-1.3s-.3-1.1-.3-1.8c0-.6.1-1.2.3-1.7s.4-1 .7-1.3a2.73 2.73 0 0 1 1.2-.9c.5-.2 1-.3 1.6-.3s1.1.1 1.5.3.8.4 1.2.8l-.4.6h0z"/><use xlink:href="#i"/><use xlink:href="#j"/><use xlink:href="#k"/><use xlink:href="#k" x="7"/><use xlink:href="#l"/><use xlink:href="#m"/><use xlink:href="#k" x="33.1"/><path d="M461.6 215.7c-.6 0-1.1-.2-1.5-.5-.3-.4-.5-.9-.5-1.5v-5h-1c-.1 0-.2 0-.2-.1-.1-.1-.1-.1-.1-.2v-.6l1.3-.2.3-2.5c0-.1 0-.1.1-.2.1 0 .1-.1.2-.1h.7v2.8h2.3v1H461v4.9c0 .3.1.6.2.8.2.2.4.2.6.2.1 0 .3 0 .4-.1s.2-.1.3-.1.1-.1.2-.1.1-.1.1-.1c.1 0 .1 0 .2.1l.4.7c-.2.2-.5.4-.9.5-.2.2-.5.3-.9.3h0z"/><use xlink:href="#b" x="221.6" y="21"/><path d="M469.2 215.6v-8.1h.8c.2 0 .3.1.4.3l.1.8c.3-.4.6-.7 1-.9s.8-.4 1.3-.4 1 .2 1.3.5.6.7.7 1.2c.1-.3.3-.5.4-.8.2-.2.4-.4.6-.5s.5-.2.7-.3.5-.1.8-.1c.4 0 .8.1 1.1.2s.6.3.8.6.4.6.5 1 .2.8.2 1.3v5.2h-1.4v-5.2c0-.6-.1-1.1-.4-1.4s-.7-.5-1.2-.5c-.2 0-.5 0-.7.1s-.4.2-.6.4-.3.4-.4.6-.1.5-.1.8v5.2H474v-5.2c0-.7-.1-1.1-.4-1.5-.3-.3-.6-.5-1.1-.5a1.69 1.69 0 0 0-1 .3c-.3.2-.6.4-.8.8v6l-1.5.1h0z"/><use xlink:href="#j" x="72.1"/><use xlink:href="#n"/><use xlink:href="#b" x="256.6" y="21"/><path d="M510.2 215.6h-.6c-.1 0-.3 0-.3-.1-.1 0-.1-.1-.2-.3l-.2-.8c-.2.2-.4.4-.6.5-.2.2-.4.3-.6.4s-.5.2-.7.2c-.3.1-.5.1-.8.1s-.6 0-.9-.1-.5-.2-.7-.4-.4-.4-.5-.7-.2-.6-.2-1c0-.3.1-.6.3-.9a2.36 2.36 0 0 1 .9-.8l1.5-.6c.6-.1 1.4-.2 2.3-.2v-.6c0-.6-.1-1.1-.4-1.4s-.7-.5-1.2-.5c-.3 0-.6 0-.9.1s-.4.2-.6.3a1.38 1.38 0 0 0-.4.3c-.1.1-.2.1-.4.1-.1 0-.2 0-.3-.1l-.2-.2-.3-.5c.4-.4.9-.8 1.4-1s1.1-.3 1.7-.3c.4 0 .8.1 1.2.2s.6.4.9.6c.2.3.4.6.5 1s.2.8.2 1.2v5.5h.1zm-3.7-.9c.3 0 .5 0 .7-.1.2 0 .4-.1.6-.2s.4-.2.5-.3c.2-.1.3-.3.5-.5v-1.7c-.7 0-1.2 0-1.7.1s-.8.2-1.1.3-.5.3-.6.5-.2.4-.2.6 0 .4.1.6a1.38 1.38 0 0 0 .3.4c.1.1.2.2.4.2.1.1.3.1.5.1h0z"/><use xlink:href="#E" x="312.6" y="42"/><path d="M516.1 210.2h4v1.2h-4v-1.2zm6.1 5.4v-11.5h3.7c.7 0 1.3.1 1.8.2s.9.3 1.3.6.6.6.7.9c.1.4.2.9.2 1.3 0 .3 0 .6-.1.8-.1.3-.2.5-.4.7s-.4.4-.7.6-.6.3-.9.4c.8.2 1.5.5 1.9.9s.6 1 .6 1.7c0 .5-.1.9-.3 1.3s-.4.7-.8 1c-.3.3-.8.5-1.3.7s-1.1.2-1.7.2h-4v.2zm1.6-6.4h2c.4 0 .8 0 1.1-.1s.6-.2.8-.4.4-.4.5-.6.2-.5.2-.8c0-.7-.2-1.2-.6-1.5s-1-.5-1.9-.5h-2.1v3.9h0zm0 1.1v4h2.5c.4 0 .8-.1 1.1-.2s.6-.2.8-.4.4-.4.5-.7.1-.5.1-.8c0-.6-.2-1.1-.6-1.4s-1.1-.5-1.9-.5h-2.5 0z"/><use xlink:href="#o"/><use xlink:href="#k" x="121.7"/><use xlink:href="#p"/><use xlink:href="#l" x="120.7"/><path d="M567.7 207.3c.5 0 .9.1 1.3.2.4.2.8.4 1.1.7s.5.7.7 1.1c.2.5.3 1 .3 1.5 0 .2 0 .4-.1.4 0 .1-.1.1-.3.1h-5.4c0 .4.1.9.2 1.3.1.3.3.7.5.9.2.3.5.4.8.6.3.1.7.2 1 .2.4 0 .7 0 .9-.1s.5-.2.7-.3.3-.2.5-.3c.1-.1.2-.1.3-.1s.2 0 .3.1l.4.5-.6.6c-.2.2-.5.3-.8.4s-.6.2-.9.2-.6.1-.9.1c-.6 0-1.1-.1-1.5-.3-.5-.2-.9-.5-1.2-.8-.3-.4-.6-.8-.8-1.4-.2-.5-.3-1.2-.3-1.9 0-.6.1-1.1.3-1.6s.4-.9.7-1.3.7-.6 1.2-.8 1 0 1.6 0h0zm0 1.1c-.7 0-1.2.2-1.6.6s-.6.9-.7 1.7h4.4c0-.3 0-.6-.1-.9s-.2-.5-.4-.7-.4-.4-.6-.5c-.4-.2-.6-.2-1-.2h0z"/><use xlink:href="#k" x="153.8"/><use xlink:href="#q"/><path d="M587.7 204.9c0 .1 0 .3-.1.4s-.1.2-.2.3-.2.2-.3.2c-.1.1-.3.1-.4.1s-.3 0-.4-.1-.2-.1-.3-.2-.2-.2-.2-.3c-.1-.1-.1-.2-.1-.4s0-.3.1-.4.1-.2.2-.3.2-.2.3-.2c.1-.1.2-.1.4-.1s.3 0 .4.1.2.1.3.2.2.2.2.3c.1.1.1.3.1.4zm-.3 2.6v8.1H586v-8.1h1.4z"/><use xlink:href="#r"/><use xlink:href="#j" x="192.8"/><use xlink:href="#n" x="120.7"/><path d="M622.7 204.9c0 .1 0 .3-.1.4s-.1.2-.2.3-.2.2-.3.2c-.1.1-.3.1-.4.1s-.3 0-.4-.1-.2-.1-.3-.2-.2-.2-.2-.3c-.1-.1-.1-.2-.1-.4s0-.3.1-.4.1-.2.2-.3.2-.2.3-.2c.1-.1.2-.1.4-.1s.3 0 .4.1.2.1.3.2.2.2.2.3c.1.1.1.3.1.4zm-.3 2.6v8.1H621v-8.1h1.4zm8.5 8.1h-.6c-.1 0-.3 0-.3-.1-.1 0-.1-.1-.2-.3l-.2-.8c-.2.2-.4.4-.6.5-.2.2-.4.3-.6.4s-.5.2-.7.2c-.3.1-.5.1-.8.1s-.6 0-.9-.1-.5-.2-.7-.4-.4-.4-.5-.7-.2-.6-.2-1c0-.3.1-.6.3-.9a2.36 2.36 0 0 1 .9-.8l1.5-.6c.6-.1 1.4-.2 2.3-.2v-.6c0-.6-.1-1.1-.4-1.4s-.7-.5-1.2-.5c-.3 0-.6 0-.9.1s-.4.2-.6.3-.3.2-.4.3-.2.1-.4.1c-.1 0-.2 0-.3-.1l-.2-.2-.3-.5c.4-.4.9-.8 1.4-1s1.1-.3 1.7-.3c.4 0 .8.1 1.2.2s.6.4.9.6c.2.3.4.6.5 1s.2.8.2 1.2l.1 5.5h0zm-3.7-.9c.3 0 .5 0 .7-.1.2 0 .4-.1.6-.2s.4-.2.5-.3c.2-.1.3-.3.5-.5v-1.7c-.7 0-1.2 0-1.7.1s-.8.2-1.1.3-.5.3-.6.5-.2.4-.2.6 0 .4.1.6a1.38 1.38 0 0 0 .3.4c.1.1.2.2.4.2.1.1.3.1.5.1h0z"/><use xlink:href="#E" x="433.3" y="42"/><use xlink:href="#k" x="218.1"/><path d="M653.2 205.9c0 .1-.1.1-.2.2-.1 0-.1.1-.2.1s-.2 0-.3-.1-.3-.2-.5-.3-.4-.2-.7-.3-.6-.1-.9-.1-.7 0-.9.1c-.3.1-.5.2-.7.4s-.3.3-.4.6-.1.4-.1.7.1.6.2.8.4.4.6.5l.9.4 1 .3c.3.1.7.2 1 .4s.6.3.9.6c.3.2.5.5.6.8.1.4.2.8.2 1.2 0 .5-.1 1-.3 1.4s-.4.8-.7 1.1-.7.6-1.2.8-1 .3-1.6.3c-.7 0-1.4-.1-2-.4s-1.1-.6-1.6-1.1l.4-.7c0-.1.1-.1.2-.1s.1-.1.2-.1.2.1.4.2c.1.1.3.3.5.4s.5.3.8.4.7.2 1.1.2.7 0 1-.2.5-.2.7-.4.4-.4.5-.7.2-.5.2-.9c0-.3-.1-.6-.2-.9l-.6-.6c-.2-.2-.5-.3-.9-.4l-1-.3c-.3-.1-.7-.2-1-.4-.3-.1-.6-.3-.9-.6-.3-.2-.5-.5-.6-.9-.2-.3-.2-.8-.2-1.3 0-.4.1-.8.2-1.2.2-.4.4-.7.7-1s.7-.5 1.1-.7.9-.3 1.5-.3 1.2.1 1.8.3c.5.2 1 .5 1.4.9l-.4.9h0zm2.4 9.7v-11.8h1.4v4.8a2.73 2.73 0 0 1 1.2-.9c.4-.2.9-.3 1.5-.3.4 0 .8.1 1.2.2s.6.4.8.6.4.6.5 1 .2.8.2 1.3v5.2H661v-5.2c0-.6-.1-1.1-.4-1.4s-.7-.5-1.3-.5c-.4 0-.8.1-1.2.3s-.7.5-1 .8v6h-1.5v-.1z"/><use xlink:href="#j" x="254.3"/><path d="M672.4 207.5h1.1c.1 0 .2 0 .3.1l.2.2 1.6 5.2c0 .2.1.4.1.6s.1.4.1.5c0-.2.1-.4.1-.5s.1-.4.2-.6l1.7-5.2c0-.1.1-.1.1-.2.1-.1.2-.1.3-.1h.6c.1 0 .2 0 .3.1s.1.1.1.2l1.7 5.2c.1.2.1.4.2.6 0 .2.1.4.1.5 0-.2.1-.4.1-.6s.1-.4.1-.5l1.6-5.2c0-.1.1-.2.2-.2.1-.1.2-.1.3-.1h1.1l-2.6 8.1h-1.1c-.1 0-.2-.1-.3-.3l-1.8-5.5c0-.1-.1-.2-.1-.4s-.1-.2-.1-.4c0 .1-.1.2-.1.4 0 .1-.1.3-.1.4l-1.8 5.5c-.1.2-.2.3-.3.3H675l-2.6-8.1zm12.9 2.7h4v1.2h-4v-1.2zm-518.5 19.7c0 .1-.1.1-.1.1h-.2c-.1 0-.2 0-.3-.1s-.2-.1-.4-.2-.3-.2-.5-.2c-.2-.1-.5-.1-.8-.1-.4 0-.7.1-1 .2s-.6.3-.8.6-.4.6-.5 1-.2.8-.2 1.3.1.9.2 1.3.3.7.5 1 .4.5.7.6.6.2 1 .2c.3 0 .6 0 .9-.1l.6-.3c.1-.1.3-.2.4-.3s.2-.1.3-.1.2 0 .3.1l.4.5c-.4.4-.8.7-1.3.9s-1.1.3-1.7.3c-.5 0-1-.1-1.4-.3a4.44 4.44 0 0 1-1.1-.8c-.3-.4-.6-.8-.8-1.3s-.3-1.1-.3-1.8c0-.6.1-1.2.3-1.7s.4-1 .7-1.3.7-.7 1.2-.9 1-.3 1.6-.3 1.1.1 1.5.3.8.4 1.2.8l-.4.6h0zm7.9 6.7h-.6c-.1 0-.3 0-.3-.1-.1 0-.1-.1-.2-.3l-.2-.8c-.2.2-.4.4-.6.5-.2.2-.4.3-.6.4s-.5.2-.7.2c-.3.1-.5.1-.8.1s-.6 0-.9-.1-.5-.2-.7-.4-.4-.4-.5-.7-.2-.6-.2-1c0-.3.1-.6.3-.9a2.36 2.36 0 0 1 .9-.8l1.5-.6c.6-.1 1.4-.2 2.3-.2v-.6c0-.6-.1-1.1-.4-1.4s-.7-.5-1.2-.5c-.3 0-.6 0-.9.1s-.4.2-.6.3a1.38 1.38 0 0 0-.4.3c-.1.1-.2.1-.4.1-.1 0-.2 0-.3-.1l-.2-.2-.3-.5c.4-.4.9-.8 1.4-1s1.1-.3 1.7-.3c.4 0 .8.1 1.2.2.3.1.6.4.9.6.2.3.4.6.5 1s.2.8.2 1.2v5.5h.1zm-3.7-.9c.3 0 .5 0 .7-.1s.4-.1.6-.2.4-.2.5-.3c.2-.1.3-.3.5-.5v-1.7c-.7 0-1.2 0-1.7.1l-1.1.3c-.3.1-.5.3-.6.5s-.2.4-.2.6 0 .4.1.6a1.38 1.38 0 0 0 .3.4c.1.1.2.2.4.2a.9.9 0 0 0 .5.1h0zm10.5-5.9c-.1.1-.2.2-.3.2s-.2 0-.3-.1-.2-.1-.4-.2c-.1-.1-.3-.1-.5-.2s-.4-.1-.7-.1c-.2 0-.5 0-.6.1-.2.1-.4.1-.5.3-.1.1-.2.2-.3.4-.1.1-.1.3-.1.5s.1.4.2.5.3.3.5.4.4.2.7.3.5.2.8.2.5.2.8.3.5.2.7.4.4.4.5.6.2.5.2.8c0 .4-.1.7-.2 1s-.3.6-.6.8-.6.4-1 .5-.8.2-1.3.2c-.6 0-1.1-.1-1.5-.3-.5-.2-.8-.4-1.2-.7l.3-.5c0-.1.1-.1.2-.2.1 0 .1-.1.2-.1s.2 0 .3.1.2.2.4.2c.2.1.3.2.6.2.2.1.5.1.8.1s.5 0 .7-.1.4-.2.5-.3.2-.3.3-.4c.1-.2.1-.3.1-.5s-.1-.4-.2-.6c-.1-.1-.3-.3-.5-.4s-.4-.2-.7-.3-.5-.2-.8-.2l-.8-.3c-.3-.1-.5-.2-.7-.4s-.4-.4-.5-.6-.2-.5-.2-.9c0-.3.1-.6.2-.9s.3-.5.6-.8c.2-.2.5-.4.9-.5s.8-.2 1.2-.2c.5 0 1 .1 1.4.3s.8.4 1.1.7l-.3.7h0z"/><use xlink:href="#g" x="-59.6" y="21"/><path d="M197.2 232.3v4.3h-1.5v-11.5h3.4c.7 0 1.4.1 1.9.3s1 .4 1.3.7c.4.3.6.7.8 1.1s.3.9.3 1.5c0 .5-.1 1-.3 1.5a4.44 4.44 0 0 1-.8 1.1c-.4.3-.8.6-1.3.7s-1.1.3-1.8.3h-2 0zm0-1.3h1.8c.4 0 .8-.1 1.2-.2.3-.1.6-.3.9-.5s.4-.5.5-.8.2-.6.2-1c0-.7-.2-1.3-.7-1.7s-1.1-.6-2-.6h-1.8l-.1 4.8h0z"/><use xlink:href="#E" x="5.4" y="63"/><use xlink:href="#s"/><path d="M220.8 228.3c.4 0 .7 0 1 .1l.8.3h2.2v.5c0 .2-.1.3-.3.3l-.9.1c.2.3.3.7.3 1.2 0 .4-.1.8-.2 1.1s-.4.6-.6.8c-.3.2-.6.4-1 .5s-.8.2-1.2.2-.7 0-1.1-.1a.78.78 0 0 0-.4.4c-.1.2-.1.3-.1.4 0 .2.1.3.2.5.2.1.4.2.6.2.3 0 .5.1.9.1h1c.3 0 .7 0 1 .1l.9.3a.9.9 0 0 1 .6.6c.2.2.2.5.2.9a1.69 1.69 0 0 1-.3 1c-.2.3-.4.6-.7.9s-.7.5-1.2.6c-.5.2-1 .2-1.6.2s-1.1-.1-1.6-.2c-.4-.1-.8-.3-1.1-.5s-.5-.4-.7-.7c-.1-.3-.2-.5-.2-.8 0-.4.1-.7.4-1s.6-.5 1-.7c-.2-.1-.4-.2-.5-.4s-.2-.4-.2-.7c0-.1 0-.2.1-.4 0-.1.1-.2.2-.4.1-.1.2-.2.3-.4.1-.1.3-.2.4-.3a1.96 1.96 0 0 1-.9-.9c-.2-.4-.3-.8-.3-1.3 0-.4.1-.8.2-1.1.2-.3.4-.6.6-.8.3-.2.6-.4 1-.5s.7-.1 1.2-.1h0zm2.5 8.7c0-.2-.1-.4-.2-.5s-.3-.2-.5-.3-.4-.1-.7-.2h-1.6c-.2 0-.6 0-.8-.1-.3.1-.6.3-.7.5-.2.2-.3.4-.3.7 0 .2 0 .4.1.5s.2.3.4.4.4.2.7.3.6.1 1 .1.7 0 1-.1l.8-.3c.2-.1.4-.3.5-.5.3-.1.3-.3.3-.5h0zm-2.5-4.4c.3 0 .5 0 .8-.1l.6-.3c.1-.1.3-.3.3-.5s.1-.4.1-.7c0-.5-.2-.9-.5-1.2s-.7-.4-1.3-.4-1 .1-1.3.4-.5.7-.5 1.2c0 .2 0 .5.1.7s.2.4.3.5.3.3.6.3.5.1.8.1h0z"/><use xlink:href="#f" x="-5.1" y="21"/><use xlink:href="#H" x="-3.8" y="63"/><path d="M242.6 236.6v-6.9l-.9-.1c-.1 0-.2-.1-.3-.1-.1-.1-.1-.1-.1-.2v-.6h1.3v-.8c0-.4.1-.8.2-1.2s.3-.7.6-.9.5-.4.9-.6.7-.2 1.2-.2c.4 0 .7.1 1 .2v.7c0 .1-.1.2-.1.2h-.6c-.2 0-.5 0-.7.1s-.4.2-.5.3-.3.3-.3.6c-.1.2-.1.5-.1.9v.7h2.3v1h-2.3v6.9h-1.6 0z"/><use xlink:href="#t"/><use xlink:href="#J" x="-11.9" y="63"/><path d="M265.1 225.1h1.3c.1 0 .3 0 .3.1.1.1.2.2.2.3l2.4 8c0 .1.1.3.1.5s.1.3.1.5c0-.2.1-.4.1-.5 0-.2.1-.3.1-.5l2.7-8c0-.1.1-.2.2-.3s.2-.1.3-.1h.4c.1 0 .3 0 .3.1.1.1.2.2.2.3l2.7 8 .3 1c0-.2.1-.3.1-.5s.1-.3.1-.4l2.4-8c0-.1.1-.2.2-.3s.2-.1.3-.1h1.2l-3.6 11.5h-1.4l-2.9-8.7c-.1-.2-.1-.4-.2-.6 0 .1-.1.2-.1.3s0 .2-.1.3l-2.9 8.7h-1.4l-3.4-11.6h0zm20.4 3.2c.6 0 1.1.1 1.6.3s.9.5 1.2.8c.3.4.6.8.8 1.3s.3 1.1.3 1.7-.1 1.2-.3 1.7-.4.9-.8 1.3c-.3.4-.7.6-1.2.8s-1 .3-1.6.3-1.1-.1-1.6-.3-.9-.5-1.2-.8c-.3-.4-.6-.8-.8-1.3s-.3-1.1-.3-1.7.1-1.2.3-1.7.4-1 .8-1.3.7-.6 1.2-.8c.4-.2 1-.3 1.6-.3zm0 7.3c.8 0 1.4-.3 1.8-.8s.6-1.3.6-2.2c0-1-.2-1.7-.6-2.3-.4-.5-1-.8-1.8-.8-.4 0-.8.1-1.1.2s-.5.3-.7.6-.3.6-.4 1-.1.8-.1 1.3 0 .9.1 1.3.2.7.4 1 .4.5.7.6c.3 0 .7.1 1.1.1h0z"/><use xlink:href="#J" x="22.6" y="63"/><path d="M303.2 236.6c-.2 0-.3-.1-.4-.3l-.1-1c-.3.4-.7.8-1.2 1-.4.3-1 .4-1.5.4s-.9-.1-1.3-.3-.7-.4-1-.8c-.3-.3-.5-.8-.6-1.3s-.2-1.1-.2-1.8c0-.6.1-1.2.2-1.7s.4-.9.7-1.3.7-.7 1.1-.9.9-.3 1.5-.3c.5 0 .9.1 1.3.3s.7.4.9.7v-4.5h1.4v11.8h-.8 0zm-2.7-1.1c.5 0 .9-.1 1.2-.3s.7-.5 1-.9v-3.9c-.3-.4-.5-.6-.9-.7s-.7-.2-1-.2c-.8 0-1.3.3-1.7.8s-.6 1.3-.6 2.3c0 .5 0 1 .1 1.4s.2.7.4.9.4.4.6.5.6.1.9.1h0zm7.9-3.2v4.3h-1.5v-11.5h3.4c.7 0 1.4.1 1.9.3s1 .4 1.3.7c.4.3.6.7.8 1.1s.3.9.3 1.5c0 .5-.1 1-.3 1.5a4.44 4.44 0 0 1-.8 1.1c-.4.3-.8.6-1.3.7s-1.1.3-1.8.3h-2 0zm0-1.3h1.8c.4 0 .8-.1 1.2-.2.3-.1.6-.3.9-.5s.4-.5.5-.8.2-.6.2-1c0-.7-.2-1.3-.7-1.7s-1.1-.6-2-.6h-1.8v4.8h-.1z"/><use xlink:href="#J" x="47.8" y="63"/><use xlink:href="#h" x="3.1" y="21"/><use xlink:href="#u"/><use xlink:href="#u" x="7"/><use xlink:href="#v"/><path d="M353.5 236.6H352v-11.5h1.6v11.5h-.1zm6 0v-11.8h1.4v4.8a2.73 2.73 0 0 1 1.2-.9c.4-.2.9-.4 1.5-.4.5 0 .9.1 1.3.3s.7.4 1 .8c.3.3.5.8.6 1.3s.2 1.1.2 1.8c0 .6-.1 1.2-.2 1.7-.2.5-.4 1-.7 1.3s-.7.7-1.1.9-.9.3-1.5.3c-.5 0-1-.1-1.3-.3-.4-.2-.7-.5-1-.8l-.1.7c0 .2-.2.3-.4.3h-.9 0zm3.6-7.1c-.5 0-.9.1-1.2.3s-.7.5-1 .9v3.9c.3.4.5.6.9.7s.7.2 1 .2c.8 0 1.3-.3 1.7-.8s.6-1.3.6-2.3c0-.5 0-1-.1-1.4s-.2-.7-.4-.9-.4-.4-.6-.5-.6-.1-.9-.1h0z"/><use xlink:href="#t" x="120.7"/><use xlink:href="#s" x="168.1"/><path d="M388.9 228.3c.4 0 .7 0 1 .1l.8.3h2.2v.5c0 .2-.1.3-.3.3l-.9.1c.2.3.3.7.3 1.2 0 .4-.1.8-.2 1.1s-.4.6-.6.8-.6.4-1 .5-.8.2-1.2.2-.7 0-1.1-.1a.78.78 0 0 0-.4.4c-.1.1-.1.3-.1.4 0 .2.1.3.2.5.2.1.4.2.6.2s.5.1.9.1h1c.3 0 .7 0 1 .1l.9.3a.9.9 0 0 1 .6.6c.2.2.2.5.2.9a1.69 1.69 0 0 1-.3 1c-.2.3-.4.6-.7.9s-.7.5-1.2.6c-.5.2-1 .2-1.6.2s-1.1-.1-1.6-.2c-.4-.1-.8-.3-1.1-.5s-.5-.4-.7-.7c-.1-.3-.2-.5-.2-.8 0-.4.1-.7.4-1s.6-.5 1-.7c-.2-.1-.4-.2-.5-.4s-.2-.4-.2-.7c0-.1 0-.2.1-.4 0-.1.1-.2.2-.4a1.38 1.38 0 0 0 .3-.4c.1-.1.3-.2.4-.3a1.96 1.96 0 0 1-.9-.9c-.2-.4-.3-.8-.3-1.3 0-.4.1-.8.2-1.1.2-.3.4-.6.6-.8.3-.2.6-.4 1-.5s.8-.1 1.2-.1h0zm2.5 8.7c0-.2-.1-.4-.2-.5s-.3-.2-.5-.3-.4-.1-.7-.2h-1.6c-.2 0-.6 0-.8-.1-.3.1-.6.3-.7.5s-.3.5-.3.7 0 .4.1.5a.78.78 0 0 0 .4.4c.2.1.4.2.7.3s.6.1 1 .1.7 0 1-.1l.8-.3c.2-.1.4-.3.5-.5s.3-.3.3-.5h0zm-2.5-4.4c.3 0 .5 0 .8-.1l.6-.3c.1-.1.3-.3.3-.5.1-.2.1-.4.1-.7 0-.5-.2-.9-.5-1.2s-.7-.4-1.3-.4-1 .1-1.3.4-.5.7-.5 1.2c0 .2 0 .5.1.7s.2.4.3.5.3.3.6.3.5.1.8.1z"/><use xlink:href="#w"/><path d="M405.7 236.7c-.6 0-1.1-.2-1.5-.5-.3-.4-.5-.9-.5-1.5v-5h-1c-.1 0-.2 0-.2-.1-.1-.1-.1-.1-.1-.2v-.6l1.3-.2.3-2.5c0-.1 0-.1.1-.2.1 0 .1-.1.2-.1h.7v2.8h2.3v1H405v4.9c0 .3.1.6.2.8.2.2.4.2.6.2.1 0 .3 0 .4-.1s.2-.1.3-.1.1-.1.2-.1.1-.1.1-.1c.1 0 .1 0 .2.1l.4.7c-.2.2-.5.4-.9.5-.1.2-.4.3-.8.3h0z"/><use xlink:href="#q" x="-167.5" y="21"/><use xlink:href="#w" x="23.9"/><path d="M430.4 228.3c.5 0 .9.1 1.3.2.4.2.8.4 1.1.7s.5.7.7 1.1c.2.5.3 1 .3 1.5 0 .2 0 .4-.1.4 0 .1-.1.1-.3.1H428c0 .4.1.9.2 1.3.1.3.3.7.5.9.2.3.5.4.8.6.3.1.7.2 1 .2.4 0 .7 0 .9-.1s.5-.2.7-.3.3-.2.5-.3c.1-.1.2-.1.3-.1s.2 0 .3.1l.4.5-.6.6c-.2.2-.5.3-.8.4s-.6.2-.9.2-.6.1-.9.1c-.6 0-1.1-.1-1.5-.3-.5-.2-.9-.5-1.2-.8-.3-.4-.6-.8-.8-1.4-.2-.5-.3-1.2-.3-1.9 0-.6.1-1.1.3-1.6s.4-.9.7-1.3.7-.6 1.2-.8 1 0 1.6 0h0zm0 1.1c-.7 0-1.2.2-1.6.6s-.6.9-.7 1.7h4.4c0-.3 0-.6-.1-.9s-.2-.5-.4-.7-.4-.4-.6-.5c-.4-.2-.6-.2-1-.2h0zm8.3 7.2v-11.8h1.4v4.8a2.73 2.73 0 0 1 1.2-.9c.5-.2.9-.4 1.5-.4.5 0 .9.1 1.3.3s.7.4 1 .8.5.8.6 1.3.2 1.1.2 1.8c0 .6-.1 1.2-.2 1.7-.2.5-.4 1-.7 1.3-.3.4-.7.7-1.1.9s-.9.3-1.5.3c-.5 0-1-.1-1.3-.3-.4-.2-.7-.5-1-.8l-.1.7c0 .2-.2.3-.4.3h-.9 0zm3.6-7.1c-.5 0-.9.1-1.2.3s-.7.5-1 .9v3.9c.3.4.5.6.9.7s.7.2 1 .2c.8 0 1.3-.3 1.7-.8s.6-1.3.6-2.3c0-.5 0-1-.1-1.4s-.2-.7-.4-.9-.4-.4-.6-.5-.6-.1-.9-.1h0zm8.5-1.2c.5 0 .9.1 1.3.2.4.2.8.4 1.1.7s.5.7.7 1.1c.2.5.3 1 .3 1.5 0 .2 0 .4-.1.4 0 .1-.1.1-.3.1h-5.4c0 .4.1.9.2 1.3.1.3.3.7.5.9.2.3.5.4.8.6.3.1.7.2 1 .2.4 0 .7 0 .9-.1s.5-.2.7-.3.3-.2.5-.3c.1-.1.2-.1.3-.1s.2 0 .3.1l.4.5-.6.6c-.2.2-.5.3-.8.4s-.6.2-.9.2-.6.1-.9.1c-.6 0-1.1-.1-1.5-.3-.5-.2-.9-.5-1.2-.8-.3-.4-.6-.8-.8-1.4-.2-.5-.3-1.2-.3-1.9 0-.6.1-1.1.3-1.6s.4-.9.7-1.3.7-.6 1.2-.8 1 0 1.6 0h0zm0 1.1c-.7 0-1.2.2-1.6.6s-.6.9-.7 1.7h4.4c0-.3 0-.6-.1-.9s-.2-.5-.4-.7-.4-.4-.6-.5c-.3-.2-.6-.2-1-.2h0z"/><use xlink:href="#k" x="36.9" y="21"/><path d="M465.4 236.7c-.6 0-1.1-.2-1.5-.5-.3-.4-.5-.9-.5-1.5v-5h-1c-.1 0-.2 0-.2-.1-.1-.1-.1-.1-.1-.2v-.6l1.3-.2.3-2.5c0-.1 0-.1.1-.2.1 0 .1-.1.2-.1h.7v2.8h2.3v1h-2.3v4.9c0 .3.1.6.2.8.2.2.4.2.6.2.1 0 .3 0 .4-.1s.2-.1.3-.1.1-.1.2-.1.1-.1.1-.1c.1 0 .1 0 .2.1l.4.7c-.2.2-.5.4-.9.5-.1.2-.4.3-.8.3h0z"/><use xlink:href="#p" x="-75.7" y="21"/><use xlink:href="#o" x="-54.4" y="21"/><use xlink:href="#k" x="67.3" y="21"/><path d="M495.7 236.7c-.6 0-1.1-.2-1.5-.5-.3-.4-.5-.9-.5-1.5v-5h-1c-.1 0-.2 0-.2-.1-.1-.1-.1-.1-.1-.2v-.6l1.3-.2.3-2.5c0-.1 0-.1.1-.2.1 0 .1-.1.2-.1h.7v2.8h2.3v1H495v4.9c0 .3.1.6.2.8.2.2.4.2.6.2.1 0 .3 0 .4-.1s.2-.1.3-.1.1-.1.2-.1.1-.1.1-.1c.1 0 .1 0 .2.1l.4.7c-.2.2-.5.4-.9.5 0 .2-.4.3-.8.3h0z"/><use xlink:href="#x"/><use xlink:href="#r" x="-86.6" y="21"/><path d="M519.8 228.3c.6 0 1.1.1 1.6.3s.9.5 1.2.8c.3.4.6.8.8 1.3s.3 1.1.3 1.7-.1 1.2-.3 1.7-.4.9-.8 1.3c-.3.4-.7.6-1.2.8s-1 .3-1.6.3-1.1-.1-1.6-.3-.9-.5-1.2-.8c-.3-.4-.6-.8-.8-1.3s-.3-1.1-.3-1.7.1-1.2.3-1.7.4-1 .8-1.3.7-.6 1.2-.8 1-.3 1.6-.3zm0 7.3c.8 0 1.4-.3 1.8-.8s.6-1.3.6-2.2c0-1-.2-1.7-.6-2.3s-1-.8-1.8-.8c-.4 0-.8.1-1.1.2s-.5.3-.7.6-.3.6-.4 1-.1.8-.1 1.3 0 .9.1 1.3.2.7.4 1 .4.5.7.6.7.1 1.1.1h0z"/><use xlink:href="#n" x="34.2" y="21"/><use xlink:href="#G" x="304.3" y="63"/><path d="M544.3 236.6h-.6c-.1 0-.3 0-.3-.1-.1 0-.1-.1-.2-.3l-.2-.8c-.2.2-.4.4-.6.5-.2.2-.4.3-.6.4s-.5.2-.7.2c-.3.1-.5.1-.8.1s-.6 0-.9-.1-.5-.2-.7-.4-.4-.4-.5-.7-.2-.6-.2-1c0-.3.1-.6.3-.9a2.36 2.36 0 0 1 .9-.8l1.5-.6c.6-.1 1.4-.2 2.3-.2v-.6c0-.6-.1-1.1-.4-1.4s-.7-.5-1.2-.5c-.3 0-.6 0-.9.1s-.4.2-.6.3a1.38 1.38 0 0 0-.4.3c-.1.1-.2.1-.4.1-.1 0-.2 0-.3-.1l-.2-.2-.3-.5c.4-.4.9-.8 1.4-1s1.1-.3 1.7-.3c.4 0 .8.1 1.2.2s.6.4.9.6c.2.3.4.6.5 1s.2.8.2 1.2l.1 5.5h0zm-3.7-.9c.3 0 .5 0 .7-.1s.4-.1.6-.2.4-.2.5-.3c.2-.1.3-.3.5-.5v-1.7c-.7 0-1.2 0-1.7.1s-.8.2-1.1.3-.5.3-.6.5-.2.4-.2.6 0 .4.1.6.2.3.3.4.2.2.4.2c.1 0 .3.1.5.1h0z"/><use xlink:href="#E" x="346.8" y="63"/><path d="M553.7 239.3v-10.8h.8c.2 0 .3.1.4.3l.1 1c.3-.4.7-.8 1.2-1 .4-.3 1-.4 1.5-.4s.9.1 1.3.3.7.4 1 .8c.3.3.5.8.6 1.3s.2 1.1.2 1.8c0 .6-.1 1.2-.2 1.7-.2.5-.4 1-.7 1.3s-.7.7-1.1.9-.9.3-1.5.3c-.5 0-.9-.1-1.3-.2s-.7-.4-.9-.7v3.6h-1.4v-.2zm3.6-9.8c-.5 0-.9.1-1.2.3s-.7.5-1 .9v3.9c.3.4.5.6.9.7.3.1.7.2 1 .2.8 0 1.3-.3 1.7-.8s.6-1.3.6-2.3c0-.5 0-1-.1-1.4s-.2-.7-.4-.9-.4-.4-.6-.5c-.3-.1-.6-.1-.9-.1h0z"/><use xlink:href="#E" x="362.8" y="63"/><use xlink:href="#U" x="102.3" y="63"/><path d="M578.2 228.3c.4 0 .7 0 1 .1l.8.3h2.2v.5c0 .2-.1.3-.3.3l-.9.1c.2.3.3.7.3 1.2 0 .4-.1.8-.2 1.1s-.4.6-.6.8-.6.4-1 .5-.8.2-1.2.2-.7 0-1.1-.1a.78.78 0 0 0-.4.4c-.1.1-.1.3-.1.4 0 .2.1.3.2.5.2.1.4.2.6.2s.5.1.9.1h1c.3 0 .7 0 1 .1l.9.3a.9.9 0 0 1 .6.6c.2.2.2.5.2.9a1.69 1.69 0 0 1-.3 1c-.2.3-.4.6-.7.9s-.7.5-1.2.6c-.5.2-1 .2-1.6.2s-1.1-.1-1.6-.2c-.4-.1-.8-.3-1.1-.5s-.5-.4-.7-.7c-.1-.3-.2-.5-.2-.8 0-.4.1-.7.4-1s.6-.5 1-.7c-.2-.1-.4-.2-.5-.4s-.2-.4-.2-.7c0-.1 0-.2.1-.4 0-.1.1-.2.2-.4.1-.1.2-.2.3-.4.1-.1.3-.2.4-.3a1.96 1.96 0 0 1-.9-.9c-.2-.4-.3-.8-.3-1.3 0-.4.1-.8.2-1.1.2-.3.4-.6.6-.8.3-.2.6-.4 1-.5s.8-.1 1.2-.1h0zm2.5 8.7c0-.2-.1-.4-.2-.5s-.3-.2-.5-.3-.4-.1-.7-.2h-1.6c-.2 0-.6 0-.8-.1-.3.1-.6.3-.7.5s-.3.5-.3.7 0 .4.1.5a.78.78 0 0 0 .4.4c.2.1.4.2.7.3s.6.1 1 .1.7 0 1-.1l.8-.3c.2-.1.4-.3.5-.5s.3-.3.3-.5h0zm-2.5-4.4c.3 0 .5 0 .8-.1l.6-.3c.1-.1.3-.3.3-.5.1-.2.1-.4.1-.7 0-.5-.2-.9-.5-1.2s-.7-.4-1.3-.4-1 .1-1.3.4-.5.7-.5 1.2c0 .2 0 .5.1.7s.2.4.3.5.3.3.6.3.5.1.8.1h0z"/><use xlink:href="#x" x="84.4"/><use xlink:href="#n" x="96.6" y="21"/><use xlink:href="#v" x="251.7"/><use xlink:href="#v" x="255.1"/><use xlink:href="#v" x="258.5"/><g fill="#1d9ef7"><path d="M611.8 231.8v4.8h-1.5v-11.5h3.2c.7 0 1.4.1 1.9.2s1 .4 1.3.6c.3.3.6.6.8 1s.2.8.2 1.3c0 .4-.1.8-.2 1.1-.1.4-.3.7-.6.9-.2.3-.5.5-.9.7-.3.2-.7.3-1.2.4.2.1.4.3.5.5l3.3 4.6h-1.4c-.3 0-.5-.1-.6-.3l-3-4.1-.3-.3c-.1-.1-.3-.1-.5-.1h-1v.2zm0-1.1h1.6c.4 0 .8-.1 1.2-.2.3-.1.6-.3.9-.5.2-.2.4-.4.5-.7s.2-.6.2-.9c0-.7-.2-1.2-.7-1.5s-1.1-.5-2-.5h-1.7v4.3h0zm11.6-2.4c.5 0 .9.1 1.3.2.4.2.8.4 1.1.7s.5.7.7 1.1c.2.5.3 1 .3 1.5 0 .2 0 .4-.1.4 0 .1-.1.1-.3.1H621c0 .4.1.9.2 1.3.1.3.3.7.5.9.2.3.5.4.8.6.3.1.7.2 1 .2.4 0 .7 0 .9-.1s.5-.2.7-.3.3-.2.5-.3c.1-.1.2-.1.3-.1s.2 0 .3.1l.4.5-.6.6c-.2.2-.5.3-.8.4s-.6.2-.9.2-.6.1-.9.1c-.6 0-1.1-.1-1.5-.3-.5-.2-.9-.5-1.2-.8-.3-.4-.6-.8-.8-1.4-.2-.5-.3-1.2-.3-1.9 0-.6.1-1.1.3-1.6s.4-.9.7-1.3.7-.6 1.2-.8 1 0 1.6 0h0zm.1 1.1c-.7 0-1.2.2-1.6.6s-.6.9-.7 1.7h4.4c0-.3 0-.6-.1-.9s-.2-.5-.4-.7-.4-.4-.6-.5c-.4-.2-.7-.2-1-.2h0zm11.1 7.2h-.6c-.1 0-.3 0-.3-.1-.1 0-.1-.1-.2-.3l-.2-.8c-.2.2-.4.4-.6.5-.2.2-.4.3-.6.4s-.5.2-.7.2c-.3.1-.5.1-.8.1s-.6 0-.9-.1-.5-.2-.7-.4-.4-.4-.5-.7-.2-.6-.2-1c0-.3.1-.6.3-.9a2.36 2.36 0 0 1 .9-.8l1.5-.6c.6-.1 1.4-.2 2.3-.2v-.6c0-.6-.1-1.1-.4-1.4s-.7-.5-1.2-.5c-.3 0-.6 0-.9.1s-.4.2-.6.3-.3.2-.4.3-.2.1-.4.1c-.1 0-.2 0-.3-.1l-.2-.2-.3-.5c.4-.4.9-.8 1.4-1s1.1-.3 1.7-.3c.4 0 .8.1 1.2.2s.6.4.9.6c.2.3.4.6.5 1s.2.8.2 1.2l.1 5.5h0zm-3.7-.9c.3 0 .5 0 .7-.1s.4-.1.6-.2.4-.2.5-.3c.2-.1.3-.3.5-.5v-1.7c-.7 0-1.2 0-1.7.1s-.8.2-1.1.3-.5.3-.6.5-.2.4-.2.6 0 .4.1.6.2.3.3.4.2.2.4.2c.1 0 .3.1.5.1h0zm11.5.9c-.2 0-.3-.1-.4-.3l-.1-1c-.3.4-.7.8-1.2 1-.4.3-1 .4-1.5.4s-.9-.1-1.3-.3-.7-.4-1-.8-.5-.8-.6-1.3-.2-1.1-.2-1.8c0-.6.1-1.2.2-1.7.2-.5.4-1 .7-1.3.3-.4.7-.7 1.1-.9s.9-.3 1.5-.3c.5 0 .9.1 1.3.3s.7.4.9.7v-4.5h1.4v11.8h-.8 0zm-2.7-1.1c.5 0 .9-.1 1.2-.3s.7-.5 1-.9v-3.9c-.3-.4-.5-.6-.9-.7-.3-.1-.7-.2-1-.2-.8 0-1.3.3-1.7.8s-.6 1.3-.6 2.3c0 .5 0 1 .1 1.4s.2.7.4.9.4.4.6.5.5.1.9.1h0zm15.1-2.7c.1.1.1.3.2.4.1-.1.1-.3.2-.4s.1-.3.2-.4l3.9-7c.1-.1.1-.2.2-.2h1.4v11.5h-1.4v-9.2l-3.9 7.2c-.1.2-.3.4-.6.4h-.2c-.2 0-.4-.1-.6-.4l-4-7.2v9.2H649v-11.5h1.4c.1 0 .1.1.2.2l4 7.1c.1 0 .2.2.2.3h0zm11.9-4.5c.6 0 1.1.1 1.6.3s.9.5 1.2.8c.3.4.6.8.8 1.3s.3 1.1.3 1.7-.1 1.2-.3 1.7-.4.9-.8 1.3c-.3.4-.7.6-1.2.8s-1 .3-1.6.3-1.1-.1-1.6-.3-.9-.5-1.2-.8c-.3-.4-.6-.8-.8-1.3s-.3-1.1-.3-1.7.1-1.2.3-1.7.4-1 .8-1.3.7-.6 1.2-.8a4.53 4.53 0 0 1 1.6-.3zm0 7.3c.8 0 1.4-.3 1.8-.8s.6-1.3.6-2.2c0-1-.2-1.7-.6-2.3s-1-.8-1.8-.8c-.4 0-.8.1-1.1.2s-.5.3-.7.6-.3.6-.4 1-.1.8-.1 1.3 0 .9.1 1.3.2.7.4 1 .4.5.7.6.7.1 1.1.1h0z"/><use xlink:href="#i" x="268.7" y="21"/><use xlink:href="#m" x="235" y="21"/></g><path d="M413.2 314.5h-12.7c-1.5 0-2.6 1.2-2.6 2.6v12.7c0 1.5 1.2 2.6 2.6 2.6h5.3v-6.3h-2.1V323h2.1v-2.1c0-1.7 1.4-3.2 3.2-3.2h3.2v3.2H409v2.1h3.2l-.5 3.2H409v6.3h4.2a2.65 2.65 0 0 0 2.6-2.6v-12.7c0-1.5-1.2-2.7-2.6-2.7h0zm24.8.9c-.7-.7-1.5-1-2.4-1h-11.3c-.9 0-1.7.3-2.4 1s-1 1.5-1 2.4v11.3c0 .9.3 1.7 1 2.4s1.5 1 2.4 1h11.3c.9 0 1.7-.3 2.4-1s1-1.5 1-2.4v-11.3c0-.9-.3-1.7-1-2.4zm-3.2 6v.3c0 .7-.1 1.3-.3 2s-.5 1.3-.9 1.9-.9 1.1-1.4 1.6c-.6.5-1.2.8-2 1.1s-1.6.4-2.5.4c-1.4 0-2.6-.4-3.8-1.1h.6c1.1 0 2.2-.4 3.1-1.1-.5 0-1-.2-1.4-.5a2.73 2.73 0 0 1-.9-1.2h.5c.2 0 .4 0 .6-.1a2.37 2.37 0 0 1-1.5-.9c-.4-.5-.6-1-.6-1.6h0c.4.2.8.3 1.2.3-.7-.5-1.1-1.2-1.1-2.1 0-.5.1-.9.3-1.3.6.8 1.4 1.4 2.3 1.8.9.5 1.8.7 2.9.8 0-.1-.1-.3-.1-.6 0-.7.2-1.3.7-1.8s1.1-.7 1.8-.7 1.3.3 1.8.8c.5-.1 1.1-.3 1.6-.6-.2.6-.6 1.1-1.1 1.4.5-.1 1-.2 1.4-.4-.3.8-.7 1.2-1.2 1.6h0zm24.7-6.9h-12.7c-1.5 0-2.6 1.2-2.6 2.6v12.7c0 1.5 1.2 2.6 2.6 2.6h12.7c1.5 0 2.6-1.2 2.6-2.6v-12.7c0-1.5-1.1-2.6-2.6-2.6zm-9 14.3h-2.1v-7.4h2.1v7.4zm0-8.5h-2.1v-2.1h2.1v2.1zm7.4 8.5h-2.1v-4.2a1.11 1.11 0 0 0-1.1-1.1 1.11 1.11 0 0 0-1.1 1.1v4.2h-2.1v-7.4h2.1v.4c.6-.2.9-.4 1.6-.4 1.4 0 2.6 1.3 2.6 2.8v4.6h.1z" fill="#999"/><path d="M380.8 70.4V82h-2.1v-7.1-.5-.5l-3.3 6.3c-.2.3-.5.5-.8.5h-.3c-.2 0-.4 0-.5-.1s-.3-.2-.3-.4l-3.3-6.3v.5.5V82H368V70.4h1.8.3.2c.1 0 .1.1.2.1 0 .1.1.1.1.2l3.2 6.2.3.6.3.6.3-.6.3-.6 3.2-6.2c0-.1.1-.2.2-.2s.1-.1.2-.1h.2.3 1.7zm3.7 7.8c.1.8.3 1.3.7 1.7s.9.5 1.5.5c.3 0 .6 0 .8-.1s.4-.2.6-.2c.2-.1.3-.2.5-.2.1-.1.3-.1.4-.1.2 0 .3.1.4.2l.6.8c-.2.3-.5.5-.8.7s-.6.3-.9.4-.6.2-.9.2-.6.1-.9.1c-.6 0-1.1-.1-1.6-.3s-.9-.5-1.3-.8-.7-.8-.9-1.4c-.2-.5-.3-1.2-.3-1.9 0-.6.1-1.1.3-1.6s.4-.9.8-1.3.8-.7 1.3-.9 1.1-.3 1.7-.3c.5 0 1 .1 1.5.3s.8.4 1.2.7c.3.3.6.7.8 1.2s.3 1 .3 1.6v.4c0 .1 0 .2-.1.3 0 .1-.1.1-.2.1h-.2-5.3zm3.4-1.3c0-.2 0-.4-.1-.7s-.2-.4-.3-.6-.3-.3-.5-.4-.4-.1-.7-.1c-.5 0-.9.1-1.2.4s-.5.7-.6 1.3h3.4zm9.4-1.3c-.1.1-.1.2-.2.2s-.2.1-.3.1-.2 0-.3-.1-.2-.1-.3-.2-.3-.1-.5-.2-.4-.1-.7-.1-.6.1-.9.2c-.2.1-.4.3-.6.5s-.3.5-.4.8-.1.7-.1 1.1c0 .8.2 1.5.5 1.9a1.75 1.75 0 0 0 1.4.7c.2 0 .4 0 .5-.1.1 0 .3-.1.4-.1s.2-.1.3-.2.2-.1.2-.2c.1-.1.1-.1.2-.1s.2-.1.2-.1c.2 0 .3.1.4.2l.6.8c-.2.3-.5.5-.8.7s-.5.3-.8.4-.6.2-.9.2-.6.1-.9.1c-.5 0-1-.1-1.4-.3s-.9-.5-1.2-.8c-.3-.4-.6-.8-.8-1.3s-.3-1.1-.3-1.8c0-.6.1-1.2.3-1.7s.4-1 .8-1.3c.3-.4.8-.7 1.3-.9s1.1-.3 1.7-.3 1.2.1 1.7.3.9.5 1.3.9l-.4.7zm3.9-1c.2-.1.3-.3.5-.4s.3-.2.5-.3.4-.1.6-.2c.2 0 .4-.1.7-.1.4 0 .8.1 1.2.2l.9.6c.3.2.4.6.5 1s.2.8.2 1.3V82h-2.2v-5.2c0-.5-.1-.8-.3-1.1s-.5-.4-.9-.4c-.3 0-.6.1-.9.2s-.5.3-.8.6V82H399V70.1h2.2v4.5zm9.4-3.2c0 .2 0 .4-.1.5s-.2.3-.3.4-.3.2-.4.3-.3.1-.5.1-.4 0-.5-.1a1.38 1.38 0 0 1-.4-.3c-.1-.1-.2-.3-.3-.4-.1-.2-.1-.3-.1-.5s0-.4.1-.5a1.38 1.38 0 0 1 .3-.4c.1-.1.3-.2.4-.3.2-.1.3-.1.5-.1s.4 0 .5.1.3.2.4.3.2.3.3.4a.9.9 0 0 1 .1.5zm-.2 2.4V82h-2.2v-8.2h2.2zm3.6 4.4c.1.8.3 1.3.7 1.7s.9.5 1.5.5c.3 0 .6 0 .8-.1s.4-.2.6-.2c.2-.1.3-.2.5-.2.1-.1.3-.1.4-.1.2 0 .3.1.4.2l.6.8c-.2.3-.5.5-.8.7s-.6.3-.9.4-.6.2-.9.2-.6.1-.9.1c-.6 0-1.1-.1-1.6-.3s-.9-.5-1.3-.8-.7-.8-.9-1.4c-.2-.5-.3-1.2-.3-1.9 0-.6.1-1.1.3-1.6s.4-.9.8-1.3.8-.7 1.3-.9 1.1-.3 1.7-.3c.5 0 1 .1 1.5.3s.8.4 1.2.7c.3.3.6.7.8 1.2s.3 1 .3 1.6v.4c0 .1 0 .2-.1.3 0 .1-.1.1-.2.1h-.2-5.3zm3.5-1.3c0-.2 0-.4-.1-.7s-.2-.4-.3-.6-.3-.3-.5-.4-.4-.1-.7-.1c-.5 0-.9.1-1.2.4s-.5.7-.6 1.3h3.4zm5.6-6.8V82h-2.2V70.1h2.2zm13.8 9.1c.1 0 .2 0 .3.1l1 1c-.5.6-1.1 1.1-1.7 1.4s-1.5.5-2.5.5c-.9 0-1.7-.1-2.3-.4-.7-.3-1.3-.7-1.8-1.2s-.9-1.2-1.1-1.9c-.3-.7-.4-1.5-.4-2.4 0-.6.1-1.1.2-1.6s.3-1 .5-1.4.5-.8.9-1.2c.3-.4.7-.7 1.1-.9s.9-.4 1.4-.6 1-.2 1.6-.2c.4 0 .8 0 1.2.1l1.1.3c.3.1.6.3.9.5s.5.4.8.6l-.8 1.1c0 .1-.1.1-.2.2s-.2.1-.3.1-.3 0-.4-.1-.3-.2-.5-.3-.4-.2-.7-.3-.6-.1-1.1-.1-.9.1-1.3.3-.8.4-1 .8c-.3.3-.5.7-.7 1.2s-.2 1-.2 1.7c0 .6.1 1.2.3 1.7s.4.9.7 1.2a4.44 4.44 0 0 0 1.1.8c.4.2.8.3 1.3.3h.7c.2 0 .4-.1.6-.1.2-.1.4-.1.5-.2s.3-.2.5-.4c.1 0 .1-.1.2-.1 0-.5 0-.5.1-.5zm5.9-5.6c.6 0 1.2.1 1.7.3s.9.5 1.3.8.6.8.8 1.3.3 1.1.3 1.8a5.23 5.23 0 0 1-.3 1.8 3.22 3.22 0 0 1-.8 1.3c-.4.4-.8.7-1.3.8-.5.2-1.1.3-1.7.3s-1.2-.1-1.7-.3-.9-.5-1.3-.8c-.4-.4-.6-.8-.8-1.3s-.3-1.1-.3-1.8a5.23 5.23 0 0 1 .3-1.8c.2-.5.5-1 .8-1.3s.8-.6 1.3-.8 1.1-.3 1.7-.3zm0 6.9c.6 0 1.1-.2 1.4-.7.3-.4.5-1.1.5-1.9 0-.9-.2-1.5-.5-1.9a1.75 1.75 0 0 0-1.4-.7c-.6 0-1.1.2-1.4.7s-.5 1.1-.5 1.9c0 .9.2 1.5.5 1.9.3.5.7.7 1.4.7zm12.7-6.7V82h-1.4c-.3 0-.5-.1-.5-.4l-.1-.6c-.2.2-.3.3-.5.4l-.6.3c-.2.1-.4.2-.6.2-.2.1-.5.1-.8.1-.4 0-.8-.1-1.2-.2l-.9-.6c-.2-.3-.4-.6-.5-1s-.2-.8-.2-1.3v-5.2h2.2V79c0 .5.1.8.3 1.1s.5.4.9.4c.3 0 .6-.1.9-.2s.5-.3.8-.6v-5.9h2.2zm9.5 0l-3.2 8.2h-2l-3.2-8.2h1.8c.2 0 .3 0 .4.1s.2.2.2.3l1.4 4.1c.1.3.2.5.2.8s.1.5.2.8c.1-.3.1-.5.2-.8l.3-.8 1.4-4.1c0-.1.1-.2.2-.3s.2-.1.4-.1h1.7zm.5 1.1c.5-.4 1-.8 1.6-1s1.2-.3 1.9-.3c.5 0 .9.1 1.3.2s.7.4 1 .7.5.6.6 1 .2.8.2 1.3V82h-1c-.2 0-.4 0-.5-.1s-.2-.2-.3-.4l-.2-.5c-.2.2-.4.3-.6.5-.2.1-.4.3-.6.3-.2.1-.4.2-.7.2s-.5.1-.8.1c-.4 0-.7 0-1-.1s-.6-.2-.8-.4-.4-.4-.5-.7-.2-.6-.2-1c0-.3.1-.6.2-.9.2-.3.4-.6.8-.8s.9-.5 1.5-.6c.6-.2 1.4-.3 2.4-.3v-.4c0-.5-.1-.9-.3-1.1s-.5-.4-.9-.4c-.3 0-.6 0-.8.1s-.4.1-.5.2c-.2.1-.3.2-.4.2-.1.1-.3.1-.5.1s-.3 0-.4-.1l-.3-.3-.2-.7zm4.5 3.7c-.5 0-1 .1-1.3.1-.4.1-.6.2-.9.3-.2.1-.4.2-.4.4-.1.1-.1.3-.1.4 0 .3.1.5.3.7.2.1.4.2.7.2.4 0 .7-.1 1-.2s.5-.3.8-.6v-1.3zm6-3.5c.3-.5.6-.8.9-1.1s.7-.4 1.2-.4c.4 0 .7.1.9.3l-.1 1.6c0 .1-.1.2-.1.2-.1 0-.1.1-.2.1h-.4-.4c-.2 0-.4 0-.5.1-.2.1-.3.1-.4.2s-.2.2-.3.4-.2.3-.3.5v5h-2.2v-8.2h1.3c.2 0 .4 0 .5.1s.1.2.2.4l-.1.8zm3.6-.2c.5-.4 1-.8 1.6-1s1.2-.3 1.9-.3c.5 0 .9.1 1.3.2s.7.4 1 .7.5.6.6 1 .2.8.2 1.3V82h-1c-.2 0-.4 0-.5-.1a1.38 1.38 0 0 1-.3-.4l-.2-.5c-.2.2-.4.3-.6.5-.2.1-.4.3-.6.3-.2.1-.4.2-.7.2s-.5.1-.8.1c-.4 0-.7 0-1-.1s-.6-.2-.8-.4-.4-.4-.5-.7-.2-.6-.2-1c0-.3.1-.6.2-.9.2-.3.4-.6.8-.8s.9-.5 1.5-.6c.6-.2 1.4-.3 2.4-.3v-.4c0-.5-.1-.9-.3-1.1s-.5-.4-.9-.4c-.3 0-.6 0-.8.1s-.4.1-.5.2c-.2.1-.3.2-.4.2-.1.1-.3.1-.5.1s-.3 0-.4-.1l-.3-.3-.2-.7zm4.5 3.7c-.5 0-1 .1-1.3.1-.4.1-.6.2-.9.3-.2.1-.4.2-.4.4-.1.1-.1.3-.1.4 0 .3.1.5.3.7.2.1.4.2.7.2.4 0 .7-.1 1-.2s.5-.3.8-.6v-1.3zm9-3.1c-.1.1-.1.2-.2.2s-.1.1-.3.1c-.1 0-.2 0-.3-.1s-.2-.1-.4-.2-.3-.1-.5-.2-.4-.1-.6-.1c-.4 0-.6.1-.8.2s-.3.3-.3.6c0 .2.1.3.2.4s.3.2.4.3.4.2.6.2c.2.1.5.2.7.2.2.1.5.2.7.3s.4.3.6.4c.2.2.3.4.4.6s.2.5.2.9-.1.8-.2 1.1-.4.6-.6.9c-.3.2-.6.4-1.1.6-.4.1-.9.2-1.5.2-.3 0-.6 0-.8-.1s-.5-.1-.8-.2c-.2-.1-.5-.2-.7-.3s-.4-.3-.6-.4l.5-.8c.1-.1.1-.2.2-.2.1-.1.2-.1.3-.1s.3 0 .4.1.2.1.4.2.3.1.5.2.4.1.7.1c.2 0 .4 0 .6-.1.2 0 .3-.1.4-.2s.2-.2.2-.3.1-.2.1-.3c0-.2-.1-.3-.2-.4s-.3-.2-.4-.3c-.2-.1-.4-.2-.6-.2-.2-.1-.5-.1-.7-.2s-.5-.2-.7-.3-.4-.3-.6-.4c-.2-.2-.3-.4-.4-.7s-.2-.6-.2-1c0-.3.1-.7.2-1s.3-.6.6-.8l1-.6c.4-.2.9-.2 1.4-.2.6 0 1.1.1 1.6.3s.9.4 1.2.8l-.6.8zm-116.8 57.4c.1 0 .2 0 .3.1l.8.9a5.09 5.09 0 0 1-1.6 1.3c-.6.3-1.4.4-2.3.4-.8 0-1.5-.1-2.2-.4-.6-.3-1.2-.7-1.6-1.1-.5-.5-.8-1.1-1-1.8s-.4-1.4-.4-2.2.1-1.6.4-2.2c.3-.7.6-1.3 1.1-1.8s1.1-.9 1.8-1.1c.7-.3 1.4-.4 2.3-.4.8 0 1.5.1 2.1.4s1.1.6 1.5 1l-.7.9c0 .1-.1.1-.2.2s-.1.1-.3.1c-.1 0-.2 0-.4-.1s-.3-.2-.5-.3-.4-.2-.7-.3-.6-.1-1.1-.1-1 .1-1.4.3-.8.4-1.1.8c-.3.3-.5.7-.7 1.2s-.3 1-.3 1.6.1 1.2.3 1.6.4.9.7 1.2.6.6 1 .7c.4.2.8.3 1.3.3h.7c.2 0 .4-.1.6-.1.2-.1.4-.1.5-.3.2-.1.3-.2.5-.4 0 0 .1-.1.2-.1.3-.3.4-.3.4-.3z"/><path d="M385.8 124.6v1.6H381v3h3.8v1.6H381v3.1h4.8v1.6H379v-10.8h6.8zm12.1 5.4c0 .8-.1 1.5-.4 2.2s-.6 1.3-1.1 1.8a6.57 6.57 0 0 1-1.7 1.2c-.7.3-1.4.4-2.2.4s-1.6-.1-2.2-.4c-.7-.3-1.3-.7-1.7-1.2s-.9-1.1-1.1-1.8c-.3-.7-.4-1.4-.4-2.2s.1-1.5.4-2.2.6-1.3 1.1-1.8a6.57 6.57 0 0 1 1.7-1.2c.7-.3 1.4-.4 2.2-.4s1.6.1 2.2.4 1.3.7 1.7 1.2c.5.5.9 1.1 1.1 1.8.3.7.4 1.4.4 2.2zm-2 0c0-.6-.1-1.1-.2-1.6s-.4-.9-.7-1.2a4.44 4.44 0 0 0-1.1-.8c-.4-.2-.9-.3-1.4-.3s-1 .1-1.4.3-.8.4-1.1.8-.5.7-.7 1.2-.2 1-.2 1.6.1 1.1.2 1.6.4.9.7 1.2a4.44 4.44 0 0 0 1.1.8c.4.2.9.3 1.4.3s1-.1 1.4-.3.8-.4 1.1-.8.5-.7.7-1.2.2-1 .2-1.6zm6.2.1h3.9v1.5h-3.9v-1.5zm14.4-3.5c-.1.1-.1.2-.2.2s-.2.1-.3.1-.2 0-.3-.1-.3-.2-.4-.3-.4-.2-.6-.3-.5-.1-.8-.1-.5 0-.7.1-.4.2-.5.3-.2.3-.3.4c-.1.2-.1.4-.1.6 0 .3.1.5.2.6s.3.3.6.4l.8.3.9.3c.3.1.6.2.9.4.3.1.6.3.8.5s.4.5.6.8c.1.3.2.7.2 1.1 0 .5-.1.9-.3 1.4-.2.4-.4.8-.7 1.1s-.7.6-1.2.8-1 .3-1.6.3c-.3 0-.7 0-1-.1l-1-.3c-.3-.1-.6-.3-.9-.5s-.5-.4-.7-.6l.6-1 .2-.2c.1 0 .2-.1.3-.1a.76.76 0 0 1 .4.2c.1.1.3.2.5.3s.4.2.7.3.6.2 1 .2c.6 0 1-.1 1.3-.4s.5-.7.5-1.2c0-.3-.1-.5-.2-.7s-.3-.3-.6-.5-.5-.2-.8-.3l-.9-.3c-.3-.1-.6-.2-.9-.4-.3-.1-.6-.3-.8-.5s-.4-.5-.6-.8a4.3 4.3 0 0 1-.2-1.2c0-.4.1-.8.2-1.2s.4-.7.7-1 .7-.5 1.1-.7.9-.3 1.5-.3 1.2.1 1.8.3 1 .5 1.4.8l-.6 1.3zm2.1 8.8v-7.7h1.1a.55.55 0 0 1 .5.3l.1.6c.1-.2.3-.3.4-.4s.3-.2.5-.3.3-.2.5-.2.4-.1.6-.1c.5 0 .9.1 1.2.4s.5.6.7 1c.1-.3.3-.5.5-.7s.4-.3.6-.4.4-.2.7-.3.5-.1.7-.1c.4 0 .8.1 1.1.2s.6.3.8.6.4.6.5.9c.1.4.2.8.2 1.2v4.9h-1.9v-4.9c0-.5-.1-.9-.3-1.1s-.5-.4-.9-.4c-.2 0-.4 0-.5.1-.2.1-.3.2-.4.3s-.2.3-.3.5-.1.4-.1.6v4.9H423v-4.9c0-.5-.1-.9-.3-1.1s-.5-.4-.9-.4c-.3 0-.5.1-.7.2s-.4.3-.6.5v5.6h-1.9zm18.7 0h-.8c-.2 0-.3 0-.4-.1s-.2-.2-.2-.3l-.2-.5c-.2.2-.4.3-.6.5l-.6.3c-.2.1-.4.2-.6.2s-.5.1-.8.1-.6 0-.9-.1-.5-.2-.7-.4-.4-.4-.5-.7-.2-.6-.2-.9.1-.6.2-.9c.2-.3.4-.5.8-.8.4-.2.8-.4 1.4-.6s1.3-.2 2.2-.2v-.5c0-.5-.1-.9-.3-1.2-.2-.2-.5-.4-.9-.4-.3 0-.5 0-.8.1-.2.1-.4.1-.5.2a.76.76 0 0 1-.4.2c-.1.1-.3.1-.4.1s-.2 0-.3-.1-.2-.1-.2-.2l-.3-.6c.9-.8 2-1.2 3.2-1.2a3.73 3.73 0 0 1 1.2.2c.3.1.7.4.9.6l.6.9c.1.4.2.8.2 1.2v5.1zm-3.6-1.1c.2 0 .4 0 .5-.1.2 0 .3-.1.5-.2.1-.1.3-.2.4-.3s.3-.2.4-.4V132c-.5 0-1 0-1.4.1s-.7.2-.9.3-.4.2-.5.4c-.1.1-.1.3-.1.5 0 .3.1.6.3.7.2.2.5.3.8.3zm5.4 1.1v-7.7h1.1c.2 0 .3 0 .4.1s.1.2.2.4l.1.9c.3-.5.6-.9 1-1.1a1.92 1.92 0 0 1 1.2-.4c.4 0 .7.1.9.3l-.2 1.4c0 .1 0 .2-.1.2 0 0-.1.1-.2.1s-.2 0-.3-.1c-.1 0-.3-.1-.5-.1a1.69 1.69 0 0 0-1 .3c-.3.2-.5.5-.7.9v4.8h-1.9zm8.7.2c-.7 0-1.2-.2-1.5-.6-.4-.4-.5-.9-.5-1.6v-4.3h-.8c-.1 0-.2 0-.3-.1s-.1-.2-.1-.3v-.7l1.2-.2.4-2.1c0-.1.1-.2.1-.2.1-.1.2-.1.3-.1h1v2.4h2v1.3h-2v4.2c0 .2.1.4.2.6s.3.2.5.2h.3c.1 0 .1-.1.2-.1s.1-.1.2-.1h.1.1l.1.1.6.9c-.3.2-.6.4-.9.5-.5.1-.9.2-1.2.2zm8.3-1.6c.5 0 .9 0 1.2-.1l1-.3v-2h-1.4c-.1 0-.2 0-.3-.1s-.1-.2-.1-.3V130h3.6v4.4c-.3.2-.6.4-.9.5s-.6.3-1 .4c-.3.1-.7.2-1.1.2s-.8.1-1.2.1c-.8 0-1.5-.1-2.2-.4s-1.2-.7-1.7-1.1c-.5-.5-.9-1.1-1.1-1.8-.3-.7-.4-1.4-.4-2.2s.1-1.6.4-2.2c.3-.7.6-1.3 1.1-1.8s1.1-.9 1.8-1.1c.7-.3 1.5-.4 2.3-.4.9 0 1.7.1 2.3.4s1.2.6 1.6 1l-.6.9a.55.55 0 0 1-.5.3c-.1 0-.2 0-.4-.1s-.3-.2-.5-.3-.4-.2-.6-.2c-.2-.1-.4-.1-.7-.2-.3 0-.5-.1-.9-.1-.5 0-1 .1-1.5.3s-.8.4-1.1.8c-.3.3-.5.7-.7 1.2s-.2 1-.2 1.6.1 1.2.3 1.7.4.9.7 1.2a4.44 4.44 0 0 0 1.1.8c.7 0 1.2.1 1.7.1z"/><use xlink:href="#y"/><use xlink:href="#y" x="8"/><path d="M479.8 124.3v6.4h.3c.1 0 .2 0 .3-.1.1 0 .1-.1.2-.2l1.9-2.4c.1-.1.2-.2.3-.2s.2-.1.4-.1h1.7l-2.4 2.9-.3.3c-.1.1-.2.2-.3.2l.3.3c.1.1.2.2.2.3l2.6 3.7h-1.7c-.1 0-.3 0-.4-.1-.1 0-.2-.1-.3-.3l-2-2.9-.2-.2c-.1 0-.2-.1-.3-.1h-.4v3.5H478v-11.1h1.8zm9.1 13.3c-.1.1-.1.2-.2.3s-.2.1-.4.1h-1.4l1.4-3.1-3.1-7.1h1.6c.1 0 .3 0 .3.1s.1.1.2.2l1.6 4c.1.1.1.3.1.4s.1.3.1.4c0-.1.1-.3.1-.4a.76.76 0 0 1 .2-.4l1.5-4c0-.1.1-.2.2-.2.1-.1.2-.1.3-.1h1.5l-4 9.8zM348 274.6v-9.1h1.1c.2 0 .4.1.5.4l.1.9c.3-.4.7-.7 1.1-1s.9-.4 1.4-.4c.6 0 1.1.2 1.5.5s.7.8.8 1.4c.1-.3.3-.6.5-.8s.4-.4.7-.6.5-.3.8-.3c.3-.1.6-.1.9-.1.5 0 .9.1 1.3.2.4.2.7.4 1 .7s.5.7.6 1.1.2.9.2 1.5v5.8h-1.8V269c0-.7-.1-1.2-.4-1.5s-.7-.5-1.3-.5c-.3 0-.5 0-.7.1s-.4.2-.6.4-.3.4-.4.6c-.1.3-.1.6-.1.9v5.8h-1.8V269c0-.7-.1-1.2-.4-1.6s-.7-.5-1.2-.5c-.4 0-.7.1-1.1.3-.3.2-.6.5-.9.8v6.8H348z"/><use xlink:href="#z"/><path d="M380.4 269.7c-.1.4-.2.8-.2 1.1s0 .5.1.6c.1.2.2.3.4.3.1.1.3.1.5.1.3 0 .6-.1.8-.2s.5-.4.7-.7.3-.7.5-1.1c.1-.4.2-.9.2-1.4 0-.8-.1-1.5-.4-2.2-.3-.6-.6-1.1-1.1-1.5s-1-.7-1.6-.9-1.3-.3-2-.3c-.8 0-1.5.2-2.2.5s-1.3.7-1.8 1.3-.9 1.2-1.2 1.9-.4 1.5-.4 2.4c0 1 .2 1.9.5 2.7s.8 1.4 1.3 1.9 1.2.9 1.9 1.2 1.5.4 2.4.4 1.7-.1 2.4-.3 1.3-.4 1.8-.7c.1-.1.2-.1.3-.1s.2.1.2.2l.2.6c-.6.4-1.4.8-2.2 1s-1.8.4-2.8.4c-1.1 0-2-.2-2.9-.5s-1.7-.8-2.3-1.4-1.2-1.4-1.6-2.3-.6-1.9-.6-3.1c0-.6.1-1.3.2-1.9.2-.6.4-1.2.7-1.7a7.55 7.55 0 0 1 2.5-2.5c.5-.3 1.1-.6 1.7-.7.6-.2 1.2-.3 1.9-.3.6 0 1.1.1 1.6.2s1 .3 1.5.5.9.5 1.3.9c.4.3.7.7 1 1.2s.5 1 .7 1.5.2 1.1.2 1.8c0 .6-.1 1.2-.3 1.8s-.4 1-.8 1.4c-.3.4-.7.7-1.1 1-.4.2-.9.3-1.4.3-.4 0-.8-.1-1.1-.3s-.5-.6-.6-1a2.59 2.59 0 0 1-1.1 1c-.4.2-.8.3-1.3.3-.4 0-.7-.1-.9-.2-.3-.1-.5-.3-.7-.5s-.3-.5-.4-.8-.1-.6-.1-1c0-.5.1-1 .3-1.5s.5-1 .9-1.4.9-.8 1.4-1c.6-.3 1.2-.4 2-.4.4 0 .8 0 1.1.1l.9.3-1 3zm-.7-2.4c-.2 0-.5-.1-.7-.1-.4 0-.8.1-1.2.3s-.7.4-.9.7c-.3.3-.5.6-.6 1s-.2.8-.2 1.2.1.8.3 1 .5.4.8.4c.2 0 .4 0 .5-.1.2-.1.4-.2.5-.3.2-.1.3-.3.5-.6.1-.2.3-.5.4-.9l.6-2.6zm12.3-.2c0 .1-.1.1-.2.2h-.2c-.1 0-.2 0-.3-.1s-.3-.1-.4-.2-.4-.2-.6-.2c-.2-.1-.5-.1-.8-.1s-.5 0-.7.1-.4.2-.5.3-.3.2-.3.4c-.1.2-.1.3-.1.5s.1.4.2.6c.1.1.3.3.5.4s.5.2.7.3l.9.3.9.3c.3.1.5.3.7.5s.4.4.5.7.2.6.2.9c0 .4-.1.8-.2 1.2-.2.4-.4.7-.7.9-.3.3-.7.5-1.1.6-.4.2-.9.2-1.5.2s-1.2-.1-1.7-.3-1-.5-1.3-.8l.4-.7c0-.1.1-.1.2-.2.1 0 .2-.1.3-.1s.2 0 .4.1a1.38 1.38 0 0 1 .4.3l.6.3c.2.1.5.1.9.1.3 0 .6 0 .8-.1l.6-.3c.1-.1.3-.3.3-.4.1-.2.1-.3.1-.5s-.1-.4-.2-.6-.3-.3-.5-.4-.5-.2-.8-.3l-.9-.3-.9-.3c-.3-.1-.5-.3-.8-.5-.2-.2-.4-.4-.5-.7s-.2-.6-.2-1 .1-.7.2-1 .4-.6.6-.9l1-.6c.4-.2.9-.2 1.4-.2.6 0 1.2.1 1.6.3.5.2.9.5 1.3.8l-.3.5zm2.4 7.5v-9.1h1.1c.2 0 .4.1.5.4l.1.9c.3-.4.7-.7 1.1-1s.9-.4 1.4-.4c.6 0 1.1.2 1.5.5s.7.8.8 1.4c.1-.3.3-.6.5-.8s.4-.4.7-.6.5-.3.8-.3c.3-.1.6-.1.9-.1.5 0 .9.1 1.3.2.4.2.7.4 1 .7s.5.7.6 1.1.2.9.2 1.5v5.8h-1.8V269c0-.7-.1-1.2-.4-1.5s-.7-.5-1.3-.5c-.3 0-.5 0-.7.1s-.4.2-.6.4-.3.4-.4.6c-.1.3-.1.6-.1.9v5.8h-1.8V269c0-.7-.1-1.2-.4-1.6s-.7-.5-1.2-.5c-.4 0-.7.1-1.1.3-.3.2-.6.5-.9.8v6.8h-1.8zm14.6-7.8c.5-.5 1.1-.8 1.7-1.1.6-.2 1.3-.4 2-.4.5 0 1 .1 1.4.3s.7.4 1 .7.5.7.6 1.1.2.9.2 1.4v5.8h-.8c-.2 0-.3 0-.4-.1s-.2-.2-.2-.3l-.2-.8c-.2.2-.5.4-.7.6s-.5.3-.7.4-.5.2-.8.3-.6.1-.9.1c-.4 0-.7 0-1-.1s-.6-.2-.8-.5c-.2-.2-.4-.5-.6-.8-.1-.3-.2-.7-.2-1.1a1.69 1.69 0 0 1 .3-1c.2-.3.5-.6 1-.9.4-.3 1-.5 1.7-.6s1.6-.3 2.6-.3v-.7c0-.7-.1-1.2-.4-1.5s-.7-.5-1.3-.5c-.4 0-.7 0-1 .1s-.5.2-.7.3-.4.2-.5.3-.3.1-.4.1-.2 0-.3-.1-.2-.1-.2-.2l-.4-.5zm5.2 3.8c-.7 0-1.3.1-1.8.2l-1.2.3c-.3.1-.5.3-.7.5-.1.2-.2.4-.2.7 0 .2 0 .4.1.6a1.38 1.38 0 0 0 .3.4c.1.1.3.2.5.2s.4.1.6.1c.3 0 .5 0 .7-.1s.4-.1.6-.2.4-.2.6-.4c.2-.1.4-.3.5-.5v-1.8zm5.7-3.4c.3-.6.6-1.1 1.1-1.4s.9-.5 1.5-.5c.2 0 .4 0 .6.1.2 0 .3.1.5.2l-.1 1.3c0 .2-.1.2-.3.2h-.4-.5c-.3 0-.5 0-.7.1s-.4.2-.6.4-.3.4-.5.6c-.1.2-.3.5-.4.8v5.7h-1.8v-9.1h1c.2 0 .3 0 .4.1s.1.2.1.4l.1 1.1zm7.8 7.6c-.7 0-1.3-.2-1.7-.6s-.6-1-.6-1.8v-5.5h-1.1c-.1 0-.2 0-.3-.1s-.1-.2-.1-.3v-.7l1.5-.2.4-2.7c0-.1.1-.2.1-.2.1-.1.2-.1.3-.1h.9v3.1h2.6v1.3h-2.6v5.4c0 .4.1.6.3.8s.4.3.7.3c.2 0 .3 0 .4-.1.1 0 .2-.1.3-.1.1-.1.2-.1.2-.1.1 0 .1-.1.2-.1h.1l.1.1.5.8c-.3.3-.6.5-1 .6a3.73 3.73 0 0 1-1.2.2zm11.5-9v.7c0 .2-.1.4-.4.4l-1 .1c.1.2.2.4.2.6s.1.4.1.7c0 .4-.1.9-.3 1.2-.2.4-.4.7-.7.9-.3.3-.7.5-1.1.6s-.9.2-1.4.2c-.4 0-.8 0-1.2-.1a.78.78 0 0 0-.4.4c-.1.1-.1.3-.1.4a.55.55 0 0 0 .3.5c.2.1.4.2.7.2s.6.1 1 .1.7 0 1.1.1c.4 0 .8.1 1.1.1l1 .3c.3.2.5.4.7.6s.3.6.3 1-.1.8-.3 1.2-.5.7-.9 1-.8.5-1.4.7c-.5.2-1.1.3-1.8.3s-1.3-.1-1.8-.2-.9-.3-1.3-.5-.6-.5-.7-.8c-.2-.3-.2-.6-.2-.9 0-.4.1-.8.4-1.1s.7-.6 1.1-.7c-.3-.1-.5-.3-.6-.5s-.2-.5-.2-.8c0-.1 0-.3.1-.4a.76.76 0 0 1 .2-.4c.1-.1.2-.3.4-.4.1-.1.3-.2.5-.3-.4-.3-.8-.6-1.1-1s-.4-.9-.4-1.5c0-.5.1-.9.3-1.2.2-.4.4-.7.7-.9.3-.3.7-.5 1.1-.6s.9-.2 1.4-.2c.8 0 1.5.2 2 .5h2.6zm-1.8 9.3c0-.2-.1-.4-.2-.5s-.3-.2-.5-.3-.4-.1-.7-.2c-.3 0-.6-.1-.9-.1h-.9c-.3 0-.6 0-.9-.1-.3.2-.6.3-.8.6-.2.2-.3.5-.3.8 0 .2 0 .4.1.5.1.2.3.3.5.4s.5.2.8.3.7.1 1.1.1.8 0 1.1-.1l.8-.3c.2-.1.4-.3.5-.5.2-.2.3-.4.3-.6zm-2.8-5c.3 0 .6 0 .8-.1s.4-.2.6-.4.3-.3.4-.6c.1-.2.1-.5.1-.7 0-.5-.2-1-.5-1.3s-.8-.5-1.4-.5-1.1.2-1.4.5-.5.7-.5 1.3c0 .3 0 .5.1.7s.2.4.4.5c.2.2.4.3.6.4s.5.2.8.2zm13.5 3.2c-.2.3-.5.5-.7.7-.3.2-.6.3-.9.4l-1 .3c-.4.1-.7.1-1 .1-.6 0-1.2-.1-1.8-.3s-1-.5-1.4-.9-.7-.9-.9-1.5-.3-1.3-.3-2.1c0-.6.1-1.2.3-1.8.2-.5.5-1 .9-1.4a5.02 5.02 0 0 1 1.4-1c.5-.2 1.1-.4 1.8-.4.6 0 1.1.1 1.5.3.5.2.9.4 1.2.8.3.3.6.8.8 1.3s.3 1.1.3 1.7c0 .3 0 .5-.1.5-.1.1-.2.1-.3.1h-6c0 .5.1 1 .2 1.4s.3.7.6 1c.2.3.5.5.9.6s.7.2 1.1.2.7 0 1-.1.5-.2.7-.3.4-.2.5-.3.3-.1.4-.1.3.1.3.2l.5.6zm-1.4-4.3c0-.3 0-.7-.1-1s-.2-.5-.4-.8c-.2-.2-.4-.4-.7-.5s-.6-.2-1-.2c-.7 0-1.3.2-1.7.6s-.7 1-.8 1.8h4.7zm11 4.3c-.2.3-.5.5-.7.7-.3.2-.6.3-.9.4l-1 .3c-.4.1-.7.1-1 .1-.6 0-1.2-.1-1.8-.3s-1-.5-1.4-.9-.7-.9-.9-1.5-.3-1.3-.3-2.1c0-.6.1-1.2.3-1.8.2-.5.5-1 .9-1.4a5.02 5.02 0 0 1 1.4-1c.5-.2 1.1-.4 1.8-.4.6 0 1.1.1 1.5.3.5.2.9.4 1.2.8.3.3.6.8.8 1.3s.3 1.1.3 1.7c0 .3 0 .5-.1.5-.1.1-.2.1-.3.1h-6c0 .5.1 1 .2 1.4s.3.7.6 1c.2.3.5.5.9.6s.7.2 1.1.2.7 0 1-.1.5-.2.7-.3.4-.2.5-.3.3-.1.4-.1.3.1.3.2l.5.6zm-1.5-4.3c0-.3 0-.7-.1-1s-.2-.5-.4-.8c-.2-.2-.4-.4-.7-.5s-.6-.2-1-.2c-.7 0-1.3.2-1.7.6s-.7 1-.8 1.8h4.7zm5.3-7.7v7.8h.4c.1 0 .2 0 .3-.1s.2-.1.3-.2l2.7-3 .3-.3c.1-.1.2-.1.4-.1h1.6l-3.2 3.5c-.2.2-.4.4-.6.5l.3.3.3.3 3.4 4.5h-1.6c-.1 0-.3 0-.4-.1-.1 0-.2-.1-.3-.3l-2.8-3.7-.3-.3c-.1-.1-.2-.1-.4-.1h-.5v4.3h-1.8V261h1.9zm15.4 4.2l-5.1 11.8c-.1.1-.1.2-.2.3s-.2.1-.4.1H470l1.7-3.6-3.8-8.6h1.5c.2 0 .3 0 .4.1s.1.2.2.2l2.3 5.5c0 .1.1.3.1.4s.1.3.1.4c0-.1.1-.3.1-.4a.76.76 0 0 1 .2-.4l2.2-5.5c0-.1.1-.2.2-.3s.2-.1.3-.1h1.4zm.5 8.1c0-.2 0-.3.1-.5.1-.1.1-.3.2-.4a1.38 1.38 0 0 1 .4-.3c.1-.1.3-.1.5-.1a.9.9 0 0 1 .5.1c.1.1.3.1.4.3a1.38 1.38 0 0 1 .3.4c.1.1.1.3.1.5s0 .3-.1.5c-.1.1-.1.3-.3.4s-.2.2-.4.3a.9.9 0 0 1-.5.1c-.2 0-.3 0-.5-.1-.1-.1-.3-.1-.4-.3-.1-.1-.2-.2-.2-.4-.1-.2-.1-.4-.1-.5z"/><use xlink:href="#z" x="119"/><path d="M494.2 265.3c.7 0 1.3.1 1.8.3s1 .5 1.4.9.7.9.9 1.5.3 1.2.3 1.9-.1 1.4-.3 2-.5 1.1-.9 1.5-.8.7-1.4.9c-.5.2-1.2.3-1.8.3-.7 0-1.3-.1-1.8-.3s-1-.5-1.4-.9-.7-.9-.9-1.5-.3-1.2-.3-2 .1-1.4.3-1.9.5-1.1.9-1.5.8-.7 1.4-.9c.6-.1 1.2-.3 1.8-.3zm0 8.1c.9 0 1.5-.3 1.9-.9s.6-1.4.6-2.5-.2-1.9-.6-2.5-1.1-.9-1.9-.9c-.9 0-1.5.3-2 .9-.4.6-.6 1.4-.6 2.5s.2 1.9.6 2.5c.5.6 1.2.9 2 .9zm6.4 1.2v-9.1h1.1c.2 0 .4.1.5.4l.1.9c.3-.4.7-.7 1.1-1s.9-.4 1.4-.4c.6 0 1.1.2 1.5.5s.7.8.8 1.4c.1-.3.3-.6.5-.8s.4-.4.7-.6.5-.3.8-.3c.3-.1.6-.1.9-.1.5 0 .9.1 1.3.2.4.2.7.4 1 .7s.5.7.6 1.1.2.9.2 1.5v5.8h-1.8V269c0-.7-.1-1.2-.4-1.5s-.7-.5-1.3-.5c-.3 0-.5 0-.7.1s-.4.2-.6.4-.3.4-.4.6c-.1.3-.1.6-.1.9v5.8H506V269c0-.7-.1-1.2-.4-1.6s-.7-.5-1.2-.5c-.4 0-.7.1-1.1.3-.3.2-.6.5-.9.8v6.8h-1.8z"/></svg>