<svg xmlns="http://www.w3.org/2000/svg" xmlns:xlink="http://www.w3.org/1999/xlink" viewBox="0 0 800 400" xmlns:v="https://vecta.io/nano"><path d="M0,0h800v400H0V0z" fill="#fff" stroke="#aaa" stroke-width="2.254" stroke-miterlimit="10"/><circle cx="108.2" cy="100.2" r="49.8" fill="#ddd"/><defs><circle id="A" cx="108.2" cy="100.2" r="49.8"/><path id="B" d="M189.1 78.9l2.3 5.5 6 .5c.4 0 .6.6.3.8l-4.5 3.9 1.4 5.8c.1.4-.4.7-.7.5l-5.1-3.1-5.1 3.1c-.4.2-.8-.1-.7-.5l1.4-5.8-4.5-3.9c-.3-.3-.2-.7.3-.8l6-.5 2.3-5.5c0-.4.5-.4.6 0z"/><path id="C" d="M228.5 78.9l2.3 5.5 6 .5c.4 0 .6.6.3.8l-4.5 3.9 1.4 5.8c.1.4-.4.7-.7.5l-5.1-3.1-5.1 3.1c-.4.2-.8-.1-.7-.5l1.4-5.8-4.5-3.9c-.3-.3-.2-.7.3-.8l6-.5 2.3-5.5c-.1-.4.4-.4.6 0z"/><path id="D" d="M197.6 150.3c0 .8 0 1.4.1 2h-1.2l-.1-1.2c-.3.6-1.1 1.4-2.4 1.4-1.1 0-2.5-.6-2.5-3.2V145h1.3v4c0 1.4.4 2.3 1.6 2.3.9 0 1.5-.6 1.7-1.2.1-.2.1-.4.1-.7V145h1.3l.1 5.3h0z"/><path id="E" d="M199.6 150.9c.4.3 1.1.5 1.7.5 1 0 1.4-.5 1.4-1.1s-.4-1-1.4-1.3c-1.3-.5-1.9-1.2-1.9-2.1 0-1.2.9-2.1 2.5-2.1.7 0 1.4.2 1.8.5l-.3 1c-.3-.2-.8-.4-1.5-.4-.8 0-1.2.4-1.2 1s.4.9 1.4 1.2c1.3.5 1.9 1.1 1.9 2.2 0 1.3-1 2.2-2.7 2.2-.8 0-1.5-.2-2-.5l.3-1.1h0z"/><path id="F" d="M213.9,141.6h1.3v10.6h-1.3V141.6z"/><path id="G" d="M224 148.6c0 2.7-1.9 3.9-3.6 3.9-2 0-3.5-1.4-3.5-3.7 0-2.4 1.6-3.9 3.6-3.9 2.1-.1 3.5 1.4 3.5 3.7zm-5.8 0c0 1.6.9 2.8 2.2 2.8s2.2-1.2 2.2-2.8c0-1.2-.6-2.8-2.2-2.8-1.5 0-2.2 1.5-2.2 2.8z"/><path id="H" d="M226 145l1.4 4.1.6 1.9.6-1.9 1.4-4.1h1.4l-2.9 7.3h-1.3l-2.8-7.3h1.6z"/><path id="I" d="M233.3 148.9c0 1.8 1.2 2.5 2.5 2.5.9 0 1.5-.2 2-.4l.2.9c-.5.2-1.3.4-2.4.4-2.2 0-3.6-1.5-3.6-3.7s1.3-3.9 3.4-3.9c2.4 0 3 2.1 3 3.4v.6h-5.1v.2zm3.9-1c0-.8-.3-2.1-1.8-2.1-1.3 0-1.9 1.2-2 2.1h3.8z"/><path id="J" d="M244.9 142.9v2.1h1.9v1h-1.9v3.9c0 .9.3 1.4 1 1.4.3 0 .6 0 .8-.1l.1 1c-.4.1-.8.2-1.2.2-.6 0-1.1-.2-1.4-.6-.4-.4-.5-1-.5-1.9v-4h-1.1v-1h1.1v-1.7l1.2-.3h0z"/><path id="K" d="M258 143c0 .5-.3.8-.8.8s-.8-.4-.8-.8c0-.5.3-.8.8-.8.5-.1.8.3.8.8zm-1.4 9.3V145h1.3v7.3h-1.3z"/><path id="L" d="M269.2 147.4l-.1-2.4h1.2l.1 1.2c.5-.9 1.4-1.4 2.6-1.4 1.8 0 3.1 1.5 3.1 3.7 0 2.6-1.6 3.9-3.3 3.9-1 0-1.8-.4-2.2-1.1h0v3.9h-1.3v-7.8h-.1zm1.3 1.9c0 .2 0 .4.1.5.2.9 1 1.5 2 1.5 1.4 0 2.2-1.1 2.2-2.8 0-1.5-.8-2.7-2.2-2.7-.9 0-1.7.6-2 1.6 0 .2-.1.4-.1.5v1.4z"/><path id="M" d="M299.3 143c0 .5-.3.8-.8.8s-.8-.4-.8-.8c0-.5.3-.8.8-.8.5-.1.8.3.8.8zm-1.5 9.3V145h1.3v7.3h-1.3z"/><path id="N" d="M301.4 147c0-.8 0-1.4-.1-2h1.2l.1 1.2c.4-.7 1.2-1.4 2.4-1.4 1 0 2.6.6 2.6 3.1v4.3h-1.3V148c0-1.2-.4-2.1-1.7-2.1-.9 0-1.5.6-1.8 1.3-.1.2-.1.4-.1.6v4.4h-1.3V147h0z"/><path id="O" d="M309.4 151.5c0-.6.4-.9.9-.9s.9.4.9.9-.3.9-.9.9-.9-.4-.9-.9z"/><path id="P" d="M331.1 147.3l-.1-2.3h1.2v1.4h.1c.3-1 1.1-1.6 2-1.6h.4v1.2h-.4c-.9 0-1.6.7-1.8 1.7 0 .2-.1.4-.1.6v3.9h-1.3v-4.9h0z"/><path id="Q" d="M336.6 148.9c0 1.8 1.2 2.5 2.5 2.5.9 0 1.5-.2 2-.4l.2.9c-.5.2-1.3.4-2.4.4-2.2 0-3.6-1.5-3.6-3.7s1.3-3.9 3.4-3.9c2.4 0 3 2.1 3 3.4v.6h-5.1v.2zm3.8-1c0-.8-.3-2.1-1.8-2.1-1.3 0-1.9 1.2-2 2.1h3.8z"/><path id="R" d="M343.3 147c0-.8 0-1.4-.1-2h1.2l.1 1.2c.4-.7 1.1-1.3 2.3-1.3 1 0 1.7.6 2.1 1.5h0a2.36 2.36 0 0 1 .8-.9c.4-.3.9-.5 1.6-.5 1 0 2.4.6 2.4 3.1v4.3h-1.3v-4.1c0-1.4-.5-2.2-1.6-2.2-.8 0-1.3.6-1.6 1.2-.1.2-.1.4-.1.7v4.5h-1.3v-4.3c0-1.2-.5-2-1.5-2-.8 0-1.4.7-1.6 1.3-.1.2-.1.4-.1.6v4.4h-1.3V147z"/><path id="S" d="M407.2 141.6v8.8c0 .6 0 1.4.1 1.9h-1.2l-.1-1.3c-.4.8-1.3 1.4-2.5 1.4-1.8 0-3.1-1.5-3.1-3.7 0-2.4 1.5-3.9 3.3-3.9 1.1 0 1.9.5 2.2 1.1h0v-4.3h1.3 0zm-1.3 6.3c0-.2 0-.4-.1-.6-.2-.8-.9-1.5-1.9-1.5-1.4 0-2.2 1.2-2.2 2.8 0 1.5.7 2.7 2.1 2.7.9 0 1.7-.6 1.9-1.6 0-.2.1-.4.1-.6v-1.2h.1z"/><path id="T" d="M429.4 147.3l-.1-2.3h1.2v1.4h.1c.3-1 1.1-1.6 2-1.6h.4v1.2h-.5c-.9 0-1.6.7-1.8 1.7 0 .2-.1.4-.1.6v3.9h-1.3l.1-4.9h0z"/><path id="U" d="M437.3 150.9c.4.3 1.1.5 1.7.5 1 0 1.4-.5 1.4-1.1s-.4-1-1.3-1.3c-1.3-.5-1.9-1.2-1.9-2.1 0-1.2.9-2.1 2.5-2.1.7 0 1.4.2 1.8.5l-.3 1c-.3-.2-.8-.4-1.5-.4-.8 0-1.2.4-1.2 1s.4.9 1.4 1.2c1.3.5 1.9 1.1 1.9 2.2 0 1.3-1 2.2-2.7 2.2-.8 0-1.5-.2-2-.5l.2-1.1h0z"/><path id="V" d="M459.1 152.3l-.1-.9c-.4.6-1.2 1.1-2.2 1.1-1.5 0-2.2-1-2.2-2.1 0-1.8 1.6-2.7 4.4-2.7v-.2c0-.6-.2-1.7-1.6-1.7-.7 0-1.4.2-1.9.5l-.3-.9c.6-.4 1.5-.6 2.4-.6 2.2 0 2.8 1.5 2.8 3v2.7c0 .6 0 1.2.1 1.7l-1.4.1h0zm-.2-3.8c-1.4 0-3.1.2-3.1 1.6 0 .9.6 1.3 1.2 1.3.9 0 1.5-.6 1.8-1.2 0-.1.1-.3.1-.4v-1.3h0z"/><path id="W" d="M486.4 154.1c.3-.9.7-2.5.9-3.6l1.5-.2c-.3 1.3-1 2.9-1.4 3.6l-1 .2z"/><path id="X" d="M498.7 152c-.3.2-1.1.4-2.1.4-2.2 0-3.6-1.5-3.6-3.7s1.5-3.9 3.9-3.9c.8 0 1.5.2 1.8.4l-.3 1c-.3-.2-.8-.3-1.5-.3-1.7 0-2.6 1.2-2.6 2.7 0 1.7 1.1 2.7 2.5 2.7.8 0 1.2-.2 1.6-.4l.3 1.1h0z"/><path id="Y" d="M73.1 170.5c0 2.7-1.9 3.9-3.6 3.9-2 0-3.5-1.4-3.5-3.7 0-2.4 1.6-3.9 3.6-3.9 2.1 0 3.5 1.5 3.5 3.7zm-5.7.1c0 1.6.9 2.8 2.2 2.8s2.2-1.2 2.2-2.8c0-1.2-.6-2.8-2.2-2.8-1.5-.1-2.2 1.4-2.2 2.8z"/><path id="Z" d="M87.1 168.9c0-.8 0-1.4-.1-2h1.2l.1 1.2c.4-.7 1.1-1.3 2.3-1.3 1 0 1.7.6 2.1 1.5h0a2.36 2.36 0 0 1 .8-.9c.4-.3.9-.5 1.6-.5 1 0 2.4.6 2.4 3.1v4.3h-1.3v-4.1c0-1.4-.5-2.2-1.6-2.2-.8 0-1.3.6-1.6 1.2-.1.2-.1.4-.1.7v4.5h-1.3v-4.3c0-1.2-.5-2-1.5-2-.8 0-1.4.7-1.6 1.3-.1.2-.1.4-.1.6v4.4h-1.3v-5.5z"/><path id="a" d="M104.2 164.9c0 .5-.3.8-.8.8s-.8-.4-.8-.8c0-.5.3-.8.8-.8s.8.3.8.8zm-1.4 9.3v-7.3h1.3v7.3h-1.3z"/><path id="b" d="M126.8 172.2c0 .8 0 1.4.1 2h-1.2l-.1-1.2c-.3.6-1.1 1.4-2.4 1.4-1.1 0-2.5-.6-2.5-3.2V167h1.3v4c0 1.4.4 2.3 1.6 2.3.9 0 1.5-.6 1.7-1.2.1-.2.1-.4.1-.7v-4.5h1.3l.1 5.3h0z"/><path id="c" d="M151 163.5v8.8c0 .6 0 1.4.1 1.9h-1.2l-.1-1.3c-.4.8-1.3 1.4-2.5 1.4-1.8 0-3.1-1.5-3.1-3.7 0-2.4 1.5-3.9 3.3-3.9 1.1 0 1.9.5 2.2 1.1h0v-4.3h1.3zm-1.3 6.4c0-.2 0-.4-.1-.6-.2-.8-.9-1.5-1.9-1.5-1.4 0-2.2 1.2-2.2 2.8 0 1.5.7 2.7 2.1 2.7.9 0 1.7-.6 1.9-1.6 0-.2.1-.4.1-.6l.1-1.2h0z"/><path id="d" d="M171.5 170.5c0 2.7-1.9 3.9-3.6 3.9-2 0-3.5-1.4-3.5-3.7 0-2.4 1.6-3.9 3.6-3.9 2.1 0 3.5 1.5 3.5 3.7zm-5.7.1c0 1.6.9 2.8 2.2 2.8s2.2-1.2 2.2-2.8c0-1.2-.6-2.8-2.2-2.8-1.6-.1-2.2 1.4-2.2 2.8z"/><path id="e" d="M188.7 164.9c0 .5-.3.8-.8.8s-.8-.4-.8-.8c0-.5.3-.8.8-.8s.8.3.8.8zm-1.5 9.3v-7.3h1.3v7.3h-1.3z"/><path id="f" d="M202.9 174.2l-.1-.9c-.4.6-1.2 1.1-2.2 1.1-1.5 0-2.2-1-2.2-2.1 0-1.8 1.6-2.7 4.4-2.7v-.2c0-.6-.2-1.7-1.6-1.7-.7 0-1.4.2-1.9.5l-.3-.9c.6-.4 1.5-.6 2.4-.6 2.2 0 2.8 1.5 2.8 3v2.7c0 .6 0 1.2.1 1.7l-1.4.1h0zm-.2-3.7c-1.4 0-3.1.2-3.1 1.6 0 .9.6 1.3 1.2 1.3.9 0 1.5-.6 1.8-1.2 0-.1.1-.3.1-.4v-1.3h0z"/><path id="g" d="M339.3 164.9c0 .5-.3.8-.8.8s-.8-.4-.8-.8c0-.5.3-.8.8-.8.4 0 .8.3.8.8zm-1.5 9.3v-7.3h1.3v7.3h-1.3z"/><path id="h" d="M369.5 168.9c0-.8 0-1.4-.1-2h1.2l.1 1.2c.4-.7 1.2-1.4 2.4-1.4 1 0 2.6.6 2.6 3.1v4.3h-1.3V170c0-1.2-.4-2.1-1.7-2.1-.9 0-1.5.6-1.8 1.3-.1.2-.1.4-.1.6v4.4h-1.3v-5.3h0z"/><path id="i" d="M384.1 166.9c0 .5-.1 1.1-.1 2v4.2c0 1.7-.3 2.7-1 3.3-.7.7-1.7.9-2.6.9s-1.8-.2-2.4-.6l.3-1c.5.3 1.2.6 2.1.6 1.4 0 2.3-.7 2.3-2.5v-.8c-.4.7-1.2 1.2-2.3 1.2-1.8 0-3.1-1.5-3.1-3.5 0-2.5 1.6-3.9 3.3-3.9 1.3 0 1.9.7 2.3 1.3h0l.1-1.1 1.1-.1h0zm-1.4 2.9c0-.2 0-.4-.1-.6a1.83 1.83 0 0 0-1.8-1.4c-1.3 0-2.2 1.1-2.2 2.7 0 1.4.7 2.6 2.1 2.6.8 0 1.5-.5 1.8-1.3.1-.2.1-.5.1-.7v-1.3h.1z"/><path id="j" d="M446.5 163.5v8.8c0 .6 0 1.4.1 1.9h-1.2l-.1-1.3c-.4.8-1.3 1.4-2.5 1.4-1.8 0-3.1-1.5-3.1-3.7 0-2.4 1.5-3.9 3.3-3.9 1.1 0 1.9.5 2.2 1.1h0v-4.3h1.3zm-1.3 6.4c0-.2 0-.4-.1-.6-.2-.8-.9-1.5-1.9-1.5-1.4 0-2.2 1.2-2.2 2.8 0 1.5.7 2.7 2.1 2.7.9 0 1.7-.6 1.9-1.6 0-.2.1-.4.1-.6v-1.2h.1z"/><path id="k" d="M456.2 174.2l-.1-.9c-.4.6-1.2 1.1-2.2 1.1-1.5 0-2.2-1-2.2-2.1 0-1.8 1.6-2.7 4.4-2.7v-.2c0-.6-.2-1.7-1.6-1.7-.7 0-1.4.2-1.9.5l-.3-.9c.6-.4 1.5-.6 2.4-.6 2.2 0 2.8 1.5 2.8 3v2.7c0 .6 0 1.2.1 1.7l-1.4.1h0zm-.1-3.7c-1.4 0-3.1.2-3.1 1.6 0 .9.6 1.3 1.2 1.3.9 0 1.5-.6 1.8-1.2 0-.1.1-.3.1-.4v-1.3h0z"/><path id="l" d="M619.6 170.5c0 2.7-1.9 3.9-3.6 3.9-2 0-3.5-1.4-3.5-3.7 0-2.4 1.6-3.9 3.6-3.9s3.5 1.5 3.5 3.7zm-5.8.1c0 1.6.9 2.8 2.2 2.8s2.2-1.2 2.2-2.8c0-1.2-.6-2.8-2.2-2.8-1.5-.1-2.2 1.4-2.2 2.8z"/><path id="m" d="M121.7 191.5c0 2.7-1.9 3.9-3.6 3.9-2 0-3.5-1.4-3.5-3.7 0-2.4 1.6-3.9 3.6-3.9 2.1 0 3.5 1.5 3.5 3.7zm-5.8.1c0 1.6.9 2.8 2.2 2.8s2.2-1.2 2.2-2.8c0-1.2-.6-2.8-2.2-2.8-1.5-.1-2.2 1.4-2.2 2.8z"/><path id="n" d="M123.3,184.5h1.3v10.6h-1.3V184.5z"/><path id="o" d="M178.6 189.9c0-.8 0-1.4-.1-2h1.2l.1 1.2c.4-.7 1.2-1.4 2.4-1.4 1 0 2.6.6 2.6 3.1v4.3h-1.3V191c0-1.2-.4-2.1-1.7-2.1-.9 0-1.5.6-1.8 1.3-.1.2-.1.4-.1.6v4.4h-1.3v-5.3h0z"/><path id="p" d="M303.8 193.2c0 .8 0 1.4.1 2h-1.2l-.1-1.2c-.3.6-1.1 1.4-2.4 1.4-1.1 0-2.5-.6-2.5-3.2V188h1.3v4c0 1.4.4 2.3 1.6 2.3.9 0 1.5-.6 1.7-1.2.1-.2.1-.4.1-.7v-4.5h1.3v5.3h.1z"/><path id="q" d="M480.9 187.9l1.4 4.1.6 1.9.6-1.9 1.4-4.1h1.4l-2.8 7.3h-1.3l-2.8-7.3h1.5 0z"/><path id="r" d="M88.8 212.8c0 1.8 1.2 2.5 2.5 2.5.9 0 1.5-.2 2-.4l.2.9c-.5.2-1.3.5-2.4.5-2.2 0-3.6-1.5-3.6-3.7s1.3-3.9 3.4-3.9c2.4 0 3 2.1 3 3.4v.6l-5.1.1h0zm3.9-1c0-.8-.3-2.1-1.8-2.1-1.3 0-1.9 1.2-2 2.1h3.8z"/><path id="s" d="M103.5 214.8c.4.3 1.1.5 1.7.5 1 0 1.4-.5 1.4-1.1s-.4-1-1.4-1.3c-1.3-.5-1.9-1.2-1.9-2.1 0-1.2.9-2.1 2.5-2.1.7 0 1.4.2 1.8.5l-.3 1c-.3-.2-.8-.4-1.5-.4-.8 0-1.2.5-1.2 1 0 .6.4.9 1.4 1.2 1.3.5 1.9 1.1 1.9 2.2 0 1.3-1 2.2-2.7 2.2-.8 0-1.5-.2-2-.5l.3-1.1h0z"/><path id="t" d="M115.7 214.2c0 .8 0 1.4.1 2h-1.2l-.1-1.2c-.3.6-1.1 1.3-2.4 1.3-1.1 0-2.5-.6-2.5-3.2v-4.2h1.3v4c0 1.4.4 2.3 1.6 2.3.9 0 1.5-.6 1.7-1.2.1-.2.1-.4.1-.7v-4.5h1.3l.1 5.4h0z"/><path id="u" d="M154.2,205.5h1.3v10.6h-1.3V205.5z"/><path id="v" d="M165.9 216.2c0-.5.1-1.2.1-1.9v-8.8h1.3v4.6c.5-.8 1.3-1.3 2.5-1.3 1.8 0 3.1 1.5 3.1 3.7 0 2.6-1.6 3.9-3.3 3.9-1.1 0-1.9-.4-2.4-1.4h0l-.1 1.2h-1.2 0zm1.4-2.9a.9.9 0 0 0 .1.5c.3.9 1 1.5 2 1.5 1.4 0 2.2-1.1 2.2-2.8 0-1.5-.8-2.7-2.2-2.7-.9 0-1.7.6-2 1.6 0 .2-.1.3-.1.5v1.4z"/><path id="w" d="M205.6 210.9c0-.8 0-1.4-.1-2h1.2l.1 1.2c.4-.7 1.2-1.4 2.4-1.4 1 0 2.6.6 2.6 3.1v4.3h-1.3V212c0-1.2-.4-2.1-1.7-2.1-.9 0-1.5.6-1.8 1.4-.1.2-.1.4-.1.6v4.4h-1.3v-5.4h0z"/><path id="x" d="M250.6 216.2l-.1-.9c-.4.6-1.2 1.1-2.2 1.1-1.5 0-2.2-1-2.2-2.1 0-1.8 1.6-2.7 4.4-2.7v-.1c0-.6-.2-1.7-1.6-1.7-.7 0-1.4.2-1.9.5l-.3-.9c.6-.4 1.5-.6 2.4-.6 2.2 0 2.8 1.5 2.8 3v2.7c0 .6 0 1.2.1 1.7h-1.4zm-.2-3.7c-1.4 0-3.1.2-3.1 1.6 0 .9.6 1.3 1.2 1.3.9 0 1.5-.6 1.8-1.2 0-.1.1-.3.1-.4v-1.3h0z"/><path id="y" d="M265.8 215.1h0c-.4.7-1.2 1.3-2.4 1.3-1.7 0-3.1-1.5-3.1-3.7 0-2.7 1.8-3.9 3.3-3.9 1.1 0 1.9.6 2.2 1.3h0V209h1.2v10.2h-1.3l.1-4.1h0zm0-3.2c0-.2 0-.4-.1-.6-.2-.8-.9-1.5-1.9-1.5-1.4 0-2.2 1.2-2.2 2.8 0 1.4.7 2.7 2.1 2.7.9 0 1.6-.5 1.9-1.4.1-.2.1-.4.1-.6v-1.4h.1z"/><path id="z" d="M343.1 210.9c0-.8 0-1.4-.1-2h1.2l.1 1.2c.4-.7 1.1-1.3 2.3-1.3 1 0 1.7.6 2.1 1.5h0a2.36 2.36 0 0 1 .8-.9c.4-.3.9-.5 1.6-.5 1 0 2.4.6 2.4 3.2v4.3h-1.3v-4.1c0-1.4-.5-2.2-1.6-2.2-.8 0-1.3.6-1.6 1.2-.1.2-.1.4-.1.7v4.5h-1.3v-4.3c0-1.2-.5-2-1.5-2-.8 0-1.4.7-1.6 1.3-.1.2-.1.4-.1.6v4.4h-1.3v-5.6h0z"/><path id="AA" d="M419.3 214.8c.4.3 1.1.5 1.7.5 1 0 1.4-.5 1.4-1.1s-.4-1-1.3-1.3c-1.3-.5-1.9-1.2-1.9-2.1 0-1.2.9-2.1 2.5-2.1.7 0 1.4.2 1.8.5l-.3 1c-.3-.2-.8-.4-1.5-.4-.8 0-1.2.5-1.2 1 0 .6.4.9 1.4 1.2 1.3.5 1.9 1.1 1.9 2.2 0 1.3-1 2.2-2.7 2.2-.8 0-1.5-.2-2-.5l.2-1.1h0z"/><path id="AB" d="M447.4 214.2c0 .8 0 1.4.1 2h-1.2l-.1-1.2c-.3.6-1.1 1.3-2.4 1.3-1.1 0-2.5-.6-2.5-3.2v-4.2h1.3v4c0 1.4.4 2.3 1.6 2.3.9 0 1.5-.6 1.7-1.2.1-.2.1-.4.1-.7v-4.5h1.3v5.4h.1z"/><path id="AC" d="M461.4 215.4c0-.6.4-.9.9-.9s.9.4.9.9-.3.9-.9.9c-.5 0-.9-.4-.9-.9z"/><path id="AD" d="M713 205.5v8.8c0 .6 0 1.4.1 1.9h-1.2l-.1-1.3c-.4.8-1.3 1.4-2.5 1.4-1.8 0-3.1-1.5-3.1-3.7 0-2.4 1.5-3.9 3.3-3.9 1.1 0 1.9.5 2.2 1.1h0v-4.3h1.3 0zm-1.4 6.4c0-.2 0-.4-.1-.6-.2-.8-.9-1.5-1.9-1.5-1.4 0-2.2 1.2-2.2 2.8 0 1.5.7 2.7 2.1 2.7.9 0 1.7-.6 1.9-1.6 0-.2.1-.4.1-.6l.1-1.2h0z"/><path id="AE" d="M79.8 231.9c0-.8 0-1.4-.1-2h1.2l.1 1.2c.4-.7 1.2-1.4 2.4-1.4 1 0 2.6.6 2.6 3.1v4.3h-1.3V233c0-1.2-.4-2.1-1.7-2.1-.9 0-1.5.6-1.8 1.4-.1.2-.1.4-.1.6v4.4h-1.3c0 0 0-5.4 0-5.4z"/><path id="AF" d="M106.8,226.5h1.3v10.6h-1.3V226.5z"/><path id="AG" d="M162.7 233.8c0 1.8 1.2 2.5 2.5 2.5.9 0 1.5-.2 2-.4l.2.9c-.5.2-1.3.5-2.4.5-2.2 0-3.6-1.5-3.6-3.7s1.3-3.9 3.4-3.9c2.4 0 3 2.1 3 3.4v.6l-5.1.1h0zm3.8-1c0-.8-.3-2.1-1.8-2.1-1.3 0-1.9 1.2-2 2.1h3.8z"/><path id="AH" d="M462.2 237.2v-6.3h-1v-1h1v-.3c0-1 .2-2 .8-2.5.5-.5 1.2-.7 1.8-.7.5 0 .9.1 1.1.2l-.2 1c-.2-.1-.5-.2-.8-.2-1.1 0-1.4 1-1.4 2.1v.4h1.8v1h-1.8v6.3h-1.3z"/><path id="AI" d="M114.2 252.9c0-.8 0-1.4-.1-2h1.2l.1 1.2c.4-.7 1.2-1.4 2.4-1.4 1 0 2.6.6 2.6 3.1v4.3h-1.3V254c0-1.2-.4-2.1-1.7-2.1-.9 0-1.5.6-1.8 1.4-.1.2-.1.4-.1.6v4.4h-1.3c0 0 0-5.4 0-5.4z"/><path id="AJ" d="M302.1,247.5h1.3v10.6h-1.3V247.5z"/><path id="AK" d="M459.9 257.4l3.3-4.3.9-1.1h-3.9v-1.1h5.5v.8l-3.2 4.2-.9 1.1h4.2v1h-5.9v-.6h0z"/><path id="AL" d="M95.7 319.9v1.2h-6.2v-1.2h2.4v-8.2l-2 1.7c-.1.1-.1.1-.2.1h-.2c-.1 0-.1 0-.2-.1-.1 0-.1-.1-.1-.1l-.5-.7 3.4-3h1.3v10.3h2.3 0z"/><path id="AM" d="M199.6 63.1c.1.9.3 1.5.7 1.9s1 .6 1.6.6c.3 0 .6 0 .9-.1s.5-.2.7-.3.4-.2.5-.3.3-.1.5-.1.3.1.5.2l.7.9c-.3.3-.6.6-.9.8s-.6.4-1 .5-.7.2-1 .2-.7.1-1 .1c-.6 0-1.3-.1-1.8-.3-.6-.2-1.1-.5-1.5-.9s-.7-.9-1-1.6c-.2-.6-.4-1.3-.4-2.2 0-.6.1-1.2.3-1.8s.5-1 .9-1.5c.4-.4.9-.7 1.4-1 .6-.2 1.2-.4 1.9-.4.6 0 1.1.1 1.6.3s.9.5 1.3.8c.4.4.6.8.8 1.3s.3 1.1.3 1.8v.5c0 .1 0 .2-.1.3 0 .1-.1.1-.2.1h-.3-5.4zm3.9-1.4c0-.3 0-.5-.1-.7l-.3-.6c-.2-.2-.3-.3-.6-.4-.2-.1-.5-.2-.8-.2-.6 0-1.1.2-1.4.5a2.65 2.65 0 0 0-.7 1.4h3.9z"/><path id="AN" d="M81.6 290.7c-.1.1-.1.2-.2.2s-.2.1-.3.1-.2 0-.3-.1-.2-.1-.4-.2-.3-.2-.5-.2c-.2-.1-.5-.1-.8-.1-.4 0-.7.1-1 .2s-.5.3-.7.6-.3.6-.4 1-.1.8-.1 1.3.1.9.2 1.3.3.7.5 1 .4.5.7.6.6.2 1 .2.6 0 .9-.1.4-.2.6-.3a1.38 1.38 0 0 0 .4-.3c.1-.1.2-.1.4-.1s.3.1.4.2l.6.8c-.2.3-.5.5-.8.7s-.6.4-.9.5-.6.2-1 .2c-.3 0-.7.1-1 .1-.6 0-1.1-.1-1.6-.3s-.9-.5-1.3-.9-.7-.9-.9-1.5-.3-1.3-.3-2 .1-1.3.3-1.9.5-1.1.9-1.5.8-.8 1.4-1 1.2-.4 1.9-.4 1.3.1 1.8.3 1 .5 1.4 1l-.9.6z"/></defs><clipPath id="AO"><use xlink:href="#A"/></clipPath><circle cx="108.2" cy="100.2" r="49.8" clip-path="url(#AO)" fill="#ddd"/><defs><circle id="AP" cx="108.2" cy="99.2" r="49.8"/></defs><clipPath id="AQ"><use xlink:href="#AP"/></clipPath><g clip-path="url(#AQ)"><g fill-rule="evenodd"><g fill="#f5be92"><ellipse transform="matrix(.9499 -.3126 .3126 .9499 -23.994 32.5418)" cx="89.5" cy="91.1" rx="2.7" ry="4.4"/><ellipse transform="matrix(.3129 -.9498 .9498 .3129 .833 183.2458)" cx="127.1" cy="91" rx="4.4" ry="2.7"/></g><path d="M121.4 68.1c3.9.6 6.1 3.2 6.9 6.8 2.5 9.3-2.6 29.6-19.9 29.8-8.9.1-15.2-2.2-17.5-9.3s-3.3-18.8 1.8-25.2c6.3-8.3 19.7-8.3 28.7-2.1z" fill="#92653d"/><path d="M101.1 115.5c-16.1 7-21 10.9-22.8 12.5-2.9 2.6-4.6 12.6-6.4 20.9h73c-1.8-8.2-3.2-18.3-6.2-20.9-1.9-1.6-6.5-5.4-22.7-12.4 0 0-14.9-.1-14.9-.1z" fill="#4c9dd2" stroke="#4c9dd2" stroke-width="1.084" stroke-linejoin="round" stroke-miterlimit="10"/><g fill="#f5be92"><path d="M100.5 101.5v19.1c4.3 5.1 11.5 5.3 15.7 0v-19c0-9.7-15.7-9.7-15.7-.1z"/><path d="M108.3 69.5c-26.3 0-16.8 34.2-15.1 36.8 1.9 2.8 10.9 7.7 15.1 7.7s13.2-5.5 15.1-8.3c1.8-2.7 11.2-36.2-15.1-36.2z"/></g><path d="M95.6 77.7c4.6 2.8 8.2-1.4 12.3.4 4.2 1.8 16.1-3 18.6 15.9 4-13.7-2.7-25.2-17.8-25.8-16-.6-22.6 11.9-18.1 25.5-.3-7.5 1.5-12.3 5-16z" fill="#92653d"/><g stroke-miterlimit="10" fill="#fff" stroke="#fff" stroke-width="2"><path d="M99.8 115.4l-5.5 2.9 8.1 11.1 6.2-5.7-8.8-8.3z"/><path d="M117 115.4l5.5 2.9-8.1 11.1-6.2-5.7 8.8-8.3z"/></g></g><path d="M95.1 76.5c.4 2.3 3.7 2.6 5.5 2.8 3.6.4 7.9-1.1 10.8-3 .2-.1.1-.5-.1-.5-3-.1-5.8 1.9-9 2.2-2.3.1-5.3-.1-7.2-1.5.1-.2 0-.1 0 0z" fill="#92653d"/><path d="M97.6 93.6s.9 1.4 3.5 1.4 3-1.3 3-1.6c0 0-1.1-1.6-3-1.6-2.1-.2-3.5 1.8-3.5 1.8z" fill="#fff"/><radialGradient id="AR" cx="101.023" cy="461.229" r="1.496" gradientTransform="matrix(1 0 0 1 0 -368)" gradientUnits="userSpaceOnUse"><stop offset="0" stop-color="#624a2e"/><stop offset=".036" stop-color="#6d5633"/><stop offset=".122" stop-color="#816b3d"/><stop offset=".223" stop-color="#907c45"/><stop offset=".348" stop-color="#9b884a"/><stop offset=".523" stop-color="#a18f4d"/><stop offset="1" stop-color="#a3914e"/></radialGradient><circle cx="101" cy="93.3" r="1.5" fill="url(#AR)"/><path d="M101 91.9c.8 0 1.4.6 1.4 1.4s-.6 1.4-1.4 1.4-1.4-.6-1.4-1.4c.1-.8.7-1.4 1.4-1.4m0-.3c-.9 0-1.6.8-1.6 1.6 0 .9.8 1.6 1.6 1.6.9 0 1.6-.8 1.6-1.6s-.7-1.6-1.6-1.6h0z" fill="#624a2e"/><circle cx="101" cy="93.3" r=".6"/><path d="M119 93.6s-.9 1.4-3.5 1.4-3-1.3-3-1.6c0 0 1.1-1.6 3-1.6 1.9-.1 3.5 1.8 3.5 1.8z" fill="#fff"/><radialGradient id="AS" cx="-1051.183" cy="461.229" r="1.496" gradientTransform="matrix(-1 0 0 1 -935.5322 -368)" gradientUnits="userSpaceOnUse"><stop offset="0" stop-color="#624a2e"/><stop offset=".036" stop-color="#6d5633"/><stop offset=".122" stop-color="#816b3d"/><stop offset=".223" stop-color="#907c45"/><stop offset=".348" stop-color="#9b884a"/><stop offset=".523" stop-color="#a18f4d"/><stop offset="1" stop-color="#a3914e"/></radialGradient><circle cx="115.7" cy="93.3" r="1.5" fill="url(#AS)"/><path d="M115.7 91.9c.8 0 1.4.6 1.4 1.4s-.6 1.4-1.4 1.4-1.4-.6-1.4-1.4.6-1.4 1.4-1.4m0-.3c-.9 0-1.6.8-1.6 1.6 0 .9.8 1.6 1.6 1.6.9 0 1.6-.8 1.6-1.6-.1-.8-.8-1.6-1.6-1.6h0z" fill="#624a2e"/><circle cx="115.7" cy="93.3" r=".6"/><path d="M105.4 100.5c-.4.2-.5.6-.1 1.1.8.5 1.6.5 2.6.5s1.9-.1 2.7-.5c.4-.2.6-1.1.1-1.3-.1 0-.2 0-.2.1s.1.4.1.5c0 .2-.4.4-.5.4-.5.2-1.2.2-1.8.2s-3.4.1-2.9-1zm-2.1 6.7c2.8 2.1 7.2 1.5 9.9-.4.1 0 0-.1-.1-.1-3.3 1.5-6.3 1.8-9.8.5 0-.2 0-.1 0 0h0z" fill="#e48f67"/><path d="M94.7 87.5c3.2-.5 6.4-.9 9.3.8.2.1.5-.2.2-.4-2.4-1.7-7-2.3-9.5-.4 0-.1 0 0 0 0h0zm27.1-.1c-2.6-1.8-7.1-1.2-9.6.4-.2.1 0 .6.2.4 2.9-1.6 6.2-1.2 9.4-.8 0 .1 0 0 0 0h0z" fill="#92653d"/><path d="M115.5 99.6h.4c4.1-.4 5-2.2 5.5-4.4.5-2.6.5-3.5 1.2-3.6.5-.1.6-.8.6-1.4s0-.8-.8-1.1c-.6-.2-4.1-.5-6.7-.4v.6c2.1-.1 4 .1 4.6.5 1.3.9.9 4.9-.1 6.9-.8 1.4-2.8 2.1-4.6 2.2 0 0-.1.7-.1.7zm-7.5-9.4c-.9 0-4.6-1.1-7.1-1.3h-.5v.6c2.2.1 4.3.5 5 1.6 1.3 1.8-1.1 6.4-2.9 7.5-.6.2-1.4.5-2.3.5v.6c3.5 0 4.8-2.6 5.3-3.3.8-1.5.6-3.7 2.7-3.9 2.1 0 1.8 2.2 2.5 3.7.4.9 1.5 3.5 5.1 3.3v-.6c-.9 0-1.8-.1-2.5-.5-1.9-1.1-3.9-5.5-2.6-7.5.8-1.2 2.9-1.6 5.1-1.6v-.6h-.5c-2.3.3-5.2 1.4-7.3 1.5zm-7.7-1.3c-2.6-.1-6.1.1-6.7.4-.8.2-.9.4-.9 1.1 0 .6 0 1.3.5 1.4.6.2.6 1.2 1.1 3.6.2 2.3 1.2 4.1 5.3 4.4h.6v-.6c-1.8 0-4-.6-4.6-2.2-1.1-2.1-1.2-6.1.2-6.9.6-.4 2.6-.6 4.4-.5 0 0 .1-.7.1-.7z" fill-rule="evenodd" fill="#0a6f90"/><path d="M125 84c-.8-.1-1.4-.5-1.9-1.1-.3-.3-.5-.7-.6-1.1s0-.6-.4-1.1c-.1-.1-.5-.2-.6-.1h0v-.4c.1-.5-.5-.9-.9-.5-.2.1-.4.4-.5.6 0-.4-.4-.9-.9-.8s-1.3 0-1.8-.1v-.2c-.2-.8-.8-1.2-1.2-1.8-.2-.6-1.4-.5-1.5.2v.1c-.1-.2-.2-.5-.4-.6-.2-.2-.6-.2-.7 0l-.1.1c-.1.2-.1.6-.1.9-.2.1-.5.2-.8.2 0 0-.1 0-.1-.1-1.1-.4-1.9-.8-2.8-1.4-.2-.2-.6-.2-.9 0-.4-.2-1.1-.2-1.4.2-1.4 2.2-2.5.1-3.6-.4-.5-.2-1.1 0-1.1.6v.2c-.1-.1-.1-.2-.2-.4-.2-.5-1.1-.5-1.4-.1-1.1.8-2.2 1.2-3.5 1.3h-.5c.2-.1.4-.4.2-.6 0-.1 0 0 0 0 0-.2-.1-.5-.5-.6-.5-.1-1.1-.4-1.5-.5-.4 0-.6.4-.4.6l.1.1v.1c-.4-.2-.8-.6-1.2-1.1-.2-.1-.5-.1-.6.1-1.1 4.1 5.3 3.5 8.1 2.2 2.1 2.5 6.4 2.9 7.7-.1.8 1.1 2.5 1.2 3.9.9.4 0 .8-.1 1.1-.4.4.6.8 1.1 1.3 1.4a4.6 4.6 0 0 0 4.4.5c.2-.1.4-.2.4-.4-.1.9.2 1.9.8 2.6.9 1.2 2.5 2.1 4 1.9.7.4 1-.8.1-.9h0zM93.6 71.6h0c.2-.1.4-.4.4-.5.4.1.9-.1.9-.6-.1-1.2.1-1.9 1.3-2.2.9-.2 2.1-.1 2.9 0 .6 0 1.1-.9.5-1.3-.4-.4-.8-.6-1.3-.8.2-.1.4-.2.6-.4.1 0 .2-.1.5-.1v1.1c0 .5.6.2.6-.1 0-.4.1-.6.2-.9.4.1.6.2 1.1.1.2-.1.4-.2.4-.5.4.1.6.2 1.1.5.4.2.5.6 1.1.8.4.1.6-.1.6-.5 0-.5-.4-1.1-.9-1.3.5-.8 1.4-.9 2.3-.6 0 .2.1.5.5.6s.6.1 1.1.2h.1c0 .4.1.9.2 1.3s.6.2.6-.1c0-1.6 1.2-1.9 2.5-1.6.6.1 1.3.5 1.8.9.4.4.8.9 1.3 1.2.2.1.6 0 .6-.2.5-1.9-2.7-3.2-4.1-3.3-.8-.1-1.6.1-2.3.6-.1 0-.1.1-.2.2 0 0 0-.1-.1-.1-1.4-1.4-4.8-1.4-5.3.6-.5-.1-.9-.1-1.3-.1-.2 0-.4 0-.6.1-.8-.1-1.6 0-2.3.2-.5.2-1.1.6-1.4 1.2-.1.1-.1.2-.1.4-.9 0-1.8.1-2.6.4-1.8.6-1.9 2.3-1.8 3.9-1.8.4-3.5 3-2.7 4.4.1.5.2 1.1.6 1.4-.8.1-1.4.6-1.6 1.3-1.2 1.2-1.2 3.5 0 4.8.1.1.1.2.2.4.1.1.2.1.2.1.6.1 1.4-.5 1.1-1.2-.4-.6-.5-1.4-.4-2.2 0-.2.1-.5.2-.6h.2c.4 0 .6-.4.8-.6.1 0 .2 0 .2-.1.8-.1.6-1.1.1-1.4.2-.2.4-.8 0-1.2-.8-1.1.1-2.6 1.2-3.2.5-.5.9-.5 1-1h0z" fill="#92653d"/></g><g fill="#ffae04"><use xlink:href="#B"/><path d="M208.8 78.9l2.3 5.5 6 .5c.4 0 .6.6.3.8l-4.5 3.9 1.4 5.8c.1.4-.4.7-.7.5l-5.1-3.1-5.1 3.1c-.4.2-.8-.1-.7-.5l1.4-5.8-4.5-3.9c-.3-.3-.2-.7.3-.8l6-.5 2.3-5.5c0-.4.4-.4.6 0z"/><use xlink:href="#C"/><use xlink:href="#C" x="19.7"/><use xlink:href="#B" x="78.7"/></g><path d="M182.5 142.1v10.1h-1.3v-10.1h1.3zm3.6 12.3c.6 0 1.1-.2 1.4-.6.4-.4.5-1 .5-2.7V145h1.3v6.6c0 1.4-.2 2.3-.9 3-.6.6-1.5.8-2.2.8l-.1-1zm3.4-11.4c0 .4-.3.8-.8.8s-.8-.4-.8-.8c0-.5.3-.8.8-.8.5-.1.8.3.8.8z"/><use xlink:href="#D"/><use xlink:href="#E"/><path d="M207.3 142.9v2.1h1.9v1h-1.9v3.9c0 .9.3 1.4 1 1.4.3 0 .6 0 .8-.1l.1 1c-.4.1-.8.2-1.2.2-.6 0-1.1-.2-1.4-.6-.4-.4-.5-1-.5-1.9v-4H205v-1h1.1v-1.7l1.2-.3h0z"/><use xlink:href="#F"/><use xlink:href="#G"/><use xlink:href="#H"/><use xlink:href="#I"/><use xlink:href="#J"/><path d="M248.3 141.6h1.3v4.5a1.96 1.96 0 0 1 .9-.9c.4-.2.9-.4 1.4-.4 1 0 2.5.6 2.5 3.1v4.3h-1.3V148c0-1.2-.4-2.2-1.7-2.2-.9 0-1.5.6-1.8 1.3-.1.2-.1.4-.1.6v4.4h-1.3v-10.5h.1z"/><use xlink:href="#K"/><use xlink:href="#E" x="60.3"/><use xlink:href="#L"/><use xlink:href="#F" x="63.8"/><use xlink:href="#D" x="89.8"/><path d="M295.8 145c0 .5-.1 1.1-.1 2v4.2c0 1.7-.3 2.7-1 3.3-.7.7-1.7.9-2.6.9s-1.8-.2-2.4-.6l.3-1c.5.3 1.2.6 2.1.6 1.4 0 2.3-.7 2.3-2.5v-.9c-.4.7-1.2 1.2-2.3 1.2-1.8 0-3.1-1.5-3.1-3.5 0-2.5 1.6-3.9 3.3-3.9 1.3 0 1.9.7 2.3 1.3h0l.1-1.1h1.1 0zm-1.4 2.9c0-.2 0-.4-.1-.6a1.83 1.83 0 0 0-1.8-1.4c-1.3 0-2.2 1.1-2.2 2.7 0 1.4.7 2.6 2.1 2.6.8 0 1.5-.5 1.8-1.3.1-.2.1-.5.1-.7v-1.3h.1z"/><use xlink:href="#M"/><use xlink:href="#N"/><use xlink:href="#O"/><path d="M316,142.1h1.3v9h4.3v1.1H316V142.1z"/><use xlink:href="#G" x="105.4"/><use xlink:href="#P"/><use xlink:href="#Q"/><use xlink:href="#R"/><path d="M360.5 143c0 .5-.3.8-.8.8s-.8-.4-.8-.8c0-.5.3-.8.8-.8.5-.1.8.3.8.8zm-1.5 9.3V145h1.3v7.3H359z"/><use xlink:href="#L" x="93.3"/><use xlink:href="#E" x="171.3"/><path d="M383.1 150.3c0 .8 0 1.4.1 2H382l-.1-1.2c-.3.6-1.1 1.4-2.4 1.4-1.1 0-2.5-.6-2.5-3.2V145h1.3v4c0 1.4.4 2.3 1.6 2.3.9 0 1.5-.6 1.7-1.2.1-.2.1-.4.1-.7V145h1.3v5.3h.1z"/><use xlink:href="#R" x="42"/><use xlink:href="#S"/><use xlink:href="#G" x="192"/><use xlink:href="#F" x="203.8"/><use xlink:href="#G" x="203.8"/><use xlink:href="#T"/><use xlink:href="#U"/><use xlink:href="#K" x="186.9"/><use xlink:href="#J" x="203.7"/><use xlink:href="#V"/><use xlink:href="#R" x="119"/><use xlink:href="#I" x="242.3"/><path d="M484 142.9v2.1h1.9v1H484v3.9c0 .9.3 1.4 1 1.4.3 0 .6 0 .8-.1l.1 1c-.4.1-.8.2-1.2.2-.6 0-1.1-.2-1.4-.6-.4-.4-.5-1-.5-1.9v-4h-1.1v-1h1.1v-1.7l1.2-.3h0z"/><use xlink:href="#W"/><use xlink:href="#X"/><use xlink:href="#G" x="282.8"/><use xlink:href="#N" x="207"/><use xlink:href="#U" x="79.3"/><use xlink:href="#I" x="290.1"/><use xlink:href="#J" x="286.9"/><use xlink:href="#I" x="302.5"/><use xlink:href="#J" x="299.3"/><use xlink:href="#D" x="356"/><use xlink:href="#T" x="126.4"/><use xlink:href="#U" x="126.4"/><use xlink:href="#V" x="114.8"/><path d="M583.4 141.6v8.8c0 .6 0 1.4.1 1.9h-1.2l-.1-1.3c-.4.8-1.3 1.4-2.5 1.4-1.8 0-3.1-1.5-3.1-3.7 0-2.4 1.5-3.9 3.3-3.9 1.1 0 1.9.5 2.2 1.1h0v-4.3h1.3zm-1.4 6.3c0-.2 0-.4-.1-.6-.2-.8-.9-1.5-1.9-1.5-1.4 0-2.2 1.2-2.2 2.8 0 1.5.7 2.7 2.1 2.7.9 0 1.7-.6 1.9-1.6 0-.2.1-.4.1-.6v-1.2h.1z"/><use xlink:href="#M" x="287.7"/><use xlink:href="#L" x="319.9"/><use xlink:href="#U" x="160.1"/><use xlink:href="#X" x="110"/><use xlink:href="#K" x="353.7"/><use xlink:href="#N" x="312.4"/><path d="M628.3 145c0 .5-.1 1.1-.1 2v4.2c0 1.7-.3 2.7-1 3.3-.7.7-1.7.9-2.6.9s-1.8-.2-2.4-.6l.3-1c.5.3 1.2.6 2.1.6 1.3 0 2.3-.7 2.3-2.5v-.9c-.4.7-1.2 1.2-2.3 1.2-1.8 0-3.1-1.5-3.1-3.5 0-2.5 1.6-3.9 3.3-3.9 1.3 0 2 .7 2.3 1.3h0l.1-1.1h1.1 0zm-1.3 2.9c0-.2 0-.4-.1-.6a1.83 1.83 0 0 0-1.8-1.4c-1.3 0-2.2 1.1-2.2 2.7 0 1.4.7 2.6 2.1 2.6.8 0 1.5-.5 1.8-1.3.1-.2.1-.5.1-.7v-1.3h.1z"/><use xlink:href="#I" x="401.1"/><use xlink:href="#F" x="427.3"/><use xlink:href="#M" x="346.9"/><use xlink:href="#J" x="404.9"/><use xlink:href="#T" x="223.8"/><use xlink:href="#W" x="170"/><use xlink:href="#U" x="226.1"/><use xlink:href="#Q" x="333.7"/><path d="M683.3 141.6v8.8c0 .6 0 1.4.1 1.9h-1.2l-.1-1.3c-.4.8-1.3 1.4-2.5 1.4-1.8 0-3.1-1.5-3.1-3.7 0-2.4 1.5-3.9 3.3-3.9 1.1 0 1.9.5 2.2 1.1h0v-4.3h1.3 0zm-1.3 6.3c0-.2 0-.4-.1-.6-.2-.8-.9-1.5-1.9-1.5-1.4 0-2.2 1.2-2.2 2.8 0 1.5.7 2.7 2.1 2.7.9 0 1.7-.6 1.9-1.6 0-.2.1-.4.1-.6l.1-1.2h0z"/><use xlink:href="#S" x="287.7"/><use xlink:href="#M" x="399.3"/><use xlink:href="#V" x="245.6"/><path d="M707.9 147c0-.8 0-1.4-.1-2h1.2l.1 1.2c.4-.7 1.1-1.3 2.3-1.3 1 0 1.7.6 2.1 1.5h0a2.36 2.36 0 0 1 .8-.9c.4-.3.9-.5 1.6-.5 1 0 2.4.6 2.4 3.1v4.3H717v-4.1c0-1.4-.5-2.2-1.6-2.2-.8 0-1.3.6-1.6 1.2-.1.2-.1.4-.1.7v4.5h-1.3v-4.3c0-1.2-.5-2-1.5-2-.8 0-1.4.7-1.6 1.3-.1.2-.1.4-.1.6v4.4h-1.3V147h0zM59.8 164.1h1.3v9h4.3v1.1h-5.6c0 0 0-10.1 0-10.1z"/><use xlink:href="#Y"/><path d="M74.8 169.2l-.1-2.3h1.2v1.4h.1c.3-1 1.1-1.6 2-1.6h.4v1.2H78c-.9 0-1.6.7-1.8 1.7 0 .2-.1.4-.1.6v3.9h-1.3v-4.9h0z"/><use xlink:href="#I" x="-153" y="21.9"/><use xlink:href="#Z"/><use xlink:href="#a"/><use xlink:href="#L" x="-162.9" y="21.9"/><use xlink:href="#E" x="-85" y="21.9"/><use xlink:href="#b"/><path d="M129 168.9c0-.8 0-1.4-.1-2h1.2l.1 1.2c.4-.7 1.1-1.3 2.3-1.3 1 0 1.7.6 2.1 1.5h0a2.36 2.36 0 0 1 .8-.9c.4-.3.9-.5 1.6-.5 1 0 2.4.6 2.4 3.1v4.3h-1.3v-4.1c0-1.4-.5-2.2-1.6-2.2-.8 0-1.3.6-1.6 1.2-.1.2-.1.4-.1.7v4.5h-1.3v-4.3c0-1.2-.5-2-1.5-2-.8 0-1.4.7-1.6 1.3-.1.2-.1.4-.1.6v4.4H129v-5.5z"/><use xlink:href="#c"/><use xlink:href="#Y" x="86.6"/><path d="M161.4,163.5h1.3v10.6h-1.3V163.5z"/><use xlink:href="#d"/><use xlink:href="#P" x="-157.9" y="21.9"/><use xlink:href="#E" x="-18.5" y="21.9"/><use xlink:href="#e"/><path d="M192.3 164.8v2.1h1.9v1h-1.9v3.9c0 .9.3 1.4 1 1.4.3 0 .6 0 .8-.1l.1 1c-.4.1-.8.2-1.2.2-.6 0-1.1-.2-1.4-.6-.4-.4-.5-1-.5-1.9v-4H190v-1h1.1v-1.7l1.2-.3h0z"/><use xlink:href="#f"/><use xlink:href="#Z" x="119"/><use xlink:href="#I" x="-14" y="21.9"/><use xlink:href="#J" x="-17.2" y="21.9"/><use xlink:href="#W" x="-256.2" y="21.9"/><use xlink:href="#X" x="-256.2" y="21.9"/><use xlink:href="#d" x="79"/><path d="M252.2 168.9c0-.8 0-1.4-.1-2h1.2l.1 1.2c.4-.7 1.2-1.4 2.4-1.4 1 0 2.6.6 2.6 3.1v4.3H257V170c0-1.2-.4-2.1-1.7-2.1-.9 0-1.5.6-1.8 1.3-.1.2-.1.4-.1.6v4.4h-1.3v-5.3h.1z"/><use xlink:href="#E" x="60.7" y="21.9"/><use xlink:href="#I" x="33.9" y="21.9"/><use xlink:href="#X" x="-219.6" y="21.9"/><use xlink:href="#J" x="37.6" y="21.9"/><use xlink:href="#I" x="53.2" y="21.9"/><use xlink:href="#J" x="50" y="21.9"/><use xlink:href="#b" x="177.5"/><use xlink:href="#I" x="73.9" y="21.9"/><path d="M314 169.2l-.1-2.3h1.2v1.4h.1c.3-1 1.1-1.6 2-1.6h.4v1.2h-.4c-.9 0-1.6.7-1.8 1.7 0 .2-.1.4-.1.6v3.9H314v-4.9h0z"/><use xlink:href="#f" x="123.2"/><use xlink:href="#c" x="184.6"/><use xlink:href="#g"/><use xlink:href="#L" x="72.1" y="21.9"/><use xlink:href="#e" x="162.6"/><use xlink:href="#E" x="153.6" y="21.9"/><use xlink:href="#X" x="-134.2" y="21.9"/><path d="M367.5 164.9c0 .5-.3.8-.8.8s-.8-.4-.8-.8c0-.5.3-.8.8-.8s.8.3.8.8zm-1.5 9.3v-7.3h1.3v7.3H366z"/><use xlink:href="#h"/><use xlink:href="#i"/><use xlink:href="#I" x="156.8" y="21.9"/><path d="M396.9,163.5h1.3v10.6h-1.3V163.5z"/><use xlink:href="#a" x="297.7"/><use xlink:href="#J" x="160.7" y="21.9"/><use xlink:href="#W" x="-78.4" y="21.9"/><use xlink:href="#U" x="-22.3" y="21.9"/><use xlink:href="#I" x="188.5" y="21.9"/><use xlink:href="#c" x="283.9"/><use xlink:href="#j"/><use xlink:href="#e" x="261.5"/><use xlink:href="#k"/><path d="M459.5 168.9c0-.8 0-1.4-.1-2h1.2l.1 1.2c.4-.7 1.1-1.3 2.3-1.3 1 0 1.7.6 2.1 1.5h0a2.36 2.36 0 0 1 .8-.9c.4-.3.9-.5 1.6-.5 1 0 2.4.6 2.4 3.1v4.3h-1.3v-4.1c0-1.4-.5-2.2-1.6-2.2-.8 0-1.3.6-1.6 1.2-.1.2-.1.4-.1.7v4.5H464v-4.3c0-1.2-.5-2-1.5-2-.8 0-1.4.7-1.6 1.3-.1.2-.1.4-.1.6v4.4h-1.3v-5.5zm15.6 0c0-.8 0-1.4-.1-2h1.2l.1 1.2c.4-.7 1.2-1.4 2.4-1.4 1 0 2.6.6 2.6 3.1v4.3H480V170c0-1.2-.4-2.1-1.7-2.1-.9 0-1.5.6-1.8 1.3-.1.2-.1.4-.1.6v4.4h-1.3v-5.3z"/><use xlink:href="#Y" x="416.9"/><use xlink:href="#h" x="122.2"/><path d="M506.1 172.2c0 .8 0 1.4.1 2H505l-.1-1.2c-.3.6-1.1 1.4-2.4 1.4-1.1 0-2.5-.6-2.5-3.2V167h1.3v4c0 1.4.4 2.3 1.6 2.3.9 0 1.5-.6 1.7-1.2.1-.2.1-.4.1-.7v-4.5h1.3v5.3h.1z"/><use xlink:href="#Z" x="421.2"/><use xlink:href="#Z" x="433.7"/><path d="M533.6 166.9l1.6 4.3c.2.5.3 1 .5 1.5h0c.1-.5.3-1 .5-1.5l1.4-4.3h1.4l-2 5.2c-.9 2.5-1.6 3.8-2.5 4.5-.6.6-1.3.8-1.6.9l-.3-1.1c.3-.1.8-.3 1.2-.6s.8-.8 1.1-1.5c.1-.1.1-.2.1-.3s0-.2-.1-.3l-2.7-6.7 1.4-.1h0z"/><use xlink:href="#h" x="173.9"/><use xlink:href="#g" x="213.9"/><path d="M555.1 174.2c0-.5.1-1.2.1-1.9v-8.8h1.3v4.6c.5-.8 1.3-1.3 2.5-1.3 1.8 0 3.1 1.5 3.1 3.7 0 2.6-1.6 3.9-3.3 3.9-1 0-1.9-.4-2.4-1.4h0l-.1 1.2h-1.2 0zm1.4-2.9a.9.9 0 0 0 .1.5c.3.9 1 1.5 2 1.5 1.4 0 2.2-1.1 2.2-2.8 0-1.5-.8-2.7-2.2-2.7-.9 0-1.7.6-2 1.6 0 .1-.1.3-.1.5v1.4zm7.2-7.8h1.3v4.5a1.96 1.96 0 0 1 .9-.9c.4-.2.9-.4 1.4-.4 1 0 2.5.6 2.5 3.1v4.3h-1.3V170c0-1.2-.4-2.2-1.7-2.2-.9 0-1.5.6-1.8 1.3-.1.2-.1.4-.1.6v4.4h-1.3l.1-10.6h0zm12.3 7.3c0 1.8 1.2 2.5 2.5 2.5.9 0 1.5-.2 2-.4l.2.9c-.5.2-1.3.4-2.4.4-2.2 0-3.6-1.5-3.6-3.7s1.3-3.9 3.4-3.9c2.4 0 3 2.1 3 3.4v.6H576v.2zm3.8-1c0-.8-.3-2.1-1.8-2.1-1.3 0-1.9 1.2-2 2.1h3.8z"/><use xlink:href="#b" x="462"/><path d="M592.5 164.9c0 .5-.3.8-.8.8s-.8-.4-.8-.8c0-.5.3-.8.8-.8s.8.3.8.8zm-1.5 9.3v-7.3h1.3v7.3H591z"/><use xlink:href="#U" x="157.1" y="21.9"/><path d="M600.5 168.9c0-.8 0-1.4-.1-2h1.2l.1 1.2c.4-.7 1.1-1.3 2.3-1.3 1 0 1.7.6 2.1 1.5h0a2.36 2.36 0 0 1 .8-.9c.4-.3.9-.5 1.6-.5 1 0 2.4.6 2.4 3.1v4.3h-1.3v-4.1c0-1.4-.5-2.2-1.6-2.2-.8 0-1.3.6-1.6 1.2-.1.2-.1.4-.1.7v4.5H605v-4.3c0-1.2-.5-2-1.5-2-.8 0-1.4.7-1.6 1.3-.1.2-.1.4-.1.6v4.4h-1.3v-5.5h0z"/><use xlink:href="#l"/><use xlink:href="#j" x="181"/><path d="M634.4 164.8v2.1h1.9v1h-1.9v3.9c0 .9.3 1.4 1 1.4.3 0 .6 0 .8-.1l.1 1c-.4.1-.8.2-1.2.2-.6 0-1.1-.2-1.4-.6-.4-.4-.5-1-.5-1.9v-4H632v-1h1.1v-1.7l1.3-.3h0z"/><use xlink:href="#e" x="450.6"/><use xlink:href="#h" x="271.8"/><use xlink:href="#X" x="156.1" y="21.9"/><use xlink:href="#a" x="553.6"/><path d="M666.2 163.5v8.8c0 .6 0 1.4.1 1.9H665l-.1-1.3c-.4.8-1.3 1.4-2.5 1.4-1.8 0-3.1-1.5-3.1-3.7 0-2.4 1.5-3.9 3.3-3.9 1.1 0 1.9.5 2.2 1.1h0v-4.3h1.4 0zm-1.4 6.4c0-.2 0-.4-.1-.6-.2-.8-.9-1.5-1.9-1.5-1.4 0-2.2 1.2-2.2 2.8 0 1.5.7 2.7 2.1 2.7.9 0 1.7-.6 1.9-1.6 0-.2.1-.4.1-.6v-1.2h.1z"/><use xlink:href="#b" x="547.6"/><use xlink:href="#h" x="307.1"/><path d="M686.5 164.8v2.1h1.9v1h-1.9v3.9c0 .9.3 1.4 1 1.4.3 0 .6 0 .8-.1l.1 1c-.4.1-.8.2-1.2.2-.6 0-1.1-.2-1.4-.6-.4-.4-.5-1-.5-1.9v-4H684v-1h1.1v-1.7l1.4-.3h0zm12.6 7.4c0 .8 0 1.4.1 2H698l-.1-1.2c-.3.6-1.1 1.4-2.4 1.4-1.1 0-2.5-.6-2.5-3.2V167h1.3v4c0 1.4.4 2.3 1.6 2.3.9 0 1.5-.6 1.7-1.2.1-.2.1-.4.1-.7v-4.5h1.3v5.3h.1z"/><use xlink:href="#J" x="458" y="21.9"/><path d="M59.7,184.5H61v10.6h-1.3V184.5z"/><use xlink:href="#f" x="-135.6" y="21"/><use xlink:href="#Y" x="3.9" y="21"/><use xlink:href="#P" x="-252.4" y="42.9"/><use xlink:href="#I" x="-149.1" y="42.9"/><use xlink:href="#I" x="-141.6" y="42.9"/><use xlink:href="#J" x="-144.8" y="42.9"/><use xlink:href="#c" x="-38.1" y="21"/><use xlink:href="#m"/><use xlink:href="#n"/><use xlink:href="#Y" x="60.3" y="21"/><use xlink:href="#P" x="-196" y="42.9"/><use xlink:href="#I" x="-92.7" y="42.9"/><use xlink:href="#Z" x="63.5" y="21"/><use xlink:href="#f" x="-35.8" y="21"/><use xlink:href="#i" x="-207.5" y="21"/><use xlink:href="#o"/><use xlink:href="#f" x="-12" y="21"/><use xlink:href="#k" x="-254.9" y="21"/><use xlink:href="#n" x="81.3"/><use xlink:href="#e" x="20.9" y="21"/><path d="M216.6 194.1h0c-.4.7-1.2 1.3-2.4 1.3-1.7 0-3.1-1.5-3.1-3.7 0-2.7 1.8-3.9 3.3-3.9 1.1 0 1.9.6 2.2 1.3h0V188h1.2v10.2h-1.3v-4.1h.1zm0-3.2c0-.2 0-.4-.1-.6-.2-.8-.9-1.5-1.9-1.5-1.4 0-2.2 1.2-2.2 2.8 0 1.4.7 2.7 2.1 2.7.9 0 1.6-.5 1.9-1.4.1-.2.1-.4.1-.6l.1-1.4h0zm9.5 2.3c0 .8 0 1.4.1 2H225l-.1-1.2c-.3.6-1.1 1.4-2.4 1.4-1.1 0-2.5-.6-2.5-3.2V188h1.3v4c0 1.4.4 2.3 1.6 2.3.9 0 1.5-.6 1.7-1.2.1-.2.1-.4.1-.7v-4.5h1.3l.1 5.3h0z"/><use xlink:href="#f" x="29.4" y="21"/><path d="M235.5 189.9c0-.8 0-1.4-.1-2h1.2l.1 1.2c.4-.7 1.1-1.3 2.3-1.3 1 0 1.7.6 2.1 1.5h0a2.36 2.36 0 0 1 .8-.9c.4-.3.9-.5 1.6-.5 1 0 2.4.6 2.4 3.1v4.3h-1.3v-4.1c0-1.4-.5-2.2-1.6-2.2-.8 0-1.3.6-1.6 1.2-.1.2-.1.4-.1.7v4.5H240v-4.3c0-1.2-.5-2-1.5-2-.8 0-1.4.7-1.6 1.3-.1.2-.1.4-.1.6v4.4h-1.3v-5.5h0zm16.5 1.9c0 1.8 1.2 2.5 2.5 2.5.9 0 1.5-.2 2-.4l.2.9c-.5.2-1.3.4-2.4.4-2.2 0-3.6-1.5-3.6-3.7s1.3-3.9 3.4-3.9c2.4 0 3 2.1 3 3.4v.6H252v.2zm3.8-1c0-.8-.3-2.1-1.8-2.1-1.3 0-1.9 1.2-2 2.1h3.8z"/><use xlink:href="#P" x="-72.3" y="42.9"/><use xlink:href="#f" x="64.7" y="21"/><path d="M272.3 185.8v2.1h1.9v1h-1.9v3.9c0 .9.3 1.4 1 1.4.3 0 .6 0 .8-.1l.1 1c-.4.1-.8.2-1.2.2-.6 0-1.1-.2-1.4-.6-.4-.4-.5-1-.5-1.9v-4H270v-1h1.1v-1.7l1.2-.3h0z"/><use xlink:href="#H" x="53.4" y="42.9"/><use xlink:href="#d" x="121" y="21"/><use xlink:href="#n" x="170.9"/><use xlink:href="#p"/><use xlink:href="#J" x="62.7" y="42.9"/><path d="M311 190.3l-.1-2.4h1.2l.1 1.2c.5-.9 1.4-1.4 2.6-1.4 1.8 0 3.1 1.5 3.1 3.7 0 2.6-1.6 3.9-3.3 3.9-1 0-1.8-.4-2.2-1.1h0v3.9H311v-7.8h0zm1.3 1.9c0 .2 0 .4.1.5.2.9 1 1.5 2 1.5 1.4 0 2.2-1.1 2.2-2.8 0-1.5-.8-2.7-2.2-2.7-.9 0-1.7.6-2 1.6 0 .2-.1.4-.1.5v1.4z"/><use xlink:href="#f" x="120.6" y="21"/><path d="M328.3 185.8v2.1h1.9v1h-1.9v3.9c0 .9.3 1.4 1 1.4.3 0 .6 0 .8-.1l.1 1c-.4.1-.8.2-1.2.2-.6 0-1.1-.2-1.4-.6-.4-.4-.5-1-.5-1.9v-4H326v-1h1.1v-1.7l1.2-.3h0z"/><use xlink:href="#O" x="21.9" y="42.9"/><path d="M339.2 185.1v6c0 2.3 1 3.2 2.4 3.2 1.5 0 2.5-1 2.5-3.2v-6h1.3v5.9c0 3.1-1.6 4.4-3.8 4.4-2.1 0-3.6-1.2-3.6-4.3v-6h1.2 0z"/><use xlink:href="#J" x="104.3" y="42.9"/><path d="M356.3 187.9l1 3.7.5 2.3.6-2.3 1.2-3.7h1.1l1.1 3.6c.3.9.5 1.6.6 2.4h0c.1-.7.3-1.5.6-2.4l1-3.6h1.3l-2.3 7.3h-1l-1.1-3.5c-.3-.8-.5-1.5-.6-2.4h0c-.2.9-.4 1.6-.7 2.4l-1.2 3.4h-1.2l-2.2-7.3h1.3v.1z"/><use xlink:href="#e" x="179.6" y="21"/><use xlink:href="#E" x="170.6" y="42.9"/><use xlink:href="#a" x="273.5" y="21"/><use xlink:href="#I" x="150.4" y="42.9"/><use xlink:href="#o" x="211.9"/><use xlink:href="#e" x="211.6" y="21"/><use xlink:href="#Z" x="315.2" y="21"/><use xlink:href="#f" x="219.1" y="21"/><use xlink:href="#j" x="-15" y="21"/><path d="M436.9 189.9c0-.8 0-1.4-.1-2h1.2l.1 1.2c.4-.7 1.1-1.3 2.3-1.3 1 0 1.7.6 2.1 1.5h0a2.36 2.36 0 0 1 .8-.9c.4-.3.9-.5 1.6-.5 1 0 2.4.6 2.4 3.1v4.3H446v-4.1c0-1.4-.5-2.2-1.6-2.2-.8 0-1.3.6-1.6 1.2-.1.2-.1.4-.1.7v4.5h-1.3v-4.3c0-1.2-.5-2-1.5-2-.8 0-1.4.7-1.6 1.3-.1.2-.1.4-.1.6v4.4h-1.3v-5.5z"/><use xlink:href="#a" x="346.6" y="21"/><use xlink:href="#o" x="274.3"/><use xlink:href="#e" x="274" y="21"/><use xlink:href="#Z" x="377.6" y="21"/><use xlink:href="#q"/><use xlink:href="#I" x="254.9" y="42.9"/><path d="M495 189.9c0-.8 0-1.4-.1-2h1.2l.1 1.2c.4-.7 1.2-1.4 2.4-1.4 1 0 2.6.6 2.6 3.1v4.3h-1.3V191c0-1.2-.4-2.1-1.7-2.1-.9 0-1.5.6-1.8 1.3-.1.2-.1.4-.1.6v4.4H495v-5.3z"/><use xlink:href="#e" x="316.1" y="21"/><use xlink:href="#k" x="54.6" y="21"/><use xlink:href="#Z" x="427" y="21"/><use xlink:href="#W" x="39.3" y="42.9"/><path d="M537.8 194.1h0c-.4.7-1.2 1.3-2.4 1.3-1.7 0-3.1-1.5-3.1-3.7 0-2.7 1.8-3.9 3.3-3.9 1.1 0 1.9.6 2.2 1.3h0V188h1.2v10.2h-1.3v-4.1h.1zm0-3.2c0-.2 0-.4-.1-.6-.2-.8-.9-1.5-1.9-1.5-1.4 0-2.2 1.2-2.2 2.8 0 1.4.7 2.7 2.1 2.7.9 0 1.6-.5 1.9-1.4.1-.2.1-.4.1-.6v-1.4h.1z"/><use xlink:href="#p" x="243.6"/><use xlink:href="#a" x="446.8" y="21"/><use xlink:href="#U" x="115.6" y="42.9"/><use xlink:href="#o" x="383.6"/><use xlink:href="#m" x="455.4"/><use xlink:href="#U" x="141.3" y="42.9"/><path d="M586.3 185.8v2.1h1.9v1h-1.9v3.9c0 .9.3 1.4 1 1.4.3 0 .6 0 .8-.1l.1 1c-.4.1-.8.2-1.2.2-.6 0-1.1-.2-1.4-.6-.4-.4-.5-1-.5-1.9v-4H584v-1h1.1v-1.7l1.2-.3h0z"/><use xlink:href="#T" x="160.3" y="42.9"/><path d="M600.6 193.2c0 .8 0 1.4.1 2h-1.2l-.1-1.2c-.3.6-1.1 1.4-2.4 1.4-1.1 0-2.5-.6-2.5-3.2V188h1.3v4c0 1.4.4 2.3 1.6 2.3.9 0 1.5-.6 1.7-1.2.1-.2.1-.4.1-.7v-4.5h1.3l.1 5.3h0zm8.5-8.7v8.8c0 .6 0 1.4.1 1.9H608l-.1-1.3c-.4.8-1.3 1.4-2.5 1.4-1.8 0-3.1-1.5-3.1-3.7 0-2.4 1.5-3.9 3.3-3.9 1.1 0 1.9.5 2.2 1.1h0v-4.3h1.3 0zm-1.3 6.4c0-.2 0-.4-.1-.6-.2-.8-.9-1.5-1.9-1.5-1.4 0-2.2 1.2-2.2 2.8 0 1.5.7 2.7 2.1 2.7.9 0 1.7-.6 1.9-1.6 0-.2.1-.4.1-.6v-1.2h.1z"/><use xlink:href="#I" x="381.9" y="42.9"/><path d="M622.6 187.9l1 1.6c.3.4.5.8.7 1.2h0c.2-.4.5-.8.7-1.2l1-1.5h1.4l-2.5 3.5 2.5 3.8h-1.5l-1.1-1.6c-.3-.4-.5-.8-.8-1.3h0c-.2.4-.5.8-.8 1.3l-1 1.6H621l2.6-3.7-2.5-3.6h1.5v-.1z"/><use xlink:href="#I" x="396.1" y="42.9"/><use xlink:href="#T" x="206.8" y="42.9"/><use xlink:href="#X" x="147.4" y="42.9"/><use xlink:href="#e" x="460.4" y="21"/><use xlink:href="#J" x="411" y="42.9"/><use xlink:href="#f" x="460.4" y="21"/><use xlink:href="#J" x="423.2" y="42.9"/><use xlink:href="#e" x="484.2" y="21"/><use xlink:href="#d" x="510" y="21"/><path d="M683.2 189.9c0-.8 0-1.4-.1-2h1.2l.1 1.2c.4-.7 1.2-1.4 2.4-1.4 1 0 2.6.6 2.6 3.1v4.3H688V191c0-1.2-.4-2.1-1.7-2.1-.9 0-1.5.6-1.8 1.3-.1.2-.1.4-.1.6v4.4h-1.3l.1-5.3h0z"/><use xlink:href="#p" x="397"/><use xlink:href="#n" x="579.6"/><use xlink:href="#n" x="583.2"/><use xlink:href="#k" x="257.8" y="21"/><use xlink:href="#Z" x="630.2" y="21"/><path d="M732.8 190.6v1h-3.7v-1h3.7z"/><use xlink:href="#X" x="-433.8" y="63.9"/><use xlink:href="#m" x="-48.8" y="21"/><use xlink:href="#P" x="-256.5" y="63.9"/><use xlink:href="#L" x="-189.7" y="63.9"/><use xlink:href="#r"/><use xlink:href="#P" x="-235.5" y="63.9"/><use xlink:href="#s"/><use xlink:href="#t"/><use xlink:href="#s" x="14.2"/><use xlink:href="#X" x="-369.7" y="63.9"/><use xlink:href="#e" x="-56.7" y="42"/><path d="M134 211.3l-.1-2.4h1.2l.1 1.2c.5-.9 1.4-1.4 2.6-1.4 1.8 0 3.1 1.5 3.1 3.7 0 2.6-1.6 3.9-3.3 3.9-1 0-1.8-.4-2.2-1.1h0v3.9H134v-7.8h0zm1.3 1.9c0 .2 0 .4.1.5.2.9 1 1.5 2 1.5 1.4 0 2.2-1.1 2.2-2.8 0-1.5-.8-2.7-2.2-2.7-.9 0-1.7.6-2 1.6 0 .2-.1.4-.1.5v1.4z"/><use xlink:href="#a" x="39.8" y="42"/><use xlink:href="#J" x="-97.2" y="63.9"/><use xlink:href="#u"/><use xlink:href="#Y" x="91.2" y="42"/><use xlink:href="#v"/><use xlink:href="#d" x="9.6" y="42"/><use xlink:href="#P" x="-148.3" y="63.9"/><use xlink:href="#J" x="-55.3" y="63.9"/><path d="M194.5 206.9c0 .5-.3.8-.8.8s-.8-.4-.8-.8c0-.5.3-.8.8-.8s.8.3.8.8zm-1.5 9.3v-7.3h1.3v7.3H193z"/><use xlink:href="#s" x="92.8"/><use xlink:href="#w"/><path d="M215.4 206.9c0 .5-.3.8-.8.8s-.8-.4-.8-.8c0-.5.3-.8.8-.8s.8.3.8.8zm-1.4 9.3v-7.3h1.3v7.3H214z"/><use xlink:href="#s" x="113.8"/><use xlink:href="#u" x="69.2"/><use xlink:href="#t" x="120.5"/><path d="M240 206.8v2.1h1.9v1H240v3.9c0 .9.3 1.4 1 1.4.3 0 .6 0 .8-.1l.1 1c-.4.1-.8.2-1.2.2-.6 0-1.1-.2-1.4-.6-.4-.4-.5-1-.5-1.9v-4h-1.1v-1h1.1v-1.7l1.2-.3h0z"/><use xlink:href="#x"/><use xlink:href="#u" x="99.6"/><use xlink:href="#e" x="70.1" y="42"/><use xlink:href="#y"/><use xlink:href="#t" x="159.6"/><use xlink:href="#e" x="90.3" y="42"/><path d="M281 211.3l-.1-2.4h1.2l.1 1.2c.5-.9 1.4-1.4 2.6-1.4 1.8 0 3.1 1.5 3.1 3.7 0 2.6-1.6 3.9-3.3 3.9-1 0-1.8-.4-2.2-1.1h0v3.9H281v-7.8h0zm1.3 1.9c0 .2 0 .4.1.5.2.9 1 1.5 2 1.5 1.4 0 2.2-1.1 2.2-2.8 0-1.5-.8-2.7-2.2-2.7-.9 0-1.7.6-2 1.6 0 .2-.1.4-.1.5v1.4z"/><use xlink:href="#r" x="204.7"/><path d="M300.8 208.9l1 1.6c.3.4.5.8.7 1.2h0c.2-.4.5-.8.7-1.2l1-1.5h1.4l-2.5 3.5 2.5 3.8h-1.5l-1.1-1.6c-.3-.4-.5-.8-.8-1.3h0c-.2.4-.5.8-.8 1.3l-1.1 1.6h-1.5l2.6-3.7-2.5-3.6h1.9v-.1z"/><use xlink:href="#r" x="222.3"/><use xlink:href="#x" x="71.3"/><use xlink:href="#X" x="-165.3" y="63.9"/><use xlink:href="#m" x="219.8" y="21"/><use xlink:href="#z"/><use xlink:href="#z" x="12.5"/><use xlink:href="#d" x="203.2" y="42"/><path d="M382.7 205.5v8.8c0 .6 0 1.4.1 1.9h-1.2l-.1-1.3c-.4.8-1.3 1.4-2.5 1.4-1.8 0-3.1-1.5-3.1-3.7 0-2.4 1.5-3.9 3.3-3.9 1.1 0 1.9.5 2.2 1.1h0v-4.3h1.3 0zm-1.4 6.4c0-.2 0-.4-.1-.6-.2-.8-.9-1.5-1.9-1.5-1.4 0-2.2 1.2-2.2 2.8 0 1.5.7 2.7 2.1 2.7.9 0 1.7-.6 1.9-1.6 0-.2.1-.4.1-.6v-1.2h.1z"/><use xlink:href="#d" x="219.9" y="42"/><use xlink:href="#X" x="-97.3" y="63.9"/><use xlink:href="#m" x="287.8" y="21"/><path d="M411.1 210.9c0-.8 0-1.4-.1-2h1.2l.1 1.2c.4-.7 1.2-1.4 2.4-1.4 1 0 2.6.6 2.6 3.1v4.3H416V212c0-1.2-.4-2.1-1.7-2.1-.9 0-1.5.6-1.8 1.4-.1.2-.1.4-.1.6v4.4h-1.3v-5.4z"/><use xlink:href="#AA"/><use xlink:href="#r" x="337.3"/><use xlink:href="#y" x="172.1"/><use xlink:href="#AB"/><use xlink:href="#x" x="203"/><path d="M458.4 206.8v2.1h1.9v1h-1.9v3.9c0 .9.3 1.4 1 1.4.3 0 .6 0 .8-.1l.1 1c-.4.1-.8.2-1.2.2-.6 0-1.1-.2-1.4-.6-.4-.4-.5-1-.5-1.9v-4H456v-1h1.1v-1.7l1.3-.3h0z"/><use xlink:href="#AC"/><path d="M468 206.2c.8-.1 1.7-.2 2.8-.2 1.9 0 3.2.4 4.1 1.3.9.8 1.4 2 1.4 3.6 0 1.7-.5 3-1.5 3.9-.9.9-2.5 1.5-4.5 1.5-.9 0-1.7 0-2.4-.1v-10h.1zm1.3 8.9c.3.1.8.1 1.3.1 2.8 0 4.3-1.6 4.3-4.3 0-2.4-1.3-3.9-4.1-3.9-.7 0-1.2.1-1.5.1v8h0zm14.8-.9c0 .8 0 1.4.1 2H483l-.1-1.2c-.3.6-1.1 1.3-2.4 1.3-1.1 0-2.5-.6-2.5-3.2v-4.2h1.3v4c0 1.4.4 2.3 1.6 2.3.9 0 1.5-.6 1.7-1.2.1-.2.1-.4.1-.7v-4.5h1.3l.1 5.4h0z"/><use xlink:href="#g" x="148.5" y="42"/><use xlink:href="#AA" x="70.3"/><use xlink:href="#x" x="252.3"/><use xlink:href="#AB" x="64.8"/><path d="M516 206.8v2.1h1.9v1H516v3.9c0 .9.3 1.4 1 1.4.3 0 .6 0 .8-.1l.1 1c-.4.1-.8.2-1.2.2-.6 0-1.1-.2-1.4-.6-.4-.4-.5-1-.5-1.9v-4h-1.1v-1h1.1v-1.7l1.2-.3h0zm4 6c0 1.8 1.2 2.5 2.5 2.5.9 0 1.5-.2 2-.4l.2.9c-.5.2-1.3.5-2.4.5-2.2 0-3.6-1.5-3.6-3.7s1.3-3.9 3.4-3.9c2.4 0 3 2.1 3 3.4v.6l-5.1.1h0zm3.9-1c0-.8-.3-2.1-1.8-2.1-1.3 0-1.9 1.2-2 2.1h3.8z"/><use xlink:href="#z" x="183.7"/><use xlink:href="#q" x="62.1" y="21"/><use xlink:href="#r" x="461.5"/><use xlink:href="#u" x="402.9"/><use xlink:href="#r" x="475.7"/><use xlink:href="#AB" x="130"/><use xlink:href="#z" x="236.5"/><use xlink:href="#a" x="492.5" y="42"/><use xlink:href="#T" x="169.4" y="63.9"/><use xlink:href="#e" x="416.5" y="42"/><use xlink:href="#t" x="497.6"/><use xlink:href="#T" x="186.1" y="63.9"/><use xlink:href="#r" x="532.2"/><use xlink:href="#c" x="486.2" y="42"/><use xlink:href="#m" x="524.3" y="21"/><use xlink:href="#u" x="493.5"/><use xlink:href="#m" x="536.1" y="21"/><use xlink:href="#T" x="230" y="63.9"/><use xlink:href="#e" x="480.3" y="42"/><path d="M671 210.9c0-.8 0-1.4-.1-2h1.2l.1 1.2c.4-.7 1.2-1.4 2.4-1.4 1 0 2.6.6 2.6 3.1v4.3h-1.3V212c0-1.2-.4-2.1-1.7-2.1-.9 0-1.5.6-1.8 1.4-.1.2-.1.4-.1.6v4.4H671v-5.4zm11.5-5.4h1.3v4.5a1.96 1.96 0 0 1 .9-.9c.4-.2.9-.4 1.4-.4 1 0 2.5.6 2.5 3.1v4.3h-1.3V212c0-1.2-.4-2.2-1.7-2.2-.9 0-1.5.6-1.8 1.3-.1.2-.1.4-.1.6v4.4h-1.3l.1-10.6h0z"/><use xlink:href="#r" x="602.8"/><use xlink:href="#w" x="492.8"/><use xlink:href="#AD"/><use xlink:href="#T" x="285.8" y="63.9"/><use xlink:href="#r" x="631.8"/><path d="M730.5 211.6v1h-3.7v-1h3.7z"/><use xlink:href="#P" x="-271.4" y="84.9"/><path d="M66.1 227.9c0 .5-.3.8-.8.8s-.8-.4-.8-.8c0-.5.3-.8.8-.8s.8.3.8.8zm-1.4 9.3v-7.3H66v7.3h-1.3z"/><use xlink:href="#J" x="-175.1" y="84.9"/><use xlink:href="#e" x="-110.9" y="63"/><use xlink:href="#AE"/><path d="M91.8 229.9l1.4 4.1.6 1.9.6-1.9 1.4-4.1h1.4l-2.9 7.3H93l-2.8-7.3h1.6z"/><use xlink:href="#t" x="-11.1" y="21"/><use xlink:href="#AF"/><use xlink:href="#L" x="-158.8" y="84.9"/><use xlink:href="#t" x="9.3" y="21"/><use xlink:href="#J" x="-116.2" y="84.9"/><use xlink:href="#x" x="-114.5" y="21"/><use xlink:href="#J" x="-104" y="84.9"/><use xlink:href="#r" x="56.1" y="21"/><use xlink:href="#H" x="-70.6" y="84.9"/><use xlink:href="#AG"/><use xlink:href="#AF" x="62.6"/><path d="M174.5 227.9c0 .5-.3.8-.8.8s-.8-.4-.8-.8c0-.5.3-.8.8-.8.4 0 .8.3.8.8zm-1.5 9.3v-7.3h1.3v7.3H173z"/><use xlink:href="#J" x="-66.8" y="84.9"/><use xlink:href="#AG" x="22.7"/><use xlink:href="#s" x="88.5" y="21"/><use xlink:href="#s" x="94.4" y="21"/><use xlink:href="#AG" x="42.1"/><use xlink:href="#z" x="-128.4" y="21"/><use xlink:href="#m" x="112.1" y="42"/><use xlink:href="#AF" x="128.7"/><use xlink:href="#r" x="150.9" y="21"/><use xlink:href="#s" x="142.8" y="21"/><use xlink:href="#J" x="9.2" y="84.9"/><use xlink:href="#e" x="70.2" y="63"/><use xlink:href="#AG" x="99"/><use xlink:href="#X" x="-221.9" y="84.9"/><use xlink:href="#d" x="113.3" y="63"/><use xlink:href="#AE" x="206.7"/><use xlink:href="#s" x="191.1" y="21"/><use xlink:href="#r" x="212.7" y="21"/><path d="M313.2 236.1h0c-.4.7-1.2 1.3-2.4 1.3-1.7 0-3.1-1.5-3.1-3.7 0-2.7 1.8-3.9 3.3-3.9 1.1 0 1.9.6 2.2 1.3h0V230h1.2v10.2h-1.3l.1-4.1h0zm0-3.2c0-.2 0-.4-.1-.6-.2-.8-.9-1.5-1.9-1.5-1.4 0-2.2 1.2-2.2 2.8 0 1.4.7 2.7 2.1 2.7.9 0 1.6-.5 1.9-1.4.1-.2.1-.4.1-.6v-1.4h.1z"/><use xlink:href="#t" x="207.1" y="21"/><path d="M329 237.2l-.1-.9c-.4.6-1.2 1.1-2.2 1.1-1.5 0-2.2-1-2.2-2.1 0-1.8 1.6-2.7 4.4-2.7v-.1c0-.6-.2-1.7-1.6-1.7-.7 0-1.4.2-1.9.5l-.3-.9c.6-.4 1.5-.6 2.4-.6 2.2 0 2.8 1.5 2.8 3v2.7c0 .6 0 1.2.1 1.7H329zm-.2-3.7c-1.4 0-3.1.2-3.1 1.6 0 .9.6 1.3 1.2 1.3.9 0 1.5-.6 1.8-1.2 0-.1.1-.3.1-.4v-1.3h0z"/><use xlink:href="#J" x="88.8" y="84.9"/><path d="M336.2 239c.3-.9.7-2.5.9-3.6l1.5-.1c-.3 1.3-1 2.9-1.4 3.6l-1 .1z"/><use xlink:href="#H" x="117.9" y="84.9"/><use xlink:href="#AG" x="188.5"/><use xlink:href="#AF" x="251.1"/><use xlink:href="#a" x="261.9" y="63"/><use xlink:href="#AF" x="261.4"/><use xlink:href="#AF" x="264.9"/><use xlink:href="#t" x="265.6" y="21"/><path d="M383.5 231.9c0-.8 0-1.4-.1-2h1.2l.1 1.2c.4-.7 1.1-1.3 2.3-1.3 1 0 1.7.6 2.1 1.5h0a2.36 2.36 0 0 1 .8-.9c.4-.3.9-.5 1.6-.5 1 0 2.4.6 2.4 3.2v4.3h-1.3v-4.1c0-1.4-.5-2.2-1.6-2.2-.8 0-1.3.6-1.6 1.2-.1.2-.1.4-.1.7v4.5H388v-4.3c0-1.2-.5-2-1.5-2-.8 0-1.4.7-1.6 1.3-.1.2-.1.4-.1.6v4.4h-1.3v-5.6h0z"/><use xlink:href="#j" x="-41" y="63"/><use xlink:href="#Y" x="341.1" y="63"/><use xlink:href="#AF" x="309.1"/><use xlink:href="#d" x="254.5" y="63"/><use xlink:href="#T" x="-1.7" y="84.9"/><use xlink:href="#AG" x="270.5"/><use xlink:href="#AG" x="281.2"/><use xlink:href="#AB" x="9.3" y="21"/><use xlink:href="#AH"/><use xlink:href="#r" x="378.2" y="21"/><use xlink:href="#AB" x="32.5" y="21"/><path d="M488.3 229.9c0 .5-.1 1.1-.1 2v4.2c0 1.7-.3 2.7-1 3.3-.7.7-1.7.9-2.6.9s-1.8-.2-2.4-.6l.3-1c.5.3 1.2.6 2.1.6 1.3 0 2.3-.7 2.3-2.5v-.8c-.4.7-1.2 1.2-2.3 1.2-1.8 0-3.1-1.5-3.1-3.5 0-2.5 1.6-3.9 3.3-3.9 1.3 0 2 .7 2.3 1.3h0l.1-1.1 1.1-.1h0zm-1.4 2.9c0-.2 0-.4-.1-.6a1.83 1.83 0 0 0-1.8-1.4c-1.3 0-2.2 1.1-2.2 2.7 0 1.4.7 2.6 2.1 2.6.8 0 1.5-.5 1.8-1.3.1-.2.1-.5.1-.7v-1.3h.1z"/><use xlink:href="#e" x="303.1" y="63"/><use xlink:href="#x" x="247.3" y="21"/><use xlink:href="#J" x="257.7" y="84.9"/><path d="M509.2 231.9c0-.8 0-1.4-.1-2h1.2l.1 1.2c.4-.7 1.2-1.4 2.4-1.4 1 0 2.6.6 2.6 3.1v4.3H514V233c0-1.2-.4-2.1-1.7-2.1-.9 0-1.5.6-1.8 1.4-.1.2-.1.4-.1.6v4.4h-1.3v-5.4h.1z"/><use xlink:href="#t" x="407.9" y="21"/><use xlink:href="#AF" x="419"/><use xlink:href="#AF" x="422.5"/><use xlink:href="#x" x="286.3" y="21"/><use xlink:href="#AH" x="81.2"/><path d="M551.6 237.2l-.1-.9c-.4.6-1.2 1.1-2.2 1.1-1.5 0-2.2-1-2.2-2.1 0-1.8 1.6-2.7 4.4-2.7v-.1c0-.6-.2-1.7-1.6-1.7-.7 0-1.4.2-1.9.5l-.3-.9c.6-.4 1.5-.6 2.4-.6 2.2 0 2.8 1.5 2.8 3v2.7c0 .6 0 1.2.1 1.7h-1.4zm-.1-3.7c-1.4 0-3.1.2-3.1 1.6 0 .9.6 1.3 1.2 1.3.9 0 1.5-.6 1.8-1.2 0-.1.1-.3.1-.4v-1.3h0z"/><use xlink:href="#X" x="61.3" y="84.9"/><use xlink:href="#a" x="458.8" y="63"/><use xlink:href="#AF" x="458.3"/><use xlink:href="#e" x="381.4" y="63"/><use xlink:href="#AA" x="152.7" y="21"/><use xlink:href="#a" x="475.3" y="63"/><use xlink:href="#AA" x="162.1" y="21"/><use xlink:href="#x" x="344.1" y="21"/><path d="M599.5 227.8v2.1h1.9v1h-1.9v3.9c0 .9.3 1.4 1 1.4.3 0 .6 0 .8-.1l.1 1c-.4.1-.8.2-1.2.2-.6 0-1.1-.2-1.4-.6-.4-.4-.5-1-.5-1.9v-4H597v-1h1.1v-1.7l1.4-.3h0z"/><use xlink:href="#q" x="125.6" y="42"/><use xlink:href="#r" x="525" y="21"/><use xlink:href="#T" x="191.2" y="84.9"/><use xlink:href="#d" x="460.4" y="63"/><use xlink:href="#r" x="548.7" y="21"/><use xlink:href="#T" x="214.9" y="84.9"/><use xlink:href="#m" x="533.9" y="42"/><use xlink:href="#AA" x="237.8" y="21"/><use xlink:href="#r" x="578.3" y="21"/><use xlink:href="#J" x="430.6" y="84.9"/><use xlink:href="#x" x="-186.9" y="42"/><use xlink:href="#X" x="-426.6" y="105.9"/><use xlink:href="#X" x="-420" y="105.9"/><use xlink:href="#t" x="-29.3" y="42"/><use xlink:href="#z" x="-254.5" y="42"/><use xlink:href="#s" x="-2.6" y="42"/><path d="M111 258.2l-.1-.9c-.4.6-1.2 1.1-2.2 1.1-1.5 0-2.2-1-2.2-2.1 0-1.8 1.6-2.7 4.4-2.7v-.1c0-.6-.2-1.7-1.6-1.7-.7 0-1.4.2-1.9.5l-.3-.9c.6-.4 1.5-.6 2.4-.6 2.2 0 2.8 1.5 2.8 3v2.7c0 .6 0 1.2.1 1.7H111h0zm-.2-3.7c-1.4 0-3.1.2-3.1 1.6 0 .9.6 1.3 1.2 1.3.9 0 1.5-.6 1.8-1.2 0-.1.1-.3.1-.4v-1.3h0z"/><use xlink:href="#AI"/><use xlink:href="#AG" x="-36.2" y="21"/><use xlink:href="#J" x="-110.1" y="105.9"/><use xlink:href="#g" x="-196.4" y="84"/><use xlink:href="#AB" x="-296.4" y="42"/><use xlink:href="#s" x="49.5" y="42"/><use xlink:href="#J" x="-84.2" y="105.9"/><use xlink:href="#l" x="-449" y="84"/><use xlink:href="#m" x="60.3" y="63"/><use xlink:href="#j" x="-256.6" y="84"/><use xlink:href="#g" x="-145.7" y="84"/><use xlink:href="#m" x="80.5" y="63"/><use xlink:href="#c" x="62.3" y="84"/><use xlink:href="#a" x="112.7" y="84"/><path d="M225.2 250.9c0 .5-.1 1.1-.1 2v4.2c0 1.7-.3 2.7-1 3.3-.7.7-1.7.9-2.6.9s-1.8-.2-2.4-.6l.3-1c.5.3 1.2.6 2.1.6 1.4 0 2.3-.7 2.3-2.5v-.8c-.4.7-1.2 1.2-2.3 1.2-1.8 0-3.1-1.5-3.1-3.5 0-2.5 1.6-3.9 3.3-3.9 1.3 0 1.9.7 2.3 1.3h0l.1-1.1h1.1v-.1zm-1.3 2.9c0-.2 0-.4-.1-.6a1.83 1.83 0 0 0-1.8-1.4c-1.3 0-2.2 1.1-2.2 2.7 0 1.4.7 2.6 2.1 2.6.8 0 1.5-.5 1.8-1.3.1-.2.1-.5.1-.7l.1-1.3h0z"/><use xlink:href="#AI" x="113.1"/><use xlink:href="#e" x="48.4" y="84"/><use xlink:href="#s" x="135.4" y="42"/><use xlink:href="#s" x="141.4" y="42"/><path d="M252.5 248.9c0 .5-.3.8-.8.8s-.8-.4-.8-.8c0-.5.3-.8.8-.8s.8.3.8.8zm-1.5 9.3v-7.3h1.3v7.3H251zm3.5-5.3c0-.8 0-1.4-.1-2h1.2l.1 1.2c.4-.7 1.1-1.3 2.3-1.3 1 0 1.7.6 2.1 1.5h0a2.36 2.36 0 0 1 .8-.9c.4-.3.9-.5 1.6-.5 1 0 2.4.6 2.4 3.2v4.3h-1.3v-4.1c0-1.4-.5-2.2-1.6-2.2-.8 0-1.3.6-1.6 1.2-.1.2-.1.4-.1.7v4.5H259v-4.3c0-1.2-.5-2-1.5-2-.8 0-1.4.7-1.6 1.3-.1.2-.1.4-.1.6v4.4h-1.3v-5.6h0zm20.6 4.2h0c-.4.7-1.2 1.3-2.4 1.3-1.7 0-3.1-1.5-3.1-3.7 0-2.7 1.8-3.9 3.3-3.9 1.1 0 1.9.6 2.2 1.3h0V251h1.2v10.2H275v-4.1h.1zm0-3.2c0-.2 0-.4-.1-.6-.2-.8-.9-1.5-1.9-1.5-1.4 0-2.2 1.2-2.2 2.8 0 1.4.7 2.7 2.1 2.7.9 0 1.6-.5 1.9-1.4.1-.2.1-.4.1-.6v-1.4h.1z"/><use xlink:href="#AB" x="-162.7" y="42"/><use xlink:href="#e" x="99.7" y="84"/><use xlink:href="#v" x="127.6" y="42"/><use xlink:href="#AJ"/><use xlink:href="#x" x="59.1" y="42"/><use xlink:href="#AI" x="198.7"/><use xlink:href="#j" x="-119" y="84"/><use xlink:href="#g" x="-8.1" y="84"/><use xlink:href="#J" x="89.9" y="105.9"/><use xlink:href="#L" x="72.1" y="105.9"/><use xlink:href="#P" x="18.8" y="105.9"/><use xlink:href="#x" x="108.1" y="42"/><use xlink:href="#AG" x="200" y="21"/><use xlink:href="#s" x="265.8" y="42"/><use xlink:href="#r" x="287.3" y="42"/><use xlink:href="#AI" x="268.7"/><use xlink:href="#J" x="147.9" y="105.9"/><use xlink:href="#AJ" x="97.2"/><use xlink:href="#AB" x="-38.5" y="42"/><use xlink:href="#L" x="141.9" y="105.9"/><use xlink:href="#J" x="176.3" y="105.9"/><use xlink:href="#x" x="178" y="42"/><path d="M433.4 248.8v2.1h1.9v1h-1.9v3.9c0 .9.3 1.4 1 1.4.3 0 .6 0 .8-.1l.1 1c-.4.1-.8.2-1.2.2-.6 0-1.1-.2-1.4-.6-.4-.4-.5-1-.5-1.9v-4H431v-1h1.1v-1.7l1.3-.3h0z"/><use xlink:href="#t" x="327.1" y="42"/><path d="M445 252.9c0-.8 0-1.4-.1-2h1.2l.1 1.2c.4-.7 1.1-1.3 2.3-1.3 1 0 1.7.6 2.1 1.5h0a2.36 2.36 0 0 1 .8-.9c.4-.3.9-.5 1.6-.5 1 0 2.4.6 2.4 3.2v4.3h-1.3v-4.1c0-1.4-.5-2.2-1.6-2.2-.8 0-1.3.6-1.6 1.2-.1.2-.1.4-.1.7v4.5h-1.3v-4.3c0-1.2-.5-2-1.5-2-.8 0-1.4.7-1.6 1.3-.1.2-.1.4-.1.6v4.4H445v-5.6z"/><use xlink:href="#AK"/><use xlink:href="#AK" x="6.4"/><use xlink:href="#T" x="44.1" y="105.9"/><use xlink:href="#e" x="291.3" y="84"/><path d="M482,247.5h1.3v10.6H482V247.5z"/><use xlink:href="#j" x="48.5" y="84"/><use xlink:href="#r" x="409.1" y="42"/><use xlink:href="#AJ" x="202.6"/><path d="M509 254.8c0 1.8 1.2 2.5 2.5 2.5.9 0 1.5-.2 2-.4l.2.9c-.5.2-1.3.5-2.4.5-2.2 0-3.6-1.5-3.6-3.7s1.3-3.9 3.4-3.9c2.4 0 3 2.1 3 3.4v.6H509v.1zm3.9-1c0-.8-.3-2.1-1.8-2.1-1.3 0-1.9 1.2-2 2.1h3.8z"/><use xlink:href="#AI" x="401.6"/><use xlink:href="#g" x="186.3" y="84"/><use xlink:href="#J" x="284.3" y="105.9"/><use xlink:href="#x" x="289.2" y="42"/><path d="M549.1 256.2c0 .8 0 1.4.1 2H548l-.1-1.2c-.3.6-1.1 1.3-2.4 1.3-1.1 0-2.5-.6-2.5-3.2v-4.2h1.3v4c0 1.4.4 2.3 1.6 2.3.9 0 1.5-.6 1.7-1.2.1-.2.1-.4.1-.7v-4.5h1.3v5.4h.1zm8.4-5.3c0 .5-.1 1.1-.1 2v4.2c0 1.7-.3 2.7-1 3.3-.7.7-1.7.9-2.6.9s-1.8-.2-2.4-.6l.3-1c.5.3 1.2.6 2.1.6 1.3 0 2.3-.7 2.3-2.5v-.8c-.4.7-1.2 1.2-2.3 1.2-1.8 0-3.1-1.5-3.1-3.5 0-2.5 1.6-3.9 3.3-3.9 1.3 0 2 .7 2.3 1.3h0l.1-1.1 1.1-.1h0zm-1.4 2.9c0-.2 0-.4-.1-.6a1.83 1.83 0 0 0-1.8-1.4c-1.3 0-2.2 1.1-2.2 2.7 0 1.4.7 2.6 2.1 2.6.8 0 1.5-.5 1.8-1.3.1-.2.1-.5.1-.7l.1-1.3h0z"/><use xlink:href="#AB" x="118.3" y="42"/><use xlink:href="#r" x="479.8" y="42"/><use xlink:href="#AD" x="-128.1" y="42"/><path d="M593.1 256.2c0 .8 0 1.4.1 2H592l-.1-1.2c-.3.6-1.1 1.3-2.4 1.3-1.1 0-2.5-.6-2.5-3.2v-4.2h1.3v4c0 1.4.4 2.3 1.6 2.3.9 0 1.5-.6 1.7-1.2.1-.2.1-.4.1-.7v-4.5h1.3v5.4h.1z"/><use xlink:href="#e" x="408.1" y="84"/><use xlink:href="#AA" x="179.3" y="42"/><use xlink:href="#c" x="463.2" y="84"/><use xlink:href="#m" x="501.3" y="63"/><use xlink:href="#AJ" x="322.5"/><use xlink:href="#Y" x="561.6" y="84"/><use xlink:href="#T" x="207" y="105.9"/><use xlink:href="#r" x="553.1" y="42"/><path d="M653.5 248.8v2.1h1.9v1h-1.9v3.9c0 .9.3 1.4 1 1.4.3 0 .6 0 .8-.1l.1 1c-.4.1-.8.2-1.2.2-.6 0-1.1-.2-1.4-.6-.4-.4-.5-1-.5-1.9v-4H651v-1h1.1v-1.7l1.4-.3h0z"/><use xlink:href="#AG" x="494.8" y="21"/><use xlink:href="#AH" x="205.4" y="21"/><use xlink:href="#AG" x="509.7" y="21"/><use xlink:href="#AB" x="237.8" y="42"/><path d="M693.6 250.9c0 .5-.1 1.1-.1 2v4.2c0 1.7-.3 2.7-1 3.3-.7.7-1.7.9-2.6.9s-1.8-.2-2.4-.6l.3-1c.5.3 1.2.6 2.1.6 1.3 0 2.3-.7 2.3-2.5v-.8c-.4.7-1.2 1.2-2.3 1.2-1.8 0-3.1-1.5-3.1-3.5 0-2.5 1.6-3.9 3.3-3.9 1.3 0 2 .7 2.3 1.3h0l.1-1.1h1.1v-.1zm-1.3 2.9c0-.2 0-.4-.1-.6a1.83 1.83 0 0 0-1.8-1.4c-1.3 0-2.2 1.1-2.2 2.7 0 1.4.7 2.6 2.1 2.6.8 0 1.5-.5 1.8-1.3.1-.2.1-.5.1-.7v-1.3h.1z"/><use xlink:href="#x" x="449.2" y="42"/><path d="M704.5 248.9c0 .5-.3.8-.8.8s-.8-.4-.8-.8c0-.5.3-.8.8-.8s.8.3.8.8zm-1.5 9.3v-7.3h1.3v7.3H703z"/><use xlink:href="#J" x="463.2" y="105.9"/><use xlink:href="#AC" x="249.7" y="42"/><g enable-background="new" fill="#444"><path d="M65.5 317.1c0 .6-.1 1.2-.2 1.7-.2.5-.4.9-.7 1.3s-.7.6-1.1.8-1 .3-1.6.3c-.5 0-1.1-.1-1.6-.2l.1-1c0-.1 0-.2.1-.2.1-.1.2-.1.3-.1s.2 0 .4.1c.2 0 .4.1.6.1.3 0 .6-.1.9-.2s.5-.3.7-.5.3-.5.4-.8.1-.7.1-1.2v-7.5h1.7v7.4h-.1zm1.9-3c.5-.4.9-.8 1.5-1 .5-.2 1.1-.3 1.7-.3.4 0 .8.1 1.2.2.4.2.7.4.9.6s.4.6.6 1c.1.4.2.8.2 1.3v5.2h-.7c-.2 0-.3 0-.4-.1s-.1-.1-.2-.3l-.2-.7c-.2.2-.4.4-.6.5s-.4.3-.6.4-.5.2-.7.2c-.3.1-.5.1-.8.1s-.6 0-.9-.1-.5-.2-.7-.4-.4-.4-.5-.7-.2-.6-.2-1c0-.3.1-.6.3-.9s.5-.6.8-.8l1.5-.6 2.3-.3v-.6c0-.6-.1-1.1-.4-1.4s-.6-.5-1.2-.5c-.3 0-.6 0-.9.1l-.6.3a1.38 1.38 0 0 0-.4.3c-.1.1-.3.1-.4.1s-.2 0-.3-.1l-.2-.2-.1-.3h0zm4.6 3.4c-.6 0-1.2.1-1.6.1l-1.1.3c-.3.1-.5.3-.6.5s-.2.4-.2.6 0 .4.1.5.2.3.3.4.2.2.4.2.3.1.5.1.5 0 .7-.1c.2 0 .4-.1.6-.2s.3-.2.5-.3.3-.3.5-.4v-1.7H72zm5-3.4c.2-.2.4-.4.6-.5.2-.2.4-.3.6-.4s.4-.2.7-.3.5-.1.8-.1c.4 0 .8.1 1.2.2s.6.4.9.6c.2.3.4.6.5 1s.2.8.2 1.3v5.2h-1.6v-5.2c0-.6-.1-1-.4-1.4-.3-.3-.7-.5-1.2-.5-.4 0-.8.1-1.1.3s-.7.4-1 .8v6h-1.6V313h.9c.2 0 .4.1.4.3l.1.8h0z"/><use xlink:href="#AL"/><path d="M105.6 315.3c0 1-.1 1.9-.3 2.6s-.5 1.3-.9 1.8-.8.8-1.3 1.1c-.5.2-1.1.4-1.6.4s-1.1-.1-1.6-.4c-.5-.2-1-.6-1.3-1.1-.4-.5-.7-1.1-.9-1.8s-.3-1.6-.3-2.6.1-1.9.3-2.6.5-1.3.9-1.8.8-.8 1.3-1.1c.5-.2 1.1-.4 1.6-.4s1.1.1 1.6.4c.5.2 1 .6 1.3 1.1.4.5.7 1.1.9 1.8.2.8.3 1.6.3 2.6zm-1.6 0c0-.9-.1-1.6-.2-2.2s-.3-1-.6-1.4c-.2-.4-.5-.6-.8-.8s-.6-.2-1-.2-.7.1-1 .2-.6.4-.8.8l-.6 1.4c-.2.6-.2 1.3-.2 2.2s.1 1.6.2 2.2.3 1 .6 1.4c.2.4.5.6.8.8.3.1.6.2 1 .2s.7-.1 1-.2.6-.4.8-.8l.6-1.4c.1-.6.2-1.3.2-2.2zm3.8 5.8c-.1 0-.3 0-.4-.1s-.2-.1-.3-.2-.2-.2-.2-.3-.1-.3-.1-.4 0-.2.1-.4c0-.1.1-.2.2-.3s.2-.2.3-.2.3-.1.4-.1a.9.9 0 0 1 .5.1c.1.1.2.1.3.3.1.1.2.2.2.4 0 .1.1.3.1.5s0 .5-.1.8l-.3.8c-.1.3-.3.5-.5.8s-.4.5-.7.7l-.3-.2c-.1-.1-.1-.2-.1-.2v-.1l.6-.6c.1-.1.2-.2.2-.4.1-.6.2-.7.1-.9h0 0zm13.8-1.5c.2 0 .3 0 .4.1s.1.2.1.4v.9h-7.7v-.5c0-.1 0-.2.1-.3 0-.1.1-.2.2-.3l3.6-3.6c.3-.3.6-.6.8-.9s.5-.6.6-.8c.2-.3.3-.6.4-.9s.1-.6.1-.9-.1-.6-.2-.8-.2-.4-.4-.6-.4-.3-.6-.4-.5-.1-.8-.1-.5 0-.8.1-.4.2-.6.3-.3.3-.5.5-.2.4-.3.6a1.38 1.38 0 0 1-.3.4c-.1.1-.3.1-.5 0l-.8-.1c.1-.5.2-1 .4-1.4s.5-.7.8-1 .7-.5 1.1-.6.9-.2 1.4-.2 1 .1 1.4.2.8.4 1.1.6.6.6.7 1c.2.4.3.8.3 1.3 0 .4-.1.8-.2 1.2s-.3.7-.5 1-.5.7-.8 1l-.9.9-2.9 3c.2-.1.4-.1.7-.1.2 0 .4-.1.6-.1l4 .1h0zm10.2-4.3c0 1-.1 1.9-.3 2.6s-.5 1.3-.9 1.8-.8.8-1.3 1.1c-.5.2-1.1.4-1.6.4-.6 0-1.1-.1-1.6-.4-.5-.2-1-.6-1.3-1.1-.4-.5-.7-1.1-.9-1.8s-.3-1.6-.3-2.6.1-1.9.3-2.6.5-1.3.9-1.8.8-.8 1.3-1.1c.5-.2 1.1-.4 1.6-.4.6 0 1.1.1 1.6.4.5.2 1 .6 1.3 1.1.4.5.7 1.1.9 1.8.2.8.3 1.6.3 2.6zm-1.6 0c0-.9-.1-1.6-.2-2.2s-.3-1-.6-1.4c-.2-.4-.5-.6-.8-.8-.3-.1-.6-.2-1-.2s-.7.1-1 .2-.6.4-.8.8l-.6 1.4c-.2.6-.2 1.3-.2 2.2s.1 1.6.2 2.2.3 1 .6 1.4c.2.4.5.6.8.8s.6.2 1 .2.7-.1 1-.2.6-.4.8-.8l.6-1.4c.1-.6.2-1.3.2-2.2zm10 4.3c.2 0 .3 0 .4.1s.1.2.1.4v.9H133v-.5c0-.1 0-.2.1-.3 0-.1.1-.2.2-.3l3.6-3.6c.3-.3.6-.6.8-.9s.5-.6.6-.8c.2-.3.3-.6.4-.9s.1-.6.1-.9-.1-.6-.2-.8-.2-.4-.4-.6-.4-.3-.6-.4-.5-.1-.8-.1-.5 0-.8.1-.4.2-.6.3-.3.3-.5.5-.2.4-.3.6a1.38 1.38 0 0 1-.3.4c-.1.1-.3.1-.5 0l-.8-.1c.1-.5.2-1 .4-1.4s.5-.7.8-1 .7-.5 1.1-.6.9-.2 1.4-.2 1 .1 1.4.2.8.4 1.1.6.6.6.7 1c.2.4.3.8.3 1.3 0 .4-.1.8-.2 1.2s-.3.7-.5 1-.5.7-.8 1l-.9.9-2.9 3c.2-.1.4-.1.7-.1.2 0 .4-.1.6-.1l4 .1h0z"/><use xlink:href="#AL" x="54.1"/></g><path d="M75.3 337.1H62.6a2.65 2.65 0 0 0-2.6 2.6v12.7a2.65 2.65 0 0 0 2.6 2.6h5.3v-6.3h-2.1v-3.2h2.1v-2.1c0-1.7 1.4-3.2 3.2-3.2h3.2v3.2h-3.2v2.1h3.2l-.5 3.2h-2.7v6.3h4.2a2.65 2.65 0 0 0 2.6-2.6v-12.7c.1-1.5-1.1-2.6-2.6-2.6zm24.9.9c-.7-.7-1.5-1-2.4-1H86.5c-.9 0-1.7.3-2.4 1s-1 1.5-1 2.4v11.3c0 .9.3 1.7 1 2.4s1.5 1 2.4 1h11.3c.9 0 1.7-.3 2.4-1s1-1.5 1-2.4v-11.3c0-1-.3-1.8-1-2.4zm-3.3 5.9v.3c0 .7-.1 1.3-.3 2s-.5 1.3-.9 1.9-.9 1.1-1.4 1.6c-.6.5-1.2.8-2 1.1s-1.6.4-2.5.4c-1.4 0-2.6-.4-3.8-1.1h.6c1.1 0 2.2-.4 3.1-1.1-.5 0-1-.2-1.4-.5a2.73 2.73 0 0 1-.9-1.2h.5c.2 0 .4 0 .6-.1a2.37 2.37 0 0 1-1.5-.9c-.4-.5-.6-1-.6-1.6h0c.4.2.8.3 1.2.3-.7-.5-1.1-1.2-1.1-2.1 0-.5.1-.9.3-1.3.6.8 1.4 1.4 2.3 1.8.9.5 1.8.7 2.9.8 0-.1-.1-.3-.1-.6 0-.7.2-1.3.7-1.8s1.1-.7 1.8-.7 1.3.3 1.8.8c.5-.1 1.1-.3 1.6-.6-.2.6-.6 1.1-1.1 1.4.5-.1 1-.2 1.4-.4-.2.9-.7 1.3-1.2 1.6h0zm24.8-6.9H109c-1.5 0-2.6 1.2-2.6 2.6v12.7c0 1.5 1.2 2.6 2.6 2.6h12.7c1.5 0 2.6-1.2 2.6-2.6v-12.7a2.65 2.65 0 0 0-2.6-2.6zm-9.1 14.3h-2.1v-7.4h2.1v7.4zm0-8.4h-2.1v-2.1h2.1v2.1zm7.4 8.4h-2.1v-4.2a1.11 1.11 0 0 0-1.1-1.1 1.11 1.11 0 0 0-1.1 1.1v4.2h-2.1v-7.4h2.1v.4c.6-.2.9-.4 1.6-.4 1.4 0 2.6 1.3 2.6 2.8l.1 4.6h0z" fill="#999"/><path d="M195.5 54.3v13.1h-2.4v-8-.5-.6l-3.7 7.1c-.2.4-.5.6-.9.6h-.4c-.2 0-.4 0-.6-.1a.78.78 0 0 1-.4-.4l-3.8-7.1v.6.5 8h-2.4V54.3h2.1.3.2c.1 0 .1.1.2.1l.2.2 3.7 7 .3.6c.1.2.2.5.3.7.1-.2.2-.5.3-.7s.2-.4.3-.7l3.6-6.9c.1-.1.1-.2.2-.2.1-.1.1-.1.2-.1h.2.3 2.2z"/><use xlink:href="#AM"/><path d="M214 60.2c-.1.1-.1.2-.2.2s-.2.1-.3.1-.2 0-.3-.1-.2-.1-.4-.2c-.1-.1-.3-.2-.5-.2-.2-.1-.4-.1-.7-.1-.4 0-.7.1-1 .2s-.5.3-.7.6-.3.6-.4.9c-.1.4-.1.8-.1 1.2 0 .9.2 1.7.6 2.2s.9.8 1.6.8c.2 0 .4 0 .6-.1s.3-.1.4-.1c.1-.1.2-.1.3-.2s.2-.1.3-.2.2-.1.2-.1.2-.1.3-.1c.2 0 .3.1.5.2l.7.9c-.3.3-.5.6-.8.8s-.6.4-.9.5-.6.2-1 .2c-.3 0-.7.1-1 .1-.6 0-1.1-.1-1.6-.3s-1-.5-1.3-.9-.7-.9-.9-1.5-.3-1.3-.3-2 .1-1.3.3-1.9.5-1.1.9-1.5.9-.8 1.4-1c.6-.2 1.2-.4 2-.4.7 0 1.3.1 1.9.3.5.2 1 .6 1.4 1l-1 .7zm4.4-1.2c.2-.2.4-.3.5-.4l.6-.3c.2-.1.4-.2.7-.2s.5-.1.8-.1c.5 0 1 .1 1.3.3.4.2.7.4 1 .7s.5.7.6 1.1.2.9.2 1.4v5.9h-2.5v-5.9c0-.5-.1-.9-.4-1.2s-.6-.4-1.1-.4c-.3 0-.7.1-1 .2s-.6.4-.9.6v6.7H216V54h2.5v5zm10.6-3.5c0 .2 0 .4-.1.6s-.2.3-.3.5c-.1.1-.3.2-.5.3s-.4.1-.6.1-.4 0-.6-.1-.3-.2-.5-.3c-.1-.1-.2-.3-.3-.5s-.1-.4-.1-.6 0-.4.1-.6.2-.3.3-.5c.1-.1.3-.2.5-.3s.4-.1.6-.1.4 0 .6.1.4.2.5.3.3.3.3.5c.1.2.1.4.1.6zm-.3 2.6v9.3h-2.5v-9.3h2.5z"/><use xlink:href="#AM" x="33.2"/><path d="M243 54v13.4h-2.5V54h2.5zm15.6 10.2c.2 0 .3.1.4.2l1.1 1.1c-.5.7-1.2 1.2-2 1.5a7.78 7.78 0 0 1-2.8.5c-1 0-1.9-.2-2.6-.5-.8-.3-1.4-.8-2-1.4s-1-1.3-1.3-2.1-.4-1.7-.4-2.7c0-.6.1-1.3.2-1.8.1-.6.3-1.1.6-1.6a6.42 6.42 0 0 1 2.3-2.3c.5-.3 1-.5 1.6-.6s1.2-.2 1.8-.2c.5 0 .9 0 1.4.1.4.1.8.2 1.2.4.4.1.7.3 1 .5s.6.4.9.7l-.9 1.2-.2.2c-.1.1-.2.1-.3.1a.76.76 0 0 1-.4-.2c-.1-.1-.3-.2-.5-.3s-.5-.2-.8-.3a3.73 3.73 0 0 0-1.2-.2c-.5 0-1 .1-1.5.3s-.8.5-1.2.9c-.3.4-.6.8-.8 1.4-.2.5-.3 1.2-.3 1.9s.1 1.3.3 1.9c.2.5.5 1 .8 1.4a2.73 2.73 0 0 0 1.2.9c.5.2.9.3 1.5.3h.8c.2 0 .5-.1.7-.2l.6-.3c.2-.1.4-.3.6-.4.1-.1.1-.1.2-.1-.2-.3-.1-.3 0-.3zm6.6-6.2c.7 0 1.3.1 1.9.3s1.1.5 1.5.9.7.9.9 1.5.3 1.3.3 2-.1 1.4-.3 2-.5 1.1-.9 1.5-.9.7-1.5 1c-.6.2-1.2.3-1.9.3s-1.3-.1-1.9-.3-1.1-.5-1.5-1-.7-.9-.9-1.5-.3-1.3-.3-2 .1-1.4.3-2 .5-1.1.9-1.5.9-.7 1.5-.9 1.2-.3 1.9-.3zm0 7.7c.7 0 1.2-.2 1.6-.7.3-.5.5-1.2.5-2.2s-.2-1.7-.5-2.2-.9-.7-1.6-.7-1.3.2-1.6.7-.5 1.2-.5 2.2.2 1.7.5 2.2c.3.4.9.7 1.6.7zm14.3-7.6v9.3H278c-.3 0-.5-.1-.6-.4l-.2-.6c-.2.2-.4.3-.6.5s-.4.3-.6.4-.5.2-.7.3c-.3.1-.5.1-.9.1-.5 0-1-.1-1.3-.3s-.7-.4-1-.7-.5-.7-.6-1.1-.2-.9-.2-1.4v-5.9h2.5V64c0 .5.1.9.4 1.2s.6.4 1.1.4c.3 0 .7-.1 1-.2l.9-.6v-6.7h2.3zm10.6 0l-3.6 9.3h-2.2l-3.6-9.3h2.1a.9.9 0 0 1 .5.1c.2.1.2.2.3.3l1.6 4.6.3.9c.1.3.1.6.2.9.1-.3.1-.6.2-.9l.3-.9 1.6-4.6c0-.1.1-.2.2-.3s.3-.1.4-.1h1.7zm.7 1.3c.5-.5 1.1-.9 1.8-1.1s1.4-.4 2.1-.4c.6 0 1 .1 1.5.3.4.2.8.4 1.1.8s.5.7.7 1.1.2.9.2 1.5v5.8h-1.1c-.2 0-.4 0-.5-.1a1.38 1.38 0 0 1-.3-.4l-.2-.6a3.04 3.04 0 0 1-.7.5c-.2.2-.4.3-.7.4-.2.1-.5.2-.8.2-.3.1-.6.1-.9.1-.4 0-.8-.1-1.1-.2s-.6-.3-.9-.5c-.2-.2-.4-.5-.6-.8s-.2-.7-.2-1.1a1.93 1.93 0 0 1 .3-1c.2-.3.5-.7.9-.9s1-.5 1.7-.7 1.6-.3 2.7-.3v-.5c0-.6-.1-1-.4-1.3-.2-.3-.6-.4-1.1-.4-.3 0-.6 0-.9.1l-.6.3c-.2.1-.3.2-.5.3-.1.1-.3.1-.5.1s-.3 0-.4-.1l-.3-.3-.3-.8zm5 4.1c-.6 0-1.1.1-1.5.2l-1 .3c-.3.1-.4.3-.5.4-.1.2-.1.3-.1.5 0 .4.1.6.3.8s.5.2.8.2c.4 0 .8-.1 1.1-.2s.6-.4.9-.7v-1.5zm6.7-3.9a6.42 6.42 0 0 1 1-1.3c.4-.4.8-.5 1.3-.5.4 0 .8.1 1 .3l-.2 1.8c0 .1-.1.2-.1.2-.1 0-.1.1-.3.1h-.4-.5c-.2 0-.4 0-.6.1s-.3.2-.5.3l-.4.4-.3.6v5.7H300V58h1.5c.3 0 .4 0 .5.1s.2.2.2.5l.3 1zm4.1-.2c.5-.5 1.1-.9 1.8-1.1s1.4-.4 2.1-.4c.6 0 1 .1 1.5.3.4.2.8.4 1.1.8s.5.7.7 1.1.2.9.2 1.5v5.8h-1c-.2 0-.4 0-.5-.1a1.38 1.38 0 0 1-.3-.4l-.2-.6a3.04 3.04 0 0 1-.7.5c-.2.2-.4.3-.7.4-.2.1-.5.2-.8.2-.3.1-.6.1-.9.1-.4 0-.8-.1-1.1-.2s-.6-.3-.9-.5c-.2-.2-.4-.5-.6-.8s-.2-.7-.2-1.1a1.93 1.93 0 0 1 .3-1c.2-.3.5-.7.9-.9s1-.5 1.7-.7 1.6-.3 2.7-.3v-.5c0-.6-.1-1-.4-1.3-.2-.3-.6-.4-1.1-.4-.3 0-.6 0-.9.1l-.6.3c-.2.1-.3.2-.5.3-.1.1-.3.1-.5.1s-.3 0-.4-.1l-.3-.3-.4-.8zm5.1 4.1c-.6 0-1.1.1-1.5.2l-1 .3c-.3.1-.4.3-.5.4-.1.2-.1.3-.1.5 0 .4.1.6.3.8s.5.2.8.2c.4 0 .8-.1 1.1-.2s.6-.4.9-.7v-1.5zm10.1-3.5c-.1.1-.1.2-.2.2s-.2.1-.3.1-.2 0-.4-.1-.3-.1-.4-.2c-.2-.1-.3-.1-.5-.2s-.4-.1-.7-.1c-.4 0-.7.1-.9.2-.2.2-.3.4-.3.7 0 .2.1.3.2.5s.3.2.5.3.4.2.7.3l.8.3.8.3a3.04 3.04 0 0 1 .7.5c.2.2.4.4.5.7s.2.6.2 1a3.73 3.73 0 0 1-.2 1.2c-.1.3-.4.7-.7 1s-.7.5-1.2.6c-.5.2-1 .2-1.6.2-.3 0-.6 0-.9-.1s-.6-.1-.9-.2-.5-.2-.8-.4-.5-.3-.6-.5l.6-.9c.1-.1.1-.2.2-.3s.2-.1.4-.1c.1 0 .3 0 .4.1a.76.76 0 0 0 .4.2c.1 0 .3.2.6.2.2.1.5.1.8.1.2 0 .4 0 .6-.1s.3-.1.4-.2.2-.2.2-.3c.1-.1.1-.2.1-.4s-.1-.4-.2-.5-.3-.2-.5-.3-.4-.2-.7-.3l-.8-.3-.8-.3a3.04 3.04 0 0 1-.7-.5c-.2-.2-.4-.4-.5-.7s-.2-.7-.2-1.1.1-.7.2-1.1c.2-.3.4-.6.7-.9s.7-.5 1.1-.6c.4-.2 1-.2 1.6-.2.7 0 1.3.1 1.8.3s1 .5 1.3.8l-.8 1.1z"/><path d="M188.3 116.7c.1 0 .2 0 .3.1l.8.9a5.09 5.09 0 0 1-1.6 1.3c-.6.3-1.4.4-2.3.4-.8 0-1.5-.1-2.2-.4-.6-.3-1.2-.7-1.6-1.1-.5-.5-.8-1.1-1-1.8s-.4-1.4-.4-2.2.1-1.6.4-2.2c.3-.7.6-1.3 1.1-1.8s1.1-.9 1.8-1.1c.7-.3 1.4-.4 2.3-.4.8 0 1.5.1 2.1.4s1.1.6 1.5 1l-.7.9c0 .1-.1.1-.2.2s-.1.1-.3.1c-.1 0-.2 0-.4-.1s-.3-.2-.5-.3-.4-.2-.7-.3-.6-.1-1.1-.1-1 .1-1.4.3-.8.4-1.1.8c-.3.3-.5.7-.7 1.2s-.3 1-.3 1.6.1 1.2.3 1.6.4.9.7 1.2.6.6 1 .7c.4.2.8.3 1.3.3h.7c.2 0 .4-.1.6-.1.2-.1.4-.1.5-.3.2-.1.3-.2.5-.4 0 0 .1-.1.2-.1.3-.3.3-.3.4-.3zm9.4-8.3v1.6h-4.8v3h3.8v1.6h-3.8v3.1h4.8v1.6h-6.8v-10.8h6.8zm12.2 5.4c0 .8-.1 1.5-.4 2.2s-.6 1.3-1.1 1.8a6.57 6.57 0 0 1-1.7 1.2c-.7.3-1.4.4-2.2.4s-1.6-.1-2.2-.4c-.7-.3-1.3-.7-1.7-1.2s-.9-1.1-1.1-1.8c-.3-.7-.4-1.4-.4-2.2s.1-1.5.4-2.2.6-1.3 1.1-1.8a6.57 6.57 0 0 1 1.7-1.2c.7-.3 1.4-.4 2.2-.4s1.6.1 2.2.4 1.3.7 1.7 1.2c.5.5.9 1.1 1.1 1.8s.4 1.4.4 2.2zm-2.1 0c0-.6-.1-1.1-.2-1.6s-.4-.9-.7-1.2a4.44 4.44 0 0 0-1.1-.8c-.4-.2-.9-.3-1.4-.3s-1 .1-1.4.3-.8.4-1.1.8-.5.7-.7 1.2-.2 1-.2 1.6.1 1.1.2 1.6.4.9.7 1.2a4.44 4.44 0 0 0 1.1.8c.4.2.9.3 1.4.3s1-.1 1.4-.3.8-.4 1.1-.8.5-.7.7-1.2.2-1 .2-1.6zm6.2.2h3.9v1.5H214V114zm14.5-3.6c-.1.1-.1.2-.2.2s-.2.1-.3.1-.2 0-.3-.1-.3-.2-.4-.3-.4-.2-.6-.3-.5-.1-.8-.1-.5 0-.7.1-.4.2-.5.3-.2.3-.3.4c-.1.2-.1.4-.1.6 0 .3.1.5.2.6s.3.3.6.4l.8.3.9.3c.3.1.6.2.9.4.3.1.6.3.8.5s.4.5.6.8c.1.3.2.7.2 1.1 0 .5-.1.9-.3 1.4-.2.4-.4.8-.7 1.1s-.7.6-1.2.8-1 .3-1.6.3c-.3 0-.7 0-1-.1l-1-.3c-.3-.1-.6-.3-.9-.5s-.5-.4-.7-.6l.6-1 .2-.2c.1 0 .2-.1.3-.1a.76.76 0 0 1 .4.2c.1.1.3.2.5.3s.4.2.7.3.6.2 1 .2c.6 0 1-.1 1.3-.4s.5-.7.5-1.2c0-.3-.1-.5-.2-.7s-.3-.3-.6-.5-.5-.2-.8-.3l-.9-.3c-.3-.1-.6-.2-.9-.4-.3-.1-.6-.3-.8-.5s-.4-.5-.6-.8a4.3 4.3 0 0 1-.2-1.2c0-.4.1-.8.2-1.2s.4-.7.7-1 .7-.5 1.1-.7.9-.3 1.5-.3 1.2.1 1.8.3 1 .5 1.4.8l-.6 1.3zm2.1 8.9v-7.7h1.1a.55.55 0 0 1 .5.3l.1.6c.1-.2.3-.3.4-.4s.3-.2.5-.3.3-.2.5-.2.4-.1.6-.1c.5 0 .9.1 1.2.4s.5.6.7 1c.1-.3.3-.5.5-.7s.4-.3.6-.4.4-.2.7-.3.5-.1.7-.1c.4 0 .8.1 1.1.2s.6.3.8.6.4.6.5.9c.1.4.2.8.2 1.2v4.9h-1.9v-4.9c0-.5-.1-.9-.3-1.1s-.5-.4-.9-.4c-.2 0-.4 0-.5.1-.2.1-.3.2-.4.3s-.2.3-.3.5-.1.4-.1.6v4.9H235v-4.9c0-.5-.1-.9-.3-1.1s-.5-.4-.9-.4c-.3 0-.5.1-.7.2s-.4.3-.6.5v5.6h-1.9zm18.6 0h-.8c-.2 0-.3 0-.4-.1s-.2-.2-.2-.3l-.2-.5c-.2.2-.4.3-.6.5l-.6.3c-.2.1-.4.2-.6.2s-.5.1-.8.1-.6 0-.9-.1-.5-.2-.7-.4-.4-.4-.5-.7-.2-.6-.2-.9.1-.6.2-.9c.2-.3.4-.5.8-.8a9.75 9.75 0 0 1 1.4-.6c.6-.2 1.3-.2 2.2-.2v-.5c0-.5-.1-.9-.3-1.2-.2-.2-.5-.4-.9-.4-.3 0-.5 0-.8.1-.2.1-.4.1-.5.2a.76.76 0 0 1-.4.2c-.1.1-.3.1-.4.1s-.2 0-.3-.1-.2-.1-.2-.2l-.3-.6c.9-.8 2-1.2 3.2-1.2a3.73 3.73 0 0 1 1.2.2c.3.1.7.4.9.6l.6.9c.1.4.2.8.2 1.2v5.1zm-3.6-1.2c.2 0 .4 0 .5-.1.2 0 .3-.1.5-.2.1-.1.3-.2.4-.3s.3-.2.4-.4V116c-.5 0-1 0-1.4.1s-.7.2-.9.3-.4.2-.5.4c-.1.1-.1.3-.1.5 0 .3.1.6.3.7.3 0 .5.1.8.1zm5.5 1.2v-7.7h1.1c.2 0 .3 0 .4.1s.1.2.2.4l.1.9c.3-.5.6-.9 1-1.1a1.92 1.92 0 0 1 1.2-.4c.4 0 .7.1.9.3l-.2 1.4c0 .1 0 .2-.1.2 0 0-.1.1-.2.1s-.2 0-.3-.1c-.1 0-.3-.1-.5-.1a1.69 1.69 0 0 0-1 .3c-.3.2-.5.5-.7.9v4.8h-1.9zm8.6.1c-.7 0-1.2-.2-1.5-.6-.4-.4-.5-.9-.5-1.6V113h-.8c-.1 0-.2 0-.3-.1s-.1-.2-.1-.3v-.7l1.2-.2.4-2.1c0-.1.1-.2.1-.2.1-.1.2-.1.3-.1h1v2.4h2v1.3h-2v4.2c0 .2.1.4.2.6s.3.2.5.2h.3c.1 0 .1-.1.2-.1s.1-.1.2-.1h.1.1l.1.1.6.9c-.3.2-.6.4-.9.5-.4 0-.8.1-1.2.1zm8.4-1.6c.5 0 .9 0 1.2-.1l1-.3v-2h-1.4c-.1 0-.2 0-.3-.1s-.1-.2-.1-.3v-1.1h3.6v4.4c-.3.2-.6.4-.9.5s-.6.3-1 .4c-.3.1-.7.2-1.1.2s-.8.1-1.2.1c-.8 0-1.5-.1-2.2-.4s-1.2-.7-1.7-1.1c-.5-.5-.9-1.1-1.1-1.8-.3-.7-.4-1.4-.4-2.2s.1-1.6.4-2.2c.3-.7.6-1.3 1.1-1.8s1.1-.9 1.8-1.1c.7-.3 1.5-.4 2.3-.4.9 0 1.7.1 2.3.4s1.2.6 1.6 1l-.6.9a.55.55 0 0 1-.5.3c-.1 0-.2 0-.4-.1s-.3-.2-.5-.3-.4-.2-.6-.2c-.2-.1-.4-.1-.7-.2-.3 0-.5-.1-.9-.1-.5 0-1 .1-1.5.3s-.8.4-1.1.8c-.3.3-.5.7-.7 1.2s-.2 1-.2 1.6.1 1.2.3 1.7.4.9.7 1.2a4.44 4.44 0 0 0 1.1.8c.7-.1 1.2 0 1.7 0zm8.9-6.4c.5 0 .9.1 1.3.2.4.2.8.4 1.1.7s.5.7.7 1.1.2.9.2 1.5v.3s0 .2-.1.2c0 .1-.1.1-.1.1h-.2-4.8c.1.8.3 1.4.6 1.7s.9.6 1.5.6c.3 0 .6 0 .8-.1s.4-.1.6-.2.3-.2.4-.2c.1-.1.2-.1.4-.1h.2c.1 0 .1.1.1.1l.5.7c-.2.2-.4.4-.7.6s-.5.3-.8.4-.6.2-.8.2c-.3 0-.6.1-.8.1-.5 0-1-.1-1.5-.3s-.9-.4-1.2-.8-.6-.8-.8-1.3-.3-1.1-.3-1.8c0-.5.1-1 .3-1.5s.4-.9.7-1.2.7-.6 1.2-.8c.4-.1.9-.2 1.5-.2zm.1 1.4c-.5 0-1 .2-1.3.5s-.5.7-.6 1.3h3.5c0-.2 0-.5-.1-.7l-.3-.6c-.1-.2-.3-.3-.5-.4s-.5-.1-.7-.1zm7.9-1.4c.5 0 .9.1 1.3.2.4.2.8.4 1.1.7s.5.7.7 1.1.2.9.2 1.5v.3s0 .2-.1.2c0 .1-.1.1-.1.1h-.2-4.8c.1.8.3 1.4.6 1.7s.9.6 1.5.6c.3 0 .6 0 .8-.1s.4-.1.6-.2.3-.2.4-.2c.1-.1.2-.1.4-.1h.2c.1 0 .1.1.1.1l.5.7c-.2.2-.4.4-.7.6s-.5.3-.8.4-.6.2-.8.2c-.3 0-.6.1-.8.1-.5 0-1-.1-1.5-.3s-.9-.4-1.2-.8-.6-.8-.8-1.3-.3-1.1-.3-1.8c0-.5.1-1 .3-1.5s.4-.9.7-1.2.7-.6 1.2-.8c.4-.1 1-.2 1.5-.2zm.1 1.4c-.5 0-1 .2-1.3.5s-.5.7-.6 1.3h3.5c0-.2 0-.5-.1-.7l-.3-.6c-.1-.2-.3-.3-.5-.4s-.4-.1-.7-.1zm6.7-4.7v6.4h.3c.1 0 .2 0 .3-.1.1 0 .1-.1.2-.2l1.9-2.4c.1-.1.2-.2.3-.2s.2-.1.4-.1h1.7l-2.4 2.9-.3.3c-.1.1-.2.2-.3.2l.3.3c.1.1.2.2.2.3l2.6 3.7h-1.7c-.1 0-.3 0-.4-.1-.1 0-.2-.1-.3-.3l-2-2.9-.2-.2c-.1 0-.2-.1-.3-.1h-.4v3.5h-1.9V108h2zm9.1 13.3c-.1.1-.1.2-.2.3s-.2.1-.4.1h-1.4l1.4-3.1-3.1-7.1h1.6c.1 0 .3 0 .3.1s.1.1.2.2l1.6 4c.1.1.1.3.1.4s.1.3.1.4c0-.1.1-.3.1-.4a.76.76 0 0 1 .2-.4l1.5-4c0-.1.1-.2.2-.2.1-.1.2-.1.3-.1h1.5l-4 9.8z" fill="#0087d4"/><g fill="#444"><path d="M60 298v-9.2h1.4c.3 0 .5.1.6.4l.1.7.5-.5c.2-.2.4-.3.6-.4l.6-.3c.2-.1.5-.1.8-.1.6 0 1.1.2 1.4.5.4.3.7.7.8 1.3.1-.3.3-.6.5-.8a3.04 3.04 0 0 1 .7-.5l.8-.3c.3-.1.6-.1.9-.1.5 0 1 .1 1.4.2.4.2.7.4 1 .7s.5.7.6 1.1.2.9.2 1.5v5.9h-2.2v-5.9c0-.6-.1-1-.4-1.3s-.6-.4-1.1-.4c-.2 0-.4 0-.6.1s-.4.2-.5.3-.3.3-.3.6c-.1.2-.1.5-.1.8v5.9h-2.2v-5.9c0-.6-.1-1.1-.4-1.3-.2-.3-.6-.4-1.1-.4-.3 0-.6.1-.9.2-.3.2-.5.4-.8.7v6.8H60z"/><use xlink:href="#AN"/><path d="M93 296.4c-.4 0-.8-.1-1.1-.3s-.5-.5-.7-.9c-.4.4-.7.7-1.1.9s-.8.3-1.3.3c-.4 0-.7-.1-1-.2s-.5-.3-.7-.5-.3-.5-.4-.8-.1-.7-.1-1 0-.7.1-1c.1-.4.2-.7.4-1s.4-.6.7-.9.6-.5.9-.7c.4-.2.8-.4 1.2-.5s.9-.2 1.5-.2c.5 0 .9 0 1.2.1l1 .3-.9 3.3c-.1.4-.1.7-.1 1a.9.9 0 0 0 .1.5c.1.2.1.2.2.3s.2.1.3.1h.4c.3 0 .5-.1.7-.2.2-.2.4-.4.6-.7s.3-.6.4-1 .1-.8.1-1.3c0-.8-.1-1.5-.4-2.1-.2-.6-.6-1.1-1-1.5s-1-.7-1.6-.9-1.3-.3-2-.3c-.8 0-1.5.1-2.2.4s-1.3.7-1.8 1.2-.9 1.1-1.2 1.8-.4 1.5-.4 2.3c0 1 .2 1.8.5 2.6.3.7.7 1.4 1.3 1.9.5.5 1.2.9 1.9 1.1.7.3 1.5.4 2.3.4.5 0 .9 0 1.3-.1s.8-.1 1.1-.2l.9-.3c.3-.1.5-.2.7-.4.1-.1.2-.1.3-.1.2 0 .3.1.4.3l.3.8c-.6.4-1.4.7-2.2 1s-1.8.4-2.9.4-2.1-.2-3-.5a6.08 6.08 0 0 1-2.4-1.5c-.7-.7-1.2-1.4-1.6-2.3s-.6-1.9-.6-3.1c0-.6.1-1.3.2-1.9.2-.6.4-1.2.7-1.7s.7-1 1.1-1.5a7.55 7.55 0 0 1 1.4-1.1c.5-.3 1.1-.6 1.7-.7a6.28 6.28 0 0 1 1.9-.3c.9 0 1.7.1 2.5.4s1.5.7 2.1 1.2 1.1 1.2 1.4 1.9c.4.8.5 1.6.5 2.6 0 .6-.1 1.2-.3 1.8s-.5 1-.8 1.5-.7.7-1.2 1a3.07 3.07 0 0 1-1.3.3zm-3.7-1.5c.2 0 .3 0 .5-.1s.3-.1.5-.3c.1-.1.3-.3.4-.5s.2-.5.3-.8l.7-2.5c-.2 0-.4-.1-.6-.1-.4 0-.7.1-1 .2s-.6.4-.8.7l-.6.9c-.1.4-.2.7-.2 1.1s.1.7.2.9c.1.4.3.5.6.5zm14.7-4.3c-.1.1-.1.2-.2.2s-.2.1-.3.1-.2 0-.3-.1-.3-.1-.4-.2c-.2-.1-.3-.1-.6-.2s-.5-.1-.7-.1c-.4 0-.8.1-1 .3-.3.2-.4.4-.4.7 0 .2.1.4.2.5s.3.3.5.4.5.2.7.3l.8.3.8.3c.3.1.5.3.7.5s.4.4.5.7.2.6.2 1a4.3 4.3 0 0 1-.2 1.2c-.1.3-.4.7-.7 1s-.7.5-1.2.6c-.5.2-1 .2-1.6.2-.3 0-.6 0-.9-.1s-.6-.1-.9-.2-.5-.2-.8-.4c-.2-.1-.4-.3-.6-.5l.5-.8c.1-.1.1-.2.2-.2.1-.1.2-.1.3-.1s.3 0 .4.1.3.2.4.3.4.2.6.3.5.1.8.1.5 0 .7-.1.3-.1.5-.2c.1-.1.2-.2.3-.4s.1-.3.1-.4c0-.2-.1-.4-.2-.5s-.3-.3-.5-.4-.5-.2-.7-.3l-.8-.3-.8-.3c-.3-.1-.5-.3-.7-.5s-.4-.4-.5-.7-.2-.6-.2-1 .1-.7.2-1.1c.1-.3.4-.6.7-.9s.7-.5 1.1-.6c.4-.2.9-.2 1.5-.2s1.2.1 1.7.3 1 .5 1.3.8l-.5.6zm2.4 7.4v-9.2h1.4c.3 0 .5.1.6.4l.1.7.5-.5c.2-.2.4-.3.6-.4l.6-.3c.2-.1.5-.1.8-.1.6 0 1.1.2 1.4.5.4.3.7.7.8 1.3.1-.3.3-.6.5-.8a3.04 3.04 0 0 1 .7-.5l.8-.3c.3-.1.6-.1.9-.1.5 0 1 .1 1.4.2.4.2.7.4 1 .7s.5.7.6 1.1.2.9.2 1.5v5.9h-2.2v-5.9c0-.6-.1-1-.4-1.3s-.6-.4-1.1-.4c-.2 0-.4 0-.6.1s-.4.2-.5.3-.3.3-.3.6c-.1.2-.1.5-.1.8v5.9h-2.2v-5.9c0-.6-.1-1.1-.4-1.3-.2-.3-.6-.4-1.1-.4-.3 0-.6.1-.9.2-.3.2-.5.4-.8.7v6.8h-2.3zm22.4 0h-1c-.2 0-.4 0-.5-.1s-.2-.2-.3-.4l-.2-.7c-.2.2-.5.4-.7.6s-.5.3-.7.4-.5.2-.8.2c-.3.1-.6.1-.9.1-.4 0-.8-.1-1.1-.2s-.6-.3-.9-.5c-.2-.2-.4-.5-.6-.8-.1-.3-.2-.7-.2-1.1a1.93 1.93 0 0 1 .3-1c.2-.3.5-.6.9-.9s1-.5 1.7-.7 1.6-.3 2.6-.3v-.5c0-.6-.1-1.1-.4-1.4s-.6-.4-1.1-.4c-.4 0-.7 0-.9.1l-.6.3c-.2.1-.3.2-.5.3s-.3.1-.5.1-.3 0-.4-.1l-.3-.3-.4-.7c1.1-1 2.3-1.5 3.8-1.5.5 0 1 .1 1.4.3s.8.4 1.1.7.5.7.7 1.1.2.9.2 1.4v6zm-4.3-1.4c.2 0 .4 0 .6-.1.2 0 .4-.1.5-.2.2-.1.3-.2.5-.3s.3-.3.5-.4v-1.5c-.6 0-1.2 0-1.6.1l-1 .3c-.2.1-.5.3-.6.4-.1.2-.2.4-.2.6 0 .4.1.7.3.8.3.3.6.3 1 .3zm6.5 1.4v-9.2h1.3c.2 0 .4 0 .5.1s.2.2.2.4l.1 1.1c.3-.6.7-1 1.2-1.4.4-.3.9-.5 1.5-.5.5 0 .8.1 1.1.3l-.3 1.7c0 .1-.1.2-.1.2s-.1.1-.2.1-.2 0-.4-.1c-.2 0-.4-.1-.6-.1-.5 0-.9.1-1.2.4s-.6.6-.8 1.1v5.8H131zm10.4.2c-.8 0-1.4-.2-1.8-.7s-.6-1.1-.6-1.9v-5.2h-.9c-.1 0-.2 0-.3-.1s-.1-.2-.1-.4v-.9l1.5-.2.5-2.5c0-.1.1-.2.2-.3s.2-.1.3-.1h1.2v2.9h2.4v1.6h-2.4v5c0 .3.1.5.2.7s.3.2.6.2h.3c.1 0 .2-.1.2-.1.1 0 .1-.1.2-.1h.2.2c.1 0 .1.1.1.1l.7 1.1c-.3.3-.7.5-1.1.6-.7.2-1.2.3-1.6.3zm7.1-9.6c.4 0 .8 0 1.1.1s.7.2 1 .4h2.7v.8c0 .1 0 .2-.1.3s-.2.1-.4.2l-.8.2a.9.9 0 0 1 .1.5v.5c0 .5-.1.9-.3 1.2-.2.4-.4.7-.8.9-.3.3-.7.5-1.1.6s-.9.2-1.4.2c-.3 0-.7 0-1-.1-.3.2-.4.4-.4.6s.1.3.3.4.4.1.7.2c.3 0 .6.1 1 .1h1.1c.4 0 .7.1 1.1.2s.7.2.9.4c.3.2.5.4.7.7s.3.6.3 1.1c0 .4-.1.8-.3 1.2s-.5.7-.9 1-.8.5-1.4.7-1.2.3-1.9.3-1.3-.1-1.8-.2-.9-.3-1.3-.5c-.3-.2-.6-.5-.8-.8s-.3-.6-.3-.9c0-.4.1-.8.4-1.1s.6-.5 1.1-.7c-.2-.1-.4-.3-.5-.5s-.2-.5-.2-.8c0-.1 0-.3.1-.4s.1-.3.2-.4.2-.3.4-.4c.1-.1.3-.2.5-.3-.5-.3-.8-.6-1.1-1s-.4-.9-.4-1.5c0-.5.1-.9.3-1.2.2-.4.4-.7.8-.9.3-.3.7-.5 1.2-.6.2-.4.7-.5 1.2-.5zm2.4 9.8c0-.2-.1-.3-.2-.5-.1-.1-.3-.2-.4-.3-.2-.1-.4-.1-.7-.1h-.8-.9c-.3 0-.6 0-.9-.1-.3.1-.5.3-.6.5-.2.2-.2.4-.2.7a.9.9 0 0 0 .1.5c.1.1.2.3.4.4s.4.2.7.2c.3.1.6.1 1 .1s.8 0 1.1-.1.5-.2.7-.3a.78.78 0 0 0 .4-.4c.3-.2.3-.4.3-.6zm-2.4-5.2c.3 0 .5 0 .7-.1s.4-.2.5-.3.2-.3.3-.5.1-.4.1-.6c0-.5-.1-.8-.4-1.1s-.7-.4-1.2-.4-1 .1-1.2.4c-.3.3-.4.6-.4 1.1 0 .2 0 .4.1.6s.2.3.3.5.3.2.5.3c.2 0 .4.1.7.1zm9.9-4.6c.6 0 1.1.1 1.6.3s.9.5 1.3.8c.4.4.6.8.8 1.3s.3 1.1.3 1.8v.4c0 .1 0 .2-.1.3 0 .1-.1.1-.2.1h-.3-5.7c.1.9.3 1.6.8 2.1s1 .7 1.8.7c.4 0 .7 0 .9-.1.3-.1.5-.2.7-.3s.4-.2.5-.3.3-.1.4-.1.2 0 .2.1c.1 0 .1.1.2.2l.6.8c-.2.3-.5.5-.8.7s-.6.4-1 .5-.7.2-1 .2-.7.1-1 .1c-.6 0-1.2-.1-1.8-.3s-1-.5-1.4-.9-.7-.9-1-1.5c-.2-.6-.4-1.3-.4-2.1 0-.6.1-1.2.3-1.8s.5-1 .9-1.4a5.02 5.02 0 0 1 1.4-1c.7-.4 1.3-.6 2-.6zm.1 1.6c-.6 0-1.2.2-1.5.5-.4.4-.6.9-.7 1.6h4.2c0-.3 0-.6-.1-.8s-.2-.5-.4-.7-.4-.3-.6-.5c-.3 0-.6-.1-.9-.1zm9.6-1.6c.6 0 1.1.1 1.6.3s.9.5 1.3.8c.4.4.6.8.8 1.3s.3 1.1.3 1.8v.4c0 .1 0 .2-.1.3 0 .1-.1.1-.2.1h-.3-5.7c.1.9.3 1.6.8 2.1s1 .7 1.8.7c.4 0 .7 0 .9-.1.3-.1.5-.2.7-.3s.4-.2.5-.3.3-.1.4-.1.2 0 .2.1c.1 0 .1.1.2.2l.6.8c-.2.3-.5.5-.8.7s-.6.4-1 .5-.7.2-1 .2-.7.1-1 .1c-.6 0-1.2-.1-1.8-.3s-1-.5-1.4-.9-.7-.9-1-1.5c-.2-.6-.4-1.3-.4-2.1 0-.6.1-1.2.3-1.8s.5-1 .9-1.4a5.02 5.02 0 0 1 1.4-1c.6-.4 1.3-.6 2-.6zm0 1.6c-.6 0-1.2.2-1.5.5-.4.4-.6.9-.7 1.6h4.2c0-.3 0-.6-.1-.8s-.2-.5-.4-.7-.4-.3-.6-.5c-.3 0-.6-.1-.9-.1zm8-5.5v7.7h.4c.2 0 .3 0 .4-.1s.2-.1.3-.2l2.3-2.8.3-.3c.1-.1.3-.1.5-.1h2l-2.9 3.4-.3.3c-.1.1-.2.2-.4.3l.3.3c.1.1.2.2.3.4l3.1 4.5h-2c-.2 0-.3 0-.4-.1l-.3-.3-2.3-3.5-.3-.3c-.1-.1-.2-.1-.4-.1h-.5v4.2H174v-13.4h2.1zm11 15.9a1.38 1.38 0 0 1-.3.4c-.1.1-.3.1-.5.1h-1.7l1.7-3.7-3.7-8.6h1.9c.2 0 .3 0 .4.1s.2.2.2.3l2 4.8c.1.2.1.3.2.5 0 .2.1.3.1.5 0-.2.1-.3.2-.5s.1-.3.2-.5l1.9-4.8c0-.1.1-.2.2-.3s.2-.1.4-.1h1.8l-5 11.8zm4.5-3.8c0-.2 0-.4.1-.5a1.38 1.38 0 0 1 .3-.4c.1-.1.3-.2.4-.3.2-.1.3-.1.5-.1s.4 0 .5.1a1.38 1.38 0 0 1 .4.3c.1.1.2.3.3.4a.9.9 0 0 1 .1.5c0 .2 0 .4-.1.5a1.38 1.38 0 0 1-.3.4c-.1.1-.3.2-.4.3s-.3.1-.5.1-.4 0-.5-.1-.3-.2-.4-.3-.2-.3-.3-.4c0-.1-.1-.3-.1-.5z"/><use xlink:href="#AN" x="121.1"/><path d="M208.7 288.6c.7 0 1.3.1 1.9.3s1 .5 1.4.9.7.9.9 1.5.3 1.2.3 2c0 .7-.1 1.4-.3 2s-.5 1.1-.9 1.5-.9.7-1.4 1c-.6.2-1.2.3-1.9.3s-1.3-.1-1.9-.3-1-.5-1.4-1c-.4-.4-.7-.9-.9-1.5s-.3-1.2-.3-2c0-.7.1-1.4.3-2s.5-1.1.9-1.5.9-.7 1.4-.9c.6-.1 1.2-.3 1.9-.3zm0 7.8c.8 0 1.3-.3 1.7-.8s.6-1.3.6-2.3-.2-1.8-.6-2.3-.9-.8-1.7-.8-1.4.3-1.7.8c-.4.5-.6 1.3-.6 2.3s.2 1.7.6 2.3 1 .8 1.7.8zm6.3 1.6v-9.2h1.4c.3 0 .5.1.6.4l.1.7.5-.5c.2-.2.4-.3.6-.4l.6-.3c.2-.1.5-.1.8-.1.6 0 1.1.2 1.4.5.4.3.7.7.8 1.3.1-.3.3-.6.5-.8a3.04 3.04 0 0 1 .7-.5l.8-.3c.3-.1.6-.1.9-.1.5 0 1 .1 1.4.2.4.2.7.4 1 .7s.5.7.6 1.1.2.9.2 1.5v5.9h-2.2v-5.9c0-.6-.1-1-.4-1.3s-.6-.4-1.1-.4c-.2 0-.4 0-.6.1s-.4.2-.5.3-.3.3-.3.6c-.1.2-.1.5-.1.8v5.9h-2.2v-5.9c0-.6-.1-1.1-.4-1.3-.2-.3-.6-.4-1.1-.4-.3 0-.6.1-.9.2-.3.2-.5.4-.8.7v6.8H215z"/></g></svg>