<svg xmlns="http://www.w3.org/2000/svg" xmlns:xlink="http://www.w3.org/1999/xlink" viewBox="0 0 800 400" xmlns:v="https://vecta.io/nano"><style><![CDATA[.Y{fill:#fff}.Z{fill:#92653d}.a{enable-background:new}.b{stroke-miterlimit:10}.c{fill-rule:evenodd}]]></style><path d="M0,0h800v400H0V0z" stroke="#aaa" stroke-width="2.254" class="Y b"/><path d="M66.6,168h667.6v151.7H66.6V168z" fill="#e47372"/><circle cx="654.6" cy="140.6" r="48.9" fill="#ddd"/><defs><circle id="A" cx="654.6" cy="140.6" r="48.9"/><path id="B" d="M74 103.9l2 4.8 5.3.4c.4 0 .5.5.3.7l-3.9 3.4 1.2 5.1c.1.4-.4.6-.6.4l-4.5-2.7-4.5 2.7c-.4.2-.7-.1-.6-.4l1.2-5.1-3.9-3.4c-.3-.3-.2-.6.3-.7l5.3-.4 2-4.8c-.1-.3.3-.3.4 0z"/><path id="C" d="M108.6 103.9l2 4.8 5.3.4c.4 0 .5.5.3.7l-3.9 3.4 1.2 5.1c.1.4-.4.6-.6.4l-4.5-2.7-4.5 2.7c-.4.2-.7-.1-.6-.4l1.2-5.1-3.9-3.4c-.3-.3-.2-.6.3-.7l5.3-.4 2-4.8c-.2-.3.2-.3.4 0z"/><path id="D" d="M133.4 214.6c-.1.1-.2.2-.3.2s-.2 0-.3-.1-.2-.1-.4-.2-.4-.2-.6-.2-.5-.1-.8-.1-.5 0-.7.1-.4.2-.5.3-.3.3-.3.4c-.1.2-.1.3-.1.5s.1.4.2.6.3.3.5.4.5.2.7.3l1.6.6c.3.1.5.3.7.4.2.2.4.4.5.6.1.3.2.6.2.9 0 .4-.1.8-.2 1.1s-.4.6-.6.9c-.3.3-.6.5-1.1.6-.4.1-.9.2-1.4.2-.6 0-1.2-.1-1.7-.3s-.9-.5-1.3-.8l.4-.6c0-.1.1-.1.2-.2s.1-.1.3-.1.2 0 .3.1.3.2.4.3.4.2.6.3.5.1.9.1c.3 0 .6 0 .8-.1l.6-.3a.55.55 0 0 0 .3-.5c.1-.2.1-.4.1-.6s-.1-.4-.2-.6-.3-.3-.5-.4-.5-.2-.7-.3l-1.8-.6c-.3-.1-.5-.3-.7-.5s-.4-.4-.5-.7-.2-.6-.2-1c0-.3.1-.7.2-1s.3-.6.6-.8l1-.6c.4-.1.8-.2 1.3-.2.6 0 1.1.1 1.6.3s.9.4 1.2.8l-.3.8h0z"/><path id="E" d="M147.4 212.9c.6 0 1.2.1 1.8.3.5.2 1 .5 1.3.9.4.4.6.9.8 1.4.2.6.3 1.2.3 1.9s-.1 1.3-.3 1.9-.5 1-.8 1.4c-.4.4-.8.7-1.3.9s-1.1.3-1.8.3c-.6 0-1.2-.1-1.8-.3-.5-.2-1-.5-1.3-.9-.4-.4-.7-.9-.9-1.4-.2-.6-.3-1.2-.3-1.9s.1-1.3.3-1.9.5-1 .9-1.4.8-.7 1.3-.9c.6-.1 1.2-.3 1.8-.3zm0 8c.9 0 1.5-.3 2-.9.4-.6.7-1.4.7-2.5s-.2-1.9-.7-2.5c-.4-.6-1.1-.9-2-.9-.4 0-.8.1-1.2.2-.3.2-.6.4-.8.7s-.4.6-.5 1.1c-.1.4-.2.9-.2 1.4s.1 1 .2 1.4.3.8.5 1 .5.5.8.7c.4.2.8.3 1.2.3z"/><path id="F" d="M174.6 210.3c0 .2 0 .3-.1.4s-.1.2-.2.4c-.1.1-.2.2-.4.2-.1.1-.3.1-.4.1s-.3 0-.4-.1-.2-.1-.4-.2-.2-.2-.2-.4-.1-.3-.1-.4 0-.3.1-.4.1-.3.2-.4.2-.2.4-.2c.1-.1.3-.1.4-.1s.3 0 .4.1.3.1.4.2.2.2.2.4.1.2.1.4zm-.3 2.8v8.9h-1.6v-8.9h1.6z"/><path id="G" d="M177.1 222v-8.9h.9c.2 0 .4.1.4.3l.1 1c.4-.4.8-.8 1.3-1 .5-.3 1-.4 1.7-.4.5 0 .9.1 1.3.2.4.2.7.4.9.7s.4.7.6 1.1.2.9.2 1.4v5.7h-1.6v-5.7c0-.7-.2-1.2-.5-1.6s-.8-.6-1.4-.6c-.5 0-.9.1-1.3.3s-.8.5-1.1.9v6.6h-1.5 0z"/><path id="H" d="M189.8 212.9c.4 0 .7 0 1.1.1.3.1.6.2.9.4h2.4v.6c0 .2-.1.3-.4.4l-1 .1c.2.4.3.8.3 1.3 0 .4-.1.8-.2 1.2-.2.4-.4.7-.7.9-.3.3-.6.4-1.1.6-.4.1-.9.2-1.3.2s-.8 0-1.2-.1c-.2.1-.3.3-.4.4s-.1.3-.1.4a.55.55 0 0 0 .3.5c.2.1.4.2.7.2s.6.1 1 .1h1.1c.4 0 .7 0 1.1.1l1 .3c.3.1.5.4.7.6a1.69 1.69 0 0 1 .3 1c0 .4-.1.8-.3 1.1-.2.4-.5.7-.8 1-.4.3-.8.5-1.3.7s-1.1.3-1.7.3-1.2-.1-1.7-.2-.9-.3-1.2-.5-.6-.5-.7-.8-.2-.6-.2-.9c0-.4.1-.8.4-1.1s.7-.6 1.1-.7c-.3-.1-.5-.3-.6-.5s-.2-.5-.2-.8c0-.1 0-.3.1-.4 0-.2.1-.3.2-.4s.2-.3.4-.4c.1-.1.3-.2.5-.3a2.41 2.41 0 0 1-1-1c-.2-.4-.4-.9-.4-1.4 0-.4.1-.8.2-1.2.2-.4.4-.7.7-.9s.7-.4 1.1-.6c0-.2.4-.3.9-.3h0zm2.8 9.5c0-.2-.1-.4-.2-.5s-.3-.2-.5-.3-.5-.1-.7-.2c-.3 0-.6-.1-.9-.1h-.9c-.3 0-.6 0-.9-.1-.3.2-.6.4-.8.6s-.3.5-.3.8c0 .2.1.4.2.6s.3.3.5.4.5.2.8.3.7.1 1.1.1.8 0 1.1-.1l.8-.3c.2-.1.4-.3.5-.5s.2-.4.2-.7h0zm-2.8-4.8c.3 0 .6 0 .8-.1s.4-.2.6-.4.3-.3.4-.6.1-.5.1-.7c0-.5-.2-1-.5-1.3s-.8-.5-1.4-.5-1.1.2-1.4.5-.5.8-.5 1.3c0 .3 0 .5.1.7s.2.4.4.6.4.3.6.4.5.1.8.1h0z"/><path id="I" d="M214.9 222v-8.9h.9c.2 0 .3 0 .4.1s.1.2.1.3l.1 1.4c.3-.6.7-1.1 1.1-1.5.4-.3 1-.5 1.6-.5.2 0 .5 0 .7.1s.4.1.6.2l-.2 1.2c0 .1-.1.2-.3.2-.1 0-.2 0-.4-.1s-.4-.1-.7-.1c-.5 0-1 .2-1.4.5s-.7.8-.9 1.4v5.7h-1.6 0z"/><path id="J" d="M231.9 222h-.7c-.2 0-.3 0-.4-.1-.1 0-.2-.1-.2-.3l-.2-.8c-.2.2-.5.4-.7.6s-.5.3-.7.4-.5.2-.8.3-.6.1-.9.1-.7 0-1-.1-.6-.2-.8-.4-.4-.4-.5-.7-.2-.6-.2-1.1a1.69 1.69 0 0 1 .3-1c.2-.3.5-.6.9-.9s1-.5 1.7-.6c.7-.2 1.5-.2 2.6-.2v-.7c0-.7-.1-1.2-.4-1.6s-.7-.5-1.3-.5c-.4 0-.7 0-1 .1s-.5.2-.7.3-.4.2-.5.3-.3.1-.4.1-.2 0-.3-.1l-.2-.2-.3-.5c.5-.5 1-.8 1.6-1.1s1.2-.4 1.9-.4c.5 0 .9.1 1.3.2.4.2.7.4 1 .7s.5.6.6 1.1.2.9.2 1.4l.1 5.7h0zm-4.1-1c.3 0 .5 0 .8-.1.2-.1.4-.1.6-.2s.4-.2.6-.4.4-.3.5-.5V218c-.7 0-1.3 0-1.8.1s-.9.2-1.2.4c-.3.1-.5.3-.7.5s-.2.4-.2.7c0 .2 0 .4.1.6a1.38 1.38 0 0 0 .3.4c.1.1.3.2.5.2.1.1.3.1.5.1h0z"/><path id="K" d="M274.4 224.6c-.1.1-.1.2-.2.3s-.2.1-.4.1h-1.2l1.6-3.5-3.7-8.4h1.4c.1 0 .2 0 .3.1l.2.2 2.4 5.6c.1.1.1.3.1.4s.1.3.1.4c0-.1.1-.3.1-.4s.1-.3.1-.4l2.3-5.6c0-.1.1-.2.2-.2.1-.1.2-.1.3-.1h1.2l-4.8 11.5h0z"/><path id="L" d="M306.6 212.9c.6 0 1.2.1 1.8.3.5.2 1 .5 1.3.9.4.4.6.9.8 1.4.2.6.3 1.2.3 1.9s-.1 1.3-.3 1.9-.5 1-.8 1.4c-.4.4-.8.7-1.3.9s-1.1.3-1.8.3c-.6 0-1.2-.1-1.8-.3-.5-.2-1-.5-1.3-.9-.4-.4-.7-.9-.9-1.4-.2-.6-.3-1.2-.3-1.9s.1-1.3.3-1.9.5-1 .9-1.4.8-.7 1.3-.9c.5-.1 1.1-.3 1.8-.3zm0 8c.9 0 1.5-.3 2-.9.4-.6.7-1.4.7-2.5s-.2-1.9-.7-2.5c-.4-.6-1.1-.9-2-.9-.4 0-.8.1-1.2.2-.3.2-.6.4-.8.7s-.4.6-.5 1.1c-.1.4-.2.9-.2 1.4s.1 1 .2 1.4.3.8.5 1 .5.5.8.7.7.3 1.2.3z"/><path id="M" d="M352 222.1c-.7 0-1.2-.2-1.6-.6s-.6-1-.6-1.7v-5.4h-1.1c-.1 0-.2 0-.2-.1s-.1-.1-.1-.3v-.6l1.5-.2.4-2.7c0-.1 0-.2.1-.2s.1-.1.2-.1h.8v3.1h2.5v1.1h-2.5v5.3c0 .4.1.7.3.8.2.2.4.3.7.3.2 0 .3 0 .4-.1s.2-.1.3-.1.2-.1.2-.1.1-.1.2-.1.2 0 .2.1l.5.7c-.3.3-.6.5-1 .6-.4.3-.8.3-1.2.3h0z"/><path id="N" d="M360.4 222v-8.9h.9c.2 0 .4.1.4.3l.1.9c.3-.4.7-.7 1.1-1s.9-.4 1.4-.4c.6 0 1.1.2 1.5.5s.6.8.8 1.4c.1-.3.3-.6.5-.8s.4-.4.7-.6.5-.3.8-.3c.3-.1.6-.1.9-.1.5 0 .9.1 1.3.2s.7.4.9.7c.3.3.4.6.6 1.1.1.4.2.9.2 1.4v5.7h-1.6v-5.7c0-.7-.2-1.2-.5-1.6s-.7-.5-1.3-.5c-.3 0-.5 0-.7.1s-.4.2-.6.4-.3.4-.4.7-.2.6-.2.9v5.7h-1.6v-5.7c0-.7-.1-1.2-.4-1.6s-.7-.5-1.3-.5c-.4 0-.7.1-1.1.3-.3.2-.6.5-.9.8v6.6h-1.5 0z"/><path id="O" d="M431.1 213.1v5.7c0 .7.2 1.2.5 1.6s.8.6 1.4.6c.5 0 .9-.1 1.3-.3s.8-.5 1.1-.9v-6.6h1.6v8.9h-.9c-.2 0-.4-.1-.4-.3l-.1-1c-.4.4-.8.8-1.3 1-.5.3-1 .4-1.7.4-.5 0-.9-.1-1.3-.2-.4-.2-.7-.4-.9-.7-.3-.3-.4-.6-.6-1.1-.1-.4-.2-.9-.2-1.4v-5.7h1.5z"/><path id="P" d="M450.6 210.3c0 .2 0 .3-.1.4s-.1.2-.2.4-.2.2-.4.2c-.1.1-.3.1-.4.1s-.3 0-.4-.1-.2-.1-.4-.2-.2-.2-.2-.4-.1-.3-.1-.4 0-.3.1-.4.1-.3.2-.4.2-.2.4-.2.3-.1.4-.1.3 0 .4.1.3.1.4.2.2.2.2.4.1.2.1.4zm-.3 2.8v8.9h-1.6v-8.9h1.6z"/><path id="Q" d="M475.7 212.9c.6 0 1.2.1 1.8.3.5.2 1 .5 1.3.9.4.4.6.9.8 1.4s.3 1.2.3 1.9-.1 1.3-.3 1.9-.5 1-.8 1.4-.8.7-1.3.9-1.1.3-1.8.3c-.6 0-1.2-.1-1.8-.3-.5-.2-1-.5-1.3-.9-.4-.4-.7-.9-.9-1.4-.2-.6-.3-1.2-.3-1.9s.1-1.3.3-1.9.5-1 .9-1.4.8-.7 1.3-.9c.6-.1 1.2-.3 1.8-.3zm0 8c.9 0 1.5-.3 2-.9.4-.6.7-1.4.7-2.5s-.2-1.9-.7-2.5-1.1-.9-2-.9c-.4 0-.8.1-1.2.2-.3.2-.6.4-.8.7s-.4.6-.5 1.1c-.1.4-.2.9-.2 1.4s.1 1 .2 1.4.3.8.5 1c.2.3.5.5.8.7.4.2.8.3 1.2.3z"/><path id="R" d="M547 214.6c-.1.1-.2.2-.3.2s-.2 0-.3-.1-.2-.1-.4-.2-.4-.2-.6-.2c-.2-.1-.5-.1-.8-.1s-.5 0-.7.1-.4.2-.5.3-.3.3-.3.4c-.1.2-.1.3-.1.5s.1.4.2.6.3.3.5.4.5.2.7.3.6.2.8.3l.8.3c.2.1.5.3.7.4.2.2.4.4.5.6.1.3.2.6.2.9 0 .4-.1.8-.2 1.1s-.4.6-.6.9-.6.5-1.1.6c-.4.1-.9.2-1.4.2-.6 0-1.2-.1-1.7-.3s-.9-.5-1.3-.8l.4-.6c0-.1.1-.1.2-.2s.1-.1.3-.1.2 0 .3.1.3.2.4.3.4.2.6.3.5.1.9.1c.3 0 .6 0 .8-.1l.6-.3a.55.55 0 0 0 .3-.5c0-.2.1-.4.1-.6s-.1-.4-.2-.6-.3-.3-.5-.4-.5-.2-.7-.3l-1.8-.6c-.3-.1-.5-.3-.7-.5s-.4-.4-.5-.7-.2-.6-.2-1c0-.3.1-.7.2-1s.3-.6.6-.8l1-.6c.4-.2.8-.2 1.3-.2.6 0 1.1.1 1.6.3s.9.4 1.2.8l-.3.8h0z"/><path id="S" d="M590.5 213.1h1.2c.1 0 .2 0 .3.1l.2.2 1.7 5.7c0 .2.1.4.1.6s.1.4.1.6c0-.2.1-.4.2-.6s.1-.4.2-.6l1.9-5.8c0-.1.1-.2.2-.2s.2-.1.3-.1h.7c.1 0 .2 0 .3.1l.2.2 1.8 5.8c.1.2.1.4.2.6 0 .2.1.4.1.6 0-.2.1-.4.1-.6s.1-.4.1-.6l1.7-5.7c0-.1.1-.2.2-.2s.2-.1.3-.1h1.2l-2.9 8.9h-1.2c-.2 0-.3-.1-.3-.3l-2-6c0-.1-.1-.3-.1-.4s-.1-.3-.1-.4c0 .1-.1.3-.1.4s-.1.3-.1.4l-2 6c-.1.2-.2.3-.4.3h-1.2l-2.9-8.9z"/><path id="T" d="M639 222.1c-.7 0-1.2-.2-1.6-.6s-.6-1-.6-1.7v-5.4h-1.1c-.1 0-.2 0-.2-.1s-.1-.1-.1-.3v-.6l1.5-.2.4-2.7c0-.1 0-.2.1-.2s.1-.1.2-.1h.8v3.1h2.5v1.1h-2.5v5.3c0 .4.1.7.3.8.2.2.4.3.7.3.2 0 .3 0 .4-.1s.2-.1.3-.1c.1-.1.2-.1.2-.1s.1-.1.2-.1.2 0 .2.1l.5.7c-.3.3-.6.5-1 .6-.4.3-.8.3-1.2.3h0z"/><path id="U" d="M152.8 245.2c-.7 0-1.2-.2-1.6-.6s-.6-1-.6-1.7v-5.4h-1.1c-.1 0-.2 0-.2-.1s-.1-.1-.1-.3v-.6l1.5-.2.4-2.7c0-.1 0-.2.1-.2s.1-.1.2-.1h.8v3.1h2.5v1.1h-2.5v5.3c0 .4.1.7.3.8.2.2.4.3.7.3.2 0 .3 0 .4-.1s.2-.1.3-.1.2-.1.2-.1.1-.1.2-.1.2 0 .2.1l.5.7c-.3.3-.6.5-1 .6-.4.2-.8.3-1.2.3h0z"/><path id="V" d="M189.5 233.4c0 .2 0 .3-.1.4s-.1.2-.2.4c-.1.1-.2.2-.4.2-.1.1-.3.1-.4.1s-.3 0-.4-.1-.2-.1-.4-.2-.2-.2-.2-.4-.1-.3-.1-.4 0-.3.1-.4.1-.3.2-.4.2-.2.4-.2c.1-.1.3-.1.4-.1s.3 0 .4.1.3.1.4.2.2.2.2.4.1.2.1.4zm-.4 2.7v8.9h-1.6v-8.9h1.6z"/><path id="W" d="M204.7 236c.4 0 .7 0 1.1.1.3.1.6.2.9.4h2.4v.6c0 .2-.1.3-.4.4l-1 .1c.2.4.3.8.3 1.3 0 .4-.1.8-.2 1.2-.2.4-.4.7-.7.9-.3.3-.6.4-1.1.6-.4.1-.9.2-1.3.2s-.8 0-1.2-.1c-.2.1-.3.3-.4.4s-.1.3-.1.4a.55.55 0 0 0 .3.5c.2.1.4.2.7.2s.6.1 1 .1h1.1c.4 0 .7 0 1.1.1l1 .3c.3.1.5.4.7.6a1.69 1.69 0 0 1 .3 1c0 .4-.1.8-.3 1.1-.2.4-.5.7-.8 1-.4.3-.8.5-1.3.7s-1.1.3-1.7.3-1.2-.1-1.7-.2-.9-.3-1.2-.5-.6-.5-.7-.8-.2-.6-.2-.9c0-.4.1-.8.4-1.1s.7-.6 1.1-.7c-.3-.1-.5-.3-.6-.5s-.2-.5-.2-.8c0-.1 0-.3.1-.4 0-.2.1-.3.2-.4s.2-.3.4-.4c.1-.1.3-.2.5-.3a2.41 2.41 0 0 1-1-1c-.2-.4-.4-.9-.4-1.4 0-.4.1-.8.2-1.2.2-.4.4-.7.7-.9s.7-.4 1.1-.6c-.1-.2.4-.3.9-.3h0zm2.7 9.5c0-.2-.1-.4-.2-.5s-.3-.2-.5-.3-.5-.1-.7-.2c-.3 0-.6-.1-.9-.1h-.9c-.3 0-.6 0-.9-.1-.3.2-.6.4-.8.6s-.3.5-.3.8c0 .2.1.4.2.6s.3.3.5.4.5.2.8.3.7.1 1.1.1.8 0 1.1-.1l.8-.3c.2-.1.4-.3.5-.5.2-.2.2-.5.2-.7h0zm-2.7-4.8c.3 0 .6 0 .8-.1s.4-.2.6-.4.3-.3.4-.6.1-.5.1-.7c0-.5-.2-1-.5-1.3s-.8-.5-1.4-.5-1.1.2-1.4.5-.5.8-.5 1.3c0 .3 0 .5.1.7s.2.4.4.6.4.3.6.4.4.1.8.1h0z"/><path id="X" d="M265.1 237.7c0 .1-.1.1-.1.1s-.1.1-.2.1-.2 0-.3-.1-.2-.2-.4-.2-.4-.2-.6-.2c-.2-.1-.5-.1-.8-.1-.4 0-.8.1-1.2.2-.3.2-.6.4-.8.7s-.4.6-.5 1.1c-.1.4-.2.9-.2 1.4s.1 1 .2 1.4.3.8.5 1.1.5.5.8.6.7.2 1.1.2.7 0 .9-.1.5-.2.6-.3.3-.2.4-.3.2-.1.3-.1.2 0 .3.1l.4.6c-.4.5-.9.8-1.4 1-.6.2-1.2.3-1.8.3s-1.1-.1-1.6-.3a2.73 2.73 0 0 1-1.2-.9c-.4-.4-.6-.9-.8-1.4-.2-.6-.3-1.2-.3-1.9s.1-1.3.3-1.8c.2-.6.5-1 .8-1.5a6.42 6.42 0 0 1 1.3-1c.5-.2 1.1-.3 1.8-.3.6 0 1.2.1 1.7.3s.9.5 1.3.9l-.5.4h0z"/><path id="Y" d="M268.9 232.1v7.6h.7c.1 0 .2-.1.3-.2l2.8-3c.1-.1.2-.2.3-.2s.2-.1.4-.1h1.4l-3.3 3.5c-.1.1-.2.2-.2.3s-.2.1-.3.2c.1.1.2.2.3.2.1.1.2.2.2.3l3.5 4.4h-1.4c-.1 0-.2 0-.3-.1s-.2-.1-.3-.2l-2.9-3.6c-.1-.1-.2-.2-.3-.2s-.2-.1-.4-.1h-.4v4.3h-1.6v-12.9h1.5v-.2z"/><path id="Z" d="M305.9 245c-.2 0-.4-.1-.4-.3l-.1-1.1c-.4.5-.8.8-1.3 1.1s-1 .4-1.7.4c-.5 0-1-.1-1.4-.3s-.8-.5-1.1-.9-.5-.9-.7-1.4c-.2-.6-.2-1.2-.2-2 0-.7.1-1.3.3-1.8s.4-1.1.8-1.5c.3-.4.7-.7 1.2-1 .5-.2 1-.4 1.6-.4.5 0 1 .1 1.4.3s.7.4 1 .8V232h1.6v13h-1 0zm-3-1.1c.5 0 1-.1 1.3-.4.4-.2.7-.6 1.1-1v-4.3c-.3-.4-.6-.7-.9-.8-.3-.2-.7-.2-1.1-.2-.8 0-1.5.3-1.9.9s-.7 1.4-.7 2.5c0 .6 0 1.1.1 1.5s.2.8.4 1 .4.5.7.6.6.2 1 .2z"/><path id="a" d="M378.7 232.1V245h-1.6v-12.9h1.6z"/><path id="b" d="M579.9 236c.5 0 1 .1 1.5.3s.8.4 1.2.8.6.8.8 1.2c.2.5.3 1.1.3 1.7 0 .2 0 .4-.1.5s-.2.1-.3.1h-5.9c0 .6.1 1.1.2 1.5s.3.8.6 1 .5.5.9.6c.3.1.7.2 1.1.2s.7 0 1-.1.5-.2.7-.3.4-.2.5-.3.3-.1.4-.1.2 0 .3.1l.4.6c-.2.2-.4.4-.7.6s-.6.3-.9.4-.6.2-1 .2c-.3.1-.7.1-1 .1-.6 0-1.2-.1-1.7-.3s-1-.5-1.3-.9c-.4-.4-.7-.9-.9-1.5s-.3-1.3-.3-2c0-.6.1-1.2.3-1.7s.5-1 .8-1.4c.4-.4.8-.7 1.3-.9.6-.3 1.2-.4 1.8-.4h0zm0 1.2c-.8 0-1.3.2-1.8.7-.4.4-.7 1-.8 1.8h4.8c0-.4 0-.7-.1-1s-.2-.6-.4-.8-.4-.4-.7-.5c-.3-.2-.6-.2-1-.2z"/><path id="c" d="M585.6 245v-8.9h.9c.2 0 .4.1.4.3l.1.9c.3-.4.7-.7 1.1-1s.9-.4 1.4-.4c.6 0 1.1.2 1.5.5s.6.8.8 1.4c.1-.3.3-.6.5-.8s.4-.4.7-.6.5-.3.8-.3.6-.1.9-.1c.5 0 .9.1 1.3.2s.7.4.9.7.4.6.6 1.1c.1.4.2.9.2 1.4v5.7h-1.6v-5.7c0-.7-.2-1.2-.5-1.6s-.7-.5-1.3-.5c-.3 0-.5 0-.7.1s-.4.2-.6.4-.3.4-.4.7-.2.6-.2.9v5.7h-1.6v-5.7c0-.7-.1-1.2-.4-1.6s-.7-.5-1.3-.5c-.4 0-.7.1-1.1.3s-.6.5-.9.8v6.6h-1.5 0z"/><path id="d" d="M621.7 245.2c-.7 0-1.2-.2-1.6-.6s-.6-1-.6-1.7v-5.4h-1.1c-.1 0-.2 0-.2-.1s-.1-.1-.1-.3v-.6l1.5-.2.4-2.7c0-.1 0-.2.1-.2s.1-.1.2-.1h.8v3.1h2.5v1.1h-2.5v5.3c0 .4.1.7.3.8.2.2.4.3.7.3.2 0 .3 0 .4-.1s.2-.1.3-.1c.1-.1.2-.1.2-.1s.1-.1.2-.1.2 0 .2.1l.5.7c-.3.3-.6.5-1 .6-.4.2-.8.3-1.2.3h0z"/><path id="e" d="M632.6 244.1c0-.2 0-.3.1-.4s.1-.3.2-.4.2-.2.3-.2c.1-.1.3-.1.4-.1s.3 0 .4.1.3.1.4.2.2.2.2.4.1.3.1.4c0 .2 0 .3-.1.4s-.1.2-.2.3-.2.2-.4.2c-.1.1-.3.1-.4.1s-.3 0-.4-.1-.2-.1-.3-.2-.2-.2-.2-.3-.1-.3-.1-.4z"/><path id="f" d="M103.7 268.1h-.7c-.2 0-.3 0-.4-.1-.1 0-.2-.1-.2-.3l-.2-.8c-.2.2-.5.4-.7.6s-.5.3-.7.4-.5.2-.8.3-.6.1-.9.1-.7 0-1-.1-.6-.2-.8-.4-.4-.4-.5-.7-.2-.6-.2-1.1a1.69 1.69 0 0 1 .3-1c.2-.3.5-.6.9-.9s1-.5 1.7-.6c.7-.2 1.5-.2 2.6-.2v-.7c0-.7-.1-1.2-.4-1.6s-.7-.5-1.3-.5c-.4 0-.7 0-1 .1s-.5.2-.7.3-.4.2-.5.3-.3.1-.4.1-.2 0-.3-.1l-.2-.2-.3-.5c.5-.5 1-.8 1.6-1.1s1.2-.4 1.9-.4c.5 0 .9.1 1.3.2.4.2.7.4 1 .7s.5.6.6 1.1.2.9.2 1.4l.1 5.7h0zm-4.1-1c.3 0 .5 0 .8-.1.2-.1.4-.1.6-.2s.4-.2.6-.4.4-.3.5-.5v-1.8c-.7 0-1.3 0-1.8.1s-.9.2-1.2.4c-.3.1-.5.3-.7.5s-.2.4-.2.7c0 .2 0 .4.1.6a1.38 1.38 0 0 0 .3.4c.1.1.3.2.5.2.1.1.3.1.5.1h0z"/><path id="g" d="M155.5 259.1c.6 0 1.2.1 1.8.3.5.2 1 .5 1.3.9.4.4.6.9.8 1.4.2.6.3 1.2.3 1.9s-.1 1.3-.3 1.9-.5 1-.8 1.4c-.4.4-.8.7-1.3.9s-1.1.3-1.8.3c-.6 0-1.2-.1-1.8-.3-.5-.2-1-.5-1.3-.9-.4-.4-.7-.9-.9-1.4-.2-.6-.3-1.2-.3-1.9s.1-1.3.3-1.9.5-1 .9-1.4.8-.7 1.3-.9c.6-.2 1.2-.3 1.8-.3zm0 7.9c.9 0 1.5-.3 2-.9.4-.6.7-1.4.7-2.5s-.2-1.9-.7-2.5c-.4-.6-1.1-.9-2-.9-.4 0-.8.1-1.2.2-.3.2-.6.4-.8.7s-.4.6-.5 1.1c-.1.4-.2.9-.2 1.4s.1 1 .2 1.4.3.8.5 1 .5.5.8.7c.4.2.8.3 1.2.3h0z"/><path id="h" d="M432.8 256.4c0 .2 0 .3-.1.4s-.1.2-.2.4-.2.2-.4.2c-.1.1-.3.1-.4.1s-.3 0-.4-.1-.2-.1-.4-.2-.2-.2-.2-.4-.1-.3-.1-.4 0-.3.1-.4.1-.3.2-.4.2-.2.4-.2.3-.1.4-.1.3 0 .4.1.3.1.4.2.2.2.2.4.1.3.1.4zm-.3 2.8v8.9h-1.6v-8.9h1.6z"/><path id="i" d="M453.2 259.1c.6 0 1.2.1 1.8.3.5.2 1 .5 1.3.9.4.4.6.9.8 1.4s.3 1.2.3 1.9-.1 1.3-.3 1.9-.5 1-.8 1.4-.8.7-1.3.9-1.1.3-1.8.3c-.6 0-1.2-.1-1.8-.3-.5-.2-1-.5-1.3-.9-.4-.4-.7-.9-.9-1.4-.2-.6-.3-1.2-.3-1.9s.1-1.3.3-1.9.5-1 .9-1.4.8-.7 1.3-.9c.6-.2 1.2-.3 1.8-.3zm0 7.9c.9 0 1.5-.3 2-.9.4-.6.7-1.4.7-2.5s-.2-1.9-.7-2.5-1.1-.9-2-.9c-.4 0-.8.1-1.2.2-.3.2-.6.4-.8.7s-.4.6-.5 1.1c-.1.4-.2.9-.2 1.4s.1 1 .2 1.4.3.8.5 1c.2.3.5.5.8.7.4.2.8.3 1.2.3h0z"/><path id="j" d="M471.3 256.4c0 .2 0 .3-.1.4s-.1.2-.2.4-.2.2-.4.2c-.1.1-.3.1-.4.1s-.3 0-.4-.1-.2-.1-.4-.2-.2-.2-.2-.4-.1-.3-.1-.4 0-.3.1-.4.1-.3.2-.4.2-.2.4-.2.3-.1.4-.1.3 0 .4.1.3.1.4.2.2.2.2.4.1.3.1.4zm-.4 2.8v8.9h-1.6v-8.9h1.6z"/><path id="k" d="M612.7 268.1h-.7c-.2 0-.3 0-.4-.1s-.2-.1-.2-.3l-.2-.8c-.2.2-.5.4-.7.6s-.5.3-.7.4-.5.2-.8.3-.6.1-.9.1-.7 0-1-.1-.6-.2-.8-.4-.4-.4-.5-.7-.2-.6-.2-1.1a1.69 1.69 0 0 1 .3-1c.2-.3.5-.6.9-.9s1-.5 1.7-.6c.7-.2 1.5-.2 2.6-.2v-.7c0-.7-.1-1.2-.4-1.6s-.7-.5-1.3-.5c-.4 0-.7 0-1 .1s-.5.2-.7.3-.4.2-.5.3-.3.1-.4.1-.2 0-.3-.1l-.2-.2-.3-.5c.5-.5 1-.8 1.6-1.1s1.2-.4 1.9-.4c.5 0 .9.1 1.3.2s.7.4 1 .7.5.6.6 1.1.2.9.2 1.4v5.7h.1zm-4.1-1c.3 0 .5 0 .8-.1s.4-.1.6-.2.4-.2.6-.4c.2-.1.4-.3.5-.5v-1.8c-.7 0-1.3 0-1.8.1s-.9.2-1.2.4c-.3.1-.5.3-.7.5s-.2.4-.2.7c0 .2 0 .4.1.6s.2.3.3.4.3.2.5.2.3.1.5.1h0z"/><path id="l" d="M639.9 268.1v-12.9h1.6v5.2a6.42 6.42 0 0 1 1.3-1c.5-.2 1-.4 1.6-.4.5 0 .9.1 1.3.2.4.2.7.4.9.7s.4.7.6 1.1.2.9.2 1.4v5.7h-1.6v-5.7c0-.7-.2-1.2-.5-1.6s-.8-.6-1.4-.6c-.5 0-.9.1-1.3.3s-.8.5-1.1.9v6.6l-1.6.1h0z"/><path id="m" d="M99.3 286.4v4.7h-1.7v-12.6h3.7c.8 0 1.5.1 2.1.3s1.1.4 1.5.8c.4.3.7.8.9 1.2.2.5.3 1 .3 1.6s-.1 1.1-.3 1.6-.5.9-.9 1.3-.9.6-1.5.8-1.3.3-2 .3h-2.1 0zm0-1.3h2c.5 0 .9-.1 1.3-.2s.7-.3.9-.5c.3-.2.4-.5.6-.8.1-.3.2-.7.2-1.1 0-.8-.2-1.4-.7-1.9s-1.2-.7-2.2-.7h-2v5.2h-.1z"/><path id="n" d="M158.3 282.1c.6 0 1.2.1 1.8.3.5.2 1 .5 1.3.9.4.4.6.9.8 1.4.2.6.3 1.2.3 1.9s-.1 1.3-.3 1.9-.5 1-.8 1.4c-.4.4-.8.7-1.3.9s-1.1.3-1.8.3c-.6 0-1.2-.1-1.8-.3-.5-.2-1-.5-1.3-.9-.4-.4-.7-.9-.9-1.4-.2-.6-.3-1.2-.3-1.9s.1-1.3.3-1.9.5-1 .9-1.4.8-.7 1.3-.9c.6-.2 1.2-.3 1.8-.3zm0 8c.9 0 1.5-.3 2-.9.4-.6.7-1.4.7-2.5s-.2-1.9-.7-2.5c-.4-.6-1.1-.9-2-.9-.4 0-.8.1-1.2.2-.3.2-.6.4-.8.7s-.4.6-.5 1.1c-.1.4-.2.9-.2 1.4s.1 1 .2 1.4.3.8.5 1 .5.5.8.7c.4.2.8.3 1.2.3h0z"/><path id="o" d="M171.7 87.1c.5-.5 1.1-.8 1.7-1s1.3-.3 2-.3c.5 0 1 .1 1.4.3s.8.4 1 .7c.3.3.5.7.7 1.1s.2.9.2 1.4v5.5h-1.1c-.2 0-.4 0-.5-.1s-.2-.2-.3-.4l-.2-.6c-.2.2-.4.4-.6.5s-.4.3-.6.4-.5.2-.7.2-.5.1-.8.1c-.4 0-.7-.1-1.1-.2-.3-.1-.6-.3-.8-.5s-.4-.5-.5-.8-.2-.6-.2-1c0-.3.1-.6.2-1 .2-.3.4-.6.8-.9s.9-.5 1.6-.7 1.5-.3 2.5-.3V89c0-.5-.1-1-.3-1.2-.2-.3-.6-.4-1-.4-.3 0-.6 0-.8.1s-.4.2-.6.2-.3.2-.5.2c-.1.1-.3.1-.5.1s-.3 0-.4-.1l-.3-.3-.3-.5zm4.7 3.9c-.6 0-1 .1-1.4.1-.4.1-.7.2-.9.3s-.4.2-.5.4-.1.3-.1.5c0 .3.1.6.3.7s.5.2.8.2c.4 0 .7-.1 1-.2s.6-.4.9-.7V91z"/></defs><clipPath id="p"><use xlink:href="#A"/></clipPath><circle cx="654.6" cy="140.6" r="48.9" clip-path="url(#p)" fill="#ddd"/><defs><circle id="q" cx="654.6" cy="140.6" r="48.9"/></defs><clipPath id="r"><use xlink:href="#q"/></clipPath><g clip-path="url(#r)"><g class="c"><g fill="#f5be92"><ellipse transform="matrix(.9499 -.3126 .3126 .9499 -9.5945 205.5578)" cx="636.3" cy="132.7" rx="2.6" ry="4.4"/><ellipse transform="matrix(.3129 -.9498 .9498 .3129 336.5875 730.456)" cx="673.2" cy="132.6" rx="4.4" ry="2.6"/></g><path d="M667.6 110.1c3.8.6 5.9 3.1 6.8 6.7 2.4 9.2-2.5 29-19.5 29.3-8.7.1-15-2.1-17.2-9.2-2.3-7-3.3-18.5 1.8-24.8 6.1-8.1 19.3-8.1 28.1-2h0z" class="Z"/><path d="M647.6 156.7c-15.8 6.9-20.6 10.7-22.4 12.3-2.9 2.5-4.5 12.4-6.3 20.5h71.6c-1.8-8-3.1-18-6-20.5-1.9-1.6-6.4-5.3-22.2-12.2l-14.7-.1h0z" fill="#4c9dd2" stroke="#4c9dd2" stroke-width="1.084" stroke-linejoin="round" class="b"/><g fill="#f5be92"><path d="M647.1 142.9v18.8c4.3 5 11.2 5.2 15.3 0V143c0-9.6-15.3-9.6-15.3-.1z"/><path d="M654.8 111.4c-25.8 0-16.5 33.6-14.8 36.1 1.9 2.8 10.7 7.5 14.8 7.5s12.9-5.4 14.8-8.2c1.6-2.4 10.9-35.4-14.8-35.4z"/></g><path d="M642.2 119.5c4.5 2.8 8-1.4 12.1.4s15.8-3 18.2 15.6c3.9-13.4-2.6-24.8-17.5-25.4-15.7-.6-22.1 11.7-17.7 25-.3-7.2 1.5-12 4.9-15.6z" class="Z"/><g stroke="#fff" stroke-width="2" class="Y b"><path d="M646.3 156.6l-5.4 2.9 7.9 10.9 6-5.7-8.5-8.1h0z"/><path d="M663.2 156.6l5.4 2.9-7.9 10.9-6-5.7 8.5-8.1h0z"/></g></g><path d="M641.8 118.4c.4 2.3 3.6 2.5 5.4 2.8 3.5.4 7.8-1 10.6-3 .3-.1.1-.5-.1-.5-3-.1-5.8 1.9-8.8 2.1-2.1.1-5.2-.1-6.9-1.6-.1-.1-.2 0-.2.2h0z" class="Z"/><path d="M644.2 135.1s.9 1.4 3.4 1.4 3-1.3 3-1.6c0 0-1-1.6-3-1.6-2-.1-3.4 1.8-3.4 1.8h0z" class="Y"/><radialGradient id="s" cx="647.59" cy="502.759" r="1.468" gradientTransform="matrix(1 0 0 1 0 -368)" gradientUnits="userSpaceOnUse"><stop offset="0" stop-color="#624a2e"/><stop offset=".036" stop-color="#6d5633"/><stop offset=".122" stop-color="#816b3d"/><stop offset=".223" stop-color="#907c45"/><stop offset=".348" stop-color="#9b884a"/><stop offset=".523" stop-color="#a18f4d"/><stop offset="1" stop-color="#a3914e"/></radialGradient><circle cx="647.5" cy="134.8" r="1.5" fill="url(#s)"/><path d="M647.5 133.4c.8 0 1.4.6 1.4 1.4s-.6 1.4-1.4 1.4-1.4-.6-1.4-1.4c.1-.7.7-1.4 1.4-1.4m0-.2c-.9 0-1.6.8-1.6 1.6 0 .9.8 1.6 1.6 1.6.9 0 1.6-.8 1.6-1.6s-.6-1.6-1.6-1.6h0z" fill="#624a2e"/><circle cx="647.5" cy="134.8" r=".6"/><path d="M665.2 135.1s-.9 1.4-3.4 1.4-3-1.3-3-1.6c0 0 1-1.6 3-1.6 2-.1 3.4 1.8 3.4 1.8h0z" class="Y"/><radialGradient id="t" cx="-1597.475" cy="502.759" r="1.468" gradientTransform="matrix(-1 0 0 1 -935.5322 -368)" gradientUnits="userSpaceOnUse"><stop offset="0" stop-color="#624a2e"/><stop offset=".036" stop-color="#6d5633"/><stop offset=".122" stop-color="#816b3d"/><stop offset=".223" stop-color="#907c45"/><stop offset=".348" stop-color="#9b884a"/><stop offset=".523" stop-color="#a18f4d"/><stop offset="1" stop-color="#a3914e"/></radialGradient><circle cx="661.9" cy="134.8" r="1.5" fill="url(#t)"/><path d="M661.9 133.4c.8 0 1.4.6 1.4 1.4s-.6 1.4-1.4 1.4-1.4-.6-1.4-1.4c0-.7.7-1.4 1.4-1.4m0-.2c-.9 0-1.6.8-1.6 1.6 0 .9.8 1.6 1.6 1.6.9 0 1.6-.8 1.6-1.6-.1-.9-.7-1.6-1.6-1.6h0z" fill="#624a2e"/><circle cx="661.9" cy="134.8" r=".6"/><path d="M651.9 141.9c-.4.3-.5.6-.1 1 .8.5 1.6.5 2.5.5s1.9-.1 2.6-.5c.4-.3.6-1 .1-1.3-.1 0-.3 0-.3.1s.1.4.1.5c0 .3-.4.4-.5.4-.5.3-1.1.3-1.8.3-.4 0-3.1.1-2.6-1h0zm-2 6.6c2.8 2 7.2 1.5 9.8-.4.1 0 0-.1-.1-.1-3.3 1.4-6.3 1.8-9.7.5 0-.2 0-.1 0 0h0z" fill="#e48f67"/><path d="M641.3 129.2c3.1-.5 6.3-.9 9.2.8.3.1.5-.3.3-.4-2.4-1.7-7-2.3-9.5-.4 0-.2 0 0 0 0h0 0zm26.7-.2c-2.5-1.8-7-1.1-9.4.4-.3.1 0 .6.3.4 2.8-1.6 5.9-1.1 9.1-.8 0 .2 0 0 0 0h0 0z" class="Z"/><path d="M661.8 141.1h.4c4-.4 4.9-2.1 5.4-4.4.5-2.5.5-3.4 1.1-3.5.5-.1.6-.8.6-1.4s0-.8-.8-1c-.6-.3-4-.5-6.5-.4v.6c2-.1 3.9.1 4.5.5 1.3.9.9 4.8-.1 6.8-.8 1.4-2.8 2-4.5 2.1l-.1.7h0zm-7.4-9.3c-.9 0-4.5-1-7-1.3h-.5v.6c2.1.1 4.3.5 4.9 1.6 1.3 1.8-1 6.3-2.9 7.3-.6.3-1.4.5-2.3.5v.6c3.4 0 4.6-2.5 5.2-3.3.8-1.5.6-3.6 2.6-3.8 2 0 1.8 2.1 2.4 3.6.4.9 1.5 3.4 5 3.3v-.6c-.9 0-1.8-.1-2.4-.5-1.9-1-3.8-5.4-2.5-7.3.8-1.1 2.9-1.6 5-1.6v-.6h-.5c-2.1.4-4.9 1.4-7 1.5zm-7.6-1.3c-2.5-.1-5.9.1-6.5.4-.8.3-.9.4-.9 1s0 1.3.5 1.4c.6.3.6 1.1 1 3.5.3 2.3 1.1 4 5.2 4.4h.6v-.6c-1.8 0-3.9-.6-4.5-2.1-1-2-1.1-5.9.3-6.8.6-.4 2.5-.6 4.4-.5l-.1-.7h0z" fill="#0a6f90" class="c"/><path d="M671.1 125.6c-.8-.1-1.4-.5-1.9-1-.3-.3-.5-.6-.6-1s0-.6-.4-1c-.1-.1-.5-.3-.6-.1h0v-.4c.1-.5-.5-.9-.9-.5-.3.1-.4.4-.5.6 0-.4-.4-.9-.9-.8s-1.3 0-1.8-.1v-.3c-.3-.8-.8-1.1-1.1-1.8-.3-.6-1.4-.5-1.5.3v.1c-.1-.3-.3-.5-.4-.6-.3-.3-.6-.3-.8.1-.1.3-.1.6-.1.9-.3.1-.5.3-.8.3 0 0-.1 0-.1-.1-1-.4-1.9-.8-2.8-1.4-.3-.3-.6-.3-.9 0-.4-.3-1-.3-1.4.3-1.4 2.1-2.4.1-3.5-.4-.5-.3-1 0-1 .6v.3c-.1-.1-.1-.3-.3-.4-.3-.5-1-.5-1.4-.1-1 .8-2.1 1.1-3.4 1.3h-.5c.3-.1.4-.4.3-.6 0-.1 0 0 0 0 0-.3-.1-.5-.5-.6-.5-.1-1-.4-1.5-.5-.4 0-.6.4-.4.6l.1.1v.1c-.4-.3-.8-.6-1.1-1-.3-.1-.5-.1-.6.1-1 4 5.2 3.4 7.9 2.1 2 2.4 6.3 2.9 7.5-.1.8 1 2.4 1.1 3.8.9.4 0 .8-.1 1-.4.4.6.8 1 1.3 1.4 1.3.9 2.9 1 4.4.5.3-.1.4-.3.4-.4-.1.9.3 1.9.8 2.5.9 1.1 2.4 2 3.9 1.9.9-.1 1.2-1.2.3-1.4zm-30.8-12h0c.3-.1.4-.4.4-.5.4.1.9-.1.9-.6-.1-1.1.1-1.9 1.3-2.1.9-.3 2-.1 2.9 0 .6 0 1-.9.5-1.3-.4-.4-.8-.6-1.3-.8.3-.1.4-.3.6-.4.1 0 .3-.1.5-.1v1c0 .4.6.3.6-.1s.1-.6.3-.9c.4.1.6.3 1 .1.3-.1.4-.3.4-.5.4.1.6.3 1 .5.4.3.5.6 1 .8.4.1.6-.1.6-.5 0-.5-.4-1-.9-1.3.5-.8 1.4-.9 2.3-.6 0 .3.1.5.5.6s.6.1 1 .3h.1c0 .5.1.9.3 1.3s.6.3.6-.1c0-1.6 1.1-1.9 2.4-1.6.6.1 1.3.5 1.8.9.4.4.8.9 1.3 1.1.3.1.6 0 .6-.3.5-1.9-2.6-3.1-4-3.3-.8-.1-1.6.1-2.3.6-.1 0-.1.1-.3.3 0 0 0-.1-.1-.1-1.4-1.4-4.6-1.4-5.2.6-.5-.1-.9-.1-1.3-.1-.3 0-.4 0-.6.1-.8-.1-1.6 0-2.3.3-.5.3-1 .6-1.4 1.1-.1.1-.1.3-.1.4-.9 0-1.8.1-2.5.4-1.8.6-1.9 2.3-1.8 3.8-1.8.4-3.4 3-2.6 4.4.1.5.3 1 .6 1.4-.8.1-1.4.6-1.6 1.3-1.1 1.1-1.1 3.4 0 4.6.1.1.1.3.3.4.1.1.3.1.3.1.6.1 1.4-.5 1-1.1s-.5-1.4-.4-2.1c0-.3.1-.5.3-.6h.3c.4 0 .6-.4.8-.6.1 0 .3 0 .3-.1.8-.1.6-1 .1-1.4.3-.3.4-.8 0-1.1-.8-1 .1-2.5 1.1-3.1.2-.7.6-.7.7-1.1h0z" class="Z"/></g><g fill="#ffae04"><use xlink:href="#B"/><path d="M91.3 103.9l2 4.8 5.3.4c.4 0 .5.5.3.7l-3.9 3.4 1.2 5.1c.1.4-.4.6-.6.4l-4.5-2.7-4.5 2.7c-.4.2-.7-.1-.6-.4l1.2-5.1-3.9-3.4c-.3-.3-.2-.6.3-.7l5.3-.4 2-4.8c-.1-.3.2-.3.4 0z"/><use xlink:href="#C"/><use xlink:href="#C" x="17.3"/><use xlink:href="#B" x="69.1"/></g><g class="Y a"><path d="M99.4 222h-1.7v-12.6h1.7V222zm5.4-8.9h1.2c.1 0 .2 0 .3.1l.2.2 1.7 5.7c0 .2.1.4.1.6s.1.4.1.6c0-.2.1-.4.2-.6s.1-.4.2-.6l1.9-5.8c0-.1.1-.2.2-.2s.2-.1.3-.1h.7c.1 0 .2 0 .3.1l.2.2 1.8 5.8c.1.2.1.4.2.6 0 .2.1.4.1.6 0-.2.1-.4.1-.6s.1-.4.1-.6l1.7-5.7c0-.1.1-.2.2-.2s.2-.1.3-.1h1.2l-2.9 8.9H114c-.2 0-.3-.1-.3-.3l-2-6c0-.1-.1-.3-.1-.4s-.1-.3-.1-.4c0 .1-.1.3-.1.4s-.1.3-.1.4l-2 6c-.1.2-.2.3-.4.3h-1.2l-2.9-8.9zm21.1 8.9h-.7c-.2 0-.3 0-.4-.1-.1 0-.2-.1-.2-.3l-.2-.8c-.2.2-.5.4-.7.6s-.5.3-.7.4-.5.2-.8.3-.6.1-.9.1-.7 0-1-.1-.6-.2-.8-.4-.4-.4-.5-.7-.2-.6-.2-1.1a1.69 1.69 0 0 1 .3-1c.2-.3.5-.6.9-.9s1-.5 1.7-.6c.7-.2 1.5-.2 2.6-.2v-.7c0-.7-.1-1.2-.4-1.6s-.7-.5-1.3-.5c-.4 0-.7 0-1 .1s-.5.2-.7.3-.4.2-.5.3-.3.1-.4.1-.2 0-.3-.1l-.2-.2-.3-.5c.5-.5 1-.8 1.6-1.1s1.2-.4 1.9-.4c.5 0 .9.1 1.3.2.4.2.7.4 1 .7s.5.6.6 1.1.2.9.2 1.4l.1 5.7h0zm-4-1c.3 0 .5 0 .8-.1.2-.1.4-.1.6-.2s.4-.2.6-.4.4-.3.5-.5V218c-.7 0-1.3 0-1.8.1s-.9.2-1.2.4c-.3.1-.5.3-.7.5s-.2.4-.2.7c0 .2 0 .4.1.6a1.38 1.38 0 0 0 .3.4c.1.1.3.2.5.2.1.1.3.1.5.1z"/><use xlink:href="#D"/><path d="M141.1 209v13h-1.6v-13h1.6z"/><use xlink:href="#E"/><path d="M157.2 212.9c.6 0 1.2.1 1.8.3.5.2 1 .5 1.3.9.4.4.6.9.8 1.4.2.6.3 1.2.3 1.9s-.1 1.3-.3 1.9-.5 1-.8 1.4c-.4.4-.8.7-1.3.9s-1.1.3-1.8.3c-.6 0-1.2-.1-1.8-.3-.5-.2-1-.5-1.3-.9-.4-.4-.7-.9-.9-1.4-.2-.6-.3-1.2-.3-1.9s.1-1.3.3-1.9.5-1 .9-1.4.8-.7 1.3-.9c.6-.1 1.1-.3 1.8-.3zm0 8c.9 0 1.5-.3 2-.9.4-.6.7-1.4.7-2.5s-.2-1.9-.7-2.5c-.4-.6-1.1-.9-2-.9-.4 0-.8.1-1.2.2-.3.2-.6.4-.8.7s-.4.6-.5 1.1c-.1.4-.2.9-.2 1.4s.1 1 .2 1.4.3.8.5 1 .5.5.8.7c.4.2.7.3 1.2.3zM165 209v7.6h.7c.1 0 .2-.1.3-.2l2.8-3c.1-.1.2-.2.3-.2s.2-.1.4-.1h1.4l-3.3 3.5c-.1.1-.2.2-.2.3s-.2.1-.3.2c.1.1.2.2.3.2.1.1.2.2.2.3l3.5 4.4h-1.4c-.1 0-.2 0-.3-.1s-.2-.1-.3-.2l-2.9-3.6c-.1-.1-.2-.2-.3-.2s-.2-.1-.4-.1h-.5v4.3h-1.6V209h1.6z"/><use xlink:href="#F"/><use xlink:href="#G"/><use xlink:href="#H"/><path d="M199.5 222v-7.6l-1-.1c-.1 0-.2-.1-.3-.1-.1-.1-.1-.2-.1-.3v-.6h1.4v-.9c0-.5.1-1 .2-1.4s.3-.7.6-1 .6-.5 1-.6.8-.2 1.3-.2c.4 0 .8.1 1.1.2v.8c0 .1-.1.2-.1.2h-.7c-.3 0-.5 0-.7.1l-.6.3c-.2.1-.3.4-.4.6-.1.3-.1.6-.1 1v.8h2.6v1.1h-2.5v7.6l-1.7.1h0z"/><use xlink:href="#E" x="61.3"/><use xlink:href="#I"/><use xlink:href="#J"/><use xlink:href="#I" x="22.7"/><path d="M248.2 212.9c.5 0 1 .1 1.5.3s.8.4 1.2.8c.3.3.6.8.8 1.2.2.5.3 1.1.3 1.7 0 .2 0 .4-.1.5s-.2.1-.3.1h-5.9c0 .6.1 1.1.2 1.5s.3.8.6 1c.2.3.5.5.9.6.3.1.7.2 1.1.2s.7 0 1-.1.5-.2.7-.3.4-.2.5-.3.3-.1.4-.1.2 0 .3.1l.4.6c-.2.2-.4.4-.7.6s-.6.3-.9.4-.6.2-1 .2c-.3.1-.7.1-1 .1-.6 0-1.2-.1-1.7-.3s-1-.5-1.3-.9c-.4-.4-.7-.9-.9-1.5s-.3-1.3-.3-2c0-.6.1-1.2.3-1.7s.5-1 .8-1.4c.4-.4.8-.7 1.3-.9.6-.2 1.2-.4 1.8-.4h0zm.1 1.2c-.8 0-1.3.2-1.8.7-.4.4-.7 1-.8 1.8h4.8c0-.4 0-.7-.1-1s-.2-.6-.4-.8-.4-.4-.7-.5-.7-.2-1-.2z"/><use xlink:href="#J" x="28.6"/><path d="M264.6 209v13H263v-13h1.6zm4.5 0v13h-1.6v-13h1.6z"/><use xlink:href="#K"/><use xlink:href="#H" x="97.4"/><path d="M296.8 212.9c.6 0 1.2.1 1.8.3.5.2 1 .5 1.3.9.4.4.6.9.8 1.4.2.6.3 1.2.3 1.9s-.1 1.3-.3 1.9-.5 1-.8 1.4c-.4.4-.8.7-1.3.9s-1.1.3-1.8.3c-.6 0-1.2-.1-1.8-.3-.5-.2-1-.5-1.3-.9-.4-.4-.7-.9-.9-1.4-.2-.6-.3-1.2-.3-1.9s.1-1.3.3-1.9.5-1 .9-1.4.8-.7 1.3-.9c.5-.1 1.1-.3 1.8-.3zm0 8c.9 0 1.5-.3 2-.9.4-.6.7-1.4.7-2.5s-.2-1.9-.7-2.5c-.4-.6-1.1-.9-2-.9-.4 0-.8.1-1.2.2-.3.2-.6.4-.8.7s-.4.6-.5 1.1c-.1.4-.2.9-.2 1.4s.1 1 .2 1.4.3.8.5 1 .5.5.8.7c.4.2.7.3 1.2.3z"/><use xlink:href="#L"/><path d="M319 222c-.2 0-.4-.1-.4-.3l-.1-1.1c-.4.5-.8.8-1.3 1.1s-1 .4-1.7.4c-.5 0-1-.1-1.4-.3s-.8-.5-1.1-.9-.5-.9-.7-1.4c-.2-.6-.2-1.2-.2-2 0-.7.1-1.3.3-1.8s.4-1.1.8-1.5c.3-.4.7-.7 1.2-1 .5-.2 1-.4 1.6-.4.5 0 1 .1 1.4.3s.7.4 1 .8V209h1.6v13h-1 0zm-3.1-1.2c.5 0 1-.1 1.3-.4.4-.2.7-.6 1.1-1v-4.3c-.3-.4-.6-.7-.9-.8-.3-.2-.7-.2-1.1-.2-.8 0-1.5.3-1.9.9s-.7 1.4-.7 2.5c0 .6 0 1.1.1 1.5s.2.8.4 1 .4.5.7.6.7.2 1 .2zm12.7 1.3c-.7 0-1.2-.2-1.6-.6s-.6-1-.6-1.7v-5.4h-1.1c-.1 0-.2 0-.2-.1s-.1-.1-.1-.3v-.6l1.5-.2.4-2.7c0-.1 0-.2.1-.2s.1-.1.2-.1h.8v3.1h2.5v1.1H328v5.3c0 .4.1.7.3.8.2.2.4.3.7.3.2 0 .3 0 .4-.1s.2-.1.3-.1.2-.1.2-.1.1-.1.2-.1.2 0 .2.1l.5.7c-.3.3-.6.5-1 .6-.4.3-.8.3-1.2.3zm7.4-9.2c.5 0 1 .1 1.5.3s.8.4 1.2.8c.3.3.6.8.8 1.2.2.5.3 1.1.3 1.7 0 .2 0 .4-.1.5s-.2.1-.3.1h-5.9c0 .6.1 1.1.2 1.5s.3.8.6 1c.2.3.5.5.9.6.3.1.7.2 1.1.2s.7 0 1-.1.5-.2.7-.3.4-.2.5-.3.3-.1.4-.1.2 0 .3.1l.4.6c-.2.2-.4.4-.7.6s-.6.3-.9.4-.6.2-1 .2c-.3.1-.7.1-1 .1-.6 0-1.2-.1-1.7-.3s-1-.5-1.3-.9c-.4-.4-.7-.9-.9-1.5s-.3-1.3-.3-2c0-.6.1-1.2.3-1.7s.5-1 .8-1.4c.4-.4.8-.7 1.3-.9.6-.2 1.2-.4 1.8-.4h0zm0 1.2c-.8 0-1.3.2-1.8.7-.4.4-.7 1-.8 1.8h4.8c0-.4 0-.7-.1-1s-.2-.6-.4-.8-.4-.4-.7-.5-.6-.2-1-.2z"/><use xlink:href="#D" x="213.4"/><use xlink:href="#M"/><path d="M357.9 210.3c0 .2 0 .3-.1.4s-.1.2-.2.4c-.1.1-.2.2-.4.2-.1.1-.3.1-.4.1s-.3 0-.4-.1-.2-.1-.4-.2-.2-.2-.2-.4-.1-.3-.1-.4 0-.3.1-.4.1-.3.2-.4.2-.2.4-.2c.1-.1.3-.1.4-.1s.3 0 .4.1.3.1.4.2.2.2.2.4.1.2.1.4zm-.3 2.8v8.9H356v-8.9h1.6z"/><use xlink:href="#N"/><use xlink:href="#L" x="71.8"/><use xlink:href="#G" x="207.4"/><path d="M396.4 210.3c0 .2 0 .3-.1.4s-.1.2-.2.4c-.1.1-.2.2-.4.2-.1.1-.3.1-.4.1s-.3 0-.4-.1-.2-.1-.4-.2-.2-.2-.2-.4-.1-.3-.1-.4 0-.3.1-.4.1-.3.2-.4.2-.2.4-.2c.1-.1.3-.1.4-.1s.3 0 .4.1.3.1.4.2.2.2.2.4.1.2.1.4zm-.4 2.8v8.9h-1.6v-8.9h1.6zm9.3 8.9h-.7c-.2 0-.3 0-.4-.1s-.2-.1-.2-.3l-.2-.8c-.2.2-.5.4-.7.6s-.5.3-.7.4-.5.2-.8.3-.6.1-.9.1-.7 0-1-.1-.6-.2-.8-.4-.4-.4-.5-.7-.2-.6-.2-1.1a1.69 1.69 0 0 1 .3-1c.2-.3.5-.6.9-.9s1-.5 1.7-.6c.7-.2 1.5-.2 2.6-.2v-.7c0-.7-.1-1.2-.4-1.6s-.7-.5-1.3-.5c-.4 0-.7 0-1 .1s-.5.2-.7.3-.4.2-.5.3-.3.1-.4.1-.2 0-.3-.1l-.2-.2-.3-.5c.5-.5 1-.8 1.6-1.1.6-.2 1.2-.4 1.9-.4.5 0 .9.1 1.3.2s.7.4 1 .7.5.6.6 1.1.2.9.2 1.4v5.7h.1zm-4-1c.3 0 .5 0 .8-.1s.4-.1.6-.2.4-.2.6-.4.4-.3.5-.5V218c-.7 0-1.3 0-1.8.1s-.9.2-1.2.4c-.3.1-.5.3-.7.5s-.2.4-.2.7c0 .2 0 .4.1.6a1.38 1.38 0 0 0 .3.4c.1.1.3.2.5.2s.3.1.5.1h0zm8.2-12v13h-1.6v-13h1.6zm6.1 16v-11.9h.9c.2 0 .4.1.4.3l.1 1.1c.4-.5.8-.8 1.3-1.1s1.1-.4 1.7-.4c.5 0 1 .1 1.4.3s.8.5 1.1.9.5.9.7 1.4c.2.6.2 1.2.2 2 0 .7-.1 1.3-.3 1.8-.2.6-.4 1.1-.8 1.5-.3.4-.7.7-1.2 1-.5.2-1 .4-1.6.4-.5 0-1-.1-1.4-.3s-.7-.4-1-.8v3.9l-1.5-.1h0zm4-10.8c-.5 0-1 .1-1.3.4-.4.2-.7.6-1.1 1v4.3c.3.4.6.7.9.8s.7.2 1.1.2c.8 0 1.5-.3 1.9-.9s.7-1.4.7-2.5c0-.6-.1-1.1-.2-1.5s-.2-.8-.4-1c-.2-.3-.4-.5-.7-.6s-.6-.2-.9-.2zm7.4-5.2v13h-1.6v-13h1.6z"/><use xlink:href="#O"/><path d="M442.6 212.9c.4 0 .7 0 1.1.1.3.1.6.2.9.4h2.4v.6c0 .2-.1.3-.4.4l-1 .1c.2.4.3.8.3 1.3 0 .4-.1.8-.3 1.2s-.4.7-.7.9-.6.4-1.1.6c-.4.1-.9.2-1.3.2s-.8 0-1.2-.1c-.2.1-.3.3-.4.4s-.1.3-.1.4a.55.55 0 0 0 .3.5c.2.1.4.2.7.2s.6.1 1 .1h1.1c.4 0 .7 0 1.1.1l1 .3c.3.1.5.4.7.6s.3.6.3 1-.1.8-.3 1.1c-.2.4-.5.7-.8 1-.4.3-.8.5-1.3.7s-1.1.3-1.7.3-1.2-.1-1.7-.2-.9-.3-1.2-.5-.6-.5-.7-.8-.2-.6-.2-.9c0-.4.1-.8.4-1.1s.7-.6 1.1-.7c-.3-.1-.5-.3-.6-.5s-.2-.5-.2-.8c0-.1 0-.3.1-.4 0-.2.1-.3.2-.4s.2-.3.4-.4.3-.2.5-.3a2.41 2.41 0 0 1-1-1c-.2-.4-.4-.9-.4-1.4 0-.4.1-.8.3-1.2s.4-.7.7-.9.7-.4 1.1-.6c-.1-.2.4-.3.9-.3h0zm2.7 9.5c0-.2-.1-.4-.2-.5s-.3-.2-.5-.3-.5-.1-.7-.2c-.3 0-.6-.1-.9-.1h-.9c-.3 0-.6 0-.9-.1-.3.2-.6.4-.8.6s-.3.5-.3.8c0 .2.1.4.2.6s.3.3.5.4.5.2.8.3.7.1 1.1.1.8 0 1.1-.1l.8-.3c.2-.1.4-.3.5-.5s.2-.4.2-.7h0zm-2.7-4.8c.3 0 .6 0 .8-.1s.4-.2.6-.4.3-.3.4-.6.1-.5.1-.7c0-.5-.2-1-.5-1.3s-.8-.5-1.4-.5-1.1.2-1.4.5-.5.8-.5 1.3c0 .3 0 .5.1.7s.2.4.4.6.4.3.6.4.4.1.8.1z"/><use xlink:href="#P"/><path d="M453 222v-8.9h.9c.2 0 .4.1.4.3l.1 1c.4-.4.8-.8 1.3-1 .5-.3 1-.4 1.7-.4.5 0 .9.1 1.3.2.4.2.7.4.9.7s.4.7.6 1.1.2.9.2 1.4v5.7h-1.6v-5.7c0-.7-.2-1.2-.5-1.6s-.8-.6-1.4-.6c-.5 0-.9.1-1.3.3s-.8.5-1.1.9v6.6H453zm13.5 0v-7.6l-1-.1c-.1 0-.2-.1-.3-.1s-.1-.2-.1-.3v-.6h1.4v-.9c0-.5.1-1 .2-1.4s.3-.7.6-1 .6-.5 1-.6.8-.2 1.3-.2c.4 0 .8.1 1.1.2v.8c0 .1-.1.2-.1.2h-.7c-.3 0-.5 0-.7.1l-.6.3c-.2.2-.3.4-.4.6-.1.3-.1.6-.1 1v.8h2.6v1.1h-2.5v7.6l-1.7.1h0z"/><use xlink:href="#Q"/><use xlink:href="#I" x="267"/><use xlink:href="#Q" x="20.2"/><use xlink:href="#O" x="72.4"/><use xlink:href="#I" x="297"/><path d="M522.4 222v-13h1.6v5.3c.4-.4.8-.8 1.3-1 .5-.3 1-.4 1.6-.4.5 0 1 .1 1.4.3s.8.5 1.1.9.5.9.7 1.4.2 1.2.2 2c0 .7-.1 1.3-.3 1.8-.2.6-.4 1.1-.8 1.5-.3.4-.7.7-1.2 1-.5.2-1 .4-1.6.4s-1.1-.1-1.5-.3-.8-.5-1-.9l-.1.8c0 .2-.2.3-.4.3h-1v-.1zm4-7.8c-.5 0-1 .1-1.3.4-.4.2-.7.6-1.1 1v4.3c.3.4.6.7.9.8s.7.2 1.1.2c.8 0 1.5-.3 1.9-.9s.7-1.4.7-2.5c0-.6-.1-1.1-.2-1.5s-.2-.8-.4-1c-.2-.3-.4-.5-.7-.6s-.6-.2-.9-.2z"/><use xlink:href="#O" x="102.4"/><use xlink:href="#R"/><use xlink:href="#P" x="101"/><use xlink:href="#G" x="377"/><path d="M567.3 212.9c.5 0 1 .1 1.5.3s.8.4 1.2.8.6.8.8 1.2c.2.5.3 1.1.3 1.7 0 .2 0 .4-.1.5s-.2.1-.3.1h-5.9c0 .6.1 1.1.2 1.5s.3.8.6 1 .5.5.9.6c.3.1.7.2 1.1.2s.7 0 1-.1.5-.2.7-.3.4-.2.5-.3.3-.1.4-.1.2 0 .3.1l.4.6c-.2.2-.4.4-.7.6s-.6.3-.9.4-.6.2-1 .2c-.3.1-.7.1-1 .1-.6 0-1.2-.1-1.7-.3s-1-.5-1.3-.9c-.4-.4-.7-.9-.9-1.5s-.3-1.3-.3-2c0-.6.1-1.2.3-1.7s.5-1 .8-1.4c.4-.4.8-.7 1.3-.9.6-.2 1.2-.4 1.8-.4h0zm.1 1.2c-.8 0-1.3.2-1.8.7-.4.4-.7 1-.8 1.8h4.8c0-.4 0-.7-.1-1s-.2-.6-.4-.8-.4-.4-.7-.5-.7-.2-1-.2z"/><use xlink:href="#R" x="31.1"/><use xlink:href="#R" x="38.7"/><use xlink:href="#S"/><path d="M608.6 212.9c.5 0 1 .1 1.5.3s.8.4 1.2.8.6.8.8 1.2c.2.5.3 1.1.3 1.7 0 .2 0 .4-.1.5s-.2.1-.3.1h-6c0 .6.1 1.1.2 1.5s.3.8.6 1 .5.5.9.6c.3.1.7.2 1.1.2s.7 0 1-.1.5-.2.7-.3.4-.2.5-.3.3-.1.4-.1.2 0 .3.1l.4.6c-.2.2-.4.4-.7.6s-.6.3-.9.4-.6.2-1 .2c-.3.1-.7.1-1 .1-.6 0-1.2-.1-1.7-.3s-1-.5-1.3-.9c-.4-.4-.7-.9-.9-1.5s-.3-1.3-.3-2c0-.6.1-1.2.3-1.7s.5-1 .8-1.4c.4-.4.8-.7 1.3-.9.7-.2 1.3-.4 1.9-.4h0zm.1 1.2c-.8 0-1.3.2-1.8.7-.4.4-.7 1-.8 1.8h4.8c0-.4 0-.7-.1-1s-.2-.6-.4-.8-.4-.4-.7-.5c-.4-.1-.7-.2-1-.2zm5.7 7.9v-13h1.6v5.3c.4-.4.8-.8 1.3-1 .5-.3 1-.4 1.6-.4.5 0 1 .1 1.4.3s.8.5 1.1.9.5.9.7 1.4.2 1.2.2 2c0 .7-.1 1.3-.3 1.8-.2.6-.4 1.1-.8 1.5-.3.4-.7.7-1.2 1-.5.2-1 .4-1.6.4s-1.1-.1-1.5-.3-.8-.5-1-.9l-.1.8c0 .2-.2.3-.4.3h-1v-.1zm3.9-7.8c-.5 0-1 .1-1.3.4-.4.2-.7.6-1.1 1v4.3c.3.4.6.7.9.8s.7.2 1.1.2c.8 0 1.5-.3 1.9-.9s.7-1.4.7-2.5c0-.6-.1-1.1-.2-1.5s-.2-.8-.4-1c-.2-.3-.4-.5-.7-.6-.2-.1-.5-.2-.9-.2z"/><use xlink:href="#R" x="82.2"/><path d="M633.9 210.3c0 .2 0 .3-.1.4s-.1.2-.2.4-.2.2-.4.2c-.1.1-.3.1-.4.1s-.3 0-.4-.1-.2-.1-.4-.2-.2-.2-.2-.4-.1-.3-.1-.4 0-.3.1-.4.1-.3.2-.4.2-.2.4-.2.3-.1.4-.1.3 0 .4.1.3.1.4.2.2.2.2.4.1.2.1.4zm-.4 2.8v8.9h-1.6v-8.9h1.6z"/><use xlink:href="#T"/><path d="M646.3 212.9c.5 0 1 .1 1.5.3s.8.4 1.2.8.6.8.8 1.2c.2.5.3 1.1.3 1.7 0 .2 0 .4-.1.5s-.2.1-.3.1h-5.9c0 .6.1 1.1.2 1.5s.3.8.6 1 .5.5.9.6c.3.1.7.2 1.1.2s.7 0 1-.1.5-.2.7-.3.4-.2.5-.3.3-.1.4-.1.2 0 .3.1l.4.6c-.2.2-.4.4-.7.6s-.6.3-.9.4-.6.2-1 .2c-.3.1-.7.1-1 .1-.6 0-1.2-.1-1.7-.3s-1-.5-1.3-.9c-.4-.4-.7-.9-.9-1.5s-.3-1.3-.3-2c0-.6.1-1.2.3-1.7s.5-1 .8-1.4c.4-.4.8-.7 1.3-.9.6-.2 1.2-.4 1.8-.4h0zm.1 1.2c-.8 0-1.3.2-1.8.7-.4.4-.7 1-.8 1.8h4.8c0-.4 0-.7-.1-1s-.2-.6-.4-.8-.4-.4-.7-.5c-.4-.1-.7-.2-1-.2zm15.5 7.9h-.7c-.2 0-.3 0-.4-.1s-.2-.1-.2-.3l-.2-.8c-.2.2-.5.4-.7.6s-.5.3-.7.4-.5.2-.8.3-.6.1-.9.1-.7 0-1-.1-.6-.2-.8-.4-.4-.4-.5-.7-.2-.6-.2-1.1a1.69 1.69 0 0 1 .3-1c.2-.3.5-.6.9-.9s1-.5 1.7-.6c.7-.2 1.5-.2 2.6-.2v-.7c0-.7-.1-1.2-.4-1.6s-.7-.5-1.3-.5c-.4 0-.7 0-1 .1s-.5.2-.7.3-.4.2-.5.3-.3.1-.4.1-.2 0-.3-.1l-.2-.2-.3-.5c.5-.5 1-.8 1.6-1.1s1.2-.4 1.9-.4c.5 0 .9.1 1.3.2s.7.4 1 .7.5.6.6 1.1.2.9.2 1.4v5.7h.1zm-4-1c.3 0 .5 0 .8-.1s.4-.1.6-.2.4-.2.6-.4c.2-.1.4-.3.5-.5V218c-.7 0-1.3 0-1.8.1s-.9.2-1.2.4c-.3.1-.5.3-.7.5s-.2.4-.2.7c0 .2 0 .4.1.6s.2.3.3.4.3.2.5.2.3.1.5.1h0z"/><use xlink:href="#G" x="487.2"/><path d="M680.3 222c-.2 0-.4-.1-.4-.3l-.1-1.1c-.4.5-.8.8-1.3 1.1s-1 .4-1.7.4c-.5 0-1-.1-1.4-.3s-.8-.5-1.1-.9-.5-.9-.7-1.4c-.2-.6-.2-1.2-.2-2 0-.7.1-1.3.3-1.8s.4-1.1.8-1.5c.3-.4.7-.7 1.2-1 .5-.2 1-.4 1.6-.4.5 0 1 .1 1.4.3s.7.4 1 .8V209h1.6v13h-1 0zm-3-1.2c.5 0 1-.1 1.3-.4.4-.2.7-.6 1.1-1v-4.3c-.3-.4-.6-.7-.9-.8-.3-.2-.7-.2-1.1-.2-.8 0-1.5.3-1.9.9s-.7 1.4-.7 2.5c0 .6 0 1.1.1 1.5s.2.8.4 1 .4.5.7.6c.3.2.7.2 1 .2h0z"/></g><g class="Y a"><use xlink:href="#S" x="-494.5" y="23"/><path d="M117.2 245h-.7c-.2 0-.3 0-.4-.1-.1 0-.2-.1-.2-.3l-.2-.8c-.2.2-.5.4-.7.6s-.5.3-.7.4-.5.2-.8.3-.6.1-.9.1-.7 0-1-.1-.6-.2-.8-.4-.4-.4-.5-.7-.2-.6-.2-1.1a1.69 1.69 0 0 1 .3-1c.2-.3.5-.6.9-.9s1-.5 1.7-.6c.7-.2 1.5-.2 2.6-.2v-.7c0-.7-.1-1.2-.4-1.6s-.7-.5-1.3-.5c-.4 0-.7 0-1 .1s-.5.2-.7.3-.4.2-.5.3-.3.1-.4.1-.2 0-.3-.1l-.2-.2-.3-.5c.5-.5 1-.8 1.6-1.1s1.2-.4 1.9-.4c.5 0 .9.1 1.3.2.4.2.7.4 1 .7s.5.6.6 1.1.2.9.2 1.4l.1 5.7h0zm-4.1-.9c.3 0 .5 0 .8-.1.2-.1.4-.1.6-.2s.4-.2.6-.4.4-.3.5-.5v-1.8c-.7 0-1.3 0-1.8.1s-.9.2-1.2.4c-.3.1-.5.3-.7.5s-.2.4-.2.7c0 .2 0 .4.1.6a1.38 1.38 0 0 0 .3.4c.1.1.3.2.5.2.1.1.3.1.5.1z"/><use xlink:href="#D" x="-8.8" y="23"/><use xlink:href="#G" x="-46.6" y="23"/><path d="M143.9 236c.6 0 1.2.1 1.8.3.5.2 1 .5 1.3.9.4.4.6.9.8 1.4.2.6.3 1.2.3 1.9s-.1 1.3-.3 1.9-.5 1-.8 1.4c-.4.4-.8.7-1.3.9s-1.1.3-1.8.3c-.6 0-1.2-.1-1.8-.3-.5-.2-1-.5-1.3-.9-.4-.4-.7-.9-.9-1.4-.2-.6-.3-1.2-.3-1.9s.1-1.3.3-1.9.5-1 .9-1.4.8-.7 1.3-.9c.6-.2 1.2-.3 1.8-.3zm0 7.9c.9 0 1.5-.3 2-.9.4-.6.7-1.4.7-2.5s-.2-1.9-.7-2.5c-.4-.6-1.1-.9-2-.9-.4 0-.8.1-1.2.2-.3.2-.6.4-.8.7s-.4.6-.5 1.1c-.1.4-.2.9-.2 1.4s.1 1 .2 1.4.3.8.5 1 .5.5.8.7c.4.3.8.3 1.2.3z"/><use xlink:href="#U"/><path d="M160 245v-12.9h1.6v5.2a6.42 6.42 0 0 1 1.3-1c.5-.2 1-.4 1.6-.4.5 0 .9.1 1.3.2.4.2.7.4.9.7s.4.7.6 1.1.2.9.2 1.4v5.7h-1.6v-5.7c0-.7-.2-1.2-.5-1.6s-.8-.6-1.4-.6c-.5 0-.9.1-1.3.3s-.8.5-1.1.9v6.6H160v.1zm16.3 0h-.7c-.2 0-.3 0-.4-.1-.1 0-.2-.1-.2-.3l-.2-.8c-.2.2-.5.4-.7.6s-.5.3-.7.4-.5.2-.8.3-.6.1-.9.1-.7 0-1-.1-.6-.2-.8-.4-.4-.4-.5-.7-.2-.6-.2-1.1a1.69 1.69 0 0 1 .3-1c.2-.3.5-.6.9-.9s1-.5 1.7-.6c.7-.2 1.5-.2 2.6-.2v-.7c0-.7-.1-1.2-.4-1.6s-.7-.5-1.3-.5c-.4 0-.7 0-1 .1s-.5.2-.7.3-.4.2-.5.3-.3.1-.4.1-.2 0-.3-.1l-.2-.2-.3-.5c.5-.5 1-.8 1.6-1.1s1.2-.4 1.9-.4c.5 0 .9.1 1.3.2.4.2.7.4 1 .7s.5.6.6 1.1.2.9.2 1.4l.1 5.7h0zm-4-.9c.3 0 .5 0 .8-.1.2-.1.4-.1.6-.2s.4-.2.6-.4.4-.3.5-.5v-1.8c-.7 0-1.3 0-1.8.1s-.9.2-1.2.4c-.3.1-.5.3-.7.5s-.2.4-.2.7c0 .2 0 .4.1.6a1.38 1.38 0 0 0 .3.4c.1.1.3.2.5.2.1.1.3.1.5.1h0zm5-8h1.3c.1 0 .2 0 .3.1l.2.2 2.3 5.7c.1.2.1.4.2.6 0 .2.1.4.1.6 0-.2.1-.4.1-.6.1-.2.1-.4.2-.6l2.3-5.7c0-.1.1-.2.2-.2s.2-.1.3-.1h1.2l-3.6 8.9H181l-3.7-8.9z"/><use xlink:href="#V"/><use xlink:href="#G" x="14.8" y="23"/><use xlink:href="#W"/><path d="M220.6 245h-.7c-.2 0-.3 0-.4-.1-.1 0-.2-.1-.2-.3l-.2-.8c-.2.2-.5.4-.7.6s-.5.3-.7.4-.5.2-.8.3-.6.1-.9.1-.7 0-1-.1-.6-.2-.8-.4-.4-.4-.5-.7-.2-.6-.2-1.1a1.69 1.69 0 0 1 .3-1c.2-.3.5-.6.9-.9s1-.5 1.7-.6c.7-.2 1.5-.2 2.6-.2v-.7c0-.7-.1-1.2-.4-1.6s-.7-.5-1.3-.5c-.4 0-.7 0-1 .1s-.5.2-.7.3-.4.2-.5.3-.3.1-.4.1-.2 0-.3-.1l-.2-.2-.3-.5c.5-.5 1-.8 1.6-1.1s1.2-.4 1.9-.4c.5 0 .9.1 1.3.2.4.2.7.4 1 .7s.5.6.6 1.1.2.9.2 1.4v5.7h.1zm-4.1-.9c.3 0 .5 0 .8-.1.2-.1.4-.1.6-.2s.4-.2.6-.4.4-.3.5-.5v-1.8c-.7 0-1.3 0-1.8.1s-.9.2-1.2.4c-.3.1-.5.3-.7.5s-.2.4-.2.7c0 .2 0 .4.1.6a1.38 1.38 0 0 0 .3.4c.1.1.3.2.5.2.1.1.3.1.5.1z"/><use xlink:href="#G" x="45.8" y="23"/><use xlink:href="#K" x="-39.4" y="23.1"/><path d="M246.5 232.1V245H245v-12.9h1.5z"/><use xlink:href="#O" x="-180.4" y="23"/><use xlink:href="#X"/><use xlink:href="#Y"/><path d="M280.2 245v-7.6l-1-.1c-.1 0-.2-.1-.3-.1-.1-.1-.1-.2-.1-.3v-.6h1.4v-.5c0-.5.1-1 .3-1.5s.4-.8.8-1.2c.3-.3.8-.6 1.3-.8s1.1-.3 1.8-.3h.7c.3 0 .4.1.6.1l-.1.8c0 .1 0 .1-.1.1h-.7c-1 0-1.8.2-2.3.6s-.7 1.1-.7 1.9v.4h5.4v8.7h-1.6V237h-3.8v7.6h-1.6v.4z"/><use xlink:href="#G" x="112.8" y="23"/><use xlink:href="#Z"/><use xlink:href="#V" x="122.1"/><path d="M314 245v-8.9h.9c.2 0 .4.1.4.3l.1 1c.4-.4.8-.8 1.3-1 .5-.3 1-.4 1.7-.4.5 0 .9.1 1.3.2.4.2.7.4.9.7s.4.7.6 1.1.2.9.2 1.4v5.7h-1.6v-5.7c0-.7-.2-1.2-.5-1.6s-.8-.6-1.4-.6c-.5 0-.9.1-1.3.3s-.8.5-1.1.9v6.6H314zm12.7-9c.4 0 .7 0 1.1.1.3.1.6.2.9.4h2.4v.6c0 .2-.1.3-.4.4l-1 .1c.2.4.3.8.3 1.3 0 .4-.1.8-.2 1.2-.2.4-.4.7-.7.9-.3.3-.6.4-1.1.6-.4.1-.9.2-1.3.2s-.8 0-1.2-.1c-.2.1-.3.3-.4.4s-.1.3-.1.4a.55.55 0 0 0 .3.5c.2.1.4.2.7.2s.6.1 1 .1h1.1c.4 0 .7 0 1.1.1l1 .3c.3.1.5.4.7.6a1.69 1.69 0 0 1 .3 1c0 .4-.1.8-.3 1.1-.2.4-.5.7-.8 1-.4.3-.8.5-1.3.7s-1.1.3-1.7.3-1.2-.1-1.7-.2-.9-.3-1.2-.5-.6-.5-.7-.8-.2-.6-.2-.9c0-.4.1-.8.4-1.1s.7-.6 1.1-.7c-.3-.1-.5-.3-.6-.5s-.2-.5-.2-.8c0-.1 0-.3.1-.4 0-.2.1-.3.2-.4s.2-.3.4-.4c.1-.1.3-.2.5-.3a2.41 2.41 0 0 1-1-1c-.2-.4-.4-.9-.4-1.4 0-.4.1-.8.2-1.2.2-.4.4-.7.7-.9s.7-.4 1.1-.6c0-.2.4-.3.9-.3h0zm2.8 9.5c0-.2-.1-.4-.2-.5s-.3-.2-.5-.3-.5-.1-.7-.2c-.3 0-.6-.1-.9-.1h-.9c-.3 0-.6 0-.9-.1-.3.2-.6.4-.8.6s-.3.5-.3.8c0 .2.1.4.2.6s.3.3.5.4.5.2.8.3.7.1 1.1.1.8 0 1.1-.1l.8-.3c.2-.1.4-.3.5-.5s.2-.5.2-.7h0zm-2.8-4.8c.3 0 .6 0 .8-.1s.4-.2.6-.4.3-.3.4-.6.1-.5.1-.7c0-.5-.2-1-.5-1.3s-.8-.5-1.4-.5-1.1.2-1.4.5-.5.8-.5 1.3c0 .3 0 .5.1.7s.2.4.4.6.4.3.6.4.5.1.8.1zm13-4.7c.6 0 1.2.1 1.8.3.5.2 1 .5 1.3.9.4.4.6.9.8 1.4.2.6.3 1.2.3 1.9s-.1 1.3-.3 1.9-.5 1-.8 1.4c-.4.4-.8.7-1.3.9s-1.1.3-1.8.3c-.6 0-1.2-.1-1.8-.3-.5-.2-1-.5-1.3-.9-.4-.4-.7-.9-.9-1.4-.2-.6-.3-1.2-.3-1.9s.1-1.3.3-1.9.5-1 .9-1.4.8-.7 1.3-.9c.6-.2 1.2-.3 1.8-.3zm0 7.9c.9 0 1.5-.3 2-.9.4-.6.7-1.4.7-2.5s-.2-1.9-.7-2.5c-.4-.6-1.1-.9-2-.9-.4 0-.8.1-1.2.2-.3.2-.6.4-.8.7s-.4.6-.5 1.1c-.1.4-.2.9-.2 1.4s.1 1 .2 1.4.3.8.5 1 .5.5.8.7c.4.3.8.3 1.2.3z"/><use xlink:href="#G" x="168.8" y="23"/><path d="M359.2 236c.5 0 1 .1 1.5.3s.8.4 1.2.8c.3.3.6.8.8 1.2.2.5.3 1.1.3 1.7 0 .2 0 .4-.1.5s-.2.1-.3.1h-5.9c0 .6.1 1.1.2 1.5s.3.8.6 1c.2.3.5.5.9.6.3.1.7.2 1.1.2s.7 0 1-.1.5-.2.7-.3.4-.2.5-.3.3-.1.4-.1.2 0 .3.1l.4.6c-.2.2-.4.4-.7.6s-.6.3-.9.4-.6.2-1 .2c-.3.1-.7.1-1 .1-.6 0-1.2-.1-1.7-.3s-1-.5-1.3-.9c-.4-.4-.7-.9-.9-1.5s-.3-1.3-.3-2c0-.6.1-1.2.3-1.7s.5-1 .8-1.4c.4-.4.8-.7 1.3-.9.5-.3 1.1-.4 1.8-.4h0zm0 1.2c-.8 0-1.3.2-1.8.7-.4.4-.7 1-.8 1.8h4.8c0-.4 0-.7-.1-1s-.2-.6-.4-.8-.4-.4-.7-.5c-.3-.2-.7-.2-1-.2zm11.3 7.8h-1.7v-12.6h1.7V245z"/><use xlink:href="#a"/><use xlink:href="#V" x="194.1"/><use xlink:href="#Y" x="118.7"/><path d="M398.2 236c.5 0 1 .1 1.5.3s.8.4 1.2.8.6.8.8 1.2c.2.5.3 1.1.3 1.7 0 .2 0 .4-.1.5s-.2.1-.3.1h-5.9c0 .6.1 1.1.2 1.5s.3.8.6 1c.2.3.5.5.9.6.3.1.7.2 1.1.2s.7 0 1-.1.5-.2.7-.3.4-.2.5-.3.3-.1.4-.1.2 0 .3.1l.4.6c-.2.2-.4.4-.7.6s-.6.3-.9.4-.6.2-1 .2c-.3.1-.7.1-1 .1-.6 0-1.2-.1-1.7-.3s-1-.5-1.3-.9c-.4-.4-.7-.9-.9-1.5s-.3-1.3-.3-2c0-.6.1-1.2.3-1.7s.5-1 .8-1.4c.4-.4.8-.7 1.3-.9.6-.3 1.2-.4 1.8-.4h0zm0 1.2c-.8 0-1.3.2-1.8.7-.4.4-.7 1-.8 1.8h4.8c0-.4 0-.7-.1-1s-.2-.6-.4-.8-.4-.4-.7-.5c-.3-.2-.6-.2-1-.2zm11.9 7.8c-.2 0-.4-.1-.4-.3l-.1-1.1c-.4.5-.8.8-1.3 1.1s-1 .4-1.7.4c-.5 0-1-.1-1.4-.3s-.8-.5-1.1-.9-.5-.9-.7-1.4c-.2-.6-.2-1.2-.2-2 0-.7.1-1.3.3-1.8s.4-1.1.8-1.5c.3-.4.7-.7 1.2-1 .5-.2 1-.4 1.6-.4.5 0 1 .1 1.4.3s.7.4 1 .8V232h1.6v13h-1 0zm-3-1.1c.5 0 1-.1 1.3-.4.4-.2.7-.6 1.1-1v-4.3c-.3-.4-.6-.7-.9-.8-.3-.2-.7-.2-1.1-.2-.8 0-1.5.3-1.9.9s-.7 1.4-.7 2.5c0 .6 0 1.1.1 1.5s.2.8.4 1 .4.5.7.6.7.2 1 .2zm13.6-7.9c.6 0 1.2.1 1.8.3.5.2 1 .5 1.3.9.4.4.6.9.8 1.4s.3 1.2.3 1.9-.1 1.3-.3 1.9-.5 1-.8 1.4-.8.7-1.3.9-1.1.3-1.8.3c-.6 0-1.2-.1-1.8-.3-.5-.2-1-.5-1.3-.9-.4-.4-.7-.9-.9-1.4-.2-.6-.3-1.2-.3-1.9s.1-1.3.3-1.9.5-1 .9-1.4.8-.7 1.3-.9c.6-.2 1.2-.3 1.8-.3zm0 7.9c.9 0 1.5-.3 2-.9.4-.6.7-1.4.7-2.5s-.2-1.9-.7-2.5-1.1-.9-2-.9c-.4 0-.8.1-1.2.2-.3.2-.6.4-.8.7s-.4.6-.5 1.1c-.1.4-.2.9-.2 1.4s.1 1 .2 1.4.3.8.5 1c.2.3.5.5.8.7.4.3.7.3 1.2.3z"/><use xlink:href="#I" x="212" y="23"/><path d="M437.7 245v-7.6l-1-.1c-.1 0-.2-.1-.3-.1s-.1-.2-.1-.3v-.6h1.4v-.9c0-.5.1-1 .2-1.4s.3-.7.6-1 .6-.5 1-.6.8-.2 1.3-.2c.4 0 .8.1 1.1.2v.8c0 .1-.1.2-.1.2h-.8c-.3 0-.5 0-.7.1l-.6.3c-.2.2-.3.4-.4.6-.1.3-.1.6-.1 1v.8h2.6v1.1h-2.5v7.6l-1.6.1h0z"/><use xlink:href="#O" x="13.5" y="23"/><use xlink:href="#a" x="76.1"/><path d="M457.9 245v-7.6l-1-.1c-.1 0-.2-.1-.3-.1s-.1-.2-.1-.3v-.6h1.4v-.5c0-.5.1-1 .3-1.5s.4-.8.8-1.2c.3-.3.8-.6 1.3-.8s1.1-.3 1.8-.3h.7c.3 0 .4.1.6.1l-.1.8c0 .1 0 .1-.1.1h-.7c-1 0-1.8.2-2.3.6s-.7 1.1-.7 1.9v.4h5.4v8.7h-1.6V237h-3.8v7.6h-1.6v.4z"/><use xlink:href="#a" x="90.6"/><use xlink:href="#a" x="95.1"/><path d="M480 236c.5 0 1 .1 1.5.3s.8.4 1.2.8.6.8.8 1.2c.2.5.3 1.1.3 1.7 0 .2 0 .4-.1.5s-.2.1-.3.1h-5.9c0 .6.1 1.1.2 1.5s.3.8.6 1 .5.5.9.6c.3.1.7.2 1.1.2s.7 0 1-.1.5-.2.7-.3.4-.2.5-.3.3-.1.4-.1.2 0 .3.1l.4.6c-.2.2-.4.4-.7.6s-.6.3-.9.4-.6.2-1 .2c-.3.1-.7.1-1 .1-.6 0-1.2-.1-1.7-.3s-1-.5-1.3-.9c-.4-.4-.7-.9-.9-1.5s-.3-1.3-.3-2c0-.6.1-1.2.3-1.7s.5-1 .8-1.4c.4-.4.8-.7 1.3-.9.6-.3 1.2-.4 1.8-.4h0zm.1 1.2c-.8 0-1.3.2-1.8.7-.4.4-.7 1-.8 1.8h4.8c0-.4 0-.7-.1-1s-.2-.6-.4-.8-.4-.4-.7-.5c-.3-.2-.7-.2-1-.2z"/><use xlink:href="#Z" x="186.1"/><path d="M502.5 236c.6 0 1.2.1 1.8.3.5.2 1 .5 1.3.9.4.4.6.9.8 1.4s.3 1.2.3 1.9-.1 1.3-.3 1.9-.5 1-.8 1.4-.8.7-1.3.9-1.1.3-1.8.3c-.6 0-1.2-.1-1.8-.3-.5-.2-1-.5-1.3-.9-.4-.4-.7-.9-.9-1.4-.2-.6-.3-1.2-.3-1.9s.1-1.3.3-1.9.5-1 .9-1.4.8-.7 1.3-.9c.6-.2 1.2-.3 1.8-.3zm0 7.9c.9 0 1.5-.3 2-.9.4-.6.7-1.4.7-2.5s-.2-1.9-.7-2.5-1.1-.9-2-.9c-.4 0-.8.1-1.2.2-.3.2-.6.4-.8.7s-.4.6-.5 1.1c-.1.4-.2.9-.2 1.4s.1 1 .2 1.4.3.8.5 1c.2.3.5.5.8.7.4.3.8.3 1.2.3zm7.6-7.8v5.7c0 .7.2 1.2.5 1.6s.8.6 1.4.6c.5 0 .9-.1 1.3-.3s.8-.5 1.1-.9v-6.6h1.6v8.9h-1c-.2 0-.4-.1-.4-.3l-.1-1c-.4.4-.8.8-1.3 1-.5.3-1 .4-1.7.4-.5 0-.9-.1-1.3-.2-.4-.2-.7-.4-.9-.7-.3-.3-.4-.6-.6-1.1-.1-.4-.2-.9-.2-1.4v-5.7h1.6 0z"/><use xlink:href="#I" x="303.6" y="23"/><use xlink:href="#I" x="314" y="23"/><path d="M539.5 236c.5 0 1 .1 1.5.3s.8.4 1.2.8.6.8.8 1.2c.2.5.3 1.1.3 1.7 0 .2 0 .4-.1.5s-.2.1-.3.1H537c0 .6.1 1.1.2 1.5s.3.8.6 1 .5.5.9.6c.3.1.7.2 1.1.2s.7 0 1-.1.5-.2.7-.3.4-.2.5-.3.3-.1.4-.1.2 0 .3.1l.4.6c-.2.2-.4.4-.7.6s-.6.3-.9.4-.6.2-1 .2c-.3.1-.7.1-1 .1-.6 0-1.2-.1-1.7-.3s-1-.5-1.3-.9c-.4-.4-.7-.9-.9-1.5s-.3-1.3-.3-2c0-.6.1-1.2.3-1.7s.5-1 .8-1.4c.4-.4.8-.7 1.3-.9.6-.3 1.2-.4 1.8-.4h0zm.1 1.2c-.8 0-1.3.2-1.8.7-.4.4-.7 1-.8 1.8h4.8c0-.4 0-.7-.1-1s-.2-.6-.4-.8-.4-.4-.7-.5c-.4-.2-.7-.2-1-.2zm12.8-1.1V248h-1.6v-4.3c-.4.4-.8.8-1.3 1-.5.3-1 .4-1.6.4-.5 0-1-.1-1.4-.3s-.8-.5-1.1-.9-.5-.9-.7-1.4c-.2-.6-.2-1.2-.2-2 0-.7.1-1.3.3-1.8s.4-1.1.8-1.5c.3-.4.7-.7 1.2-1 .5-.2 1-.4 1.6-.4s1.1.1 1.5.3.8.5 1.1.9l.1-.7c.1-.2.2-.3.4-.3l.9.1h0zm-3.9 7.8c.5 0 1-.1 1.3-.4.4-.2.7-.6 1.1-1v-4.3c-.3-.4-.6-.6-.9-.8s-.7-.2-1.1-.2c-.8 0-1.5.3-1.9.9s-.7 1.4-.7 2.5c0 .6 0 1.1.1 1.5s.2.8.4 1 .4.5.7.6.6.2 1 .2h0z"/><use xlink:href="#O" x="125.3" y="23"/><path d="M566.9 233.4c0 .2 0 .3-.1.4s-.1.2-.2.4-.2.2-.4.2c-.1.1-.3.1-.4.1s-.3 0-.4-.1-.2-.1-.4-.2-.2-.2-.2-.4-.1-.3-.1-.4 0-.3.1-.4.1-.3.2-.4.2-.2.4-.2.3-.1.4-.1.3 0 .4.1.3.1.4.2.2.2.2.4.1.2.1.4zm-.4 2.7v8.9H565v-8.9h1.5z"/><use xlink:href="#I" x="354.4" y="23"/><use xlink:href="#b"/><use xlink:href="#c"/><path d="M603.5 236c.5 0 1 .1 1.5.3s.8.4 1.2.8.6.8.8 1.2c.2.5.3 1.1.3 1.7 0 .2 0 .4-.1.5s-.2.1-.3.1H601c0 .6.1 1.1.2 1.5s.3.8.6 1 .5.5.9.6c.3.1.7.2 1.1.2s.7 0 1-.1.5-.2.7-.3.4-.2.5-.3.3-.1.4-.1.2 0 .3.1l.4.6c-.2.2-.4.4-.7.6s-.6.3-.9.4-.6.2-1 .2c-.3.1-.7.1-1 .1-.6 0-1.2-.1-1.7-.3s-1-.5-1.3-.9c-.4-.4-.7-.9-.9-1.5s-.3-1.3-.3-2c0-.6.1-1.2.3-1.7s.5-1 .8-1.4c.4-.4.8-.7 1.3-.9.6-.3 1.2-.4 1.8-.4h0zm.1 1.2c-.8 0-1.3.2-1.8.7-.4.4-.7 1-.8 1.8h4.8c0-.4 0-.7-.1-1s-.2-.6-.4-.8-.4-.4-.7-.5c-.4-.2-.7-.2-1-.2zm5.6 7.8v-8.9h.9c.2 0 .4.1.4.3l.1 1c.4-.4.8-.8 1.3-1 .5-.3 1-.4 1.7-.4.5 0 .9.1 1.3.2.4.2.7.4.9.7s.4.7.6 1.1.2.9.2 1.4v5.7H615v-5.7c0-.7-.2-1.2-.5-1.6s-.8-.6-1.4-.6c-.5 0-.9.1-1.3.3s-.8.5-1.1.9v6.6h-1.5 0z"/><use xlink:href="#d"/><use xlink:href="#R" x="83.6" y="23"/><use xlink:href="#e"/><path d="M642.5 245h-1.7v-12.6h1.7V245zm5.4-8.9h1.2c.1 0 .2 0 .3.1l.2.2 1.7 5.7c0 .2.1.4.1.6s.1.4.1.6c0-.2.1-.4.2-.6s.1-.4.2-.6l1.9-5.8c0-.1.1-.2.2-.2s.2-.1.3-.1h.7c.1 0 .2 0 .3.1l.2.2 1.8 5.8c.1.2.1.4.2.6 0 .2.1.4.1.6 0-.2.1-.4.1-.6s.1-.4.1-.6l1.7-5.7c0-.1.1-.2.2-.2s.2-.1.3-.1h1.2l-2.9 8.9H657c-.2 0-.3-.1-.3-.3l-2-6c0-.1-.1-.3-.1-.4s-.1-.3-.1-.4c0 .1-.1.3-.1.4s-.1.3-.1.4l-2 6c-.1.2-.2.3-.4.3h-1.2l-2.8-8.9h0zM669 245h-.7c-.2 0-.3 0-.4-.1s-.2-.1-.2-.3l-.2-.8c-.2.2-.5.4-.7.6s-.5.3-.7.4-.5.2-.8.3-.6.1-.9.1-.7 0-1-.1-.6-.2-.8-.4-.4-.4-.5-.7-.2-.6-.2-1.1a1.69 1.69 0 0 1 .3-1c.2-.3.5-.6.9-.9s1-.5 1.7-.6c.7-.2 1.5-.2 2.6-.2v-.7c0-.7-.1-1.2-.4-1.6s-.7-.5-1.3-.5c-.4 0-.7 0-1 .1s-.5.2-.7.3-.4.2-.5.3-.3.1-.4.1-.2 0-.3-.1l-.2-.2-.3-.5c.5-.5 1-.8 1.6-1.1s1.2-.4 1.9-.4c.5 0 .9.1 1.3.2s.7.4 1 .7.5.6.6 1.1.2.9.2 1.4v5.7h.1zm-4-.9c.3 0 .5 0 .8-.1s.4-.1.6-.2.4-.2.6-.4c.2-.1.4-.3.5-.5v-1.8c-.7 0-1.3 0-1.8.1s-.9.2-1.2.4c-.3.1-.5.3-.7.5s-.2.4-.2.7c0 .2 0 .4.1.6s.2.3.3.4.3.2.5.2.3.1.5.1h0z"/><use xlink:href="#R" x="129.5" y="23"/></g><g class="Y a"><use xlink:href="#f"/><path d="M106.1 268.1v-12.9h1.6v5.3c.4-.4.8-.8 1.3-1 .5-.3 1-.4 1.6-.4.5 0 1 .1 1.4.3s.8.5 1.1.9.5.9.7 1.4c.2.6.2 1.2.2 2 0 .7-.1 1.3-.3 1.8-.2.6-.4 1.1-.8 1.5-.3.4-.7.7-1.2 1-.5.2-1 .4-1.6.4s-1.1-.1-1.5-.3-.8-.5-1-.9l-.1.8c0 .2-.2.3-.4.3h-1v-.2zm4-7.8c-.5 0-1 .1-1.3.4-.4.2-.7.6-1.1 1v4.3c.3.4.6.7.9.8.3.2.7.2 1.1.2.8 0 1.5-.3 1.9-.9s.7-1.4.7-2.5c0-.6-.1-1.1-.2-1.5s-.3-.8-.4-1c-.2-.3-.4-.5-.7-.6-.2-.1-.5-.2-.9-.2h0zm9.4-1.2c.6 0 1.2.1 1.8.3.5.2 1 .5 1.3.9.4.4.6.9.8 1.4.2.6.3 1.2.3 1.9s-.1 1.3-.3 1.9-.5 1-.8 1.4c-.4.4-.8.7-1.3.9s-1.1.3-1.8.3c-.6 0-1.2-.1-1.8-.3-.5-.2-1-.5-1.3-.9-.4-.4-.7-.9-.9-1.4-.2-.6-.3-1.2-.3-1.9s.1-1.3.3-1.9.5-1 .9-1.4.8-.7 1.3-.9c.6-.2 1.2-.3 1.8-.3zm0 7.9c.9 0 1.5-.3 2-.9.4-.6.7-1.4.7-2.5s-.2-1.9-.7-2.5c-.4-.6-1.1-.9-2-.9-.4 0-.8.1-1.2.2-.3.2-.6.4-.8.7s-.4.6-.5 1.1c-.1.4-.2.9-.2 1.4s.1 1 .2 1.4.3.8.5 1 .5.5.8.7c.4.2.7.3 1.2.3h0z"/><use xlink:href="#O" x="-304.1" y="46.1"/><use xlink:href="#M" x="-213.9" y="46.1"/><use xlink:href="#M" x="-203.9" y="46.1"/><use xlink:href="#g"/><path d="M168.1 259.1c.4 0 .7 0 1.1.1.3.1.6.2.9.4h2.4v.6c0 .2-.1.3-.4.4l-1 .1c.2.4.3.8.3 1.3 0 .4-.1.8-.2 1.2-.2.4-.4.7-.7.9-.3.3-.6.4-1.1.6-.4.1-.9.2-1.3.2s-.8 0-1.2-.1c-.2.1-.3.3-.4.4s-.1.3-.1.4a.55.55 0 0 0 .3.5c.2.1.4.2.7.2s.6.1 1 .1h1.1c.4 0 .7 0 1.1.1l1 .3c.3.1.5.4.7.6a1.69 1.69 0 0 1 .3 1c0 .4-.1.8-.3 1.1-.2.4-.5.7-.8 1-.4.3-.8.5-1.3.7s-1.1.3-1.7.3-1.2-.1-1.7-.2-.9-.3-1.2-.5-.6-.5-.7-.8-.2-.6-.2-.9c0-.4.1-.8.4-1.1s.7-.6 1.1-.7c-.3-.1-.5-.3-.6-.5s-.2-.5-.2-.8c0-.1 0-.3.1-.4 0-.2.1-.3.2-.4s.2-.3.4-.4c.1-.1.3-.2.5-.3a2.41 2.41 0 0 1-1-1c-.2-.4-.4-.9-.4-1.4 0-.4.1-.8.2-1.2.2-.4.4-.7.7-.9s.7-.4 1.1-.6c-.1-.3.4-.3.9-.3h0zm2.7 9.4c0-.2-.1-.4-.2-.5s-.3-.2-.5-.3-.5-.1-.7-.2c-.3 0-.6-.1-.9-.1h-.9c-.3 0-.6 0-.9-.1-.3.2-.6.4-.8.6s-.3.5-.3.8c0 .2.1.4.2.6s.3.3.5.4.5.2.8.3.7.1 1.1.1.8 0 1.1-.1l.8-.3c.2-.1.4-.3.5-.5.2-.2.2-.4.2-.7h0zm-2.7-4.7c.3 0 .6 0 .8-.1s.4-.2.6-.4.3-.3.4-.6.1-.5.1-.7c0-.5-.2-1-.5-1.3s-.8-.5-1.4-.5-1.1.2-1.4.5-.5.8-.5 1.3c0 .3 0 .5.1.7s.2.4.4.6.4.3.6.4.5.1.8.1h0zm8-7.4c0 .2 0 .3-.1.4s-.1.2-.2.4c-.1.1-.2.2-.4.2-.1.1-.3.1-.4.1s-.3 0-.4-.1-.2-.1-.4-.2-.2-.2-.2-.4-.1-.3-.1-.4 0-.3.1-.4.1-.3.2-.4.2-.2.4-.2c.1-.1.3-.1.4-.1s.3 0 .4.1.3.1.4.2.2.2.2.4.1.3.1.4zm-.3 2.8v8.9h-1.6v-8.9h1.6zm1.6 0h1.3c.1 0 .2 0 .3.1l.2.2 2.3 5.7c.1.2.1.4.2.6 0 .2.1.4.1.6 0-.2.1-.4.1-.6.1-.2.1-.4.2-.6l2.3-5.7c0-.1.1-.2.2-.2s.2-.1.3-.1h1.2l-3.6 8.9h-1.4l-3.7-8.9h0zm13.4-.1c.5 0 1 .1 1.5.3s.8.4 1.2.8c.3.3.6.8.8 1.2.2.5.3 1.1.3 1.7 0 .2 0 .4-.1.5s-.2.1-.3.1h-5.9c0 .6.1 1.1.2 1.5s.3.8.6 1c.2.3.5.5.9.6.3.1.7.2 1.1.2s.7 0 1-.1.5-.2.7-.3.4-.2.5-.3.3-.1.4-.1.2 0 .3.1l.4.6c-.2.2-.4.4-.7.6s-.6.3-.9.4-.6.2-1 .2c-.3.1-.7.1-1 .1-.6 0-1.2-.1-1.7-.3s-1-.5-1.3-.9c-.4-.4-.7-.9-.9-1.5s-.3-1.3-.3-2c0-.6.1-1.2.3-1.7s.5-1 .8-1.4c.4-.4.8-.7 1.3-.9.6-.3 1.2-.4 1.8-.4h0zm.1 1.1c-.8 0-1.3.2-1.8.7-.4.4-.7 1-.8 1.8h4.8c0-.4 0-.7-.1-1s-.2-.6-.4-.8-.4-.4-.7-.5c-.4-.1-.7-.2-1-.2z"/><use xlink:href="#O" x="-229.8" y="46.1"/><path d="M209.7 271.1v-11.9h.9c.2 0 .4.1.4.3l.1 1.1c.4-.5.8-.8 1.3-1.1s1.1-.4 1.7-.4c.5 0 1 .1 1.4.3s.8.5 1.1.9.5.9.7 1.4c.2.6.2 1.2.2 2 0 .7-.1 1.3-.3 1.8-.2.6-.4 1.1-.8 1.5-.3.4-.7.7-1.2 1-.5.2-1 .4-1.6.4s-1-.1-1.4-.3-.7-.4-1-.8v3.9l-1.5-.1h0zm3.9-10.8c-.5 0-1 .1-1.3.4-.4.2-.7.6-1.1 1v4.3c.3.4.6.7.9.8.3.2.7.2 1.1.2.8 0 1.5-.3 1.9-.9s.7-1.4.7-2.5c0-.6-.1-1.1-.2-1.5s-.3-.8-.4-1c-.2-.3-.4-.5-.7-.6-.2-.1-.5-.2-.9-.2h0z"/><use xlink:href="#f" x="125.6"/><use xlink:href="#G" x="54.6" y="46.1"/><path d="M247.7 268.1c-.2 0-.4-.1-.4-.3l-.1-1.1c-.4.5-.8.8-1.3 1.1s-1 .4-1.7.4c-.5 0-1-.1-1.4-.3s-.8-.5-1.1-.9-.5-.9-.7-1.4c-.2-.6-.2-1.2-.2-2 0-.7.1-1.3.3-1.8s.4-1.1.8-1.5c.3-.4.7-.7 1.2-1 .5-.2 1-.4 1.6-.4.5 0 1 .1 1.4.3s.7.4 1 .8v-4.9h1.6V268h-1v.1zm-3-1.1c.5 0 1-.1 1.3-.4.4-.2.7-.6 1.1-1v-4.3c-.3-.4-.6-.7-.9-.8-.3-.2-.7-.2-1.1-.2-.8 0-1.5.3-1.9.9s-.7 1.4-.7 2.5c0 .6 0 1.1.1 1.5s.2.8.4 1 .4.5.7.6.6.2 1 .2h0zm12.6 1.2c-.7 0-1.2-.2-1.6-.6s-.6-1-.6-1.7v-5.4H254c-.1 0-.2 0-.2-.1s-.1-.1-.1-.3v-.6l1.5-.2.4-2.7c0-.1 0-.2.1-.2s.1-.1.2-.1h.8v3.1h2.5v1.1h-2.5v5.3c0 .4.1.7.3.8.2.2.4.3.7.3.2 0 .3 0 .4-.1s.2-.1.3-.1.2-.1.2-.1.1-.1.2-.1.2 0 .2.1l.5.7c-.3.3-.6.5-1 .6-.4.3-.8.3-1.2.3h0zm3.9-.1v-12.9h1.6v5.2a6.42 6.42 0 0 1 1.3-1c.5-.2 1-.4 1.6-.4.5 0 .9.1 1.3.2.4.2.7.4.9.7s.4.7.6 1.1.2.9.2 1.4v5.7H267v-5.7c0-.7-.2-1.2-.5-1.6s-.8-.6-1.4-.6c-.5 0-.9.1-1.3.3s-.8.5-1.1.9v6.6l-1.5.1h0zm13.3-9c.5 0 1 .1 1.5.3s.8.4 1.2.8c.3.3.6.8.8 1.2.2.5.3 1.1.3 1.7 0 .2 0 .4-.1.5s-.2.1-.3.1H272c0 .6.1 1.1.2 1.5s.3.8.6 1c.2.3.5.5.9.6.3.1.7.2 1.1.2s.7 0 1-.1.5-.2.7-.3.4-.2.5-.3.3-.1.4-.1.2 0 .3.1l.4.6c-.2.2-.4.4-.7.6s-.6.3-.9.4-.6.2-1 .2c-.3.1-.7.1-1 .1-.6 0-1.2-.1-1.7-.3s-1-.5-1.3-.9c-.4-.4-.7-.9-.9-1.5s-.3-1.3-.3-2c0-.6.1-1.2.3-1.7s.5-1 .8-1.4c.4-.4.8-.7 1.3-.9.6-.3 1.1-.4 1.8-.4h0zm0 1.1c-.8 0-1.3.2-1.8.7-.4.4-.7 1-.8 1.8h4.8c0-.4 0-.7-.1-1s-.2-.6-.4-.8-.4-.4-.7-.5-.6-.2-1-.2zm5.7 7.9v-8.9h.9c.2 0 .4.1.4.3l.1 1c.4-.4.8-.8 1.3-1 .5-.3 1-.4 1.7-.4.5 0 .9.1 1.3.2.4.2.7.4.9.7s.4.7.6 1.1.2.9.2 1.4v5.7H286v-5.7c0-.7-.2-1.2-.5-1.6s-.8-.6-1.4-.6c-.5 0-.9.1-1.3.3s-.8.5-1.1.9v6.6h-1.5 0zm15.4 0h-1.7v-12.6h1.7v12.6z"/><use xlink:href="#X" x="43.1" y="23.1"/><path d="M316.8 268.1h-.7c-.2 0-.3 0-.4-.1-.1 0-.2-.1-.2-.3l-.2-.8c-.2.2-.5.4-.7.6s-.5.3-.7.4-.5.2-.8.3-.6.1-.9.1-.7 0-1-.1-.6-.2-.8-.4-.4-.4-.5-.7-.2-.6-.2-1.1a1.69 1.69 0 0 1 .3-1c.2-.3.5-.6.9-.9s1-.5 1.7-.6c.7-.2 1.5-.2 2.6-.2v-.7c0-.7-.1-1.2-.4-1.6s-.7-.5-1.3-.5c-.4 0-.7 0-1 .1s-.5.2-.7.3-.4.2-.5.3-.3.1-.4.1-.2 0-.3-.1l-.2-.2-.3-.5c.5-.5 1-.8 1.6-1.1s1.2-.4 1.9-.4c.5 0 .9.1 1.3.2.4.2.7.4 1 .7s.5.6.6 1.1.2.9.2 1.4v5.7h.1zm-4-1c.3 0 .5 0 .8-.1.2-.1.4-.1.6-.2s.4-.2.6-.4.4-.3.5-.5v-1.8c-.7 0-1.3 0-1.8.1s-.9.2-1.2.4c-.3.1-.5.3-.7.5s-.2.4-.2.7c0 .2 0 .4.1.6a1.38 1.38 0 0 0 .3.4c.1.1.3.2.5.2.1.1.3.1.5.1h0z"/><use xlink:href="#N" x="-41.2" y="46.1"/><path d="M337.2 259.1c.5 0 1 .1 1.5.3s.8.4 1.2.8c.3.3.6.8.8 1.2.2.5.3 1.1.3 1.7 0 .2 0 .4-.1.5s-.2.1-.3.1h-5.9c0 .6.1 1.1.2 1.5s.3.8.6 1c.2.3.5.5.9.6.3.1.7.2 1.1.2s.7 0 1-.1.5-.2.7-.3.4-.2.5-.3.3-.1.4-.1.2 0 .3.1l.4.6c-.2.2-.4.4-.7.6s-.6.3-.9.4-.6.2-1 .2c-.3.1-.7.1-1 .1-.6 0-1.2-.1-1.7-.3s-1-.5-1.3-.9c-.4-.4-.7-.9-.9-1.5s-.3-1.3-.3-2c0-.6.1-1.2.3-1.7s.5-1 .8-1.4c.4-.4.8-.7 1.3-.9.5-.3 1.1-.4 1.8-.4h0zm0 1.1c-.8 0-1.3.2-1.8.7-.4.4-.7 1-.8 1.8h4.8c0-.4 0-.7-.1-1s-.2-.6-.4-.8-.4-.4-.7-.5-.6-.2-1-.2z"/><use xlink:href="#f" x="249.1"/><use xlink:href="#X" x="96.1" y="23.1"/><use xlink:href="#I" x="148.4" y="46.1"/><use xlink:href="#g" x="218.5"/><use xlink:href="#D" x="251.9" y="46.1"/><use xlink:href="#D" x="259.5" y="46.1"/><path d="M407.6 255.5v1.4h-4.1v11.2h-1.7v-11.2h-4.1v-1.4h9.9 0zm3.3 3.6c.5 0 1 .1 1.5.3s.8.4 1.2.8.6.8.8 1.2c.2.5.3 1.1.3 1.7 0 .2 0 .4-.1.5s-.2.1-.3.1h-5.9c0 .6.1 1.1.2 1.5s.3.8.6 1 .5.5.9.6c.3.1.7.2 1.1.2s.7 0 1-.1.5-.2.7-.3.4-.2.5-.3.3-.1.4-.1.2 0 .3.1l.4.6c-.2.2-.4.4-.7.6s-.6.3-.9.4-.6.2-1 .2c-.3.1-.7.1-1 .1-.6 0-1.2-.1-1.7-.3s-1-.5-1.3-.9c-.4-.4-.7-.9-.9-1.5s-.3-1.3-.3-2c0-.6.1-1.2.3-1.7s.5-1 .8-1.4c.4-.4.8-.7 1.3-.9.5-.3 1.1-.4 1.8-.4h0zm0 1.1c-.8 0-1.3.2-1.8.7-.4.4-.7 1-.8 1.8h4.8c0-.4 0-.7-.1-1s-.2-.6-.4-.8-.4-.4-.7-.5-.6-.2-1-.2z"/><use xlink:href="#R" x="-125.4" y="46.1"/><use xlink:href="#T" x="-212.1" y="46.1"/><use xlink:href="#h"/><use xlink:href="#c" x="-150.4" y="23.1"/><use xlink:href="#i"/><use xlink:href="#G" x="282.3" y="46.1"/><use xlink:href="#j"/><path d="M480.2 268.1h-.7c-.2 0-.3 0-.4-.1s-.2-.1-.2-.3l-.2-.8c-.2.2-.5.4-.7.6s-.5.3-.7.4-.5.2-.8.3-.6.1-.9.1-.7 0-1-.1-.6-.2-.8-.4-.4-.4-.5-.7-.2-.6-.2-1.1a1.69 1.69 0 0 1 .3-1c.2-.3.5-.6.9-.9s1-.5 1.7-.6c.7-.2 1.5-.2 2.6-.2v-.7c0-.7-.1-1.2-.4-1.6s-.7-.5-1.3-.5c-.4 0-.7 0-1 .1s-.5.2-.7.3-.4.2-.5.3-.3.1-.4.1-.2 0-.3-.1l-.2-.2-.3-.5c.5-.5 1-.8 1.6-1.1s1.2-.4 1.9-.4c.5 0 .9.1 1.3.2s.7.4 1 .7.5.6.6 1.1.2.9.2 1.4v5.7h.1zm-4.1-1c.3 0 .5 0 .8-.1s.4-.1.6-.2.4-.2.6-.4c.2-.1.4-.3.5-.5v-1.8c-.7 0-1.3 0-1.8.1s-.9.2-1.2.4c-.3.1-.5.3-.7.5s-.2.4-.2.7c0 .2 0 .4.1.6a1.38 1.38 0 0 0 .3.4c.1.1.3.2.5.2s.3.1.5.1h0zm8.2-11.9v12.9h-1.6v-12.9h1.6zm2.4 7h4.3v1.3h-4.3v-1.3zm6.7 5.9v-12.6h4c.8 0 1.4.1 2 .2l1.4.6c.4.3.6.6.8 1s.3.9.3 1.4c0 .3 0 .6-.1.9s-.2.6-.4.8-.4.5-.7.7-.6.4-1 .5c.9.2 1.6.5 2.1 1s.7 1.1.7 1.9c0 .5-.1 1-.3 1.5-.2.4-.5.8-.9 1.1s-.8.6-1.4.7-1.2.3-1.9.3h-4.6 0zm1.7-6.9h2.2c.4 0 .8-.1 1.2-.2s.6-.3.9-.4.4-.4.5-.7.2-.6.2-.9c0-.7-.2-1.3-.7-1.6-.4-.3-1.1-.5-2.1-.5H495v4.3h.1zm0 1.2v4.4h2.7c.5 0 .9-.1 1.3-.2.3-.1.6-.3.9-.5s.4-.4.5-.7.2-.6.2-.9c0-.7-.2-1.2-.7-1.5s-1.2-.6-2.1-.6h-2.8 0zm13-3.3c.5 0 1 .1 1.5.3s.8.4 1.2.8.6.8.8 1.2c.2.5.3 1.1.3 1.7 0 .2 0 .4-.1.5s-.2.1-.3.1h-5.9c0 .6.1 1.1.2 1.5s.3.8.6 1 .5.5.9.6c.3.1.7.2 1.1.2s.7 0 1-.1.5-.2.7-.3.4-.2.5-.3.3-.1.4-.1.2 0 .3.1l.4.6c-.2.2-.4.4-.7.6s-.6.3-.9.4-.6.2-1 .2c-.3.1-.7.1-1 .1-.6 0-1.2-.1-1.7-.3s-1-.5-1.3-.9c-.4-.4-.7-.9-.9-1.5s-.3-1.3-.3-2c0-.6.1-1.2.3-1.7s.5-1 .8-1.4c.4-.4.8-.7 1.3-.9.5-.3 1.1-.4 1.8-.4h0zm0 1.1c-.8 0-1.3.2-1.8.7-.4.4-.7 1-.8 1.8h4.8c0-.4 0-.7-.1-1s-.2-.6-.4-.8-.4-.4-.7-.5-.7-.2-1-.2z"/><use xlink:href="#R" x="-28.2" y="46.1"/><use xlink:href="#T" x="-114.9" y="46.1"/><path d="M540.1 255.5v1.4H536v11.2h-1.7v-11.2h-4.1v-1.4h9.9 0zm3.2 3.6c.5 0 1 .1 1.5.3s.8.4 1.2.8.6.8.8 1.2c.2.5.3 1.1.3 1.7 0 .2 0 .4-.1.5s-.2.1-.3.1h-5.9c0 .6.1 1.1.2 1.5s.3.8.6 1 .5.5.9.6c.3.1.7.2 1.1.2s.7 0 1-.1.5-.2.7-.3.4-.2.5-.3.3-.1.4-.1.2 0 .3.1l.4.6c-.2.2-.4.4-.7.6s-.6.3-.9.4-.6.2-1 .2c-.3.1-.7.1-1 .1-.6 0-1.2-.1-1.7-.3s-1-.5-1.3-.9c-.4-.4-.7-.9-.9-1.5s-.3-1.3-.3-2c0-.6.1-1.2.3-1.7s.5-1 .8-1.4c.4-.4.8-.7 1.3-.9.6-.3 1.2-.4 1.8-.4h0zm.1 1.1c-.8 0-1.3.2-1.8.7-.4.4-.7 1-.8 1.8h4.8c0-.4 0-.7-.1-1s-.2-.6-.4-.8-.4-.4-.7-.5-.7-.2-1-.2z"/><use xlink:href="#R" x="7.1" y="46.1"/><path d="M559.3 268.2c-.7 0-1.2-.2-1.6-.6s-.6-1-.6-1.7v-5.4H556c-.1 0-.2 0-.2-.1s-.1-.1-.1-.3v-.6l1.5-.2.4-2.7c0-.1 0-.2.1-.2s.1-.1.2-.1h.8v3.1h2.5v1.1h-2.5v5.3c0 .4.1.7.3.8.2.2.4.3.7.3.2 0 .3 0 .4-.1s.2-.1.3-.1c.1-.1.2-.1.2-.1s.1-.1.2-.1.2 0 .2.1l.5.7c-.3.3-.6.5-1 .6-.4.3-.7.3-1.2.3h0z"/><use xlink:href="#j" x="94"/><use xlink:href="#c" x="-17.9" y="23.1"/><use xlink:href="#i" x="132.5"/><use xlink:href="#G" x="414.8" y="46.1"/><use xlink:href="#h" x="170.9"/><use xlink:href="#k"/><path d="M616.8 255.2v12.9h-1.6v-12.9h1.6 0z"/><use xlink:href="#R" x="77.7" y="46.1"/><path d="M637.3 257.5c-.1.1-.1.2-.2.2s-.1.1-.2.1-.2 0-.3-.1-.3-.2-.5-.3-.4-.2-.7-.3-.6-.1-1-.1-.7.1-1 .2-.5.2-.7.4-.3.4-.4.6-.1.5-.1.8c0 .4.1.6.3.9.2.2.4.4.7.6s.6.3 1 .4.7.2 1.1.4c.4.1.7.3 1.1.4s.7.4 1 .6.5.5.7.9.3.8.3 1.3-.1 1.1-.3 1.5c-.2.5-.5.9-.8 1.3s-.8.6-1.3.8-1.1.3-1.8.3c-.8 0-1.6-.1-2.2-.4-.7-.3-1.2-.7-1.7-1.2l.5-.8c0-.1.1-.1.2-.2s.1-.1.2-.1c.2 0 .3.1.4.2s.4.3.6.4.5.3.9.4.8.2 1.2.2.8-.1 1.1-.2.6-.3.8-.5.4-.4.5-.7.2-.6.2-.9c0-.4-.1-.7-.3-.9s-.4-.4-.7-.6-.6-.3-1-.4-.7-.2-1.1-.4c-.4-.1-.7-.3-1.1-.4-.4-.2-.7-.4-1-.6-.3-.3-.5-.6-.7-.9-.2-.4-.3-.8-.3-1.4 0-.5.1-.9.3-1.3s.4-.8.8-1.1c.3-.3.7-.6 1.2-.8s1-.3 1.7-.3 1.3.1 1.9.3 1.1.5 1.5 1l-.8.7h0z"/><use xlink:href="#l"/><use xlink:href="#i" x="200"/><use xlink:href="#S" x="67.8" y="46.1"/><path d="M678.9 260.8c0 .1-.1.1-.1.1s-.1.1-.2.1-.2 0-.3-.1-.2-.2-.4-.2c-.2-.1-.4-.2-.6-.2-.2-.1-.5-.1-.8-.1-.4 0-.8.1-1.2.2-.3.2-.6.4-.8.7s-.4.6-.5 1.1-.2.9-.2 1.4.1 1 .2 1.4.3.8.5 1.1.5.5.8.6.7.2 1.1.2.7 0 .9-.1.5-.2.6-.3c.2-.1.3-.2.4-.3s.2-.1.3-.1.2 0 .3.1l.4.6c-.4.5-.9.8-1.4 1-.6.2-1.2.3-1.8.3s-1.1-.1-1.6-.3a2.73 2.73 0 0 1-1.2-.9c-.4-.4-.6-.9-.8-1.4-.2-.6-.3-1.2-.3-1.9s.1-1.3.3-1.8c.2-.6.5-1 .8-1.5s.8-.7 1.3-1c.5-.2 1.1-.3 1.8-.3.6 0 1.2.1 1.7.3s.9.5 1.3.9l-.5.4h0z"/><use xlink:href="#k" x="74.9"/><use xlink:href="#R" x="148.1" y="46.1"/><path d="M701.1 259.1c.5 0 1 .1 1.5.3s.8.4 1.2.8.6.8.8 1.2c.2.5.3 1.1.3 1.7 0 .2 0 .4-.1.5s-.2.1-.3.1h-5.9c0 .6.1 1.1.2 1.5s.3.8.6 1 .5.5.9.6c.3.1.7.2 1.1.2s.7 0 1-.1.5-.2.7-.3.4-.2.5-.3.3-.1.4-.1.2 0 .3.1l.4.6c-.2.2-.4.4-.7.6s-.6.3-.9.4-.6.2-1 .2c-.3.1-.7.1-1 .1-.6 0-1.2-.1-1.7-.3s-1-.5-1.3-.9c-.4-.4-.7-.9-.9-1.5s-.3-1.3-.3-2c0-.6.1-1.2.3-1.7s.5-1 .8-1.4c.4-.4.8-.7 1.3-.9.6-.3 1.2-.4 1.8-.4h0zm.1 1.1c-.8 0-1.3.2-1.8.7-.4.4-.7 1-.8 1.8h4.8c0-.4 0-.7-.1-1s-.2-.6-.4-.8-.4-.4-.7-.5c-.4-.1-.7-.2-1-.2z"/></g><g class="Y a"><use xlink:href="#m"/><path d="M109.6 278.2v12.9H108v-12.9h1.6z"/><use xlink:href="#O" x="-317.4" y="69.2"/><use xlink:href="#W" x="-79.5" y="46.1"/><use xlink:href="#F" x="-41.4" y="69.2"/><use xlink:href="#G" x="-41.5" y="69.2"/><path d="M149.1 291.2v-7.6l-1-.1c-.1 0-.2-.1-.3-.1-.1-.1-.1-.2-.1-.3v-.6h1.4v-.9c0-.5.1-1 .2-1.4s.3-.7.6-1 .6-.5 1-.6.8-.2 1.3-.2c.4 0 .8.1 1.1.2v.8c0 .1-.1.2-.1.2h-.7c-.3 0-.5 0-.7.1l-.6.3c-.2.1-.3.4-.4.6-.1.3-.1.6-.1 1v.8h2.6v1.1h-2.5v7.6h-1.7v.1z"/><use xlink:href="#n"/><use xlink:href="#I" x="-50.4" y="69.2"/><path d="M173.8 278.6h1.4c.2 0 .3 0 .4.1s.2.2.2.3l2.6 8.7c0 .2.1.3.1.5s.1.4.1.6c0-.2.1-.4.1-.6s.1-.4.1-.5l3-8.7c0-.1.1-.2.2-.3s.2-.1.4-.1h.5c.2 0 .3 0 .4.1s.2.2.2.3l2.9 8.7.3 1c0-.2.1-.4.1-.6s.1-.3.1-.5l2.6-8.7c0-.1.1-.2.2-.3s.2-.1.4-.1h1.3l-3.9 12.6H186l-3.2-9.6c-.1-.2-.1-.4-.2-.6 0 .1-.1.2-.1.3s-.1.2-.1.3l-3.2 9.6h-1.5l-3.9-12.5h0zm22.4 3.5c.6 0 1.2.1 1.8.3.5.2 1 .5 1.3.9.4.4.6.9.8 1.4.2.6.3 1.2.3 1.9s-.1 1.3-.3 1.9-.5 1-.8 1.4c-.4.4-.8.7-1.3.9s-1.1.3-1.8.3c-.6 0-1.2-.1-1.8-.3-.5-.2-1-.5-1.3-.9-.4-.4-.7-.9-.9-1.4-.2-.6-.3-1.2-.3-1.9s.1-1.3.3-1.9.5-1 .9-1.4.8-.7 1.3-.9 1.1-.3 1.8-.3zm0 8c.9 0 1.5-.3 2-.9.4-.6.7-1.4.7-2.5s-.2-1.9-.7-2.5c-.4-.6-1.1-.9-2-.9-.4 0-.8.1-1.2.2-.3.2-.6.4-.8.7s-.4.6-.5 1.1c-.1.4-.2.9-.2 1.4s.1 1 .2 1.4.3.8.5 1 .5.5.8.7.7.3 1.2.3h0z"/><use xlink:href="#I" x="-12.6" y="69.2"/><path d="M215.7 291.2c-.2 0-.4-.1-.4-.3l-.1-1.1c-.4.5-.8.8-1.3 1.1s-1 .4-1.7.4c-.5 0-1-.1-1.4-.3s-.8-.5-1.1-.9-.5-.9-.7-1.4c-.2-.6-.2-1.2-.2-2 0-.7.1-1.3.3-1.8s.4-1.1.8-1.5c.3-.4.7-.7 1.2-1 .5-.2 1-.4 1.6-.4.5 0 1 .1 1.4.3s.7.4 1 .8v-4.9h1.6v12.9l-1 .1h0zm-3.1-1.2c.5 0 1-.1 1.3-.4.4-.2.7-.6 1.1-1v-4.3c-.3-.4-.6-.7-.9-.8-.3-.2-.7-.2-1.1-.2-.8 0-1.5.3-1.9.9s-.7 1.4-.7 2.5c0 .6 0 1.1.1 1.5s.2.8.4 1 .4.5.7.6.7.2 1 .2h0z"/><use xlink:href="#m" x="122"/><path d="M230 291.2v-8.9h.9c.2 0 .3 0 .4.1s.1.2.1.3l.1 1.4c.3-.6.7-1.1 1.1-1.5.4-.3 1-.5 1.6-.5.2 0 .5 0 .7.1s.4.1.6.2l-.2 1.2c0 .1-.1.2-.3.2-.1 0-.2 0-.4-.1s-.4-.1-.7-.1c-.5 0-1 .2-1.4.5s-.7.8-.9 1.4v5.7H230h0zm10.6-9.1c.5 0 1 .1 1.5.3s.8.4 1.2.8c.3.3.6.8.8 1.2.2.5.3 1.1.3 1.7 0 .2 0 .4-.1.5s-.2.1-.3.1h-6c0 .6.1 1.1.2 1.5s.3.8.6 1c.2.3.5.5.9.6.3.1.7.2 1.1.2s.7 0 1-.1.5-.2.7-.3.4-.2.5-.3.3-.1.4-.1.2 0 .3.1l.4.6c-.2.2-.4.4-.7.6s-.6.3-.9.4-.6.2-1 .2c-.3.1-.7.1-1 .1-.6 0-1.2-.1-1.7-.3s-1-.5-1.3-.9c-.4-.4-.7-.9-.9-1.5s-.3-1.3-.3-2c0-.6.1-1.2.3-1.7s.5-1 .8-1.4c.4-.4.8-.7 1.3-.9.6-.3 1.2-.4 1.9-.4h0zm0 1.2c-.8 0-1.3.2-1.8.7-.4.4-.7 1-.8 1.8h4.8c0-.4 0-.7-.1-1s-.2-.6-.4-.8-.4-.4-.7-.5c-.3-.2-.6-.2-1-.2z"/><use xlink:href="#D" x="117.9" y="69.1"/><use xlink:href="#D" x="125.6" y="69.1"/><path d="M261 290.2c0-.2 0-.3.1-.4s.1-.3.2-.4.2-.2.3-.2c.1-.1.3-.1.4-.1s.3 0 .4.1.3.1.4.2.2.2.2.4.1.3.1.4c0 .2 0 .3-.1.4s-.1.2-.2.3-.2.2-.4.2c-.1.1-.3.1-.4.1s-.3 0-.4-.1-.3-.1-.3-.2c-.1-.1-.2-.2-.2-.3s-.1-.3-.1-.4zm9.9 1h-1.7v-12.6h1.7v12.6zm6.5 0v-12.9h1.6v5.3c.4-.4.8-.8 1.3-1 .5-.3 1-.4 1.6-.4.5 0 1 .1 1.4.3s.8.5 1.1.9.5.9.7 1.4c.2.6.2 1.2.2 2 0 .7-.1 1.3-.3 1.8-.2.6-.4 1.1-.8 1.5-.3.4-.7.7-1.2 1-.5.2-1 .4-1.6.4s-1.1-.1-1.5-.3-.8-.5-1-.9l-.1.8c0 .2-.2.3-.4.3h-1v-.2zm4-7.8c-.5 0-1 .1-1.3.4-.4.2-.7.6-1.1 1v4.3c.3.4.6.7.9.8.3.2.7.2 1.1.2.8 0 1.5-.3 1.9-.9s.7-1.4.7-2.5c0-.6-.1-1.1-.2-1.5s-.3-.8-.4-1c-.2-.3-.4-.5-.7-.6-.2-.2-.5-.2-.9-.2h0z"/><use xlink:href="#n" x="132.5"/><use xlink:href="#O" x="-132.8" y="69.2"/><path d="M309.7 282.1c.4 0 .7 0 1.1.1.3.1.6.2.9.4h2.4v.6c0 .2-.1.3-.4.4l-1 .1c.2.4.3.8.3 1.3 0 .4-.1.8-.2 1.2-.2.4-.4.7-.7.9-.3.3-.6.4-1.1.6-.4.1-.9.2-1.3.2s-.8 0-1.2-.1c-.2.1-.3.3-.4.4s-.1.3-.1.4a.55.55 0 0 0 .3.5c.2.1.4.2.7.2s.6.1 1 .1h1.1c.4 0 .7 0 1.1.1l1 .3c.3.1.5.4.7.6a1.69 1.69 0 0 1 .3 1c0 .4-.1.8-.3 1.1-.2.4-.5.7-.8 1-.4.3-.8.5-1.3.7s-1.1.3-1.7.3-1.2-.1-1.7-.2-.9-.3-1.2-.5-.6-.5-.7-.8-.2-.6-.2-.9c0-.4.1-.8.4-1.1s.7-.6 1.1-.7c-.3-.1-.5-.3-.6-.5s-.2-.5-.2-.8c0-.1 0-.3.1-.4 0-.2.1-.3.2-.4s.2-.3.4-.4c.1-.1.3-.2.5-.3a2.41 2.41 0 0 1-1-1c-.2-.4-.4-.9-.4-1.4 0-.4.1-.8.2-1.2.2-.4.4-.7.7-.9s.7-.4 1.1-.6c0-.2.4-.3.9-.3h0zm2.8 9.5c0-.2-.1-.4-.2-.5s-.3-.2-.5-.3-.5-.1-.7-.2c-.3 0-.6-.1-.9-.1h-.9c-.3 0-.6 0-.9-.1-.3.2-.6.4-.8.6s-.3.5-.3.8c0 .2.1.4.2.6s.3.3.5.4.5.2.8.3.7.1 1.1.1.8 0 1.1-.1l.8-.3c.2-.1.4-.3.5-.5.2-.2.2-.5.2-.7h0zm-2.8-4.8c.3 0 .6 0 .8-.1s.4-.2.6-.4.3-.3.4-.6.1-.5.1-.7c0-.5-.2-1-.5-1.3s-.8-.5-1.4-.5-1.1.2-1.4.5-.5.8-.5 1.3c0 .3 0 .5.1.7s.2.4.4.6.4.3.6.4.5.1.8.1z"/><use xlink:href="#l" x="-324.2" y="23.1"/><use xlink:href="#U" x="175.4" y="46.1"/><use xlink:href="#U" x="185.3" y="46.1"/><path d="M342 291.2v-12.9h1.6v5.2a6.42 6.42 0 0 1 1.3-1c.5-.2 1-.4 1.6-.4.5 0 .9.1 1.3.2.4.2.7.4.9.7s.4.7.6 1.1.2.9.2 1.4v5.7h-1.6v-5.7c0-.7-.2-1.2-.5-1.6s-.8-.6-1.4-.6c-.5 0-.9.1-1.3.3s-.8.5-1.1.9v6.6l-1.6.1h0zm13.3-9.1c.5 0 1 .1 1.5.3s.8.4 1.2.8c.3.3.6.8.8 1.2.2.5.3 1.1.3 1.7 0 .2 0 .4-.1.5s-.2.1-.3.1h-5.9c0 .6.1 1.1.2 1.5s.3.8.6 1c.2.3.5.5.9.6.3.1.7.2 1.1.2s.7 0 1-.1.5-.2.7-.3.4-.2.5-.3.3-.1.4-.1.2 0 .3.1l.4.6c-.2.2-.4.4-.7.6s-.6.3-.9.4-.6.2-1 .2c-.3.1-.7.1-1 .1-.6 0-1.2-.1-1.7-.3s-1-.5-1.3-.9c-.4-.4-.7-.9-.9-1.5s-.3-1.3-.3-2c0-.6.1-1.2.3-1.7s.5-1 .8-1.4c.4-.4.8-.7 1.3-.9.5-.3 1.1-.4 1.8-.4h0zm0 1.2c-.8 0-1.3.2-1.8.7-.4.4-.7 1-.8 1.8h4.8c0-.4 0-.7-.1-1s-.2-.6-.4-.8-.4-.4-.7-.5c-.3-.2-.6-.2-1-.2zm9.1 7.9v-12.9h1.6v5.3c.4-.4.8-.8 1.3-1 .5-.3 1-.4 1.6-.4.5 0 1 .1 1.4.3s.8.5 1.1.9.5.9.7 1.4c.2.6.2 1.2.2 2 0 .7-.1 1.3-.3 1.8-.2.6-.4 1.1-.8 1.5-.3.4-.7.7-1.2 1-.5.2-1 .4-1.6.4s-1.1-.1-1.5-.3-.8-.5-1-.9l-.1.8c0 .2-.2.3-.4.3h-1v-.2zm4-7.8c-.5 0-1 .1-1.3.4-.4.2-.7.6-1.1 1v4.3c.3.4.6.7.9.8.3.2.7.2 1.1.2.8 0 1.5-.3 1.9-.9s.7-1.4.7-2.5c0-.6-.1-1.1-.2-1.5s-.3-.8-.4-1c-.2-.3-.4-.5-.7-.6-.3-.2-.6-.2-.9-.2h0zm9.3-1.3c.5 0 1 .1 1.5.3s.8.4 1.2.8c.3.3.6.8.8 1.2.2.5.3 1.1.3 1.7 0 .2 0 .4-.1.5s-.2.1-.3.1h-5.9c0 .6.1 1.1.2 1.5s.3.8.6 1c.2.3.5.5.9.6.3.1.7.2 1.1.2s.7 0 1-.1.5-.2.7-.3.4-.2.5-.3.3-.1.4-.1.2 0 .3.1l.4.6c-.2.2-.4.4-.7.6s-.6.3-.9.4-.6.2-1 .2c-.3.1-.7.1-1 .1-.6 0-1.2-.1-1.7-.3s-1-.5-1.3-.9c-.4-.4-.7-.9-.9-1.5s-.3-1.3-.3-2c0-.6.1-1.2.3-1.7s.5-1 .8-1.4c.4-.4.8-.7 1.3-.9.6-.3 1.1-.4 1.8-.4h0zm0 1.2c-.8 0-1.3.2-1.8.7-.4.4-.7 1-.8 1.8h4.8c0-.4 0-.7-.1-1s-.2-.6-.4-.8-.4-.4-.7-.5c-.3-.2-.6-.2-1-.2z"/><use xlink:href="#D" x="255.1" y="69.1"/><use xlink:href="#U" x="240.9" y="46.1"/><path d="M403.6 291.3c-.7 0-1.2-.2-1.6-.6s-.6-1-.6-1.7v-5.4h-1.1c-.1 0-.2 0-.2-.1s-.1-.1-.1-.3v-.6l1.5-.2.4-2.7c0-.1 0-.2.1-.2s.1-.1.2-.1h.8v3.1h2.5v1.1H403v5.3c0 .4.1.7.3.8.2.2.4.3.7.3.2 0 .3 0 .4-.1s.2-.1.3-.1c.1-.1.2-.1.2-.1s.1-.1.2-.1.2 0 .2.1l.5.7c-.3.3-.6.5-1 .6-.4.2-.8.3-1.2.3h0z"/><use xlink:href="#b" x="-168.9" y="46.1"/><use xlink:href="#R" x="-125.2" y="69.1"/><use xlink:href="#d" x="-194.7" y="46.1"/><path d="M433 279.5c0 .2 0 .3-.1.4s-.1.2-.2.4-.2.2-.4.2c-.1.1-.3.1-.4.1s-.3 0-.4-.1-.2-.1-.4-.2-.2-.2-.2-.4-.1-.3-.1-.4 0-.3.1-.4.1-.3.2-.4.2-.2.4-.2.3-.1.4-.1.3 0 .4.1.3.1.4.2.2.2.2.4.1.2.1.4zm-.4 2.8v8.9H431v-8.9h1.6z"/><use xlink:href="#c" x="-150.2" y="46.2"/><path d="M453.4 282.1c.6 0 1.2.1 1.8.3.5.2 1 .5 1.3.9.4.4.6.9.8 1.4s.3 1.2.3 1.9-.1 1.3-.3 1.9-.5 1-.8 1.4-.8.7-1.3.9-1.1.3-1.8.3c-.6 0-1.2-.1-1.8-.3-.5-.2-1-.5-1.3-.9-.4-.4-.7-.9-.9-1.4-.2-.6-.3-1.2-.3-1.9s.1-1.3.3-1.9.5-1 .9-1.4.8-.7 1.3-.9 1.1-.3 1.8-.3zm0 8c.9 0 1.5-.3 2-.9.4-.6.7-1.4.7-2.5s-.2-1.9-.7-2.5-1.1-.9-2-.9c-.4 0-.8.1-1.2.2-.3.2-.6.4-.8.7s-.4.6-.5 1.1c-.1.4-.2.9-.2 1.4s.1 1 .2 1.4.3.8.5 1c.2.3.5.5.8.7.4.2.7.3 1.2.3h0z"/><use xlink:href="#G" x="282.4" y="69.2"/><use xlink:href="#P" x="20.8" y="69.2"/><path d="M480.3 291.2h-.7c-.2 0-.3 0-.4-.1s-.2-.1-.2-.3l-.2-.8c-.2.2-.5.4-.7.6s-.5.3-.7.4-.5.2-.8.3-.6.1-.9.1-.7 0-1-.1-.6-.2-.8-.4-.4-.4-.5-.7-.2-.6-.2-1.1a1.69 1.69 0 0 1 .3-1c.2-.3.5-.6.9-.9s1-.5 1.7-.6c.7-.2 1.5-.2 2.6-.2v-.7c0-.7-.1-1.2-.4-1.6s-.7-.5-1.3-.5c-.4 0-.7 0-1 .1s-.5.2-.7.3-.4.2-.5.3-.3.1-.4.1-.2 0-.3-.1l-.2-.2-.3-.5c.5-.5 1-.8 1.6-1.1s1.2-.4 1.9-.4c.5 0 .9.1 1.3.2s.7.4 1 .7.5.6.6 1.1.2.9.2 1.4v5.7h.1zm-4-1c.3 0 .5 0 .8-.1s.4-.1.6-.2.4-.2.6-.4c.2-.1.4-.3.5-.5v-1.8c-.7 0-1.3 0-1.8.1s-.9.2-1.2.4c-.3.1-.5.3-.7.5s-.2.4-.2.7c0 .2 0 .4.1.6a1.38 1.38 0 0 0 .3.4c.1.1.3.2.5.2s.3.1.5.1h0zm8.2-12v12.9h-1.6v-12.9h1.6zm6.1 16v-11.9h.9c.2 0 .4.1.4.3l.1 1.1c.4-.5.8-.8 1.3-1.1s1.1-.4 1.7-.4c.5 0 1 .1 1.4.3s.8.5 1.1.9.5.9.7 1.4c.2.6.2 1.2.2 2 0 .7-.1 1.3-.3 1.8-.2.6-.4 1.1-.8 1.5-.3.4-.7.7-1.2 1-.5.2-1 .4-1.6.4-.5 0-1-.1-1.4-.3s-.7-.4-1-.8v3.9l-1.5-.1h0zm4-10.8c-.5 0-1 .1-1.3.4-.4.2-.7.6-1.1 1v4.3c.3.4.6.7.9.8s.7.2 1.1.2c.8 0 1.5-.3 1.9-.9s.7-1.4.7-2.5c0-.6-.1-1.1-.2-1.5s-.2-.8-.4-1c-.2-.3-.4-.5-.7-.6-.3-.2-.6-.2-.9-.2h0zm7.4-5.2v12.9h-1.6v-12.9h1.6z"/><use xlink:href="#O" x="75.1" y="69.2"/><path d="M517.6 282.1c.4 0 .7 0 1.1.1.3.1.6.2.9.4h2.4v.6c0 .2-.1.3-.4.4l-1 .1c.2.4.3.8.3 1.3 0 .4-.1.8-.3 1.2s-.4.7-.7.9-.6.4-1.1.6c-.4.1-.9.2-1.3.2s-.8 0-1.2-.1c-.2.1-.3.3-.4.4s-.1.3-.1.4a.55.55 0 0 0 .3.5c.2.1.4.2.7.2s.6.1 1 .1h1.1c.4 0 .7 0 1.1.1l1 .3c.3.1.5.4.7.6s.3.6.3 1-.1.8-.3 1.1c-.2.4-.5.7-.8 1-.4.3-.8.5-1.3.7s-1.1.3-1.7.3-1.2-.1-1.7-.2-.9-.3-1.2-.5-.6-.5-.7-.8-.2-.6-.2-.9c0-.4.1-.8.4-1.1s.7-.6 1.1-.7c-.3-.1-.5-.3-.6-.5s-.2-.5-.2-.8c0-.1 0-.3.1-.4 0-.2.1-.3.2-.4s.2-.3.4-.4.3-.2.5-.3a2.41 2.41 0 0 1-1-1c-.2-.4-.4-.9-.4-1.4 0-.4.1-.8.3-1.2s.4-.7.7-.9.7-.4 1.1-.6c-.1-.2.4-.3.9-.3h0zm2.7 9.5c0-.2-.1-.4-.2-.5s-.3-.2-.5-.3-.5-.1-.7-.2c-.3 0-.6-.1-.9-.1h-.9c-.3 0-.6 0-.9-.1-.3.2-.6.4-.8.6s-.3.5-.3.8c0 .2.1.4.2.6s.3.3.5.4.5.2.8.3.7.1 1.1.1.8 0 1.1-.1l.8-.3c.2-.1.4-.3.5-.5s.2-.5.2-.7h0zm-2.7-4.8c.3 0 .6 0 .8-.1s.4-.2.6-.4.3-.3.4-.6.1-.5.1-.7c0-.5-.2-1-.5-1.3s-.8-.5-1.4-.5-1.1.2-1.4.5-.5.8-.5 1.3c0 .3 0 .5.1.7s.2.4.4.6.4.3.6.4.4.1.8.1h0z"/><use xlink:href="#P" x="75" y="69.2"/><path d="M528 291.2v-8.9h.9c.2 0 .4.1.4.3l.1 1c.4-.4.8-.8 1.3-1 .5-.3 1-.4 1.7-.4.5 0 .9.1 1.3.2.4.2.7.4.9.7s.4.7.6 1.1.2.9.2 1.4v5.7h-1.6v-5.7c0-.7-.2-1.2-.5-1.6s-.8-.6-1.4-.6c-.5 0-.9.1-1.3.3s-.8.5-1.1.9v6.6H528z"/><use xlink:href="#e" x="-95.3" y="46.1"/><use xlink:href="#e" x="-91.6" y="46.1"/><use xlink:href="#e" x="-87.9" y="46.1"/></g><g fill="#ffe0e6" class="a"><path d="M554.8 285.9v5.3h-1.7v-12.6h3.6c.8 0 1.5.1 2.1.2.6.2 1.1.4 1.4.7.4.3.7.7.8 1.1s.3.9.3 1.4c0 .4-.1.8-.2 1.2s-.3.7-.6 1-.6.6-1 .8-.8.4-1.3.5c.2.1.4.3.6.5l3.7 5H561c-.3 0-.5-.1-.7-.4l-3.3-4.5-.3-.3c-.1-.1-.3-.1-.5-.1h-1.4v.2zm0-1.2h1.8c.5 0 .9-.1 1.3-.2s.7-.3.9-.5c.3-.2.4-.5.6-.8.1-.3.2-.6.2-1 0-.7-.2-1.3-.7-1.7s-1.2-.6-2.2-.6h-1.9v4.8h0zm12.7-2.6c.5 0 1 .1 1.5.3s.8.4 1.2.8.6.8.8 1.2c.2.5.3 1.1.3 1.7 0 .2 0 .4-.1.5s-.2.1-.3.1H565c0 .6.1 1.1.2 1.5s.3.8.6 1 .5.5.9.6c.3.1.7.2 1.1.2s.7 0 1-.1.5-.2.7-.3.4-.2.5-.3.3-.1.4-.1.2 0 .3.1l.4.6c-.2.2-.4.4-.7.6s-.6.3-.9.4-.6.2-1 .2c-.3.1-.7.1-1 .1-.6 0-1.2-.1-1.7-.3s-1-.5-1.3-.9c-.4-.4-.7-.9-.9-1.5s-.3-1.3-.3-2c0-.6.1-1.2.3-1.7s.5-1 .8-1.4c.4-.4.8-.7 1.3-.9.6-.3 1.2-.4 1.8-.4h0zm0 1.2c-.8 0-1.3.2-1.8.7-.4.4-.7 1-.8 1.8h4.8c0-.4 0-.7-.1-1s-.2-.6-.4-.8-.4-.4-.7-.5c-.3-.2-.6-.2-1-.2zm12.2 7.9h-.7c-.2 0-.3 0-.4-.1s-.2-.1-.2-.3l-.2-.8c-.2.2-.5.4-.7.6s-.5.3-.7.4-.5.2-.8.3-.6.1-.9.1-.7 0-1-.1-.6-.2-.8-.4-.4-.4-.5-.7-.2-.6-.2-1.1a1.69 1.69 0 0 1 .3-1c.2-.3.5-.6.9-.9s1-.5 1.7-.6c.7-.2 1.5-.2 2.6-.2v-.7c0-.7-.1-1.2-.4-1.6s-.7-.5-1.3-.5c-.4 0-.7 0-1 .1s-.5.2-.7.3-.4.2-.5.3-.3.1-.4.1-.2 0-.3-.1l-.2-.2-.3-.5c.5-.5 1-.8 1.6-1.1s1.2-.4 1.9-.4c.5 0 .9.1 1.3.2s.7.4 1 .7.5.6.6 1.1.2.9.2 1.4v5.7h.1zm-4-1c.3 0 .5 0 .8-.1s.4-.1.6-.2.4-.2.6-.4c.2-.1.4-.3.5-.5v-1.8c-.7 0-1.3 0-1.8.1s-.9.2-1.2.4c-.3.1-.5.3-.7.5s-.2.4-.2.7c0 .2 0 .4.1.6s.2.3.3.4.3.2.5.2.3.1.5.1h0zm12.7 1c-.2 0-.4-.1-.4-.3l-.1-1.1c-.4.5-.8.8-1.3 1.1s-1 .4-1.7.4c-.5 0-1-.1-1.4-.3s-.8-.5-1.1-.9-.5-.9-.7-1.4c-.2-.6-.2-1.2-.2-2 0-.7.1-1.3.3-1.8s.4-1.1.8-1.5c.3-.4.7-.7 1.2-1 .5-.2 1-.4 1.6-.4.5 0 1 .1 1.4.3s.7.4 1 .8v-4.9h1.6v12.9l-1 .1h0zm-3.1-1.2c.5 0 1-.1 1.3-.4.4-.2.7-.6 1.1-1v-4.3c-.3-.4-.6-.7-.9-.8-.3-.2-.7-.2-1.1-.2-.8 0-1.5.3-1.9.9s-.7 1.4-.7 2.5c0 .6 0 1.1.1 1.5s.2.8.4 1 .4.5.7.6c.3.2.7.2 1 .2h0zm16.7-3c.1.2.1.3.2.5.1-.2.1-.3.2-.5s.1-.3.2-.5l4.3-7.7.2-.2h1.7v12.6h-1.5v-10l-4.3 7.9c-.1.3-.4.4-.6.4h-.4c-.3 0-.5-.1-.6-.4l-4.4-7.9v10h-1.5v-12.6h1.7c.1 0 .2.1.2.2l4.3 7.7c.1.2.2.4.3.5h0zm13.1-4.9c.6 0 1.2.1 1.8.3.5.2 1 .5 1.3.9.4.4.6.9.8 1.4s.3 1.2.3 1.9-.1 1.3-.3 1.9-.5 1-.8 1.4-.8.7-1.3.9-1.1.3-1.8.3c-.6 0-1.2-.1-1.8-.3-.5-.2-1-.5-1.3-.9-.4-.4-.7-.9-.9-1.4-.2-.6-.3-1.2-.3-1.9s.1-1.3.3-1.9.5-1 .9-1.4.8-.7 1.3-.9 1.1-.3 1.8-.3zm0 8c.9 0 1.5-.3 2-.9.4-.6.7-1.4.7-2.5s-.2-1.9-.7-2.5-1.1-.9-2-.9c-.4 0-.8.1-1.2.2-.3.2-.6.4-.8.7s-.4.6-.5 1.1c-.1.4-.2.9-.2 1.4s.1 1 .2 1.4.3.8.5 1c.2.3.5.5.8.7s.7.3 1.2.3h0z"/><use xlink:href="#I" x="406.3" y="69.2"/><path d="M631.8 282.1c.5 0 1 .1 1.5.3s.8.4 1.2.8.6.8.8 1.2c.2.5.3 1.1.3 1.7 0 .2 0 .4-.1.5s-.2.1-.3.1h-5.9c0 .6.1 1.1.2 1.5s.3.8.6 1 .5.5.9.6c.3.1.7.2 1.1.2s.7 0 1-.1.5-.2.7-.3.4-.2.5-.3.3-.1.4-.1.2 0 .3.1l.4.6c-.2.2-.4.4-.7.6s-.6.3-.9.4-.6.2-1 .2c-.3.1-.7.1-1 .1-.6 0-1.2-.1-1.7-.3s-1-.5-1.3-.9c-.4-.4-.7-.9-.9-1.5s-.3-1.3-.3-2c0-.6.1-1.2.3-1.7s.5-1 .8-1.4c.4-.4.8-.7 1.3-.9.6-.3 1.2-.4 1.8-.4h0zm.1 1.2c-.8 0-1.3.2-1.8.7-.4.4-.7 1-.8 1.8h4.8c0-.4 0-.7-.1-1s-.2-.6-.4-.8-.4-.4-.7-.5c-.4-.2-.7-.2-1-.2z"/></g><path d="M120.9 169l-21.9.1 10.9-16.5 11 16.4z" fill="#e47372"/><path d="M81.7 82.3v12.3h-2.3V87v-.5-.6L76 92.7c-.2.4-.5.6-.9.6h-.4c-.2 0-.4 0-.5-.1a.78.78 0 0 1-.4-.4L70.3 86v.6.5 7.6H68V82.3h2 .3.2s.1.1.2.1.1.1.2.2l3.5 6.6.3.6.3.6c.1-.2.2-.4.3-.7l.3-.6 3.4-6.6c.1-.1.1-.2.2-.2s.1-.1.2-.1h.2.3 1.8zm3.9 8.3c.1.8.3 1.4.7 1.8s.9.6 1.5.6c.3 0 .6 0 .8-.1l.6-.3c.2-.1.3-.2.5-.3.1-.1.3-.1.4-.1.2 0 .3.1.4.2l.7.8c-.2.3-.5.5-.8.7s-.6.3-.9.5-.6.2-1 .2c-.3 0-.6.1-1 .1-.6 0-1.2-.1-1.7-.3s-1-.5-1.4-.9-.7-.9-.9-1.5-.3-1.3-.3-2c0-.6.1-1.2.3-1.7s.5-1 .8-1.4c.4-.4.8-.7 1.3-.9s1.1-.3 1.8-.3c.6 0 1.1.1 1.6.3s.9.4 1.2.8c.3.3.6.8.8 1.3s.3 1.1.3 1.7v.4c0 .1 0 .2-.1.3 0 .1-.1.1-.2.1h-.3-5.1zm3.6-1.4c0-.2 0-.5-.1-.7l-.3-.6c-.1-.2-.3-.3-.5-.4s-.5-.1-.8-.1c-.6 0-1 .2-1.3.5s-.5.8-.6 1.4h3.6zm10-1.4c-.1.1-.1.2-.2.2s-.2.1-.3.1-.2 0-.3-.1-.2-.1-.4-.2c-.1-.1-.3-.1-.5-.2s-.4-.1-.7-.1c-.4 0-.7.1-.9.2-.3.1-.5.3-.6.5s-.3.5-.4.9-.1.7-.1 1.1c0 .9.2 1.6.5 2.1.4.5.9.7 1.5.7.2 0 .4 0 .6-.1.2 0 .3-.1.4-.1.1-.1.2-.1.3-.2s.2-.1.2-.2c.1-.1.2-.1.2-.1.1 0 .2-.1.3-.1.2 0 .3.1.4.2l.7.8c-.2.3-.5.5-.8.7s-.6.3-.9.5c-.3.1-.6.2-.9.2s-.6.1-.9.1c-.5 0-1-.1-1.5-.3s-.9-.5-1.3-.9-.7-.9-.9-1.4c-.2-.6-.3-1.2-.3-1.9 0-.6.1-1.2.3-1.8.2-.5.5-1 .8-1.4.4-.4.8-.7 1.3-.9s1.2-.3 1.9-.3 1.3.1 1.8.3 1 .5 1.4.9l-.7.8zm4.2-1c.2-.1.3-.3.5-.4l.6-.3c.2-.1.4-.2.6-.2s.5-.1.7-.1c.5 0 .9.1 1.3.2.4.2.7.4.9.7.3.3.4.6.6 1.1.1.4.2.9.2 1.3v5.6h-2.3v-5.6c0-.5-.1-.9-.3-1.1a1.53 1.53 0 0 0-1-.4c-.3 0-.6.1-.9.2s-.6.3-.8.6v6.3H101V82h2.3v4.8zm10-3.4c0 .2 0 .4-.1.6s-.2.3-.3.5c-.1.1-.3.2-.5.3s-.4.1-.6.1-.4 0-.5-.1c-.2-.1-.3-.2-.5-.3-.1-.1-.2-.3-.3-.5s-.1-.4-.1-.6 0-.4.1-.6.2-.3.3-.5c.1-.1.3-.2.5-.3s.4-.1.5-.1c.2 0 .4 0 .6.1s.3.2.5.3c.1.1.2.3.3.5 0 .2.1.4.1.6zm-.3 2.5v8.8h-2.3v-8.8h2.3zm3.8 4.7c.1.8.3 1.4.7 1.8s.9.6 1.5.6c.3 0 .6 0 .8-.1l.6-.3c.2-.1.3-.2.5-.3.1-.1.3-.1.4-.1.2 0 .3.1.4.2l.7.8c-.2.3-.5.5-.8.7s-.6.3-.9.5-.6.2-1 .2c-.3 0-.6.1-1 .1-.6 0-1.2-.1-1.7-.3s-1-.5-1.4-.9-.7-.9-.9-1.5-.3-1.3-.3-2c0-.6.1-1.2.3-1.7s.5-1 .8-1.4c.4-.4.8-.7 1.3-.9s1.1-.3 1.8-.3c.6 0 1.1.1 1.6.3s.9.4 1.2.8c.3.3.6.8.8 1.3s.3 1.1.3 1.7v.4c0 .1 0 .2-.1.3 0 .1-.1.1-.2.1h-.3-5.1zm3.7-1.4c0-.2 0-.5-.1-.7l-.3-.6c-.1-.2-.3-.3-.5-.4s-.5-.1-.8-.1c-.6 0-1 .2-1.3.5s-.5.8-.6 1.4h3.6zm6-7.2v12.7h-2.3V82h2.3zm14.7 9.6a.76.76 0 0 1 .4.2l1 1.1c-.5.6-1.1 1.1-1.9 1.4-.7.3-1.6.5-2.6.5-.9 0-1.8-.2-2.5-.5s-1.4-.8-1.9-1.3c-.5-.6-.9-1.2-1.2-2s-.4-1.6-.4-2.5c0-.6.1-1.2.2-1.7s.3-1.1.6-1.5l.9-1.3c.4-.4.8-.7 1.2-1 .5-.3.9-.5 1.5-.6.5-.1 1.1-.2 1.7-.2.5 0 .9 0 1.3.1l1.1.3a4.67 4.67 0 0 1 1 .5c.3.2.6.4.8.7l-.9 1.2-.2.2c-.1.1-.2.1-.3.1s-.3 0-.4-.1-.3-.2-.5-.3-.5-.2-.8-.3-.7-.1-1.2-.1-1 .1-1.4.3a4.44 4.44 0 0 0-1.1.8c-.3.4-.5.8-.7 1.3s-.3 1.1-.3 1.8.1 1.3.3 1.8.4 1 .8 1.3c.3.4.7.6 1.1.8s.9.3 1.4.3h.8c.2 0 .5-.1.7-.1s.4-.2.6-.3.4-.2.5-.4c.1-.1.1-.1.2-.1 0-.4.1-.4.2-.4zm6.2-5.8c.7 0 1.3.1 1.8.3s1 .5 1.4.9.7.9.9 1.4c.2.6.3 1.2.3 1.9s-.1 1.3-.3 1.9-.5 1-.9 1.4-.8.7-1.4.9c-.5.2-1.1.3-1.8.3s-1.3-.1-1.8-.3-1-.5-1.4-.9-.7-.9-.9-1.4c-.2-.6-.3-1.2-.3-1.9s.1-1.3.3-1.9.5-1 .9-1.4.8-.7 1.4-.9 1.2-.3 1.8-.3zm0 7.2c.7 0 1.2-.2 1.5-.7s.5-1.1.5-2.1c0-.9-.2-1.6-.5-2.1s-.8-.7-1.5-.7-1.2.2-1.5.7-.5 1.1-.5 2.1c0 .9.2 1.6.5 2.1s.8.7 1.5.7zm13.6-7.1v8.8h-1.4c-.3 0-.5-.1-.6-.4l-.2-.6c-.2.2-.4.3-.5.5-.2.1-.4.3-.6.4s-.4.2-.7.2c-.2.1-.5.1-.8.1-.5 0-.9-.1-1.3-.2s-.7-.4-.9-.7-.4-.6-.6-1.1c-.1-.4-.2-.9-.2-1.3V86h2.3v5.6c0 .5.1.9.3 1.1.2.3.6.4 1 .4.3 0 .6-.1.9-.2s.6-.3.8-.6V86h2.5zm10 0l-3.4 8.8h-2.1l-3.4-8.8h1.9c.2 0 .3 0 .4.1s.2.2.2.3l1.5 4.3.3.9c.1.3.1.6.2.8.1-.3.1-.6.2-.8l.3-.9 1.5-4.3c0-.1.1-.2.2-.3s.2-.1.4-.1h1.8z"/><use xlink:href="#o"/><path d="M182.8 87.3c.3-.5.6-.9 1-1.2s.8-.4 1.3-.4a1.69 1.69 0 0 1 1 .3l-.2 1.7c0 .1-.1.2-.1.2-.1 0-.1.1-.2.1h-.4-.5c-.2 0-.4 0-.6.1a1.38 1.38 0 0 0-.4.3c-.1.1-.2.3-.4.4l-.3.6v5.4h-2.3V86h1.4c.2 0 .4 0 .5.1s.2.2.2.4v.8z"/><use xlink:href="#o" x="15"/><path d="M201 87.7c-.1.1-.1.2-.2.2s-.2.1-.3.1-.2 0-.3-.1-.3-.1-.4-.2-.3-.1-.5-.2-.4-.1-.7-.1c-.4 0-.7.1-.9.2-.2.2-.3.4-.3.6s.1.3.2.4.3.2.5.3.4.2.7.2c.2.1.5.2.8.2l.8.3c.2.1.5.3.7.4.2.2.4.4.5.6a2.39 2.39 0 0 1 .2.9c0 .4-.1.8-.2 1.2-.2.4-.4.7-.7.9-.3.3-.7.5-1.1.6s-1 .2-1.5.2c-.3 0-.6 0-.9-.1s-.6-.1-.8-.2c-.3-.1-.5-.2-.7-.3s-.4-.3-.6-.4l.5-.9c.1-.1.1-.2.2-.2.1-.1.2-.1.4-.1.1 0 .3 0 .4.1s.3.1.4.2.3.2.5.2c.2.1.5.1.8.1.2 0 .4 0 .6-.1s.3-.1.4-.2.2-.2.2-.3.1-.2.1-.3c0-.2-.1-.3-.2-.5-.1-.1-.3-.2-.5-.3s-.4-.2-.7-.2c-.3-.1-.5-.2-.8-.2l-.8-.3c-.3-.1-.5-.3-.7-.5s-.4-.4-.5-.7-.2-.6-.2-1 .1-.7.2-1 .4-.6.6-.9c.3-.2.6-.4 1.1-.6.4-.1.9-.2 1.5-.2s1.2.1 1.7.3.9.5 1.3.8l-.8 1.1zm-126.5 50c.1 0 .2 0 .3.1l.7.8c-.4.5-.9.9-1.5 1.2s-1.3.4-2.2.4c-.8 0-1.4-.1-2-.4s-1.1-.6-1.5-1.1-.8-1-1-1.6-.3-1.3-.3-2.1.1-1.5.4-2.1.6-1.2 1.1-1.6c.5-.5 1-.8 1.6-1.1s1.3-.4 2.1-.4 1.4.1 2 .4c.6.2 1 .6 1.4 1l-.6.9c0 .1-.1.1-.1.1-.1 0-.1.1-.2.1s-.2 0-.3-.1-.3-.2-.4-.3c-.2-.1-.4-.2-.7-.3s-.6-.1-1-.1c-.5 0-.9.1-1.3.2-.4.2-.7.4-1 .7s-.5.7-.7 1.1-.2.9-.2 1.5.1 1.1.2 1.5.4.8.7 1.1.6.5 1 .7.8.2 1.2.2h.7c.2 0 .4-.1.6-.1.2-.1.3-.1.5-.2s.3-.2.5-.4l.1-.1h-.1zm8.8-7.7v1.5h-4.5v2.8h3.5v1.4h-3.5v2.9h4.5v1.5h-6.4V130h6.4zm11.3 5c0 .7-.1 1.4-.4 2.1-.2.6-.6 1.2-1 1.6-.4.5-1 .8-1.6 1.1s-1.3.4-2.1.4-1.5-.1-2.1-.4-1.2-.6-1.6-1.1-.8-1-1-1.6-.4-1.3-.4-2.1c0-.7.1-1.4.4-2.1.2-.6.6-1.2 1-1.6s1-.8 1.6-1.1 1.3-.4 2.1-.4 1.5.1 2.1.4 1.2.6 1.6 1.1.8 1 1 1.6c.3.7.4 1.4.4 2.1zm-1.9 0c0-.6-.1-1.1-.2-1.5s-.4-.8-.6-1.1c-.3-.3-.6-.5-1-.7s-.8-.2-1.3-.2-.9.1-1.3.2c-.4.2-.7.4-1 .7s-.5.7-.6 1.1-.2.9-.2 1.5.1 1.1.2 1.5.4.8.6 1.1c.3.3.6.5 1 .7s.8.2 1.3.2.9-.1 1.3-.2.7-.4 1-.7.5-.7.6-1.1.2-.9.2-1.5zm5.8.2h3.6v1.4h-3.6v-1.4zm13.5-3.4c-.1.1-.1.2-.2.2s-.1.1-.2.1-.2 0-.3-.1a.76.76 0 0 0-.4-.2c-.2-.1-.3-.2-.6-.2-.2-.1-.5-.1-.8-.1s-.5 0-.7.1-.4.2-.5.3a1.38 1.38 0 0 0-.3.4c-.1.2-.1.3-.1.5s.1.4.2.6.3.3.5.4.5.2.7.3l.9.3c.3.1.6.2.9.4.3.1.5.3.7.5a3.04 3.04 0 0 1 .5.7c.1.2.2.7.2 1.1 0 .5-.1.9-.2 1.3-.2.4-.4.7-.7 1s-.7.5-1.1.7-.9.3-1.5.3c-.3 0-.6 0-1-.1l-.9-.3c-.3-.1-.6-.3-.8-.4-.2-.2-.5-.3-.7-.5l.5-.9.2-.2c.1 0 .2-.1.2-.1.1 0 .2 0 .4.1.1.1.3.2.5.3s.4.2.7.3.5.1.9.1c.5 0 1-.1 1.2-.4.3-.3.4-.6.4-1.1 0-.3-.1-.5-.2-.7s-.3-.3-.5-.4-.5-.2-.7-.3l-.9-.3-.9-.3c-.3-.1-.5-.3-.7-.5s-.4-.5-.5-.8a3.73 3.73 0 0 1-.2-1.2c0-.4.1-.7.2-1.1.1-.3.4-.7.6-.9a4.31 4.31 0 0 1 1-.7c.4-.2.9-.2 1.4-.2.6 0 1.1.1 1.7.3a2.87 2.87 0 0 1 1.3.8l-.2.9zm2 8.3v-7.2h1.1c.2 0 .4.1.4.3l.1.5.4-.4c.1-.1.3-.2.4-.3.2-.1.3-.2.5-.2s.4-.1.6-.1c.5 0 .8.1 1.1.4.3.2.5.6.7 1 .1-.2.3-.4.4-.6s.4-.3.6-.4.4-.2.6-.2c.2-.1.5-.1.7-.1.4 0 .7.1 1.1.2.3.1.6.3.8.5s.4.5.5.9a3.73 3.73 0 0 1 .2 1.2v4.6h-1.7v-4.6c0-.5-.1-.8-.3-1s-.5-.3-.9-.3c-.2 0-.3 0-.5.1s-.3.1-.4.3-.2.3-.3.4c-.1.2-.1.4-.1.6v4.6h-1.7v-4.6c0-.5-.1-.8-.3-1s-.5-.3-.9-.3c-.2 0-.5.1-.7.2s-.4.3-.6.5v5.3H114zm17.4 0h-.8c-.2 0-.3 0-.4-.1-.1 0-.2-.1-.2-.3l-.2-.5c-.2.2-.4.3-.5.4-.2.1-.4.2-.5.3s-.4.1-.6.2c-.2 0-.4.1-.7.1s-.6 0-.8-.1c-.3-.1-.5-.2-.7-.4s-.3-.4-.4-.6-.2-.5-.2-.9c0-.3.1-.5.2-.8s.4-.5.7-.7.8-.4 1.3-.5a10.61 10.61 0 0 1 2.1-.2v-.4c0-.5-.1-.8-.3-1.1-.2-.2-.5-.3-.9-.3-.3 0-.5 0-.7.1s-.3.1-.5.2a.76.76 0 0 1-.4.2c-.1.1-.2.1-.4.1-.1 0-.2 0-.3-.1s-.2-.1-.2-.2l-.3-.6c.8-.8 1.8-1.1 3-1.1.4 0 .8.1 1.1.2s.6.3.8.6c.2.2.4.5.5.9.1.3.2.7.2 1.1v4.5zM128 139h.5c.2 0 .3-.1.4-.1.1-.1.3-.1.4-.2s.2-.2.4-.3v-1.2c-.5 0-.9 0-1.3.1-.3.1-.6.1-.8.2s-.4.2-.4.3c-.1.1-.1.3-.1.4 0 .3.1.5.3.7s.3.1.6.1zm5.1 1.1v-7.2h1c.2 0 .3 0 .4.1s.1.2.1.3l.1.9c.3-.4.6-.8.9-1s.7-.4 1.2-.4c.4 0 .6.1.9.2l-.2 1.3c0 .1 0 .1-.1.2 0 0-.1.1-.2.1h-.3-.5c-.4 0-.7.1-.9.3s-.5.5-.7.9v4.5h-1.7zm8.1.1c-.6 0-1.1-.2-1.4-.5-.3-.4-.5-.8-.5-1.5v-4h-.7c-.1 0-.2 0-.2-.1-.1-.1-.1-.2-.1-.3v-.7l1.2-.2.4-2c0-.1.1-.2.1-.2.1-.1.2-.1.3-.1h.9v2.3h1.9v1.2h-1.9v3.9c0 .2.1.4.2.5a.76.76 0 0 0 .4.2h.3c.1 0 .1-.1.2-.1s.1-.1.1-.1h.1.1l.1.1.5.8c-.3.2-.5.4-.9.5-.5.3-.8.3-1.1.3zm7.8-1.5c.4 0 .8 0 1.1-.1l.9-.3v-1.8h-1.3c-.1 0-.2 0-.3-.1s-.1-.2-.1-.2V135h3.4v4.1l-.8.5c-.3.1-.6.3-.9.3-.3.1-.7.2-1 .2-.4 0-.7.1-1.2.1-.7 0-1.4-.1-2-.4s-1.2-.6-1.6-1.1c-.5-.5-.8-1-1.1-1.6s-.4-1.3-.4-2.1.1-1.5.4-2.1c.2-.6.6-1.2 1.1-1.6s1-.8 1.7-1.1c.6-.3 1.4-.4 2.2-.4s1.5.1 2.1.4 1.1.6 1.5 1l-.5.9c-.1.2-.2.3-.4.3-.1 0-.2 0-.3-.1s-.3-.2-.5-.3-.3-.2-.5-.2c-.2-.1-.4-.1-.6-.2-.2 0-.5-.1-.8-.1-.5 0-1 .1-1.4.3s-.7.4-1 .7-.5.7-.7 1.1-.2.9-.2 1.5.1 1.1.2 1.6c.2.5.4.8.7 1.2.3.3.6.6 1 .7.3 0 .8.1 1.3.1zm8.3-5.9a3.73 3.73 0 0 1 1.2.2c.4.1.7.4 1 .6s.5.6.6 1c.2.4.2.9.2 1.4v.3c0 .1 0 .2-.1.2l-.1.1h-.2-4.4c.1.7.2 1.3.6 1.6s.8.5 1.4.5c.3 0 .5 0 .7-.1s.4-.1.5-.2c.2-.1.3-.2.4-.2s.2-.1.3-.1h.2c.1 0 .1.1.1.1l.5.6-.6.6c-.2.2-.5.3-.7.4-.3.1-.5.2-.8.2s-.5.1-.8.1c-.5 0-1-.1-1.4-.2s-.8-.4-1.1-.7-.6-.7-.7-1.2c-.2-.5-.3-1-.3-1.7 0-.5.1-1 .2-1.4.2-.4.4-.8.7-1.1a4.44 4.44 0 0 1 1.1-.8c.4-.2 1-.2 1.5-.2zm0 1.3c-.5 0-.9.1-1.2.4s-.5.7-.5 1.2h3.2c0-.2 0-.4-.1-.6s-.2-.4-.3-.5-.3-.3-.5-.4c-.1-.1-.3-.1-.6-.1zm7.5-1.3a3.73 3.73 0 0 1 1.2.2c.4.1.7.4 1 .6s.5.6.6 1c.2.4.2.9.2 1.4v.3c0 .1 0 .2-.1.2l-.1.1h-.2-4.4c.1.7.2 1.3.6 1.6s.8.5 1.4.5c.3 0 .5 0 .7-.1s.4-.1.5-.2c.2-.1.3-.2.4-.2s.2-.1.3-.1h.2c.1 0 .1.1.1.1l.5.6-.6.6c-.2.2-.5.3-.7.4-.3.1-.5.2-.8.2s-.5.1-.8.1c-.5 0-1-.1-1.4-.2s-.8-.4-1.1-.7-.6-.7-.7-1.2c-.2-.5-.3-1-.3-1.7 0-.5.1-1 .2-1.4.2-.4.4-.8.7-1.1a4.44 4.44 0 0 1 1.1-.8c.4-.2.9-.2 1.5-.2zm0 1.3c-.5 0-.9.1-1.2.4s-.5.7-.5 1.2h3.2c0-.2 0-.4-.1-.6s-.2-.4-.3-.5-.3-.3-.5-.4c-.1-.1-.3-.1-.6-.1zm6.3-4.4v6h.3.3c.1 0 .1-.1.2-.2l1.8-2.2c.1-.1.2-.2.3-.2.1-.1.2-.1.4-.1h1.6l-2.2 2.7c-.1.1-.2.2-.2.3-.1.1-.2.2-.3.2.1.1.2.2.3.2.1.1.1.2.2.3l2.4 3.5h-1.6c-.1 0-.2 0-.3-.1-.1 0-.2-.1-.3-.2l-1.8-2.7c-.1-.1-.1-.2-.2-.2h-.3-.4v3.3h-1.7v-10.4h1.5zm8.5 12.4c-.1.1-.1.2-.2.3s-.2.1-.4.1h-1.3l1.3-2.9-2.9-6.6h1.5c.1 0 .2 0 .3.1l.2.2 1.5 3.7c.1.1.1.2.1.4s.1.3.1.4c0-.1.1-.3.1-.4s.1-.3.1-.4l1.4-3.7c0-.1.1-.2.2-.2.1-.1.2-.1.3-.1h1.4l-3.7 9.1z"/></svg>