<svg xmlns="http://www.w3.org/2000/svg" viewBox="0 0 70 70" xmlns:v="https://vecta.io/nano"><path fill="#bcc5cb" d="M64.6 70H5.4c-3 0-5.4-2.4-5.4-5.4V5.4C0 2.4 2.4 0 5.4 0h59.3c3 0 5.4 2.4 5.4 5.4v59.3c-.1 2.9-2.5 5.3-5.5 5.3z"/><path fill-rule="evenodd" fill="#f8f8f8" d="M35.1 46.3l-2.9 2.4c.9 4.8 2 9.4 2.9 13.9l2.8-13.9c-1-.7-1.9-1.6-2.8-2.4zm-.2-3.8c-6.1 0-11.2-6.2-11.2-13.8-1.1-2.8-.4-12.5 6.1-12.3 7.2-3.7 12.3.4 15.8 2.8 1.3 2.6 2 6.6.6 9 .1 7.9-4.9 14.3-11.3 14.3zm0-1.5c-5.3 0-9.7-5.5-9.7-12.3 0-1.1.2-2 .2-2.8.7-1.8 2.4-2.8 3.7-1.7 4.4 3.7 9.7 3.5 14.7 2.8 1.3-.2 1.1 1.3.9 2.4-.3 6.3-4.5 11.6-9.8 11.6zM12 70c0-5.3.2-10.6 0-15.8 0-4.4 2-5.3 5.3-6.4l8.4-3.1c.7-.7 1.5-1.7 2-2.4 2.4.9 5 2 7.3 2.9 2.4-.9 4.8-2 7.2-2.9.7.7 1.3 1.7 2 2.4l8.6 3.1c3.3 1.1 5.1 2 5.1 6.4V70H12zm23.5-5.1l8.6-19.3c.6.9 1.3 2 2 2.9-1.1 1.1-2.2 2.2-3.1 3.3.7.9 1.7 1.8 2.6 2.8-3.4 3.3-6.7 6.8-10.1 10.3zm-1 0l-8.4-19.3c-.7.9-1.5 2-2 2.9.9 1.1 2 2.2 3.1 3.3l-2.8 2.8c3.4 3.3 6.8 6.8 10.1 10.3z"/></svg>